<?xml version="1.0" encoding="utf-8"?>
<!-- Generator: Adobe Illustrator 21.0.0, SVG Export Plug-In . SVG Version: 6.00 Build 0)  -->
<svg version="1.1" id="Layer_1" xmlns="http://www.w3.org/2000/svg" xmlns:xlink="http://www.w3.org/1999/xlink" x="0px" y="0px"
	 viewBox="0 0 512 512" style="enable-background:new 0 0 512 512;" xml:space="preserve">
<style type="text/css">
	.st0{fill:#5A585B;}
	.st1{fill:#444240;}
	.st2{fill:#E8EBE3;}
	.st3{fill:#134A2D;}
	.st4{fill:#00F77A;}
	.st5{fill:#26945A;}
	.st6{fill:#B01A2A;}
	.st7{fill:#453326;}
	.st8{fill:#ED774A;}
	.st9{fill:#A9835B;}
	.st10{fill:#8A654C;}
	.st11{fill:#5981F8;}
	.st12{fill:#3D49CC;}
	.st13{fill:#2D417C;}
	.st14{fill:#E6EEFF;}
	.st15{fill:#072238;}
	.st16{fill:#0000FF;}
	.st17{fill:#FFFFFF;}
	.st18{fill:#8A8A8A;}
	.st19{fill:#B8B8B8;}
	.st20{fill:#DDDDDD;}
	.st21{fill:#C02D00;}
	.st22{fill:#1E9886;}
</style>
<g>
	<polygon class="st0" points="44.4,260.3 215.5,161.5 386.6,260.3 215.5,359.1 	"/>
	<path class="st1" d="M412.7,206.6L215.9,320.2c-11.4-6.6-135.5-79.7-156.1-90.3c-13.2-6.8-27.3-13.9-36.2-26.4
		c-4.4-6.2-8.1-12.9-10.7-20c-1.6-4.3-2.8-8.7-4.3-13c-1.6-4.6-3.3-9.3-3.7-14.2c-0.1-1.2,17.7-10.9,19.4-11.6
		C46.6,133.3,196,59.5,198.2,57.3c0,1.4,1,3.2,1.4,4.5c0.6,1.8,1.3,3.6,2,5.4c1.5,3.6,3.2,7.2,5.2,10.6c2.5,4.3,5.4,8.4,8.6,12.3
		c2.2,2.6,4.2,5,7.1,6.6c1.7,0.9,3.4,2,5.1,2.9c5.9,3.4,11.8,6.8,17.7,10.3c8.4,4.9,16.9,9.7,25.3,14.6c9.9,5.7,19.9,11.5,29.8,17.2
		c10.5,6,20.9,12.1,31.4,18.1c10,5.8,19.9,11.5,29.9,17.3c8.5,4.9,17,9.8,25.4,14.7c6,3.5,12,6.9,18,10.4
		C407.6,203.7,410.2,205.1,412.7,206.6z"/>
	<path class="st2" d="M405.5,205.6L215.8,315.1c0,0-68.3-39.2-119.3-68.3c-2.1-1.2-4.2-2.4-6.3-3.6c-22.7-12.9-41-23.2-46.5-26.2
		c-8.2-4.3-14.7-11.8-19.9-19.4c-1.8-2.7-3.6-5.6-5.2-8.4c-1.5-2.7-12-31-9.6-32.1c20.4-10.4,41-20.8,61.4-31.2s41-20.8,61.4-31.2
		s40.9-20.9,61.3-31.3c1.1-0.5,2.2-1.2,3.3-1.6c1.5,5.2,3.7,10.1,6.3,14.7c4.7,8.3,10.3,17.8,18.8,22.7c3.7,2.1,7.5,4.3,11.2,6.5
		c6.7,3.9,13.3,7.7,19.9,11.5c8.6,5,17.3,9.9,25.9,14.9c9.7,5.6,19.4,11.2,29.1,16.8c9.9,5.7,19.7,11.4,29.6,17.1
		c9.1,5.2,18.2,10.5,27.3,15.8c7.4,4.3,14.8,8.6,22.3,12.8c4.8,2.9,9.6,5.6,14.5,8.4C402.7,204,404.1,204.8,405.5,205.6z"/>
	<g>
		<g>
			<polygon class="st3" points="188.3,104 144,153.2 74.8,113.3 139.5,44.1 			"/>
		</g>
		<polygon class="st4" points="142.8,147.8 80.4,111.8 138.7,49.5 		"/>
		<polygon class="st5" points="138.7,49.5 182.7,103.5 142.8,147.8 		"/>
	</g>
	<polygon class="st6" points="191.6,276.4 200.6,277.8 226.5,230.5 331.2,291.6 338,288.2 233.3,227.2 323.9,217.2 321.8,212.4 
		220.7,223.5 	"/>
	<g>
		<g>
			<polygon class="st7" points="225.6,165.5 225.6,214.5 178.7,241.6 131.7,214.5 131.7,165.5 178.7,138.3 			"/>
		</g>
		<polygon class="st8" points="135.9,167.7 178.6,143 221.4,167.7 178.6,192.3 		"/>
		<polygon class="st9" points="135.9,212.3 135.9,167.7 178.6,192.3 178.6,236.9 		"/>
		<polygon class="st10" points="178.6,236.9 178.6,192.3 221.4,167.7 221.4,212.3 		"/>
	</g>
	<g>
		<path class="st11" d="M268.5,105.1c0,8.5-2.6,16.9-7.1,24c-0.2,0.2-0.4,0.5-0.5,0.8c-9.2,12.7-24.9,20.6-40.9,19.2
			c-1.2-0.1-2.5-0.3-3.7-0.5c-0.3,0-0.7-0.1-1-0.1c-10.7-2.2-20.4-8.5-26.8-17.3c-20.8-28.7,0.3-70.3,35.8-70.3
			C248.2,60.9,268.5,81.2,268.5,105.1z"/>
		<path class="st12" d="M208.7,144.6c-4.2,0.4-8.1-2.5-11.2-5c-3-2.4-5.9-4.9-8.4-7.8c-4.1-4.7-6.7-10.5-8-16.6c-0.6-2.9-1-6-1.1-9
			c0-1,0.9-7.4,0.5-7.9c4.3,5.4,7.4,11.2,13.2,15.7s12.6,7.6,19.9,8.7c20.9,3.1,42.7-12,46-33.2c0.5-3.4,0.3-6.7,0.7-10
			c1.4,1.9,2.7,3.9,3.7,6.1c2.9,6.1,4.5,12.8,4.5,19.6c0.1,20.1-14.8,37.8-34.1,42.7c-10,2.5-20.9,1.4-30.1-3.3
			c-7.3-3.7-13.8-9.6-17.9-16.7c1.1,1,2.5,1.9,3.7,2.8c2.5,1.9,5,3.7,7.4,5.6c2.5,1.9,5,3.7,7.4,5.6
			C206.2,142.7,207.5,143.9,208.7,144.6z"/>
		<path class="st13" d="M269.9,104c0,25-20.3,45.4-45.4,45.4c-3.2,0-6.2-0.3-9.2-0.9c11.1-0.1,22.2-3.7,31.1-10.5
			c15.2-11.7,22.9-32.3,19.2-51.1c-0.2-0.9-0.4-1.9-0.4-2.8C268.2,90,269.9,96.8,269.9,104z"/>
		<path class="st13" d="M261.9,77.5c-11.6-16-33.9-23.2-52.7-17.2l-0.9,0.3c-18.7,6.4-32.2,25.7-31.8,45.4
			c0.2,19.7,14.3,38.5,33.1,44.5c18.9,5.9,41.1-1.6,52.6-17.6C273.6,116.9,273.5,93.5,261.9,77.5z M258.4,130.4
			c-10.4,14.5-30.5,21.2-47.5,15.8c-17.1-5.3-29.7-22.3-30-40.2c-0.3-17.8,12-35.2,28.8-41l0.8-0.3c17-5.5,37.1,1.1,47.7,15.5
			C268.8,94.6,268.8,115.8,258.4,130.4z"/>
		<path class="st14" d="M217.3,70c0.9,0.4,1.8,1,2.6,1.9c5,5.6-2.2,12.4-7,15c-4.6,2.6-12.2,3.8-15-2.1
			C193.6,75.5,209.8,66.7,217.3,70z"/>
	</g>
	<polygon class="st15" points="249.3,158.6 323.7,74.3 318.5,102 377.6,68.8 377.6,101 318.5,134.2 323.7,155.8 	"/>
	<polygon class="st16" points="377.7,73.1 377.7,103 318.8,135.8 323.7,155.7 269.2,157.9 260.7,158.2 254.9,158.4 322.2,82.1 
		318.8,106 	"/>
	<polygon class="st17" points="377.7,92.2 377.7,96.7 269.2,157.9 260.7,158.2 	"/>
</g>
<g>
	<g id="_x34_Y8Gtn.tif">
		<g>
			<path class="st0" d="M477.9,444.5c0.7,1,3.6,0.8,4.8,1.1c1.8,0.4,3.5,0.8,5.3,0.4c0.8-0.2,1.6-0.5,2.4-0.6
				c0.8-0.2,1.7-0.1,2.6-0.1c2,0,3.9,0,5.9,0.3c1.5,0.2,3-0.1,4.5,0.1c1,0.1,1.1,0.4,2,0.9c0.6,0.3,1.1,0.4,1.7,0.6
				c0.4,0.1,1.2,0,1.5,0.3c2.6,1.6-0.9,4.7-2.6,5.4c-1.1,0.4-2.4,0.5-3.6,0.6c-1.3,0.1-2.6,0.4-3.9,0.4c-2.6,0.1-5.2-1.1-7.8-0.8
				c-1,0.1-2,0.4-3,0.3c-1.2,0-2.6-0.3-3.8,0.1c-0.9,0.2-1.5,0.6-2.4,0.7c-1,0.1-2,0.4-3,0.4c-2,0-3.8,0.4-5.8,0.4
				c-2.2,0-3.9-0.7-6-1.3c-0.9-0.3-1.8-0.6-2.6-1.1c-0.6-0.5-0.9-0.9-1.7-1.2c-0.7-0.3-1.7-0.8-2.4-0.9c0.2-0.7,1.8-1.7,2.4-2
				c0.8-0.4,1.2-0.3,2.1-0.4c1.9-0.3,3.9-1.5,5.5-2.4"/>
			<path class="st0" d="M441.7,447.7c1.2,0.2,2.3,0.4,3.5,0.4c1.8,0,3.7,0,5.5,0c1.2,0,2.3,0.2,3.5,0.4c1.4,0.3,2.7,0.2,4.1,0.2
				c1.7,0.1,3.7,0.1,5.3,0.7c-0.1,1-2.4,1.2-3.1,1.2c-1.1,0-2.1-0.3-3.1-0.2c-1.1,0.2-2.3,0.3-3.4,0.1c-1.2-0.3-2,0.1-3.1,0.3
				c-1.2,0.2-2.3-0.1-3.5,0.2c-1.2,0.2-2.4,0.5-3.6,0.7c-1.9,0.3-3.8,1-5.7,1.4c-1.3,0.3-2.6,0.4-3.9,0.6c-0.9,0.1-1.7,0.3-2.6,0.4
				c-2.9,0.5-5.9,0.5-8.9,0.9c-1,0.1-1.8,0.4-2.9,0.4c-1.3,0-2.5,0-3.8,0c-1.1,0-2.1-0.4-3.2-0.4c-0.9-0.1-1.8,0-2.6,0
				c-2.3,0-4.4-0.8-6.7-0.8c-1.6,0-3.1-0.4-4.8-0.4c-0.6,0-1.2,0.1-1.8,0c-0.7-0.1-1.1-0.4-1.9-0.4c-1.1,0-2-0.4-3-0.4
				c-0.5,0-1,0.1-1.4-0.1c-0.6-0.2-1-0.8-1.6-1c-1.1-0.4-1.9-0.9-3-1.6c-0.7-0.5-1.7-0.7-1.1-1.5c0.1-0.1,1-0.6,1.2-0.7
				c0.8-0.4,1.6-0.3,2.5-0.3c1.2,0,2.1-0.1,3.2-0.3c2.5-0.5,5.2-0.8,7.8-1c1.7-0.1,3.2,0.4,4.9,0.5c5.2,0.2,10.4-0.1,15.6,0.4
				c0.9,0.1,1.7,0.4,2.7,0.4c0.8,0,1.4,0.2,2.2,0.4c1,0.2,2.3,0,3.4,0c1.2,0,2.1-0.2,3.3-0.3c1-0.1,1.8,0.4,2.8,0.4s1.7-0.3,2.7-0.2
				c0.8,0.1,1.2-0.2,1.9-0.4C439.9,447.5,440.8,447.6,441.7,447.7z"/>
			<path d="M492.5,431.9c0-0.6,0-1.2,0-1.8c-0.4,0.1-0.4-0.2-0.6-0.5c-0.9-1.6-1.3-3.4-2.2-5c-1.7-3.3-3.8-6.4-5.4-9.8
				c-0.3-0.6-0.5-1.1-0.9-1.6c-0.8-1-2-1.8-2.5-3c-0.4-0.8-0.3-1.8-0.5-2.7c-0.2-1.1-0.5-2.1-0.7-3.1s-0.6-1.8-0.9-2.7
				c-0.3-0.9-0.3-1.8-0.6-2.7c-0.4-1.6-0.8-3.3-1.1-4.9c-0.6-2.9-1.2-5.8-2.1-8.6c-0.4-1.5-1.2-2.9-2.1-4.1
				c-0.8-1.1-1.2-2.7-1.8-3.9c-0.9-2-2.1-3.7-3.4-5.4c-0.5-0.7-1.1-1.1-1.6-1.7c-0.8-0.8-1.1-1.7-1.7-2.7c-1.1-2.1-1.9-4.2-2.4-6.5
				c-0.5-1.9-0.5-3.8-0.5-5.8c0-3,0-6.1,0.6-9.1s0.9-5.9,1.4-8.9c0.3-1.5,0.2-3,0.6-4.4c0.3-1.4,0.5-2.8,0.8-4.2
				c0.2-1.2,0.8-2.3,1.1-3.5c0.5-1.5,1-2.9,1.3-4.4c0.1-0.8,0.3-1.6,0.4-2.3c0.1-0.6,0.3-1.2,0.5-1.8c0.1-0.6,0.2-1.3,0.3-2
				c0.1-0.5,0.3-1,0.4-1.5s0.1-1,0.3-1.5c0.2-0.6,0.6-1.1,0.7-1.7c0.3-1.3,0.8-2.6,1.3-3.8c0.3-0.7,0.4-1.4,0.7-2.1
				c0.6-1.7,1.4-3.8,1.4-5.7c0-1.5-0.8-3.1-1.2-4.5c-0.2-0.8-0.5-1.4-0.8-2.1c-0.3-0.6-0.3-0.8-0.1-1.5c0.1-0.7-0.1-1.8,0.2-2.4
				c0.4-0.8,1.6-1.3,2.2-2c0.8-1,1.8-1.7,2.7-2.5c0.5-0.5,1.1-0.9,1.5-1.4s0.7-1.1,1.1-1.6c0.7-0.7,0.6-0.9,0.6-1.8
				c0-0.8,0.4-1.6,0.4-2.5c0-1-0.3-1.9-0.4-2.9c-0.1-1.2,0-2.5,0-3.7c0-1.7,0.4-3.3,0.4-5c0-1.8-0.2-3.6-0.4-5.4
				c-0.1-1.1-0.2-2.4-0.5-3.5c-0.1-0.4-0.3-0.7-0.3-1.1c-0.2-1.3-0.5-2.6-0.7-3.9c-0.2-1.2-0.4-2.4-0.6-3.6
				c-0.1-0.9-0.2-1.8-0.4-2.6c-0.4-1.4-0.6-2.8-1.1-4.2c-0.2-0.5-0.5-1-0.8-1.5c-0.2-0.5-0.3-1.1-0.5-1.5s-0.7-0.7-1-1
				c-0.4-0.4-0.9-0.8-1.2-1.4c-0.5-0.8-1-1.8-1.3-2.7s-0.1-1.9-0.1-2.8c0-1.8-0.2-3.6,0.2-5.4c0.2-0.8,0.6-1.6,0.7-2.4
				c0.1-0.8,0-1.7,0-2.5c0-2.3,0.5-4.7,1.1-7c0.5-1.9,1.4-3.6,1.7-5.5c0.4-2.3,2-4.7,1.8-7.1c-0.1-1.6-0.5-3.3-0.7-5
				c-0.6-4.2-0.9-8.5-1.3-12.8c-0.4-4.5-1-8.9-1.7-13.3c-0.7-4.6-0.9-9.3-1.5-13.9c-0.2-1.7-0.8-3.3-1.2-5c-0.3-1.2-0.2-2.3-0.4-3.4
				c-0.3-1.6-1.2-3-1.7-4.5c-0.3-0.9-0.9-1.6-1.2-2.6c-0.4-1.3-1.2-2.6-2.1-3.6c-0.2-0.2-0.3-0.3-0.6-0.4c-0.1-0.2-0.1-0.5-0.1-0.8
				c-0.3-0.5-0.8-0.9-1.2-1.3c-0.9-0.9-2-1.5-3-2.5c-2.7-2.8-4.4-6.2-6.7-9.3c-1.2-1.6-2.9-3-4.7-3.9c-1-0.5-1.8-1-2.7-1.7
				c-0.4-0.4-0.8-0.6-1.3-0.9c-0.2,0-0.5-0.1-0.7-0.1c-0.4-0.4-0.5-0.9-1-1.2c-0.6-0.5-1.4-0.9-2.2-1.2c-0.9-0.4-2-0.8-3-1
				c-2.4-0.3-4.5,0.2-6.7,1.2c-1.7,0.7-3.4,1.1-5.2,1.6c-1.8,0.5-3.3,1.5-4.8,2.6c-1,0.8-1.8,1.8-2.9,2.6c-0.9,0.7-2,1.1-2.8,1.9
				c-1.7,1.7-4.5,1.6-5.8,3.8c-0.1,0.2-0.5,0.3-0.7,0.3c-0.8-0.1-1.8,0.2-2.2,0.9c-0.2,0.3-0.2,0.7-0.4,1.1
				c-0.2,0.4-0.6,0.8-0.8,1.3c-0.3,0.5-0.5,1.1-0.6,1.7c-0.2,0.8-0.6,1.4-1,2.2c-0.2,0.4-0.3,0.7-0.5,1s-0.4,0.5-0.5,0.7
				c-0.3,0.6-0.5,1.4-1.2,1.4c-0.8,0.1-1.5-0.1-2.3,0.1c-0.9,0.2-1.4-0.2-2.3-0.4c-0.5-0.1-0.9-0.1-1.4,0.1
				c-0.6,0.2-0.8,0.3-1.4,0.3c-0.3,0-0.6,0.2-0.9,0.3c-0.7,0.3-1.4,0.5-2,1.1c-1.1,0.9-2.2,1.7-3.4,2.4c-0.7,0.5-1.2,1.1-1.8,1.7
				c-0.5,0.5-1,1-1.6,1.4c-0.9,0.7-1.4,1.5-1.9,2.5c-0.2,0.4-0.4,0.7-0.6,1.1c-0.3,0.6-0.4,1.3-0.8,2c-0.6,1.2-1,2.3-1.6,3.5
				c-0.4,0.8-0.7,1.8-0.9,2.6c-0.2,0.9-0.5,1.8-0.7,2.7c-0.1,0.7-0.1,1.4-0.2,2.1c-0.1,0.3-0.2,0.6-0.3,0.9
				c-0.1,0.6-0.2,1.2-0.2,1.7c0,1-0.3,2.1-0.5,3s-0.5,1.7-1,2.5c-0.8,1.3-2.2,2.5-2.5,4c-0.6,3.7-0.9,7.6-0.9,11.3
				c0,1.2-0.6,2.5-0.3,3.7c0.3,1.3,0.2,1.8,0,3.1c-0.4,2.3-0.1,4.9-0.1,7.3c0,1.5,0,3.1,0,4.6c0,1.1,0.2,1.1,1,1.8
				c1.2,0.9,2,2.1,3.4,2.9c0.8,0.5,1.4,0.6,2.2,0.8c0.8,0.2,1.8,0.7,2.5,0.6c0.8-0.1,1.7-1.1,2.2-1.7c1.5-1.8,3.3-4.9,5.5-5.8
				c1-0.4,1.8-0.7,2.5-1.5c0.9-1,1.5-2.3,2.3-3.4c0.8-1.2,1.7-2.4,1.8-3.9c0.8-1.8,1.7-3.7,2.3-5.5c0.7-2,1.2-4.1,1.8-6.1
				c0.8-2.3,1.3-4.9,2.8-6.8c1.4-1.9,2.1-4,2.4-6.1c0.4-3.1,1.5-5.9,3.1-8.5c1-1.6,2-3.2,3.5-4.5c0.5-0.5,1.3-0.8,1.9-1
				c1.1-0.3,0-1.6,0.9-1.9c0.1,0,0.1-0.2,0.2-0.2c0.2-0.1,0.5-0.3,0.8-0.3s0.4,0.3,0.4,0.6c0.2,1.1-0.4,2-0.9,2.9
				c-1.3,2.1-2.2,4.5-2.6,6.9c-0.5,3.1-1.8,6-2.2,9.2c-0.3,2.5-1.6,4.8-1.4,7.4c0,0.5,0.2,1-0.2,1.4c-0.6,0.6-0.6,1.3,0,1.8
				s0.9-0.5,1.5-0.6c0.7-0.1,1-0.9,1.5-1.2c0.2-0.1,0.3-0.6,0.6-0.3c0.2,0.1,0.2,0.6,0.1,0.8c-1.6,2.1-2.3,4.6-3,7.1
				c-0.2,0.8-1.1,1.5-1.1,2.5c0,1.4-1.3,1.2-1.9,1.8c-0.5,0.5-0.6,0.9,0,1.4c1.5,1.2,2.8,2.7,5,2.3c0.4-0.1,0.8,0,1.2,0
				c0.4,0,0.5,0.2,0.5,0.5c0,0.2,0,0.4-0.2,0.5c-0.4,0.4-0.8,0.8-1.5,0.8c-0.8-0.1-1.1,0.5-0.5,1.1c0.8,0.7,1.2,1.9,2.4,1.9
				c1,1.5,3.1,1.5,4.1,2.9c2.2,0.4,3.6,2.8,6.1,2.5c0.7,0.8,1.8,0.3,2.5,1c0.1,0.1,0.6,0,0.4,0.4c0,0.1-0.3,0.2-0.5,0.2
				c-1.1,0.1-2.1-0.5-3-0.5c-2.2,0.1-4.1-0.9-6.3-0.7c-0.6,0.1-1.1-0.3-1.6-0.4c-2-0.6-4-1.8-6.3-1.4c-1.3,0.2-2.5-0.6-3.7-1
				c-1.7-0.5-2.9-2-4.6-2.5c0,0.3-0.1,0.7,0,0.9c0.5,0.7,0.9,1.4,1.3,2.2c0.4,0.7,1,1.2,1.6,1.7c1.2,1.2,2.3,2.6,3,4.2
				c0.3,0.6,0.7,0.7,1.2,1.2c0.4,0.4,0.5,1,0.7,1.5c0.8,2,2.9,2.6,4,4.2c0.8,1.1,1.2,2.4,2.2,3.4s1.6,1.9,2.1,3.3
				c0.5,1.4,0.7,2.3,0.2,3.7c-0.3,0.8-0.4,1.8-0.9,2.5c-0.5,0.6-0.6,0.6-0.8,1.4c-0.2,0.7-0.2,1.4-0.6,2c-0.3,0.6-0.7,0.9-0.7,1.5
				s0.4,1,0.4,1.6s-0.4,1.4-0.5,1.9c-0.2,0.8-0.3,1.6-0.5,2.3c-0.5,1.3-0.4,2.2-0.2,3.6c0.2,1.3,0.1,2.4,0.5,3.7
				c0.3,0.7,0.7,1.6,0.6,2.4c-0.1,0.5-0.4,1-0.5,1.6c-0.5,2-1.9,3.5-2.5,5.4c-0.5,1.5-1.9,2.7-2.2,4.3c-0.2,1.2-0.6,1.8-1.4,2.9
				c-2.3,3.2-3.5,7-3.3,10.9c0.1,2.1,0.2,4.2-0.1,6.2c-0.1,0.9-0.6,1.8-0.4,2.7c0.2,1.1-0.7,2-0.6,3c0.1,1.5-0.9,2.7-0.6,4.2
				c0.4,2.2-0.9,4.3-0.6,6.6c0.1,0.6-0.6,1.3-1,1.9c-0.3,0.5-0.8,0.9-1.2,1.3c-1,0.8-1.3,1.7-1.3,3c0.1,4.9,0.1,9.8,0,14.6
				c0,0.9,0,1.4-0.3,2.1c-0.2,0.4-0.2,0.7-0.2,1.2c-0.1,1.1-0.2,2.2-0.1,3.3c0.2,3.1,0,6.1,0.2,9.2c0.1,2.8,0.7,5.5,0.9,8.3
				c0,0.5,0,0.9,0,1.3c-0.2,1.1-0.2,2-0.2,3.1c0.2,2.6,0.7,5.1,1.6,7.6c0.7,1.8,0.9,3.7,1.4,5.6c0.4,1.5,1.1,2.8,1.5,4.3
				c0.5,1.8,0.7,3.5,0.7,5.4c0,1.7-0.1,3.4,0,5.1c0,0.7,0.2,1.4,0.4,2.1c0.1,0.3,0.2,0.7,0.3,1c0.1,0.5,0.4,0.6,0.7,1
				c0.3,0.5,0.5,1.1,0.8,1.7c1.1,1.7,2.3,3.9,2.3,6c0,0.9-0.1,1.8,0,2.7c0.2,1.5,0.7,2.9,0.8,4.4c0.1,1.5,0,3.1,0,4.6
				c0,1.8,0,3.5,0,5.3c0,0.8,0.2,1.4,0.3,2.2c0.1,0.6,0,1.3,0.1,1.9c0.5,2.5,1.1,5,1.6,7.5c0.2,1,0.1,1.9,0.3,2.9
				c0.5,1.9,0.3,4.6-0.4,6.4c-0.7,1.9-1.2,3.9-1.6,5.9c-0.3,1.3-0.8,2.7-1.6,3.8c-0.4,0.5-0.8,0.9-1.1,1.4c-0.1,0.3-0.2,0.6-0.4,0.9
				c-0.4,0.6-1,1-1.4,1.6c-0.7,1.1-1.4,2-2.4,2.8c-1.3,1.1-2.3,2.1-3.8,2.7c-1.2,0.5-2.2,1.3-3.4,1.9c-1.1,0.6-2.5,0.8-3.6,1.2
				c-0.4,0.1-1,0.1-1.3,0.3c-0.4,0.2-0.7,0.5-1.1,0.7c-0.8,0.4-1.8,0.4-2.7,0.6c-0.7,0.2-1.4,0.4-1.6,1.1c-0.3,1,0.6,1.8,1.4,2.3
				c0.9,0.4,1.8,0.2,2.8,0.2c2.9,0,5.8,0.1,8.7,0c3-0.1,6,0.4,9-0.5c1.6-0.5,3.4,0.2,5.1,0.5c3.3,0.6,6.4-0.6,9.6-1.2
				c2.3-0.4,3.2-2.3,2.4-4.8c-0.1-0.3-0.2-0.5-0.2-0.8c0-2.8-0.3-5.6,0.1-8.3c0.3-2,0.8-4.1,1.6-6.1c0.6-1.3,0.9-2.9,1.1-4.2
				c0.2-1.5,1-2.9,0.7-4.5c-0.2-1,0.2-1.9,0.5-2.8c0.2-1.1,0.1-2.2,0.3-3.3c0.1-0.5,0.3-1,0.5-1.4c0.3-0.7,0.7-1.4,0.9-2.2
				c0.8-2.4,0.8-5.3,1.1-7.8c0.3-3.1,0.3-6.2,0.3-9.3c0-1.1,0-2.1-0.3-3.2c-0.2-0.8-0.6-1.6-0.8-2.4c-0.3-2-0.6-4-1.2-5.9
				c-0.2-0.8-0.1-1.7-0.3-2.5c-0.2-0.7-0.2-1.4-0.2-2.2c0-1.6,0-3.1,0-4.7c0-1.7,0.2-3.3,0.3-5c0.1-1.1,0.3-2.2,0.3-3.3
				c0-0.8,0.2-1.6,0.3-2.5c0.1-1.1,0.2-2.2,0.3-3.3c0.1-0.9-0.1-1.7-0.2-2.5c-0.1-1,0.4-2,0.6-3c0.2-1.1,0.4-2.2,0.6-3.3
				c0.5-2.7,1.4-5.2,1.5-8c0-0.7,0-1.4,0.1-2.2c0.2-2.2,0.8-4.4,1.2-6.5c0.4-2.7,0.5-5.4,1-8c0.3-1.8,0.8-3.7,0.7-5.6
				c0-0.6-0.1-1.4,0-2c0.2-0.7,0.4-0.9,0.4-1.8c0,0.9,0,1.8,0,2.8c0,1.3-0.3,2.5-0.4,3.8c-0.1,1.2,0.2,2.2,0.4,3.3
				c0.2,1.2,0,2.7,0,3.9c0,1.1,0,2.2,0,3.3c0,1.9-0.5,3.7-0.7,5.6c-0.2,2,0.3,4.4,0.7,6.3c0.2,0.8,0.4,1.6,0.4,2.4
				c0.1,1.5-0.2,3,0.1,4.4c0.4,2.1,1.3,4.3,2,6.4c1.2,3.5,2.3,7.1,3.7,10.5c0.4,1.1,1.1,1.9,1.8,2.9c1.4,1.8,1.3,4.2,1.8,6.2
				c0.2,0.7,0.1,1.4,0.2,2.2c0.4,2,1,3.9,2.5,5.5c0.9,1,1.9,1.8,2.7,2.9c0.8,1.1,1.4,2.3,2.3,3.3c0.9,1.1,1.9,2.3,2.9,3.3
				c0.4,0.5,0.6,0.8,0.9,1.3c0.4,0.6,0.8,1.1,1.2,1.7c1.4,2.2,2.5,4.7,3.8,7c0.7,1.2,1.3,2.5,1.9,3.7c0.4,0.7,0.6,1.6,0.9,2.3
				c1.2,2.4,3.1,4.1,4.6,6.2s2.4,4.9,3.4,7.2c0.3,0.6,0.6,1.7,0.5,2c-0.6,1.2-0.1,2.7-1.2,3.7c-1,0.9-1.4,2.1-1.7,3.4
				c-0.5,2.2-1.3,4.4-2.2,6.5c-1,2.5-2.4,5.1-4.4,6.1c-1.5,0.7-1.8,1.4-1.5,2.9c0.2,1,1.3,1.9,2.5,1.9c2.4-0.1,4.8,0.4,7.2-0.5
				c0.8-0.3,1.8-0.2,2.6,0c0.9,0.2,1.5-0.7,2.4-0.7c1.6,0,2.8-0.9,3.6-2.3c1.9-3.5,4.5-6.6,7.6-8.9c2-1.5,3.2-3.3,4.2-5.4
				C491.5,432.4,491.8,432,492.5,431.9z"/>
			<path class="st18" d="M433,111.8c-1.1,0.3-2.3,0.7-3.4,1c-1,0.4-2,1-3.1,1.3c-0.6,0.1-1.1,0.1-1.7,0.2c-0.5,0.1-1.1,0.4-1.6,0.7
				c-0.8,0.4-1.6,0.9-2.3,1.4c-2.5,1.7-4.3,4.2-7,5.6c-0.9,0.5-2,0.8-2.9,1.4c-0.7,0.4-1.4,1-2,1.5c-0.5,0.5-1.1,1.1-1.7,1.5
				c-0.7,0.5-1.7,1.2-1.8,2.1c-0.4-0.2-0.6-1-0.7-1.4c-0.2-0.5-0.3-1.1-0.5-1.7c-0.3-1-0.8-1.9-1.4-2.8c-0.6-0.8-1.2-1.6-1.8-2.4
				c-0.3-0.4-0.6-0.7-0.8-1.1c-0.1-0.1-0.1-0.3-0.1-0.4c-0.1-0.7-0.2-1.3-0.6-1.9c-0.1-0.2-0.3-0.3-0.4-0.5s-0.1-0.3-0.2-0.5
				c0-0.6,0-1.2,0-1.9c0-0.6,0-1.3,0-1.9s0-1.3-0.3-1.8c-0.1-0.3-0.3-0.5-0.4-0.8c-0.1-0.2-0.2-0.5-0.3-0.7
				c-0.1-0.1-0.1-0.3-0.2-0.4s-0.2-0.1-0.2-0.2c-0.1-0.1-0.1-0.2-0.1-0.3c-0.2-0.4-0.6-0.8-0.6-1.2c-0.1-0.5,0.1-0.9,0.1-1.4
				c0-0.2-0.1-0.4-0.1-0.6s0-0.4,0-0.5c-0.1-0.3-0.1-0.5-0.1-0.8c-0.1-0.7-0.2-1.3-0.1-2c0.1-0.5,0.1-1.1,0.3-1.7
				c0.1-0.6,0.1-1-0.1-1.6s0-1.1,0.4-1.6c0.1-0.2,0.2-0.2,0.4-0.3c0.4-0.1,0.5,0.2,0.8,0.2c0.7,0.1,1-1.3,1.2-1.7
				c0.1-0.4,0.1-0.8,0.2-1.2c0.1-0.4,0.3-0.8,0.4-1.2c0.3-0.9,0.5-1.8,0.7-2.7c0.1-0.5,0.1-1.1,0.3-1.6c0.1-0.5,0.4-0.8,0.7-1.2
				c0.5-0.7,1.1-1.5,1.9-2c0.9-0.5,2-0.8,3-1.1c0.9-0.3,1.8-0.7,2.8-0.9c0.3-0.1,0.5-0.2,0.8-0.2c1,0,2.1-0.4,3-0.7
				c0.7-0.2,1.4-0.5,2.1-0.5c0.8,0,1.5,0.1,2.3,0c0.6-0.1,1,0,1.6,0s1.1,0.3,1.7,0.4c0.4,0.1,0.8,0,1.2,0c0.8,0.1,1.4,0.5,2.1,0.8
				c0.5,0.2,0.9,0.5,1.5,0.5c0.5,0,0.8,0.3,1.1,0.6c0.3,0.3,0.5,0.7,0.8,1.1c0.2,0.4,0.6,0.6,0.8,1c0.7,0.9,1.7,2.1,1.8,3.3
				c0.2,1-0.1,2.1-0.5,3.1c-0.3,0.8-0.4,1.6-0.5,2.4c-0.1,0.3-0.1,0.6-0.2,0.9c-0.4,1.6-1.1,3.8-0.2,5.5c0.3,0.6,0.8,1,1.2,1.4
				c1.2,1.3,2,3.4,3.8,4c2,0.7,4.1,0.4,5.9,1.6c1.4,0.9,2.2,3,2.9,4.4c0.5,1,1,1.9,1.4,2.9c-0.3-0.2-0.6-0.2-0.9-0.3
				c-1.3-0.5-1.8-1.8-3-2.4c-0.9-0.5-2.5-0.7-3.5-0.9c-1-0.2-2.1-0.2-3.1,0C433.7,111.6,433.3,111.6,433,111.8z M410.7,108.6
				c0-1.3,0.3-2.7-1.2-3.5c-0.1-0.1,0-0.5,0-0.8c0-0.6-0.4-0.6-0.8-0.6c-0.8,0-1.4,0-2.1-0.7c-0.9-1-2.1-0.6-2.3,0.3
				c-0.3,1.5-1,0.4-1.4,0.4c-0.5,0-0.7-0.6-1.2-0.6c-1.3-0.1-1.6,0.1-1.7,1.5c0,1,0.1,2,0,2.9s0.5,1.6,0.7,2.4c0.4,1.7,2,3,2.4,4.9
				c0.1,0.5,2,0.3,2.2-0.3c0.2-0.5,0.4-0.9,0.8-1.1c1.8-1.1,2.1-1.3,2.6-2.6c0.1-0.2,0.1-0.3,0.2-0.5
				C410.7,110.1,410.7,110.1,410.7,108.6z"/>
			<path class="st18" d="M395.4,190.7c1.7,2.2,2.9,4.6,4.1,7.1c0.2,0.4,0.4,0.8,0.6,1.2c1.7,0.6,2.9,2,4.6,2.5
				c1.2,0.4,2.4,1.2,3.7,1c2.3-0.4,4.2,0.7,6.3,1.4c0.5,0.2,1,0.5,1.6,0.4c2.1-0.2,4.1,0.8,6.3,0.7c0.9-0.1,1.9,0.6,3,0.5
				c0.2,0,0.5-0.1,0.5-0.2c0.1-0.4-0.3-0.3-0.4-0.4c-0.7-0.7-1.9-0.3-2.5-1c-2.5,0.3-3.9-2.1-6.1-2.5c-1-1.5-3.1-1.5-4.1-2.9
				c-1.3,0-1.7-1.2-2.4-1.9c-0.6-0.5-0.4-1.1,0.5-1.1c0.7,0.1,1.1-0.3,1.5-0.8c0.1-0.1,0.2-0.3,0.2-0.5c0-0.3-0.2-0.5-0.5-0.5
				c-0.4,0-0.8-0.1-1.2,0c-2.2,0.4-3.5-1.1-5-2.3c-0.6-0.5-0.5-0.9,0-1.4c0.6-0.6,2-0.4,1.9-1.8c0-1,0.9-1.7,1.1-2.5
				c0.7-2.5,1.4-5,3-7.1c0.1-0.1,0-0.6-0.1-0.8c-0.3-0.2-0.4,0.2-0.6,0.3c-0.5,0.4-0.8,1.2-1.5,1.2c-0.6,0.1-0.9,1-1.5,0.6
				c-0.6-0.5-0.5-1.2,0-1.8c0.4-0.4,0.3-0.9,0.2-1.4c-0.2-2.6,1.1-4.9,1.4-7.4c0.4-3.1,1.7-6,2.2-9.2c0.4-2.4,1.3-4.8,2.6-6.9
				c0.5-0.9,1.1-1.8,0.9-2.9c0-0.3-0.1-0.6-0.4-0.6c-0.2,0-0.5,0.2-0.8,0.3c-0.1,0-0.1,0.2-0.2,0.2c-0.9,0.3,0.2,1.6-0.9,1.9
				c-0.7,0.2-1.4,0.5-1.9,1c-1.4,1.3-2.5,2.9-3.5,4.5c-1.6,2.6-2.7,5.4-3.1,8.5c-0.3,2.1-1,4.2-2.4,6.1c-1.5,1.9-2,4.5-2.8,6.8
				c-0.7,2-1.1,4.1-1.8,6.1C397,187.1,396.1,188.9,395.4,190.7z"/>
			<path class="st19" d="M409.6,104.3c0-0.6-0.4-0.6-0.8-0.6c-0.8,0-1.4,0-2.1-0.7c-0.9-1-2.1-0.6-2.3,0.3c-0.3,1.5-1,0.4-1.4,0.4
				c-0.5,0-0.7-0.6-1.2-0.6c-1.3-0.1-1.6,0.1-1.7,1.5c0,1,0.1,2,0,2.9s0.5,1.6,0.7,2.4c0.4,1.7,2,3,2.4,4.9c0.1,0.5,2,0.3,2.2-0.3
				c0.2-0.5,0.4-0.9,0.8-1.1c1.8-1.1,2.1-1.3,2.6-2.6c0.1-0.2,0.1-0.3,0.2-0.5c-0.5-1.4-0.7-2.8-0.6-4.3
				C408.4,105,408.7,104.5,409.6,104.3z"/>
			<path class="st20" d="M409.6,104.3c-0.8,0.2-1.2,0.7-1.2,1.6c-0.1,1.5,0.1,2.9,0.6,4.3c1.8-0.1,1.8-0.1,1.8-1.5
				c0-1.3,0.3-2.7-1.2-3.5C409.5,105,409.6,104.6,409.6,104.3z"/>
		</g>
	</g>
	<path d="M405.2,105.6h-0.1c0-0.3-0.1-0.6-0.3-0.9c-0.2-0.6,0-1,0-1.6c0-0.5-0.2-1.8,0.6-1.8c0.5,0,1,0.7,1.1,1.1
		c0.1,0.3,0,0.6,0,0.8c0.1,0,0.1,0.1,0.1,0.1c0,0.1,0,0.2,0,0.3c0,0.1,0,0.2,0.1,0.3c0.3,0.2,0.4-0.2,0.6-0.4
		c0.1-0.1,0.5-0.4,0.6-0.4c0.2,0,0.2,0.1,0.2,0.2c0,0.2-0.1,0.3-0.2,0.5s-0.2,0.4-0.4,0.6c-0.1,0.1-0.2,0.3-0.3,0.4
		c-0.1,0.2-0.1,0.4-0.2,0.6s-0.2,0.3-0.2,0.5c-0.1,0.3-0.2,0.6-0.4,0.9c-0.1,0.2-0.1,0.7-0.4,0.7c-0.4,0-0.6-0.9-0.8-1.1"/>
	<path d="M407.8,107.6c0.2,0,0.4,0.2,0.6,0.2c0.2,0.1,0.3,0.3,0.6,0.4c0.2,0.1,0.3,0.2,0.5,0.2c0.2,0.1,0.4,0.3,0.7,0.3
		c0.2,0.1,0.5,0.1,0.8,0.2c0.2,0,0.4,0,0.6-0.1c0.3-0.1,0.5-0.1,0.8-0.2c0.3,0,0.6-0.3,0.9-0.1c0.2,0.1,0.1,0.5,0.1,0.7
		c0.1,0.5,0.2,1.5-0.4,1.8c-0.1,0.1-0.3,0.1-0.5,0.1c-0.3,0.1-0.5,0-0.8-0.1c-0.3-0.2-0.7-0.3-1-0.5s-0.6-0.4-0.8-0.6
		c-0.2-0.2-0.3-0.3-0.4-0.4s-0.3-0.1-0.4-0.2c-0.2-0.1-0.4-0.3-0.6-0.4s-0.4-0.2-0.6-0.4c-0.1-0.1-0.1-0.1-0.2-0.2s-0.2,0-0.3-0.2
		c-0.1-0.2-0.1-0.5,0.2-0.5c0.2,0-0.3,1.9-0.3,2c0,0.6,0,1.2,0,1.8c0,0.5,0,1,0,1.5c0,0.2,0,0.3,0,0.5c0,0.5,0,1.2-0.2,1.6
		c-0.1,0.1-0.3,0.4-0.5,0.4s-0.2-0.2-0.2-0.4c0-0.2,0-0.5,0-0.7c0-0.3-0.1-0.6-0.1-1c-0.1-0.5,0-1.1-0.1-1.5
		c-0.1-0.2-0.2-0.3-0.3-0.5c-0.1-0.2,0-0.3-0.1-0.4c-0.1-0.2-0.3-0.4-0.4-0.6c-0.2-0.3-0.3-0.5-0.4-0.9c0-0.2-0.1-0.5,0.2-0.5
		c0.1,0,0.3,0.1,0.4,0.2c0.2,0,0.2,0,0.4-0.1c0.2,0,0.4,0,0.5-0.1s0.1-0.2,0.2-0.3c0.1-0.1,0.2-0.1,0.3-0.1c0.1,0,0-0.1,0.2,0
		c0.1,0.1,0.2,0.4,0.2,0.5"/>
	<path d="M399.7,107.1c0-0.2-0.2-0.2-0.3-0.3c-0.1-0.1-0.1-0.2-0.2-0.2c-0.1-0.1-0.3-0.2-0.5-0.3c-0.4-0.2-0.6-0.7-1-0.7
		c-0.1,0-0.2,0.1-0.3,0.1c-0.2,0-0.3-0.1-0.5-0.1s-0.4,0-0.6,0.1c-0.2,0.2-0.3,0.4-0.3,0.7c0,0.3,0.2,0.4,0.4,0.5
		c0.1,0.1,0.2,0.3,0.4,0.4c0.3,0.1,0.5,0.4,0.7,0.6c0.1,0.1,0.1,0.2,0.2,0.2c0.1,0.1,0.2,0.1,0.3,0.2c0.1,0.1,0.1,0.2,0.2,0.3
		c0.1,0.2,0.2,0.2,0.3,0.1c0.1,0,0.2-0.2,0.4-0.2c0.1,0,0.3,0.2,0.3,0.3c0.1,0.2,0.1,0.3-0.1,0.4c-0.1,0.1-0.2,0.1-0.2,0.3
		c0,0.1-0.1,0.3-0.1,0.4c0,0.2-0.1,0.4-0.1,0.6c-0.1,0.2-0.1,0.5-0.2,0.8s-0.3,0.5-0.4,0.9c0,0.2-0.1,0.4,0.1,0.6
		c0.1,0.1,0.3,0.3,0.4,0.2c0.1,0,0.2-0.3,0.3-0.3c0.1-0.2,0.3-0.5,0.4-0.7c0.1-0.1,0.2-0.2,0.2-0.3c0-0.1,0.1-0.3,0.2-0.4
		c0.5-0.2,0.5,1.1,0.5,1.3c0.1,0.5,0.1,0.9,0.3,1.3c0.1,0.2,0.2,0.6,0.4,0.7c0.3,0.2,0.2-0.4,0.2-0.6c0-0.7,0-1.3-0.1-2
		c-0.1-0.4-0.2-0.8-0.2-1.1c0-0.2,0-0.4,0-0.7c0-0.2,0-0.4,0-0.6c0-0.3,0.1-0.7,0.1-1c0-0.2-0.1-0.5-0.2-0.7s-0.2-0.4-0.3-0.5
		c-0.2-0.2-0.2-0.4-0.3-0.6"/>
	<path class="st19" d="M401.1,94.1c0-0.7,0-1.3,0-2c0-0.4,0-0.8,0.1-1.2c0.1-0.3,0.2-0.6,0.2-1c0-0.6,0.1-1.3,0.1-1.9
		c0-0.8,0.4-1.7,0.8-2.4c0.2-0.3,0.3-0.8,0.6-1c0.2-0.2,0.5-0.4,0.7-0.6c0.3-0.3,0.6-0.5,1.1-0.6c0.4-0.1,0.5-0.3,0.8-0.6
		c0.5-0.5,1.2-0.7,1.9-0.8c0.3,0,0.5-0.2,0.8-0.4c0.4-0.2,0.8-0.3,1.1-0.5c-0.2,0.2-0.7,1-0.6,1.3c0.2,0,0.3-0.2,0.5-0.2
		s0.3,0,0.5,0s0.3,0,0.4-0.1c0.5-0.2,1-0.2,1.4-0.5c0.8-0.5,1.9-0.5,2.8-0.8c1.3-0.3,2.5-0.2,3.8-0.4c1.3-0.1,2.7-0.1,3.9,0.2
		c0.6,0.2,1.3,0.5,1.9,0.6c0.4,0.1,0.7,0.2,1.1,0.4c0.3,0.1,0.5,0.1,0.8,0.2c0.5,0.2,0.8,0.5,1.1,0.9c0.2,0.3,0.7,1,0.6,1.4
		c-0.7-0.1-1.5-0.4-2.1-0.7c0.3,0.8,1.2,1.3,1.8,1.9c0.7,0.8,1.3,1.4,1.4,2.5c0.1,0.5,0.6,2.7-0.2,2.8c-0.2,0-0.5-0.6-0.6-0.7
		c-0.3-0.4-0.7-0.7-1.1-1c-1.1-0.7-2.4-1.3-3.6-1.6c-1.1-0.3-2.3-0.3-3.5-0.3c-1,0-2,0-3.1,0c-1.2,0-2.4,0.1-3.6,0.3
		c-0.4,0.1-0.9,0.2-1.3,0.2c-0.5,0-0.9,0-1.3,0.3c-0.6,0.3-1.1,0.7-1.6,1s-1.1,0.5-1.7,0.7c0.1-0.3,0.4-0.6,0.6-0.9s0.7-0.6,0.8-1
		c0.2-0.7-1.3-0.3-1.6-0.2c-0.4,0.1-0.7,0.2-0.9,0.6c-0.1,0.2-0.1,0.4-0.4,0.3c-0.4-0.2,0-0.7-0.1-1c0-0.4-0.4-0.2-0.6-0.1
		c-1,0.4-1.5,1.5-1.9,2.4c-0.2,0.5-0.4,0.9-0.4,1.5c-0.1,0.6,0,1.1-0.1,1.7c-0.1,1-0.6,1.8-0.9,2.7c-0.1,0.2-0.1,0.7-0.4,0.8
		c-0.4,0-0.3-1.1-0.3-1.3"/>
	<path class="st21" d="M471,232.6c-0.4-0.1-0.6,0.2-0.9,0.2c-0.3,0.1-0.6,0-1,0.1c-1.3,0.3-1.7,1.1-2.5,2c-0.6,0.6-1.4,1.2-2.2,1.4
		c-1.2,0.4-0.7-0.5-0.9-1.2c-0.1-0.5-0.2-0.2-0.5-0.4c-0.2-0.1-0.5-0.4-0.7-0.5c-0.9-0.3-1.2,0.2-1.8,0.7c-0.7,0.5-0.9,1-1.8,1.2
		c-1.2,0.2-2.5,0.5-3.7,0.1c-0.9-0.3-2.3-0.7-2.6-1.7c-0.1-0.3,0-0.7-0.1-1.1c-0.1-0.6-0.4-1-0.7-1.5c-0.5-0.8-0.8-1.6-1.5-2.3
		c-1.2-1.4-2.8-2-4.6-1.8c-0.4,0.1-0.8,0.2-1.2,0.2c-1.2,0.1-2.4-0.6-3.6-0.6c-0.4,0-0.9,0-1.3,0c-0.6,0-1.1-0.1-1.6,0.2
		c-0.4,0.3-0.4,0.5-0.9,0.3c-0.4-0.1-0.8-0.3-1.2-0.5c-0.4-0.2-0.4-0.4-0.7-0.7c-0.3-0.3-0.8-0.5-1.1-0.9c-0.3-0.4-0.6-1-0.9-1.4
		c-0.4-0.5-0.9-1.1-1.1-1.8c-0.2-0.5,0.1-0.7,0.1-1.2c0.2-1.2-1.1-2.7-1.8-3.5c-1.4-1.7-1.9-3.8-2.4-5.9c-0.3-1.1-0.1-2.3-0.3-3.4
		c-0.1-0.4-0.2-0.8-0.3-1.1c-0.1-0.4,0-0.8,0.1-1.2c0.1-0.3,0.2-0.6,0.4-0.9c0.1-0.2,0.3-0.5,0.2-0.7c-0.1-0.3-0.5-0.5-0.7-0.6
		c-0.3-0.2-0.7-0.4-1-0.6c-0.7-0.3-1.5-0.6-2.2-0.9c-0.6-0.2-1.2-0.6-1.8-0.8c-0.8-0.3-1.5-0.8-2.3-1.2c-0.4-0.2-0.8-0.3-1.1-0.4
		c-0.3-0.1-0.7-0.3-1-0.4c-0.2-0.1-0.5-0.2-0.7-0.2c-0.3-0.1-0.5-0.3-0.8-0.4c-0.1-0.1-0.3-0.1-0.5-0.1c-0.2-0.1-0.4-0.2-0.5-0.3
		c-0.5-0.3-0.8-0.6-1.3-0.8c-0.4-0.2-0.8-0.4-1.2-0.6c-0.2-0.1-0.9-0.4-0.8-0.7c0.1-0.1,0.3-0.1,0.4-0.2c0.1,0,0.2-0.2,0.4-0.2
		c0.1,0,0.3,0.1,0.4,0.1c0.2,0.1,0.4,0.1,0.7,0.2c0.7,0.2,1.7,0.3,2.2-0.5c0.3-0.5-0.1-0.8-0.1-1.2c0-0.6-0.1-1.2-0.4-1.8
		c-0.1-0.3-0.4-0.5-0.5-0.8s-0.1-0.6-0.1-0.8c0-0.6,0.2-1.1,0.5-1.5c0.2-0.3,0.4-0.6,0.6-0.8s0.5-0.5,0.7-0.5c0.2-0.1,0.5,0,0.7,0
		s0.5-0.1,0.7-0.1c0.3,0,0.5,0,0.7-0.1s0.3-0.2,0.5-0.3s0.4-0.1,0.6-0.2c0.5-0.2,1.1-0.3,1.6-0.6c0.2-0.1,0.5-0.3,0.6-0.5
		c0.2-0.2,0.2-0.5,0.3-0.7c0.3-0.9,0.4-1.9,0.8-2.8c0.3-0.5,0.7-0.7,1.1-1c0.3-0.3,0.5-1,0.5-1.4c0-0.3,0-0.5,0-0.8
		c0-0.1,0.1-0.5,0-0.6s-0.2-0.1-0.3-0.1c-0.3,0-0.5-0.1-0.7-0.2c-0.3-0.1-0.6-0.1-0.8-0.3c-0.3-0.3-0.4-0.6-0.3-1
		c0.1-0.6,0.2-1.1-0.2-1.6c-0.3-0.4-0.7-0.8-1.1-0.9c-0.8-0.3-1.7,0.3-2.4,0.4c-0.6,0.1-1.3,0.5-2,0.4c-0.2,0-0.3-0.1-0.4-0.1
		c-0.5-0.1-1,0-1.5-0.1c-0.3-0.1-0.7-0.2-1.1-0.3c-0.2,0-0.5,0-0.7,0s-0.4,0-0.6,0.1c-0.2,0-0.4,0.2-0.6,0.2s-0.3,0-0.4-0.1
		c-0.1,0-0.3-0.1-0.4-0.2c-0.2-0.2,0.1-0.5,0.2-0.7c0.2-0.3,0.3-0.8,0.4-1.2c0.1-0.3,0.3-0.6,0.5-0.9c0.2-0.2,0.4-0.4,0.5-0.7
		c0.3-0.5,0.5-1.2,0.8-1.8s0.5-1.3,0.8-1.9c0.2-0.6,0.4-1.2,0.7-1.8c0.2-0.3,0.4-0.7,0.6-1c0.3-0.5,0.4-1,0.5-1.5
		c0.1-0.6,0.1-1.1,0.3-1.7c0.1-0.6,0.3-1.2,0.4-1.7c0.3-1.1,1-2,1-3.1c0-1,0-1.9-0.2-2.8c-0.3-0.9-0.8-1.4-1.6-2.1
		c-0.5-0.4-0.9-0.4-1.5-0.6c-0.5-0.2-0.9-0.4-1.4-0.6c-1.1-0.4-2-1.4-3.1-1.6c-0.6-0.1-1,0-1.4-0.5c-0.9-1.1-0.3-3.3-0.3-4.6
		c0-0.5-0.1-1.1-0.1-1.6c0-0.3,0.1-0.6,0.2-1c0.6-1.6,1-3.3,1.7-4.9c0.4-1,1.3-2,2-2.8s1.6-1.5,2.6-1.7c1.1-0.3,1.9-0.4,2.7-1.1
		c1.8-1.5,3.5-3.2,5.4-4.6c1.8-1.3,3.1-3,4.2-5c0.3-0.6,0.9-1.2,1.2-1.9c0.3-0.6,0.2-1.2,0.6-1.7s0.9-1,1.3-1.4
		c0.6-0.6,0.8-0.7,1.3,0c0.3,0.5,0.5,1.3,0.8,1.9c0.2,0.6,0.3,1.1,0.3,1.7c0,0.8-0.2,1.5-0.3,2.3c-0.1,0.8,0.1,1.6,0,2.3
		c0,0.8-0.3,1.5-0.4,2.2c-0.2,0.7-0.1,1.4-0.1,2.1c-0.1,0.8-0.3,1.2,0.1,1.9c0.3,0.6,0.7,1.1,1.1,1.7c0.7,1,1.8,1.8,1.7,3.1
		c0,1.1-0.7,1.9,0.5,2.6c0.5,0.3,1.4,0.6,2.1,0.4c0.9-0.2,1-1.1,1.1-1.9c0.3-1.9,0.5-3.9,1.3-5.7c0.3-0.6,0.7-1.1,1-1.6
		c0.2-0.3,0.4-1.1,0.7-1.4c0.3-0.3,0.8-0.2,1.2-0.3c0.6-0.1,1.1-0.2,1.7-0.2s1.3-0.2,1.7,0.2c0.6,0.6,0.5,1.5,1.3,2
		c0.6,0.4,1.5,1,1.8,1.6c0.2,0.4,0.1,0.9,0.2,1.4c0.1,0.7,0.2,1.2,0.2,1.9c0,0.9-0.2,1.9,0,2.7c0.2,1,1.1,1.2,1.6,1.9
		c0.3,0.4,0.2,0.4,0.6,0.6c0.4,0.2,0.8,0.2,1.2,0.3c1.1,0.2,1.8,0.9,2.5,1.7c0.3,0.3,0.7,0.5,0.7,0.9c0.1,0.6-0.3,1.1-0.3,1.7
		c0.1,0.8,0.4,1.7,0.3,2.5c-0.1,0.9-0.7,1.1-1.1,1.8c-0.6,1-0.2,2.4,0,3.4c0.1,0.5,0,1,0,1.5c0.1,0.6,0.3,1,0.3,1.6c0,0.5,0,1,0,1.5
		s-0.2,1-0.3,1.6c-0.2,1.7,0.1,3.3-0.3,5c-0.3,1.2-0.5,2.5-0.7,3.7c0,0.2-0.1,0.5-0.1,0.8c0,0.5,0,0.9,0,1.4c0,0.9,0.2,2.1-0.7,2.6
		c-0.6,0.3-1.4,0.3-2,0.1c-0.5-0.1-1-0.2-1.4-0.3s-0.8-0.3-1.3-0.4c-0.5-0.1-1,0-1.5,0.1s-0.9,0.2-1.4,0.3c-0.3,0-0.6,0-0.9,0.1
		c-0.2,0.1-0.5,0.1-0.7,0.1s-0.4,0-0.6,0s-0.5,0-0.7,0c-0.4-0.1-0.9-0.1-1.2-0.3c-0.4-0.2-0.9-0.3-1.4-0.5c-0.3-0.1-0.5-0.3-0.7-0.4
		c-0.3-0.1-0.5-0.2-0.8-0.4c-1.1-0.5-2.4-0.7-3.6-0.3c-0.5,0.1-1,0.2-1.4,0.4c-0.2,0.1-0.5,0.2-0.7,0.3c-0.3,0.1-0.4,0.3-0.7,0.5
		c-0.2,0.1-0.4,0.3-0.6,0.4c-0.3,0.3-0.5,0.7-0.7,1c-0.2,0.1-0.3,0.3-0.5,0.5c-0.2,0.3-0.4,0.5-0.6,0.7c-0.3,0.3-0.3,0.6-0.5,0.9
		c-0.2,0.3-0.5,0.6-0.6,1c0,0.3,0.1,0.7,0,0.9c-0.3,0.7-1.8,0.8-1.9,1.7c0.9,0.5,2,0.6,3,0.5c0.6,0,1.2-0.2,1.7-0.2
		c0.3,0,0.5,0.1,0.8,0.1c0.9,0.1,1.8,0,2.7-0.1c0.7-0.1,1.4-0.3,2.2-0.3c0.4,0,0.9-0.1,1.4,0c0.3,0.1,0.6,0.3,1,0.3
		c0.4,0.1,0.9-0.1,1.3-0.2c0.5-0.1,1-0.3,1.5-0.5c0.9-0.2,1.7-0.4,2.5-0.5s1.5-0.3,2.3-0.4c1.2-0.1,2.1,0.2,3,1
		c0.3,0.3,0.3,0.3,0,0.6c-0.1,0.2-0.2,0.3-0.5,0.4c-0.2,0-0.3,0-0.5,0s-0.5,0-0.7,0.1c-0.4,0.1-0.8,0.1-1.3,0.1s-1.1,0.2-1.4,0.7
		c-0.1,0.2-0.1,0.3-0.2,0.5c-0.1,0.4-0.1,0.5-0.4,0.8c-0.5,0.7-0.8,1.4-1.2,2.1c-0.3,0.4-0.2,1-0.5,1.5c-0.3,0.7-0.7,1.3-1.2,1.9
		c-0.3,0.4-1.1,1.1-0.9,1.7c0.1,0.3,0.4,0.8,0.6,1c0.3,0.4,0.9,1.3,1.5,1.5c0.2,0,0.5,0,0.7-0.1c0.3,0,0.6,0,0.9,0.1
		c0.7,0.1,1.5,0.3,2.2,0.6c1.1,0.3,2.1,0.7,3.2,1.1c0.4,0.1,0.8,0.3,1.2,0.5c0.6,0.2,1,0.9,1.5,1.3c0.8,0.6,1.8,0.8,2.7,1.1
		c0.4,0.2,1.2,0.4,1.5,0.8c0.3,0.4,0.1,1.1-0.4,1.3c-1.1,0.6-2.8-0.7-3.8-1.1c-1.7-0.7-3.5-1.7-5.3-2.1c-1.1-0.2-2.4-0.1-3.5-0.1
		s-1.9,0.8-3.1,0.8s-2.4-0.2-3.5,0c-0.6,0.1-1,0.4-1.7,0.2c-0.8-0.2-1.1-0.6-1.9-0.4c-0.9,0.2-1.3,0.8-1.8,1.5
		c-0.3,0.4-0.5,0.4,0,0.9c0.6,0.6,1.6,1.1,2.4,1.5c2.1,0.9,4.2,1.6,6.3,2.5c1.5,0.7,3.2,1.1,4.7,1.9c0.5,0.3,0.9,0.7,1.4,1
		c0.6,0.3,1.4,0.6,2.1,0.9c1.1,0.5,1.8,1.5,2.7,2.3c0.7,0.7,1.2,0.8,1.7,1.8c0.2,0.4,0.4,0.8,0.5,1.3c0.1,0.4,0.2,0.3,0,0.8
		c1.2,0.8,2.1-0.7,3.4-0.4c1.7,0.4,2.7,1.5,3.8,2.7c1.4,1.4,2.2,3.1,2.9,5c0.4,1,1.3,2.2,1.4,3.3c0.1,0.8-0.4,1.2-1,1.8
		c-0.8,0.8-1.9,1.6-1.7,2.8c0.1,0.7,0.5,1.2,1.1,1.7c0.7,0.7,1.3,0.2,2.2,0.1c0.4,0,0.6-0.2,1-0.3c0.8-0.4,1.1,0,1.9,0.6"/>
	<path class="st18" d="M437.2,206.3c0.4,0,0.7,0.1,1,0.3c0.9,0.4,1.8,0.3,2.8,0.4c1,0.1,2.1,0.1,3,0.5c0.5,0.2,0.9,0.5,1.3,0.9
		c1,0.8,2,1.5,3.1,2.1c0.4,0.2,2.6,1.8,2.5,2.2c-0.2,0.4-1.2-0.2-1.4-0.3c-0.8-0.3-2.1-0.2-2.8-0.9c-0.5-0.5-1-1.1-1.6-1.5
		s-1.4-0.6-2.1-0.9c-0.8-0.5-1.4-0.4-2.3-0.2c-0.8,0.2-1.6,0-2.3-0.2c-0.9-0.2-1.8-0.4-2.7-0.6c-0.6-0.2-2.2-0.9-1.8-1.8
		c0.3-0.2,0.7-0.2,1-0.2c0.6-0.1,1.2-0.3,1.6-0.7"/>
	<path class="st18" d="M457.7,217c0.1,0,0.1,0.1,0.2,0.1s0.2,0,0.3,0l0,0l0,0h0.1c0.1,0.1,0.3,0.2,0.4,0.3c0.1,0,0.1,0,0.2,0
		c0,0,0,0,0-0.1c-0.1-0.3,0.3-0.5,0.5-0.3s0.6,0.6,0.9,1.1c1.5,1.2,2.2,3.2,3,5c0.3,0.5-0.5,1-0.8,0.5c-0.5-0.9-1-2.1-1.5-3
		c-0.1,0.1-0.2,0.1-0.2,0v-0.1h-0.1c-0.3-0.2-0.6-0.4-0.9-0.7c-0.1,0.2-0.3,0.2-0.5,0.1c-0.1,0-0.2,0-0.3-0.1
		c-0.3-0.2-0.4-0.6-0.6-0.9c-0.3-0.4-0.6-0.7-1-1.1C456.9,217.4,457.3,216.8,457.7,217z"/>
	<path class="st18" d="M453.7,224.9c0.8,0.5,1.6,1,2.2,1.7c0.1,0.1,0.1,0.1,0.2,0.2c0.1,0.3,0.3,0.5,0.4,0.8c0,0.8,0.9,1.6,1.3,2.1
		c0.1,0.1,0.2,0.1,0.3,0.1c0.2,0.2,0.4,0.5,0.5,0.7c0.2,0.3,0.3,0.6,0.5,0.9c0.1,0.2,0.3,0,0.2-0.1l0,0l0,0c0.2,0.2,0.5,0.1,0.4-0.2
		l0,0c0,0,0.1-0.1,0-0.1c-0.2-0.5-0.5-0.8-0.8-1.2c-0.4-0.8-0.8-1.5-1.3-2.2c-0.2-0.2-0.3-0.4-0.5-0.6c-0.2-0.3-0.4-0.6-0.7-0.9
		c-0.1-0.1-0.2-0.1-0.3-0.1c-0.6-0.7-1.4-1.1-2.2-1.7C453.7,224.1,453.4,224.7,453.7,224.9z"/>
	<path class="st18" d="M418.3,192c0.3,0,0.4-0.1,0.7-0.2c0.5-0.1,1-0.1,1.5-0.3c1.1-0.4,1.6-1.5,2.1-2.5s1.5-1.6,2.1-2.5
		c0.1-0.2,0.2-0.5,0.4-0.7c0.2-0.3,0.5-0.3,0.7-0.6c0.3-0.3,0.5-0.9,0.9-0.9c0,0.8-0.8,1.4-1,2.2c-0.1,0.3,0.1,0.8,0,1.1
		c-0.2,0.4-0.7,0.5-0.8,1c-0.1,0.7,0.7,0.4,1,0.3c0.5-0.2,0.9-0.3,1.4-0.5c0.5-0.1,0.7-0.4,1.1-0.7c0.7-0.4,1.3-0.5,2-0.6
		c0.8-0.2,1.8-0.6,2.5-1.1c0.5-0.3,0.7-0.7,1.3-0.9c0.4-0.2,1-0.3,1.4-0.4c0.6-0.1,1.6,0.6,0.6,0.8c-0.6,0.2-1.1,0.2-1.6,0.7
		c-0.5,0.4-1,0.8-1.4,1.2c-0.5,0.5-0.5,1.2-1.2,1.5c-0.4,0.2-0.9,0.3-1.3,0.5c-0.7,0.3-1.6,0.4-2.2,0.9c-0.2,0.2-0.3,0.4-0.6,0.5
		c-0.3,0.1-0.6,0.2-0.9,0.2c-0.5,0.1-1.2-0.2-1.6,0.2s-0.4,1.2-0.8,1.5c-0.2,0.2-0.8,0.5-1.2,0.5c-0.9,0.1-1.8-0.2-2.8-0.2
		c-0.6,0-0.9,0.4-1.4,0.4c-0.3,0-0.7,0-1,0c-0.4,0.1-0.4,0.2-0.8,0.1C416.4,193,417.8,192.3,418.3,192"/>
	<path class="st18" d="M416.9,169.6c0.2-0.1,0.1-0.3,0.2-0.5c0.1-0.5,0.4-1,0.6-1.4c0.5-1.1,0.7-2.3,1.2-3.4c0.5-1,0.9-2.3,1.6-3.2
		c0.2-0.3,0.4-0.5,0.6-0.8c0.3-0.5,0.7-0.8,1-1.3c0.2-0.3,0.4-0.6,0.8-0.9c0.4-0.3,0.7-0.6,1.1-0.9c0.6-0.4,1.2-0.7,1.8-1.1
		c0.2-0.1,0.3-0.3,0.4,0c0.1,0.2-0.1,0.8-0.2,1c-0.2,0.3-0.5,0.5-0.6,0.8s-0.1,0.6-0.2,0.9c0,0.2-0.1,0.4-0.1,0.6
		c0.1,0.5,0.8,0.1,1.1,0c0.3-0.1,0.5-0.2,0.7-0.4c0.1-0.2,0.2-0.4,0.4-0.6c0.3-0.4,0.8-0.8,1.2-1.1c0.8-0.6,1.8-0.9,2.8-0.9
		c0.3,0,0.7,0,1,0s0.8,0,1.1-0.2c0.3-0.1,0.9-0.7,0.8-1.1c0-0.2-0.3-0.3-0.5-0.4c-0.3-0.2-0.5-0.4-0.9-0.3c-0.2,0-0.5,0.1-0.7,0.1
		s-0.5-0.1-0.7-0.1c-0.3,0-0.8,0-0.8-0.3c0-0.2,0-0.5,0.1-0.7s0.3-0.5,0.5-0.7c0.1-0.1,0.1-0.1,0.2-0.2c0.4-0.3,0.8-0.7,1.3-1
		c0.2-0.1,0.3-0.1,0.5-0.2c0.9-0.3,1.7-0.8,2.6-1.2c0.8-0.4,1.6-1,2.4-1.5c0.8-0.6,1.5-0.9,1.5-2c0.1-1.5,1.3-2.6,2.6-3.2
		c0.7-0.4,1.6-0.4,2.2-1s0.3-1.7,0.2-2.4c-0.1-0.5-0.2-0.9-0.3-1.4c-0.1-0.3-0.2-0.5-0.3-0.8c-0.2-1.3,0.1-2.9,0.9-3.9
		c0.4-0.6,0.7-0.5,1.4-0.5c0.4,0,0.7-0.1,0.7,0.4c0.1,1.3-0.6,2.5-0.6,3.8c0,0.7,0,1.3,0.2,2s0.2,1.4,0.3,2.1c0.1,0.7,0.3,1.3,0.3,2
		c0,0.3,0,0.7,0,1c0,0.7-0.3,1.4-0.3,2.1c0,1.1,0,2.4,1,3c0.6,0.4,1.2,0.3,1.8,0.2c0.3-0.1,0.7-0.1,1-0.2c0.3-0.1,0.4-0.2,0.6-0.4
		c0.4-0.3,0.8-0.2,1.2-0.4c0.6-0.3,0.8-0.8,1.1-1.3c0.4-0.4,0.7,0.1,0.8,0.5c0.2,1.1-1.1,0.6-1.7,1.2c-0.2,0.2-0.2,0.4-0.5,0.5
		s-0.7-0.1-1-0.2c-0.3-0.1-0.7-0.3-1-0.1s-0.5,0.7-0.7,1c-0.3,0.4-0.7,0.8-1,1.3c-0.3,0.4-0.2,1.1-0.2,1.6c0,0.9,0.2,1.9,0.4,2.8
		c0,0.3,0.1,0.7,0.2,1c0.1,0.6,0.4,1.1,0.4,1.7c0.2,1,0.3,2.2,0,3.1c-0.2,0.6-0.7,1.7-1.4,1.8c-0.5-0.7-0.3-1.6-1-2.2
		c-0.5-0.5-1.2-0.6-1.9-0.8c-0.7-0.2-0.9-0.3-1.4-0.8c-0.4-0.5-0.5-1-0.9-1.5c-0.7-0.9-1.6-1.3-2.5-1.9c-0.7-0.5-1.3-1.2-2-1.8
		c-0.1-0.1-0.4-0.2-0.5-0.3c-0.2-0.2-0.4-0.5-0.6-0.7c-0.4-0.4-0.8-0.9-1.4-1c-0.4,0-1,0.1-1.1,0.6c-0.1,0.4,0.4,0.9,0.7,1
		c0.1,0.1,0.3,0.1,0.5,0.2c0.3,0.1,0.3,0.2,0.5,0.4c0.3,0.3,0.9,0.6,1.1,1s-0.2,0.4-0.4,0.7c-0.3,0.3-0.4,0.9-0.3,1.3
		c0.1,0.5,0.6,1,0.7,1.5c0,0.1,0.1,0.4,0,0.5c-0.1,0.4-0.4,0.2-0.7,0.2c-0.5,0-0.8-0.2-1.1-0.6c-0.3-0.4-0.6-0.7-1.1-1
		c-0.5-0.2-1.1-0.1-1.7-0.1c-0.7,0-1.3-0.6-1.9-0.1c-0.9,0.5-1.7,1-2.6,1.6c-0.5,0.4-0.9,0.9-1.3,1.5c-0.3,0.6,0,1.3-0.4,1.9
		c-0.3,0.4-0.8,0.7-1.1,1.1c-0.4,0.4-0.6,1-0.7,1.6c-0.1,0.3,0,0.6-0.1,1s-0.2,0.7-0.2,1.1c0,0.3,0,0.7-0.2,1
		c-0.3,0.4-0.9,0.6-1.4,0.4c-0.5-0.2-0.4-1.1-0.7-1.5c-0.2-0.3-0.4-0.4-0.4-0.7c0-0.2,0.1-0.5,0.1-0.7c0-0.6,0-1.2,0-1.8
		s0.2-1.2,0.3-1.8c0.1-0.5,0-1.1-0.6-1.1c-0.4,0-1,0.7-1.2,1.1c-0.3,0.7,0.2,1.3,0,2c-0.2,0.6-0.5,0.9-0.9,1.3
		c-0.4,0.4-0.4,0.9-0.6,1.4c-0.1,0.3-0.2,0.4-0.4,0.7c-0.2,0.3-0.2,0.5-0.3,0.7c-0.2,0.5-0.6,1-0.8,1.5c-0.3,0.8-0.8,1.5-1.2,2.2
		c-0.3-0.1,0.1-1,0.2-1.3c0.2-0.4,0.3-0.9,0.4-1.3c0.1-0.3,0.1-0.7,0.3-1"/>
	<path class="st18" d="M428.7,145.7v-0.1c0.1-0.4,0.3-0.8,0.5-1.2c0.1-0.2,0.1-0.3,0.1-0.5c0-0.1,0.1-0.2,0.1-0.3
		c0.1-0.1,0.1-0.2,0.2-0.3c0-0.1,0-0.2,0.1-0.3c0-0.1,0.1-0.2,0.1-0.2c0-0.1,0.1-0.1,0.1-0.2c0-0.1,0-0.2,0-0.3s0-0.3-0.2-0.3
		c-0.2-0.1-0.4,0.1-0.5,0.2c-0.4,0.3-0.6,0.7-0.8,1.1c-0.1,0.2-0.2,0.5-0.3,0.7c-0.1,0.2-0.1,0.3-0.2,0.5c-0.1,0.1-0.2,0.3-0.2,0.4
		c0,0.1,0,0.2-0.1,0.3c0,0.1-0.1,0.3-0.1,0.4c-0.1,0.2-0.1,0.3-0.2,0.5c-0.3,0-0.7-1-0.7-1.3c0-0.2,0.1-0.4-0.1-0.5
		c-0.1-0.1-0.5,0-0.6,0c-0.2,0-0.5,0-0.7,0c-0.4,0-0.8-0.2-1.2-0.4c-0.5-0.2-0.9-0.4-1.3-0.7c-0.3-0.3-0.6-0.7-0.8-1
		c-0.6-0.7-1.2-1.3-2.1-1.7c-0.5-0.3-1.1-0.7-1.7-0.6c-0.9,0.1-0.4,0.9,0,1.3c0.3,0.3,0.7,0.4,0.9,0.7c0.2,0.2,0.2,0.6,0.3,0.8
		c0,0.2,0.1,0.4,0,0.6c0,0.3-0.1,0.2-0.3,0.4c-0.1,0.2-0.2,0.3-0.3,0.5c-0.1,0.1-0.2,0.3-0.2,0.4c-0.2,0.7-0.3,1.5-0.6,2.2
		c-0.2,0.4-0.6,2,0.1,2c0,0.3,0.6,0.5,0.9,0.7c0.3,0.1,0.6,0.2,0.9,0.2c0.1,0,0.2,0,0.2,0c0.1,0,0.1,0,0.2,0c0.2,0,0.3-0.1,0.5-0.1
		c0.1,0,0.2,0,0.3-0.1c0.1-0.1,0.1-0.1,0-0.2c-0.1,0-0.2-0.1-0.2-0.1c-0.1-0.1-0.2,0-0.4,0c-0.1,0-0.3-0.1-0.4-0.1
		c-0.2-0.1-0.3-0.2-0.4-0.4c-0.1-0.1-0.1-0.3-0.1-0.5s0.1-0.3,0.2-0.5c0.1-0.3-0.2-0.6-0.4-0.9c-0.1-0.1-0.2-0.2-0.2-0.4
		c0-0.1,0-0.3,0-0.4c0-0.1,0.1-0.2,0.2-0.2c0.2-0.1,0.3-0.1,0.5-0.1c0.5-0.1,1.1,0,1.6-0.1c0.5,0,0.9-0.2,1.4-0.1
		c0.3,0,0.5,0.1,0.7,0.2c0.1,0,0.2,0.1,0.3,0.2c0.1,0,0.1,0.1,0.2,0.1s0.1-0.1,0.2-0.1s0.2,0,0.2,0c0.1,0.1,0.3,0.1,0.4,0.2
		c0.2,0.1,0.4,0.3,0.5,0.5s0,0.4-0.1,0.6c-0.2,0.4-0.3,0.8-0.6,1.1c-0.2,0.2-0.4,0.5-0.6,0.7c-0.1,0.1-0.2,0.3-0.3,0.3
		c-0.1,0.1-0.3,0.1-0.4,0.3c0.1,0.1,0.3,0.2,0.5,0.2c0.1,0,0.1,0,0.2,0c0,0,0,0,0.1,0s0.2,0,0.3,0c0.2,0,0.3,0.1,0.5,0.1
		s0.3,0.1,0.5,0.1s0.4-0.1,0.4-0.3c0.1-0.1,0.1-0.3,0.2-0.4c0.1-0.1,0.2-0.1,0.2-0.1c0.1,0,0.2,0,0.3,0c0.1,0,0.1-0.1,0.2-0.1
		s0.1-0.1,0.2-0.1c0.2-0.1,0.2-0.2,0.3-0.4l0.1-0.1c0.1-0.1,0.1-0.1,0.2-0.2c0.1-0.1,0.1-0.2,0.2-0.3s0.1-0.3,0.2-0.4
		c0.1-0.1,0.2-0.3,0.2-0.4c0.1-0.2,0.1-0.5,0.2-0.7c0-0.1,0-0.2,0.1-0.3C428.7,145.8,428.7,145.8,428.7,145.7z"/>
	<path class="st22" d="M458.2,159.7c0,0.5-0.1,1-0.1,1.5c0,0.4,0,0.9-0.1,1.3c0,0.6-0.2,1-0.6,1.5c-0.2,0.3-0.5,0.6-0.7,1
		c-0.1,0.2-0.1,0.4-0.2,0.6c-0.2,0.5-0.5,0.9-0.8,1.4c-0.1,0.2-0.1,0.4,0,0.7c0,0.3,0.1,0.7,0,1c0,0.3-0.1,0.6-0.1,1
		c-0.1,0.5-0.1,1-0.1,1.5s0.1,1.4-0.4,1.8c-0.2,0.1-0.3,0.2-0.4,0.4c-0.1,0.1-0.1,0.3-0.2,0.4c-0.2,0.3-0.5,0.5-0.8,0.5
		c-0.4,0-0.7-0.1-1.1,0.1c-0.3,0.2-0.3,0.1-0.7,0c-0.2-0.1-0.4-0.1-0.6-0.1c-0.5-0.1-0.9-0.2-1.4-0.3c-0.2,0-0.4,0-0.6,0
		c-0.1,0-0.2,0.1-0.3,0c-0.2-0.1-0.2-0.4-0.3-0.5c-0.2-0.1-0.4,0-0.5,0c-0.2,0-0.4-0.1-0.6-0.1c-0.3,0-0.6,0.2-0.9,0.2
		c-0.4,0.1-0.8,0.1-1.2,0.1c-0.1,0-0.2,0-0.3,0c-0.1,0-0.2,0.1-0.3,0.1c-0.4,0.1-0.8,0-1.2,0.1c-0.5,0.1-0.9,0.1-1.4,0.1
		c-0.4,0-0.8,0-1.2-0.1c-0.6-0.2-1-0.6-1.5-0.9c-0.1-0.1-0.2-0.1-0.3-0.1c-0.2-0.1-0.3-0.1-0.5,0c-0.5,0-1.1,0-1.6,0
		c-0.4,0-0.9,0-1.3,0c-0.5,0-1-0.1-1.5,0.1c-0.6,0.2-1.1,0.4-1.6,0.8c-0.4,0.3-0.8,0.6-1.1,1c-0.3,0.3-0.5,0.6-0.8,0.8
		c-0.2,0.2-0.4,0.4-0.6,0.5c-0.1,0-0.2,0-0.2,0.1c-0.1,0.1-0.2,0.3-0.2,0.5c0,0.3,0.1,0.8-0.1,1.2c-0.1,0.3-0.4,0.5-0.6,0.7
		c-0.3,0.3-0.6,0.4-1,0.5c-0.9,0.3-1.9,0.4-2.8,0.7c-0.6,0.1-1.2,0.3-1.8,0.4c-0.4,0-0.8,0-1.1-0.1c-0.3-0.1-0.5-0.1-0.7-0.2
		c-0.2-0.1-0.5-0.2-0.7-0.2s-0.7,0.1-0.7,0.4c-0.1,0.3,0.2,0.4,0.4,0.5c0.2,0.2,0.4,0.4,0.6,0.4c0.4,0.1,0.8,0.1,1.2,0.1
		c0.6,0,1.3,0,1.9,0c0.8,0,1.6,0.1,2.4-0.1c0.3-0.1,0.6-0.2,0.9-0.3s0.4-0.3,0.7-0.5c0.4-0.3,1-0.4,1.5-0.4c0.5-0.1,1.1-0.1,1.6-0.2
		c0.7-0.2,1.3-0.6,2-0.8c0.9-0.2,1.8-0.2,2.7-0.2c0.7,0,1.5,0,2.2-0.1c0.8-0.1,1.6-0.1,2.4-0.1c0.6,0,1.1,0.1,1.7,0
		c0.5-0.1,0.9-0.4,1.4-0.5c0.5-0.2,1.1-0.3,1.6-0.4c0.5-0.1,1-0.2,1.5-0.1c0.5,0.1,1,0.3,1.5,0.5c0.3,0.1,0.6,0.3,0.8,0.4
		c0.1,0,0.2,0.1,0.4,0.1c0.5,0.3,1.1,0.6,1.6,1c0.3,0.2,0.4,0.4,0.4,0.8c-0.1,0.3-0.3,0.7-0.5,1c-0.2,0.2-0.6,0.2-0.9,0.3
		c-0.4,0.1-0.7,0.1-1.1,0.1c-0.3,0-0.6,0-1-0.1c-0.6-0.2-1.1,0.5-1.5,0.9c-0.2,0.2-0.3,0.4-0.4,0.7c-0.2,0.3-0.5,0.5-0.7,0.8
		c-0.1,0.1-0.1,0.2-0.1,0.4c-0.1,0.2-0.2,0.4-0.2,0.5c-0.1,0.2-0.1,0.5-0.2,0.7c-0.1,0.4-0.2,0.9-0.4,1.3c-0.2,0.4-0.3,0.8-0.5,1.3
		c-0.2,0.4-0.3,0.7-0.5,1c-0.1,0.1-0.2,0.3-0.4,0.4c-0.1,0.1-0.2,0.2-0.3,0.3c-0.1,0.2,0.1,0.4,0.2,0.5c0.2,0.2,0.4,0.4,0.6,0.6
		c0.3,0.3,0.6,0.6,0.9,0.9c0.3,0.2,0.5,0.2,0.8,0.2s0.5,0.1,0.7,0.2c0.2,0,0.4,0,0.6,0.1c0.2,0,0.4,0,0.5,0c0.2,0,0.4,0.1,0.6,0.1
		c0.4,0.1,0.8,0.2,1.3,0.4c0.4,0.1,0.8,0.4,1.3,0.6c0.7,0.3,1.6,0.4,2.3,0.9c0.4,0.3,0.8,0.6,1.3,0.9c0.3,0.2,0.6,0.6,1,0.7
		c0.3,0.1,0.6,0.3,0.9,0.4c0.3,0.1,0.7,0.1,1,0.2c0.5,0.2,1.2,0.4,1.6,0.8c0.4,0.3,0.7,0.7,0.7,1.2c0,0.6-0.2,1-0.6,1.4
		c-0.2,0.1-0.3,0.2-0.5,0.3c-0.2,0-0.3,0.1-0.5,0.1c-0.3,0.1-0.4,0.2-0.6,0.2c-0.3,0-0.6-0.1-1-0.1s-0.7-0.2-1.1-0.3
		c-0.2-0.1-0.5-0.1-0.8-0.2c-0.2-0.1-0.3-0.2-0.5-0.3s-0.4-0.1-0.5-0.2c-0.2-0.1-0.3-0.3-0.5-0.4c-0.2-0.1-0.5-0.2-0.7-0.4
		c-0.3-0.2-0.5-0.4-0.8-0.6c-0.3-0.2-0.7-0.4-1.1-0.5c-0.6-0.2-1.1-0.4-1.7-0.4c-0.7-0.1-1.4-0.2-2.2-0.2c-0.7,0-1.4,0.2-2,0.5
		c-0.3,0.2-0.7,0.3-1.1,0.4c-0.3,0.1-0.5,0.1-0.8,0.1c-0.5,0-0.9-0.1-1.4-0.1c-0.7-0.1-1.5,0-2.1,0.2c-0.2,0.1-0.4,0.1-0.6,0.2
		c-0.3,0.1-0.4,0.1-0.7,0c-0.3,0-0.6,0-0.9,0c-0.2,0-0.4,0-0.6-0.1c-0.1,0-0.2,0-0.3-0.1c-0.2,0-0.4,0.1-0.5,0.3s-0.1,0.3-0.3,0.5
		c-0.1,0-0.1,0.1-0.2,0.1c-0.2,0.3,0.6,0.6,0.8,0.7c0.7,0.3,1.4,0.6,2.2,0.5c0.9,0,1.9,0.2,2.7,0.5c1.2,0.3,2.3,1.1,3.6,1.3
		c0.4,0.1,0.8,0.1,1.1,0.1c0.3,0.1,0.6,0.2,0.9,0.2c0.2,0,0.4,0,0.6,0c0.1,0,0.3,0.1,0.4,0.1c0.6,0.2,1.3,0.5,1.9,0.8
		s1.2,0.7,1.7,1.2c0.4,0.3,0.9,0.6,1.3,0.9c0.7,0.4,1.2,0.8,1.7,1.4c0.4,0.5,0.5,1.1,1.1,1.3c0.3,0.1,0.6,0.2,0.9,0.3
		c0.4,0.1,0.8-0.1,1.2-0.1c0.4,0,0.8,0,1.3-0.1c0.4-0.1,0.9-0.1,1.3,0.1c0.3,0.2,0.6,0.5,0.9,0.7c0.4,0.4,0.9,0.6,1.3,1
		c0.7,0.7,1.3,1.4,2,2.2c0.3,0.4,0.6,0.8,0.9,1.1c0.4,0.5,0.6,1,0.9,1.5c0.3,0.6,0.7,1.2,1.1,1.8c0.3,0.5,0.4,1,0.6,1.5
		c0.3,0.6,1,1.3,1.5,0.5c0.5-0.9,0.1-2.2,0.1-3.1c0-0.8-0.1-1.5,0.1-2.3c0.2-1.1,0.3-2.2,0.6-3.3c0.2-0.9,0.8-1.7,1.1-2.6
		c0.3-0.7,0.4-1.5,0.6-2.3c0.2-0.9,0.4-1.9,0.5-2.8c0.1-0.9,0.1-1.8,0.1-2.8c0.1-1,0.2-2.1,0-3.2c-0.1-0.8-0.2-1.6-0.2-2.5
		c0-2-0.4-3.9-0.3-5.9c0.1-0.8,0.2-1.6,0.1-2.5c0-0.8-0.2-1.5-0.3-2.2c-0.1-0.9-0.3-1.7-0.3-2.6c-0.1-1.1-0.4-2-0.6-3
		c-0.2-0.8-0.4-1.5-0.8-2.2s-0.8-1.5-1.2-2.3c-0.3-0.8-0.5-1.4-0.3-2.3c0.1-0.9,0.2-1.9,0.2-2.8c0.1-1.6,0.2-3.3,0.2-4.9
		c0-1-0.2-1.9-0.4-2.9c-0.1-0.9-0.2-1.9-0.3-2.8c-0.2-1.3-0.4-2.5-0.5-3.8s-0.4-2.6-0.4-3.9c0-0.5,0.1-0.9,0.1-1.4
		c0.1-0.6,0-1.2,0-1.8c0-0.7,0-1.3-0.2-2c0-0.2-0.1-0.4-0.2-0.5s-0.5-0.2-0.6-0.1c-0.3,0.2,0,0.6,0,0.8c0.1,0.3,0.2,0.6,0.2,1
		c0,0.5,0,1.1-0.1,1.6c-0.2,0.8-0.2,1.6-0.3,2.4c-0.1,0.6-0.3,1.1-0.5,1.7c-0.1,0.4-0.1,1-0.6,1.1s-0.7-0.6-0.9-0.9
		c-0.3-0.6-0.4-1.3-0.5-2c-0.1-0.8-0.4-1.6-0.7-2.4c-0.6-1.4-1.5-2.7-2.1-4.2c-0.3-0.7-0.4-1.4-0.7-2.1c-0.4-0.9-0.7-1.8-1.1-2.7
		c-0.2-0.4-0.4-0.9-0.5-1.3c-0.2-0.4-0.4-0.7-0.6-1.1c-0.2-0.4-0.3-0.8-0.5-1.3c-0.2-0.4-0.4-0.7-0.6-1.1c-0.2-0.5-1-3.3-1.9-2.8
		c-0.3,0.9,0.3,2,0.6,2.8c0.2,0.6,0.3,1.2,0.6,1.7c0.7,1.2,1.4,2.6,2.4,3.6c0.4,0.5,0.7,1.2,0.8,1.8c0.2,0.7,0.3,1.3,0.4,2
		c0.2,1.2,0.3,2.5,0.3,3.8c0,1,0,1.9,0,2.9c0,0.5,0,0.9,0,1.4c-0.1,0.3-0.2,0.6-0.3,1c-0.1,0.5-0.3,0.9-0.5,1.3
		c-0.2,0.5-0.3,1-0.3,1.5c-0.1,0.5,0,1-0.1,1.5c-0.1,0.8-0.2,1.6-0.1,2.5C458.1,158.5,458.2,159.1,458.2,159.7z"/>
	<path class="st18" d="M384.1,147.3c0.4-0.6,0.6-1.4,0.9-2c0.3-0.5,0.8-1,1.2-1.5c0.9-1.1,2-2,3-2.9c0.5-0.4,1-0.8,1.4-1.2
		c-0.4,0.9-1,1.6-1.5,2.4c-1.1,1.8-1.6,4-2.3,6c-0.5,1.4-1,2.9-1.2,4.5c-0.1,0.4-0.1,0.9,0.1,1.3c0.1,0.2,0.3,0.3,0.4,0.4
		c0.2,0.2,0.3,0.5,0.3,0.8c0.1,0.5,0.3,0.9,0.4,1.4c0.1,0.4,0.1,1,0.2,1.4c0.1,0.2,0.2,0.3,0.3,0.5c0.1,0.3,0.1,0.6,0.2,0.9
		c0.2,0.5,0.5,1.4,0.9,1.7c0.6,0.4,1-1.1,1.4-1.5c0.4-0.5,0.7-0.5,1.2-0.8c0.3-0.1,0.5-0.5,0.8-0.5c0.2,0.2-0.2,0.9-0.1,1.2
		c0.1,0.7,0.7,1.3,1.1,1.8s1.1,1.1,1.2,1.8c-1,0.5-1.6,1.4-1.6,2.5c0,0.2,0.3,1.2,0.2,1.4c-0.2,0.2-1.5-0.5-1.7-0.6
		c-1-0.3-2-0.4-3.1-0.5c-1-0.1-1.7-0.5-2.6-0.9c-0.7-0.4-1.5-0.6-2.2-0.9c-0.5-0.3-1-0.4-1.6-0.5c-0.1-0.4,0-0.8,0-1.2c0-1,0-2,0-3
		c0-2.3,0-4.7,0.7-7c0.3-0.9,0.7-1.7,1-2.6C383.5,149,383.7,148.1,384.1,147.3z"/>
	<path class="st18" d="M385.6,167v0.1c-0.3,0.1-0.5,0.2-0.8,0.2s-0.5-0.1-0.8-0.3c-0.2-0.2-0.4-0.5-0.7-0.4c-0.1,0.2,0,0.4-0.1,0.6
		c-0.1,0.3-0.4,0.6-0.6,0.9c-0.3,0.6-0.7,1.2-0.7,1.9c0,0.1,0,0.3,0,0.4c-0.1,0.1-0.2,0.1-0.2,0.2c-0.1,0.2-0.2,0.5-0.2,0.7
		s0,0.4-0.1,0.6c-0.1,0.2-0.1,0.2-0.3,0.3c-0.3,0.2-0.6,0.5-0.8,0.9c-0.4,0.6-0.6,1.2-1,1.8c-0.6,0.8-0.9,1.6-1.1,2.5
		c-0.2,0.7-0.4,1.5-0.3,2.2c0.2,1,0.5,1.9,0.4,2.9c0,1-0.3,2.1-0.3,3.1c0,1.8-0.9,3.5-1.2,5.2c-0.2,1.4-0.8,2.7-0.8,4.1
		c0,1.3,0.2,2.7,0.6,3.9c0.2-0.1,0.1-1,0.1-1.2c0.1-0.9,0.3-1.7,0.4-2.6c0.1-0.7,0.3-1.3,0.5-1.9c0.1-0.3,0.1-0.5,0.2-0.8
		c0.1-0.2,0.3-0.4,0.4-0.6c0.3-0.5,0.3-0.8,0.8-1c0.2-0.1,0.4-0.2,0.6-0.3c0.2-0.2,0.4-0.4,0.6-0.6c0.3-0.2,0.4-0.1,0.7-0.2
		c0.3-0.1,0.6-0.4,0.8-0.6c0.3-0.3,0.4-0.6,0.5-0.9c0.1-0.2,0.4-0.5,0.4-0.7c-0.3-0.2-0.4-0.3-0.5-0.6c-0.1-0.2-0.3-0.3-0.3-0.5
		c-0.1-0.1,0-0.3-0.1-0.5c-0.1-0.3-0.3-0.6-0.4-0.9c-0.1-0.5-0.2-1.1-0.2-1.7c0-0.7,0.1-1.4,0.1-2.1c0.1-0.8-0.1-1.6,0-2.4
		c0.1-0.6,0.2-1.4,0.4-2.1c0.2-0.5,0.5-0.9,0.7-1.5s0.3-1.1,0.5-1.7c0.2-0.4,0.4-0.9,0.4-1.3c0.1-0.7,0.4-1.5,1-2.1
		c0.4-0.4,1.1-0.7,1.7-0.9c0.4-0.1,0.6-0.4,1-0.6c0.4-0.3,0.8-0.5,1-0.9c-0.2-0.2-0.4-0.1-0.6-0.2c-0.5-0.2-0.8-0.5-1.1-0.8"/>
	<path d="M405.5,137.6c-0.6,0.1-1.2-0.1-1.9,0.2c-0.2,0.1-0.4,0.2-0.5,0.3c-0.1,0-0.1,0.1-0.2,0.1s-0.3,0-0.3,0
		c-0.1-0.1,0-0.4,0-0.5c0-0.5,0-1-0.1-1.5c-0.2-0.8-0.3-1.7-0.4-2.6c0-0.4-0.1-0.8-0.1-1.3c0-0.4,0-0.8-0.2-1.2s-0.3-0.8-0.5-1.1
		c-0.3-0.4-0.6-0.7-0.8-1.1c-0.2-0.2-0.3-0.5-0.5-0.7s-0.4-0.3-0.6-0.5c-0.3-0.3-0.5-0.6-0.9-0.8c-0.3-0.2-0.7-0.5-1.1-0.5
		c-0.2,0-0.5,0-0.7-0.1c0-0.1,0.6-0.3,0.7-0.3c0.3-0.2,0.7-0.3,1-0.5c0.9-0.4,1.8-0.5,2.7-0.6c0.5,0,1-0.1,1.5,0
		c0.4,0.1,0.9,0.3,1.3,0.3c0.3,0,0.6,0,0.8,0.1c0.3,0.1,0.4,0.3,0.6,0.4c0.2-0.1,0.2-0.6,0.2-0.6c0.1-0.5,0.3-1,0.2-1.5
		c0-0.2-0.1-0.3-0.1-0.4c-0.2-0.5-0.3-1-0.2-1.5c0.1-0.4,0.2-0.8,0.3-1.2c0-0.2,0-0.9,0.1-1c0.1,0.2,0.4,0.3,0.5,0.4
		c0.4,0.3,0.9,0.4,1.3,0.5s0.8,0.1,1.2,0.1c0.2,0,0.4,0.1,0.6,0.1s0.4-0.1,0.6,0s0.3,0.2,0.5,0.3c0.2,0,0.3-0.1,0.4-0.1
		c0.2,0,0.3,0,0.5,0.1c0.2,0,0.3,0,0.5-0.1c0.2,0,0.4-0.1,0.5-0.4c0.2-0.4,0.2-0.8,0.3-1.2c0.1-0.4,0.2-0.7,0.4-1
		c0.1-0.1,0.1-0.3,0.2-0.4s0.3-0.2,0.4-0.4c0.2-0.2,0.3-0.5,0.6-0.7c0.3-0.3,0.7-0.4,1-0.7c0.2-0.2,0.4-0.3,0.6-0.4s0.4-0.3,0.6-0.3
		c0.4-0.2,0.9-0.1,1.3-0.4c0.1-0.1,0.2-0.2,0.3-0.3c0.3-0.4,0.7-0.7,1-1.1c0.4-0.4,0.7-0.9,1-1.3c0.2-0.5,0.4-1.1,0.6-1.6
		c0.2-0.4,0.4-0.7,0.6-1s0.5-0.7,0.9-0.9c0.4-0.2,0.9-0.2,1.3-0.1c0.3,0.1,0.5,0.3,0.7,0.4s0.4,0.2,0.5,0.3c0.2,0.2,0.4,0.6,0.7,0.7
		c0.2,0.1,0.5-0.1,0.7-0.2c0.4-0.2,0.6-0.5,0.9-0.8c0.1-0.1,0.2-0.2,0.4-0.3c0.2-0.1,0.4-0.3,0.6-0.5c0.3-0.2,0.6-0.2,0.9-0.3
		c0.3,0,0.6-0.1,0.9-0.1c0.3,0.1,0.5,0.3,0.6,0.6c0.2,0.3,0.4,0.5,0.7,0.7c0.4,0.3,0.9,0.6,1.4,0.5s0.9-0.9,1.1-1.3s0.4-0.7,0.6-1
		c0.2-0.4,0.4-0.6,0.7-0.9c0.3-0.2,0.6-0.4,1-0.5s0.8-0.1,1.2-0.1c0.6,0,1,0,1.6,0.2c0.5,0.2,1,0.3,1.5,0.4c0.4,0.2,0.8,0.4,1.2,0.6
		c0.2,0.1,0.4,0.2,0.6,0.3c0.3,0.2,0.5,0.4,0.7,0.6c0.3,0.3,0.6,0.6,0.8,0.9c0.2,0.3,0.3,0.6,0.4,0.9c0.1,0.2,0.2,0.4,0.3,0.6
		c0.1,0.2,0.1,0.5,0.2,0.7c0.1,0.5,0.2,0.9,0.4,1.4c0.2,0.7,0.3,1.5,0.6,2.1c0.3,0.8,0.9,1.5,0.9,2.3c0,0.6-0.5,1.1-1.1,1.2
		c-0.3,0-0.6,0-0.9-0.1c-0.8-0.1-1.6-0.1-2.4-0.4c-0.6-0.2-1.1-0.4-1.6-0.7c-1-0.6-2-1-3.2-1.2c-0.8-0.1-1.6-0.2-2.3-0.4
		c-0.8-0.1-1.7-0.3-2.5-0.4c-0.4,0-0.8,0-1.1,0.1c-0.2,0.1-0.3,0.2-0.5,0.3c-0.3,0.2-0.7,0.1-1,0.2"/>
	<path class="st17" d="M403.3,130.9L403.3,130.9c0.1-0.4-0.3-0.9-0.6-1.2c-0.3-0.3-0.6-0.7-0.9-1s-0.6-0.6-0.8-0.9
		c-0.1-0.2-0.2-0.9,0.2-1c0.2,0,0.4,0.3,0.5,0.4c0.2,0.1,0.4,0.2,0.5,0.3c0.3,0.2,0.4,0.4,0.8,0.5c0.6,0.1,1.2,0.6,1.7,1
		c0.7,0.7,1.1,1.3,1.2,2.3c0,0.6,0,1.2-0.6,1.4c-0.6,0.3-1.1-0.1-1.5-0.5"/>
	<path class="st17" d="M407.1,122.4c0.1-0.2,0.2-0.3,0.4-0.3c0,0,0,0,0-0.1c0.1-0.2,0.3-0.1,0.3,0.1c0,0,0,0,0,0.1c0,0,0,0,0.1,0.1
		c0.1,0,0.2-0.1,0.4,0c0.2,0,0.3,0.1,0.5,0.1l0,0c0.4,0.1,0.7,0.1,1.1,0.2c0.3,0,0.6-0.1,1-0.1l0,0c0.2-0.1,0.5,0.1,0.4,0.4
		c-0.2,0.5-1.1,0.4-1.6,0.4c-0.4,0-0.9-0.1-1.3-0.2l0,0c-0.2,0-0.3-0.2-0.2-0.4c0,0,0,0-0.1,0H408c0,0,0,0,0,0.1
		c0,0.3-0.1,0.5-0.1,0.8c0.1,0.5,0,1,0.1,1.5c0,0.4,0.2,0.9-0.1,1.3l0,0c0,0.2,0,0.5,0,0.7c0.1,0.1,0.1,0.2,0,0.3l-0.1,0.1
		c-0.1,0.1-0.3,0.1-0.3-0.1c-0.1-0.3-0.1-0.6-0.2-0.8c-0.1,0-0.1-0.1-0.2-0.1C406.3,125.6,406.8,123.2,407.1,122.4z"/>
	<path class="st17" d="M414.6,119.4L414.6,119.4c0,0-0.1-0.1-0.1-0.2c0.1-0.1,0.1-0.2,0.2-0.2c0-0.1,0-0.2,0-0.3l0,0
		c0-0.1,0-0.1,0-0.2c0.2-0.3,0.4-0.5,0.6-0.8l0,0c0.1-0.1,0.2-0.2,0.3-0.4c0-0.1,0.1-0.1,0.1-0.1c0.2-0.2,0.4-0.4,0.6-0.6
		c0.3-0.2,0.6-0.2,0.9-0.3c0.6-0.2,1.2-0.6,1.7-1h0.1c0,0,0,0,0.1-0.1c0.3-0.3,0.7-0.5,0.9-0.9c0.5-0.7,0.6-1.5,0.9-2.3
		c0.1-0.1,0.2-0.2,0.3-0.2c0.1-0.2,0.2-0.3,0.3-0.5c0.3-0.4,0.5-0.9,0.8-1.3c0,0,0.1,0,0.1,0.1l-0.1,0.1c0,0-0.1,0,0,0
		c-0.1,0.3-0.3,0.7-0.5,1c-0.1,0.2-0.4,0.5-0.4,0.8l0,0c0.2-0.2,0.4-0.6,0.5-0.9c0.1-0.2,0.4-0.1,0.4,0.1c0,0.1,0,0.2,0,0.2
		c0.1,0,0.3,0.1,0.2,0.3c-0.2,0.4-0.3,1-0.7,1.2c-0.2,0.1-0.3,0-0.4-0.2c0-0.1,0-0.2,0-0.4h-0.1c-0.2,0.6-0.3,1.3-0.7,1.8
		c-0.2,0.3-0.5,0.5-0.7,0.8c-0.1,0.1-0.4,0.2-0.6,0.3c0.1,0.1,0.1,0.2,0,0.3c-0.7,0.6-1.5,1-2.3,1.4c0.1,0,0.2,0.2,0.1,0.3l-0.1,0.1
		c0.1,0.1,0,0.3-0.1,0.4c-0.4,0.4-0.8,1.1-1.3,1.3c-0.2,0.1-0.3,0-0.4-0.1c0,0,0,0-0.1,0s-0.1,0-0.2,0c-0.1,0.1-0.2,0.1-0.2,0
		c-0.1,0.3-0.3,0.6-0.5,0.8c-0.1,0.1-0.2,0-0.2-0.1C414.3,119.7,414.4,119.6,414.6,119.4z"/>
	<path d="M431.1,210.5c0.1-0.3,0.4-0.3,0.5-0.1l0,0c0-0.3,0.3-0.4,0.4-0.2c0.8,1.1,1.1,2.8,1.4,4.1c0,0,0,0.1,0.1,0.1
		c0.4,0.6,1,1.1,1,1.8c0.2,0.5,0.3,1,0.3,1.4s-0.5,0.5-0.7,0.3c-1.3-1.4-2.5-3.5-2.9-5.4C431.1,211.8,431,211.1,431.1,210.5z"/>
	<path d="M433,107.8L433,107.8c-0.9-0.2-1.7-0.5-2.5-0.8c-0.9-0.3-2.7-0.9-2.4-2.2c0.1-0.6,1-0.9,0.6-1.5c-0.1-0.2-0.5-0.3-0.7-0.4
		c-0.4-0.3-0.7-0.6-1-0.9c-0.4-0.4-0.8-0.9-0.8-1.5c0-0.5,0.3-0.8,0.3-1.3c0-0.3,0-0.7,0-1s0.1-0.4,0.1-0.7c0-0.2,0.1-0.7-0.1-0.9
		c-0.2-0.2-0.4-0.2-0.7-0.3c-0.9-0.3-1.7-0.8-2.7-0.6c-0.2,0-0.4,0.1-0.6,0.2s-0.2,0.2-0.3,0.4c-0.4,0.3-0.6,0.1-0.6,0.7
		c0,0.4-0.1,0.8-0.2,1.2c0,0.6,0.1,1-0.3,1.5c-0.3,0.4-0.8,0.4-1.3,0.2c-0.5-0.2-0.8-1-0.9-1.5c0-0.2,0-0.4,0-0.6
		c0-0.6-0.2-1.1-0.5-1.6c-0.5-0.8-1-1.5-1.8-2c-0.5-0.3-1-0.4-1.6-0.6c-0.8-0.3-2.2-0.2-2.5-1.2c-0.1-0.4,0.1-0.8,0.3-1.2
		c0.3-0.6,0.5-1.4,0.3-2.1s-1.1-0.8-1.7-1.1c-0.4-0.2-0.8-0.5-1.3-0.8s-1.2-0.5-1.6-0.9c-0.2-0.2-0.2-0.6-0.3-0.9
		c-0.1-0.4-0.2-0.9-0.2-1.3c0-1,0.4-1.6,1.2-2.1c0.6-0.4,1.1-0.6,1.8-0.8c0.7-0.2,1.3-0.5,2-0.8s1.5-0.6,2.3-0.7
		c1.1-0.1,2.1-0.4,3.2-0.5c0.9-0.1,1.8,0,2.7-0.1c0.8-0.1,1.6-0.2,2.4-0.1c0.6,0.1,1.2,0.2,1.8,0.4c0.9,0.3,1.8,0.6,2.6,0.9
		c1.7,0.7,2.9,1.8,3.6,3.4c0.6,1.3,1,2.9,0.9,4.3c-0.2,1.5-0.9,3-1.2,4.5c-0.2,1.2-0.2,2.4-0.2,3.6c0,0.8,0.3,1.4,0.6,2.2
		c0.2,0.4,0.2,0.8,0.5,1.2c0.3,0.4,0.6,0.9,0.8,1.3c0.4,0.7,0.9,1.1,1.5,1.5c0.7,0.5,1.3,0.8,1.8,1.5c0.5,0.6,0.9,1.4,1,2.1
		c0,0.6-0.1,1.1-0.6,1.5s-1.1,0.7-1.7,0.9c-0.8,0.1-1.5,0-2.1-0.4"/>
	<path d="M398.7,98c-0.3-0.3-0.4-0.3-0.7-0.6c-0.7-0.9-1.4-2.1-1.7-3.2c-0.2-0.7-0.4-1.7,0.3-2.3c0.5-0.4,1.1-0.6,1.5-1.2
		c0.4-0.5,0.4-1.1,0.5-1.7c0.1-1,0.3-2,0.3-3c0-0.9-0.1-1.7,0.2-2.6c0.3-1,0.7-2.1,1.5-2.9c0.7-0.7,1.7-1.4,2.5-2
		c0.9-0.7,2-1.1,3.1-1.1c0.5,0,0.9,0,1.4,0c0.4-0.1,0.9-0.2,1.3-0.1c0.8,0.1,1.2,0.6,1.7,1.1c0.6,0.6,1,0.4,1.8,0
		c2-0.9,3.9-1.5,6.1-1c0.7,0.1,2.3,0.6,2.3,1.6c0,0.7-1.7,1.2-2.1,1.3c-1,0.3-2,0.5-3,0.8s-2,0.6-3.1,0.9s-2.1,0.4-3.2,0.4
		s-1.9,0.3-2.7,1c-0.6,0.5-1.2,1-1.9,1.4c-1,0.6-1.7,1.2-1.9,2.4c-0.5,2.8-2.2,5.3-2.8,8.2c-0.2,1.2-0.4,2.3-0.8,3.5
		c-0.1,0.4-0.1,0.5-0.5,0.6s-1-0.1-1.4-0.2"/>
	<path class="st22" d="M463.8,239.9c-0.2,0-0.4-0.2-0.6-0.2c-0.4,0-0.6,0.4-1,0.5c-0.6,0.2-1-0.2-1.5-0.2c-0.1,0-0.5,0.2-0.7,0.3
		c-0.3,0-0.5,0-0.8-0.1c-0.6-0.2-1.2-0.4-1.9-0.6c-0.8-0.2-1-0.4-1.6-0.9c-0.2-0.2-0.5-0.4-0.7-0.5c-0.4-0.1-0.6,0.1-1,0.1
		c-0.8-0.1-1.6-0.8-2.4-1.1c-1.1-0.3-2.2-0.5-3.2-0.9c-2.1-0.8-4.6-1.1-6.8-1.2c-0.9,0-2-0.2-2.9-0.4c-1.2-0.2-2.3-0.2-3.6-0.2
		c-1,0-2.1-0.4-3.1-0.3c-1.1,0.1-2.2,0.1-3.3,0.2c-1,0.1-2.1,0.4-3.2,0.5c-1,0.2-2,0-3,0.3c-0.8,0.2-1.6,0.6-2.4,0.7
		c-0.8,0.1-1.5-0.1-2.3,0.2c-0.5,0.2-0.9,0.4-1.4,0.5c-0.6,0.1-1.1,0-1.7-0.2c-0.2-0.1-0.3,0-0.5-0.1c-0.2,0-0.6,0-0.7-0.2
		s0.3-0.9,0.4-1.1c0.1-0.2,0.2-0.6,0.1-0.8c-0.1-0.1-0.2-0.2-0.3-0.2c-0.3-0.1-0.7-0.2-0.9,0c-0.4,0.4-0.6,1.1-0.9,1.6
		c-0.2,0.4-0.4,0.9-0.4,1.3c0,0.6,0.1,1.2,0.2,1.8c0,0.3,0.1,0.4,0.2,0.7c0.4,0.7,0.3,1.7,0.3,2.5c0,0.6-0.1,1.1,0,1.7
		c0.1,0.6,0.1,0.8,0,1.4c-0.1,0.7,0,1.5-0.2,2.2c-0.2,0.6,0.1,1.3-0.1,2c-0.1,0.3-0.2,0.5-0.2,0.9c0,0.3,0,0.6,0,0.9
		c-0.1,0.5-0.2,1.1-0.4,1.5c-0.1,0.3-0.4,0.5-0.6,0.8c-0.5,0.8-0.5,1.7-0.8,2.5c-0.1,0.3-0.2,0.4-0.4,0.7c-0.9,1.2-1.7,2.6-2.4,3.9
		c-1.6,2.8-3,5.6-4.2,8.6c-0.2,0.4-0.4,0.8-0.7,1.2c-0.7,1-1,2.2-1.2,3.4c-0.4,2.2-0.3,4.4-0.5,6.6c-0.1,1-0.3,1.9-0.3,2.9
		c0,0.9,0,1.7-0.1,2.6c-0.1,1.2,0,2.5,0,3.7c0,0.8-0.1,1.6-0.2,2.4c0,0.6-0.2,0.9-0.3,1.4c-0.1,0.5-0.1,1-0.2,1.5s0.1,0.9,0.1,1.3
		s-0.1,1.1-0.5,1.5c-0.3,0.3-0.9,0.5-1.3,0.8c-0.2,0.2-0.4,0.3-0.5,0.5c-0.1,0.1-0.1,0.4-0.2,0.5c-0.2,0.4-0.3,0.9-0.3,1.3
		c0,0.2,0,0.3,0,0.5s0.1,0.4,0.1,0.5c0.1,0.5,0,1,0.1,1.5c0,0.2,0.1,0.3,0.2,0.5c0.1,0.5-0.1,1.1-0.1,1.6c0,0.1,0,0.4,0,0.5
		c-0.1,0.4-0.5,0.3-0.7,0.5c-0.2,0.1-0.4,0.4-0.6,0.5c-0.3,0.2-0.6,0.3-1,0.4c-0.1,0.3,0,0.7,0,1c-0.1,0.4-0.2,0.6-0.2,1
		c0,0.2-0.1,0.7,0,0.8c0.1,0.1,0.4,0.2,0.6,0.3c0.2,0.1,0.4,0.2,0.6,0.4c0.2,0.2,0.5,0.3,0.7,0.5c0.4,0.3,0.8,0.7,1.2,1
		c0.4,0.3,0.8,0,1.2-0.1c0.2-0.1,0.4,0,0.6,0c0.4,0,0.8,0,1.2-0.1c0.6-0.1,1.2-0.1,1.7-0.1c0.6,0,1.1-0.2,1.6-0.3
		c3.7-1.3,7.4-3,10.9-4.9c1.6-0.9,3.2-1.7,4.9-2.4c1.9-0.7,4-1.1,6-1.8c2.6-0.9,5-2.2,7.7-3c2.5-0.7,4.9-0.1,7.4,0
		c1.9,0,3.7-0.1,5.5,0.3c1.6,0.4,3.4,0.3,5,0.9c1.2,0.4,1,1.7,1.7,2.7c0.2,0.2,0.3,0.3,0.5,0.5s0.2,0.5,0.4,0.7
		c0.5,0.5,1.9,0.8,2.5,1c1.4,0.5,2.9,0.8,4.4,1.3c0.6,0.2,1.3,0.7,2,0.9c0.8,0.1,1.3-0.3,2-0.5c1-0.3,2-0.5,3-0.8
		c0.3-0.1,0.7-0.1,1-0.1c0.2,0,0.3,0,0.5,0c0.3,0,0.5,0.1,0.8,0.2c0.6,0.1,1.2,0.3,1.7,0.5c0.2,0.1,0.5,0.1,0.6,0.3c0,0,0.1,0,0.2,0
		s0.1,0,0.2-0.1s0.3-0.1,0.4-0.2c0.2-0.1,0.2-0.4,0.3-0.5c0.2-0.4,0.4-0.7,0.5-1c0.2-0.4,0.2-0.7,0.5-1c0.3-0.4,0.5-0.9,0.7-1.3
		c0.1-0.4,0.3-0.8,0.3-1.2c0.1-0.6,0.1-1.2,0.2-1.9c0-0.9,0.2-1.8-0.2-2.7c-0.2-0.4-0.4-0.8-0.2-1.2c0.1-0.5,0.4-1,0.6-1.5
		c0.1-0.6,0-0.8-0.2-1.3s0.1-0.8,0.3-1.3c0.2-0.5-0.1-0.9,0-1.4c0.1-0.4,0.3-0.6,0.5-0.9c0.8-0.9,1.1-1.9,1.7-2.9
		c0.6-1.1,1.1-2.3,1.4-3.5c0.2-0.7,0.5-1.3,0.6-2c0.1-0.3,0-0.7,0.1-1s0.3-0.5,0.3-0.8c0.1-0.7,0.1-1.4,0.4-2.1
		c0.2-0.4,0.1-0.8,0.1-1.2c0.1-1.1,0.4-2.1,0.5-3.2c0.1-0.9,0.1-1.8,0.2-2.7c0.1-0.9,0.2-1.8,0.2-2.7c0-1.5-0.1-2.9-0.3-4.4
		c-0.1-0.8-0.2-1.6-0.2-2.4c-0.1-1.2-0.4-2.3-0.5-3.5c-0.1-0.8-0.2-1.5-0.3-2.3c-0.1-0.9-0.4-1.8-0.6-2.7c-0.3-1.4-0.6-2.8-0.9-4.3
		c-0.1-0.6-0.2-1.3-0.4-1.9c-0.2-0.6-0.3-1.1-0.5-1.7c-0.2-0.5-0.4-1-0.6-1.5s-0.2-1-0.3-1.4c-0.1-0.5-0.2-1-0.4-1.4
		c-0.2-0.4-0.3-0.7-0.4-1.2c-0.1-0.7-0.5-1.2-0.6-1.9c-0.1-0.3,0-0.6,0-0.9c0-0.2-0.1-0.4-0.2-0.6c0-0.3-0.1-0.5-0.2-0.7
		c-0.2-0.4-0.3-0.5-0.7-0.8c-0.4-0.3-0.6-0.5-1-0.7s-0.7-0.4-1-0.6c-0.2-0.2-0.4-0.3-0.6-0.5c-0.1-0.1-0.2-0.3-0.3-0.4
		c-0.2-0.1-0.2-0.1-0.4,0.1c-0.1,0.1,0,0.2,0,0.3c-0.1,0.1-0.2,0.2-0.2,0.3c-0.1,0.3,0.1,0.5,0.1,0.7c0.1,0.3,0,0.5,0.1,0.8
		c0.1,0.4,0.5,0.8,0.8,1.1c0.1,0.2,0.4,0.3,0.1,0.5c-0.2,0.1-0.3,0-0.4-0.1c-0.2-0.1-0.4-0.1-0.7-0.1c-0.4,0.1-0.8,0.4-1.3,0.4
		c-0.9,0.1-1.4,0.4-2.1,1C466.6,237.9,465.4,240,463.8,239.9z"/>
	<path d="M416.6,239.2c-0.2,0-0.2,0.2-0.4,0.2c-0.1,0-0.3,0.1-0.4,0.1s-0.3-0.1-0.4,0c0,0.1,0.1,0.2,0.1,0.4c0,0.1,0,0.3,0,0.4
		c0,0.1,0.1,0.2,0.1,0.3s0,0.2,0,0.3c0.1,0.3,0.5,0.7,0.8,0.9c0.1,0.1,0.2,0.2,0.4,0.3c0.2,0.1,0.3,0.2,0.4,0.4
		c0.2,0.2,0.3,0.3,0.5,0.3c0.5,0.1,1,0.2,1.6,0.4c0.4,0.1,0.8,0.1,1.2,0.3c0.5,0.2,0.9,0.5,1.4,0.7c0.4,0.2,0.9,0.4,1.4,0.6
		c0.2,0.1,0.7,0.4,0.9,0.3c-0.1-0.4-0.7-0.6-1.1-0.8c-0.8-0.5-1.6-1-2.3-1.7c0.5-0.7,1.5-0.5,2.2-0.5c1-0.1,1.9-0.2,2.9-0.4
		c0.5-0.1,1-0.2,1.5-0.3c0.3-0.1,1-0.3,1.1-0.6c-1.4-0.2-2.7-0.8-4.1-1.2c-1-0.3-2.1-0.3-3.2-0.4c-1-0.1-2-0.4-3-0.7"/>
	<path d="M469.8,299.9c-0.2,0-0.3,0-0.5,0.1c-0.4,0.1-0.9,0.1-1.4,0.2c-0.2,0-0.4,0-0.6,0.1c-0.1,0-0.2,0.2-0.4,0.2
		c-0.2,0.1-0.5,0.1-0.7,0.1c-0.2,0.1-0.5,0.1-0.7,0.2c-0.3,0.1-0.5-0.1-0.8-0.1c-0.4,0-0.7,0.3-1.1,0.2c-0.2,0-0.5-0.2-0.7-0.1
		c0.2,0,0.5-0.1,0.7-0.2c0.1-0.1,0.1-0.2,0.2-0.2c0.1-0.1,0.3-0.2,0.4-0.3c-0.4-0.1-0.8,0.2-1.3,0.1c-0.4-0.1-0.6-0.1-1,0
		c-0.5,0.1-1,0.3-1.5,0.3s-1-0.2-1.5-0.3c-0.4-0.1-0.7-0.2-1.1-0.4c-0.4-0.2-0.7-0.5-1.2-0.7c-0.4-0.2-0.9-0.3-1.3-0.4
		c0.2,0.2,0.6,0,0.8,0c0.7-0.1,1.3-0.2,2-0.3c0.7-0.1,1.3-0.1,1.9-0.2c0.3,0,0.6-0.1,1-0.1s0.8,0.1,1.2,0c0.5-0.1,0.8-0.3,1.4-0.3
		c0.5,0,0.9-0.1,1.4-0.1c0.7,0,1.3-0.3,2-0.4c0.6-0.1,1.2-0.2,1.8-0.2c0.6,0,1.1,0,1.7-0.2c0.5-0.2,1-0.2,1.5-0.5
		c0.2-0.1,0.4-0.2,0.6-0.4c0.1-0.1,0.2-0.3,0.3-0.1c0.3,0.2,0,0.4-0.1,0.5c-0.1,0.2-0.1,0.5-0.2,0.7s-0.2,0.4-0.2,0.6
		c-0.1,0.2-0.1,0.6-0.3,0.8c-0.1,0.2-0.5,0.4-0.7,0.5c-0.3,0.1-0.4,0.3-0.7,0.4c-0.4,0.3-0.6,0.4-1.2,0.2"/>
	<path d="M476.1,277.5c-0.2,0-0.2,0.1-0.4,0.1c-0.3,0.1-0.6,0.1-0.9,0.2c-0.8,0.2-1.7,0.2-2.5,0.4c-0.4,0.1-0.8,0.3-1.2,0.3
		c-0.4,0.1-0.8,0-1.2,0.1c-0.2,0-0.3,0.2-0.5,0.2s-0.6-0.1-0.7,0.1c0.2-0.1,0.3-0.1,0.5,0s0.7,0.1,0.8,0.3c0.2,0.4-1.3,0.8-1.6,0.9
		c-1.2,0.5-2.4,0.8-3.6,1.3c-0.9,0.4-1.9,0.7-2.8,1c-0.5,0.2-1,0.3-1.6,0.3c1-0.1,2,0.4,3,0.5c1.5,0.2,3.1,0.2,4.5-0.4
		c0.7-0.3,1.3-0.6,2-0.8c0.5-0.1,1.1-0.2,1.6-0.3c0.8-0.2,1.4-0.9,2.1-1.2c0.5-0.2,0.9-0.5,1.4-0.7c0.4-0.1,0.7-0.3,1.1-0.5
		s0.9-0.3,1.3-0.5c0.5-0.3,0.6-0.6,1.2-0.7c-0.1-0.1-0.5-0.2-0.7-0.2"/>
	<path d="M409.9,302.6c-0.1-0.3,0.2-0.7,0.4-0.8c0.2-0.2,0.7-0.3,1-0.5c0.7-0.4,1.4-0.6,2.2-0.8c1.2-0.3,2.7-0.5,3.7-1.1
		c0.5-0.3,2.3-1.8,2-2.4c-0.5-0.1-1,0-1.4,0c-0.3,0-1,0.1-1.2,0c-1.1-0.7,0.7-1.7,1.1-1.9c0.6-0.4,1.1-0.8,1.7-1.2
		c0.6-0.4,1.1-0.7,1.6-1.2c0.5-0.6,0.9-1.2,1.4-1.8c0.5-0.6,1.1-1.2,1.5-1.9c0.4-0.7,1-1.4,1-2.3c0-0.3-0.1-1.2-0.4-1.4
		c-0.5-0.2-1.4,0.4-1.7,0.6c-0.8,0.5-1.5,1.1-2.1,1.7c-1.4,1.6-2.8,3.1-4.5,4.4c-0.8,0.6-1.5,1-2.4,1.4c-0.3,0.1-0.9,0.5-1.1,0.4
		c-0.3-0.1-0.3-0.6-0.3-0.8c0.1-0.6,0.4-1.3,0.4-2c0.1-0.7,0.2-1.5,0.3-2.2c0.1-0.4,0.2-1-0.1-1.4c-0.6-0.9-1.5-0.9-2.1-0.1
		c-1,1.2-0.8,2.5-1,4c-0.2,1.8-0.8,3.3-2,4.7c-0.5,0.6-0.9,1.2-1.4,1.8c-0.4,0.4-0.8,0.7-1.2,1.1c-0.4,0.4-0.8,0.7-1.2,1.1
		c-0.4,0.3-0.6,0.8-0.9,1.2c-0.5,0.6-1.4,1.3-1.7,2.1c0.8,1.5,3.9-0.7,4.6-1.2"/>
</g>
</svg>
