<?xml version="1.0" encoding="utf-8"?>
<!-- Generator: Adobe Illustrator 28.1.0, SVG Export Plug-In . SVG Version: 6.00 Build 0)  -->
<svg version="1.1" id="Layer_1" xmlns="http://www.w3.org/2000/svg" xmlns:xlink="http://www.w3.org/1999/xlink" x="0px" y="0px"
	 viewBox="0 0 512 512" style="enable-background:new 0 0 512 512;" xml:space="preserve">
<style type="text/css">
	.st0{opacity:0.6;fill:#5A585B;}
	.st1{fill:#444240;}
	.st2{fill:#E8EBE3;}
	.st3{fill:#134A2D;}
	.st4{fill:#00F77A;}
	.st5{fill:#26945A;}
	.st6{fill:#B01A2A;}
	.st7{fill:#453326;}
	.st8{fill:#ED774A;}
	.st9{fill:#A9835B;}
	.st10{fill:#8A654C;}
	.st11{fill:#5981F8;}
	.st12{fill:#3D49CC;}
	.st13{fill:#2D417C;}
	.st14{fill:#E6EEFF;}
	.st15{fill:#072238;}
	.st16{fill:#0000FF;}
	.st17{fill:#FFFFFF;}
</style>
<g>
	<polygon class="st0" points="44.4,260.3 215.5,161.5 386.6,260.3 215.5,359.1 	"/>
	<path class="st1" d="M412.7,206.6L215.9,320.2c-11.4-6.6-135.5-79.7-156.1-90.3c-13.2-6.8-27.3-13.9-36.2-26.4
		c-4.4-6.2-8.1-12.9-10.7-20c-1.6-4.3-2.8-8.7-4.3-13c-1.6-4.6-3.3-9.3-3.7-14.2c-0.1-1.2,17.7-10.9,19.4-11.6
		C46.6,133.3,196,59.5,198.2,57.3c0,1.4,1,3.2,1.4,4.5c0.6,1.8,1.3,3.6,2,5.4c1.5,3.6,3.2,7.2,5.2,10.6c2.5,4.3,5.4,8.4,8.6,12.3
		c2.2,2.6,4.2,5,7.1,6.6c1.7,0.9,3.4,2,5.1,2.9c5.9,3.4,11.8,6.8,17.7,10.3c8.4,4.9,16.9,9.7,25.3,14.6c9.9,5.7,19.9,11.5,29.8,17.2
		c10.5,6,20.9,12.1,31.4,18.1c10,5.8,19.9,11.5,29.9,17.3c8.5,4.9,17,9.8,25.4,14.7c6,3.5,12,6.9,18,10.4
		C407.6,203.7,410.2,205.1,412.7,206.6z"/>
	<path class="st2" d="M405.5,205.6L215.8,315.1c0,0-68.3-39.2-119.3-68.3c-2.1-1.2-4.2-2.4-6.3-3.6c-22.7-12.9-41-23.2-46.5-26.2
		c-8.2-4.3-14.7-11.8-19.9-19.4c-1.8-2.7-3.6-5.6-5.2-8.4c-1.5-2.7-12-31-9.6-32.1c20.4-10.4,41-20.8,61.4-31.2s41-20.8,61.4-31.2
		s40.9-20.9,61.3-31.3c1.1-0.5,2.2-1.2,3.3-1.6c1.5,5.2,3.7,10.1,6.3,14.7c4.7,8.3,10.3,17.8,18.8,22.7c3.7,2.1,7.5,4.3,11.2,6.5
		c6.7,3.9,13.3,7.7,19.9,11.5c8.6,5,17.3,9.9,25.9,14.9c9.7,5.6,19.4,11.2,29.1,16.8c9.9,5.7,19.7,11.4,29.6,17.1
		c9.1,5.2,18.2,10.5,27.3,15.8c7.4,4.3,14.8,8.6,22.3,12.8c4.8,2.9,9.6,5.6,14.5,8.4C402.7,204,404.1,204.8,405.5,205.6z"/>
	<g>
		<g>
			<polygon class="st3" points="188.3,104 144,153.2 74.8,113.3 139.5,44.1 			"/>
		</g>
		<polygon class="st4" points="142.8,147.8 80.4,111.8 138.7,49.5 		"/>
		<polygon class="st5" points="138.7,49.5 182.7,103.5 142.8,147.8 		"/>
	</g>
	<polygon class="st6" points="191.6,276.4 200.6,277.8 226.5,230.5 331.2,291.6 338,288.2 233.3,227.2 323.9,217.2 321.8,212.4 
		220.7,223.5 	"/>
	<g>
		<g>
			<polygon class="st7" points="225.6,165.5 225.6,214.5 178.7,241.6 131.7,214.5 131.7,165.5 178.7,138.3 			"/>
		</g>
		<polygon class="st8" points="135.9,167.7 178.6,143 221.4,167.7 178.6,192.3 		"/>
		<polygon class="st9" points="135.9,212.3 135.9,167.7 178.6,192.3 178.6,236.9 		"/>
		<polygon class="st10" points="178.6,236.9 178.6,192.3 221.4,167.7 221.4,212.3 		"/>
	</g>
	<g>
		<path class="st11" d="M268.5,105.1c0,8.5-2.6,16.9-7.1,24c-0.2,0.2-0.4,0.5-0.5,0.8c-9.2,12.7-24.9,20.6-40.9,19.2
			c-1.2-0.1-2.5-0.3-3.7-0.5c-0.3,0-0.7-0.1-1-0.1c-10.7-2.2-20.4-8.5-26.8-17.3c-20.8-28.7,0.3-70.3,35.8-70.3
			C248.2,60.9,268.5,81.2,268.5,105.1z"/>
		<path class="st12" d="M208.7,144.6c-4.2,0.4-8.1-2.5-11.2-5c-3-2.4-5.9-4.9-8.4-7.8c-4.1-4.7-6.7-10.5-8-16.6c-0.6-2.9-1-6-1.1-9
			c0-1,0.9-7.4,0.5-7.9c4.3,5.4,7.4,11.2,13.2,15.7s12.6,7.6,19.9,8.7c20.9,3.1,42.7-12,46-33.2c0.5-3.4,0.3-6.7,0.7-10
			c1.4,1.9,2.7,3.9,3.7,6.1c2.9,6.1,4.5,12.8,4.5,19.6c0.1,20.1-14.8,37.8-34.1,42.7c-10,2.5-20.9,1.4-30.1-3.3
			c-7.3-3.7-13.8-9.6-17.9-16.7c1.1,1,2.5,1.9,3.7,2.8c2.5,1.9,5,3.7,7.4,5.6c2.5,1.9,5,3.7,7.4,5.6
			C206.2,142.7,207.5,143.9,208.7,144.6z"/>
		<path class="st13" d="M269.9,104c0,25-20.3,45.4-45.4,45.4c-3.2,0-6.2-0.3-9.2-0.9c11.1-0.1,22.2-3.7,31.1-10.5
			c15.2-11.7,22.9-32.3,19.2-51.1c-0.2-0.9-0.4-1.9-0.4-2.8C268.2,90,269.9,96.8,269.9,104z"/>
		<path class="st13" d="M261.9,77.5c-11.6-16-33.9-23.2-52.7-17.2l-0.9,0.3c-18.7,6.4-32.2,25.7-31.8,45.4
			c0.2,19.7,14.3,38.5,33.1,44.5c18.9,5.9,41.1-1.6,52.6-17.6C273.6,116.9,273.5,93.5,261.9,77.5z M258.4,130.4
			c-10.4,14.5-30.5,21.2-47.5,15.8c-17.1-5.3-29.7-22.3-30-40.2c-0.3-17.8,12-35.2,28.8-41l0.8-0.3c17-5.5,37.1,1.1,47.7,15.5
			C268.8,94.6,268.8,115.8,258.4,130.4z"/>
		<path class="st14" d="M217.3,70c0.9,0.4,1.8,1,2.6,1.9c5,5.6-2.2,12.4-7,15c-4.6,2.6-12.2,3.8-15-2.1
			C193.6,75.5,209.8,66.7,217.3,70z"/>
	</g>
	<polygon class="st15" points="249.3,158.6 323.7,74.3 318.5,102 377.6,68.8 377.6,101 318.5,134.2 323.7,155.8 	"/>
	<polygon class="st16" points="377.7,73.1 377.7,103 318.8,135.8 323.7,155.7 269.2,157.9 260.7,158.2 254.9,158.4 322.2,82.1 
		318.8,106 	"/>
	<polygon class="st17" points="377.7,92.2 377.7,96.7 269.2,157.9 260.7,158.2 	"/>
</g>
</svg>
