<?xml version="1.0" encoding="utf-8"?>
<!-- Generator: Adobe Illustrator 19.2.1, SVG Export Plug-In . SVG Version: 6.00 Build 0)  -->
<svg version="1.1" id="Layer_1" xmlns="http://www.w3.org/2000/svg" xmlns:xlink="http://www.w3.org/1999/xlink" x="0px" y="0px"
	 viewBox="0 0 512 512" style="enable-background:new 0 0 512 512;" xml:space="preserve">
<style type="text/css">
	.st0{fill:#919191;}
	.st1{fill:#FFECC9;}
	.st2{fill:#4C7A76;}
	.st3{fill:#F06E40;}
	.st4{fill:#909659;}
	.st5{fill:#EDAC49;}
	.st6{fill:#EF4136;}
	.st7{fill:#594A42;}
</style>
<path class="st0" d="M503,139.9c-0.3,4.9-1,9.7-2,14.5c-4.6,21.9-16.5,42.3-33.3,57.1c-5.7,5-12.1,9.6-15.5,16.3
	c-3.5,6.9-1.5,12.2,2,18.2c3.5,5.9,5.3,10.6,6,18.4c1.2,13.3,0.4,26.9-2.6,39.9c-1.5,6.8-3.7,13.5-6.8,19.8
	c-2.7,5.5-8.1,11-6.6,17.5c1.1,4.8,5.2,6.7,8.5,9.8c3.5,3.2,6.5,7.2,8.9,11.2c10.4,17.3,8.6,38.2-4.8,53.9
	c-7.6,8.9-18.2,15.1-29,19.1c-12,4.5-24.3,4-36.6,6.7c-11.6,2.5-20.2,10.6-31.1,14.6c-18.4,6.8-37.6,2.3-56.3,5.8
	c-10.2,1.9-17.5,7.3-25.6,13.3c-12.8,9.5-29.1,13.3-44.8,11c-14.8-2.2-30.8-9.3-37.2-23.7c-1.7-4-3.7-8.5-7.8-10.5
	c-7.6-3.7-17.1,1.7-24.7,3c-17,2.8-33.8,0.1-48.2-9.5c-10.9-7.3-19-18.8-22-31.7c-0.6-2.5-0.8-4.9-1.1-7.5c-0.7-6.2-4.4-7.5-10-6.7
	c-16.5,2.4-46.1,9.2-58.5-6.3c-6.2-7.8-8.1-18.2-8.6-28.3c-1.4-27.1,6.3-54.8,21.7-77.4c6.2-9,13.4-17.3,21.7-24.2
	c-2.3-4.5-4.2-9-6-13.7c-3.9-10.1-10.8-25.7-9.3-36.6c2.2-16.1,17.5-22.9,31.9-19.3c10,2.5,18.4,13.1,29.6,7.8
	c4.5-2.1,7.8-6.9,7.2-11.9c-1-8-10.5-12.3-14.3-18.9c-4.5-7.7-8.8-15.1-9.8-24.2c-0.9-8.9,0-17.9-1.6-26.6
	c-1.6-8.8-6.6-17.7-15.1-20.5c-3.9-1.2-8.2-1.1-11.8-2.9c-5.5-2.8-8-9.6-7.2-15.7c0.8-6.1,4.4-11.5,8.5-16.1
	c20.5-23.2,51.1-26.6,80.1-23c9,1.1,17.9,3.3,26.2,7c8.1,3.7,15,9.6,23.1,13.2c6.5,2.9,13.3,0.9,16.5-5.7c3.4-7,4-13.4,11.1-18.3
	c4.7-3.2,10.4-4.5,16-4.1c5.7,0.4,11.1,4.3,17,3.1c4.4-0.9,5.6-6.3,8.3-9.1c12.5-13.2,35.1-14.6,51-7.5c15.8,7.1,26.6,22.3,28,39.6
	c0.4,5.3,0.3,11.5,4.3,15c2.7,2.4,6.5,2.8,10,3.6c8.2,1.8,15.1,6.1,21.1,11.7c5.4,5,10,7.6,17.1,3.6c7.5-4.2,16.6-3.6,23.8-7.2
	c7.4-3.7,12.6-13.9,19.5-19.1c7.7-5.8,17.4-9.6,27-8.4c14.9,1.9,25.8,15,32.2,28.6C500.8,104.6,504.1,122.4,503,139.9z"/>
<path class="st1" d="M499.7,137.3c-0.3,4.9-1,9.7-2,14.5c-4.6,21.9-16.5,42.3-33.3,57.1c-5.7,5-12.1,9.6-15.5,16.3
	c-3.5,6.9-1.5,12.2,2,18.2c3.5,5.9,5.3,10.6,6,18.4c1.2,13.3,0.4,26.9-2.6,39.9c-1.5,6.8-3.7,13.5-6.8,19.8
	c-2.7,5.5-8.1,11-6.6,17.5c1.1,4.8,5.2,6.7,8.5,9.8c3.5,3.2,6.5,7.2,8.9,11.2c10.4,17.3,8.6,38.2-4.8,53.9
	c-7.6,8.9-18.2,15.1-29,19.1c-12,4.5-24.3,4-36.6,6.7c-11.6,2.5-20.2,10.6-31.1,14.6c-18.4,6.8-37.6,2.3-56.3,5.8
	c-10.2,1.9-17.5,7.3-25.6,13.3c-12.8,9.5-29.1,13.3-44.8,11c-14.8-2.2-30.8-9.3-37.2-23.7c-1.7-4-3.7-8.5-7.8-10.5
	c-7.6-3.7-17.1,1.7-24.7,3c-17,2.8-33.8,0.1-48.2-9.5c-10.9-7.3-19-18.8-22-31.7c-0.6-2.5-0.8-4.9-1.1-7.5c-0.7-6.2-4.4-7.5-10-6.7
	c-16.5,2.4-46.1,9.2-58.5-6.3c-6.2-7.8-8.1-18.2-8.6-28.3c-1.4-27.1,6.3-54.8,21.7-77.4c6.2-9,13.4-17.3,21.7-24.2
	c-2.3-4.5-4.2-9-6-13.7c-3.9-10.1-10.8-25.7-9.3-36.6c2.2-16.1,17.5-22.9,31.9-19.3c10,2.5,18.4,13.1,29.6,7.8
	c4.5-2.1,7.8-6.9,7.2-11.9c-1-8-10.5-12.3-14.3-18.9c-4.5-7.7-8.8-15.1-9.8-24.2c-0.9-8.9,0-17.9-1.6-26.6
	c-1.6-8.8-6.6-17.7-15.1-20.5c-3.9-1.2-8.2-1.1-11.8-2.9c-5.5-2.8-8-9.6-7.2-15.7c0.8-6.1,4.4-11.5,8.5-16.1
	c20.5-23.2,51.1-26.6,80.1-23c9,1.1,17.9,3.3,26.2,7c8.1,3.7,15,9.6,23.1,13.2c6.5,2.9,13.3,0.9,16.5-5.7c3.4-7,4-13.4,11.1-18.3
	c4.7-3.2,10.4-4.5,16-4.1c5.7,0.4,11.1,4.3,17,3.1c4.4-0.9,5.6-6.3,8.3-9.1c12.5-13.2,35.1-14.6,51-7.5c15.8,7.1,26.6,22.3,28,39.6
	c0.4,5.3,0.3,11.5,4.3,15c2.7,2.4,6.5,2.8,10,3.6c8.2,1.8,15.1,6.1,21.1,11.7c5.4,5,10,7.6,17.1,3.6c7.5-4.2,16.6-3.6,23.8-7.2
	c7.4-3.7,12.6-13.9,19.5-19.1c7.7-5.8,17.4-9.6,27-8.4c14.9,1.9,25.8,15,32.2,28.6C497.5,102,500.8,119.8,499.7,137.3z"/>
<path class="st2" d="M212.8,284.2c-10.5,0-21.1-2.3-29.8-6.7c-1.4-0.7-2.8-1.5-4.3-1.5s-3.2,1.1-3.3,2.6c0,1.4,1.1,2.4,2.2,3.2
	c14.6,10.7,36.1,17.7,54,12.4c10-2.9,18.8-10.1,23.6-19.3c6.3-12.1,4.7-27.3,2.6-40.3c-2.5-15.3-7.2-30.2-14.4-44
	c-17.6-33.3-47.7-59.5-81.9-74.8c-5.1-2.3-10.3-4.3-15.5-6c-2.1-0.7-4.3-1.3-6.4-2c-2.2-0.6-4.7-1.2-6.7,0
	c-6.7,3.9,6.9,10.5,9.5,11.7c8.3,3.9,16.6,8,24.6,12.6c15,8.5,29.3,18.5,41.3,31c11.3,11.8,22.4,26.4,27.8,42c0.9,2.7,2.2,6.3,2,9.2
	c-0.1,1-0.8,2.1-1.9,2.2c-0.7,0.1-1.4-0.3-1.9-0.8s-0.8-1.1-1.2-1.7c-4.6-7.6-13.2-11.7-21.4-14c-17.3-4.7-36-3.9-52.9-10
	c-19.2-7-35.5-21.1-46.2-38.3c-4.6-7.4-8.3-15.4-10.7-23.8c-3.2-11.3-1.6-23.9-6.2-34.7c-4.3-10.1-14.5-12.7-24.5-10
	c-1.6,0.4-3.6,0.9-4.7-0.3c-1.1-1.2-0.5-3,0.3-4.4c3.7-6.4,10.7-9.3,17.3-11.7c5.3-1.9,10.7-3.3,16.3-4.2
	c74-11.5,134.2,56.9,161.6,117.8c15.3,34,28,76.6,9.5,112c-1.1,2.2-2.4,4.8-1.2,7c1.9,3.5,7.4,1.7,10.5-0.8
	c14.8-11.5,25.3-27.5,37.9-41.2c28.5-30.9,96.9-41.5,111.5,9.3c5.1,17.6-1.1,43.2-15.5,55.1c-0.7,0.6-1.5,1.2-2.5,1.4
	c-0.9,0.2-2.1-0.1-2.6-0.9c-0.8-1.3,0.2-2.8,0.8-4.2c3.2-7-4.9-13.7-11.5-13.3c-6.8,0.4-12.8,6-17.8,10.1
	c-11.1,9.4-23.2,16.8-37.1,21.1c-12.7,3.9-29.9,6.9-42.8,2.1c-3.2-1.2-6.6-3.2-8.2-6.3c-1.7-3.4-0.6-7.8,2.4-10.2
	c1.6-1.3,3.6-2,5.5-2.5c3.8-1.1,7.6-1.8,11.5-2.2c25.2-2.6,39.5-23.9,61.6-33.1c4.6-1.9,11.9-2.7,14.6-7.4c2.6-4.5-6.2-5.2-8.7-5.1
	c-3.1,0.1-6.2,0.6-9.1,1.6c-17,5.7-29.1,20.6-45.1,28.2c-4.2,2-8.6,3.7-13.1,5.1c-6.3,1.9-12.9,2.8-18.8,5.6
	c-4.1,1.9-7.8,3.8-10.8,7.2c-2.6,2.9-4.5,6.4-8.6,7.2c-3.7,0.8-7.7-0.8-9.9-3.8c-2.9-4.1-4.2-7.9-8.6-10.8
	c-6.8-4.6-14.3-0.1-17.3,6.4c-3.6,7.8-9.1,14.4-16.6,18.7c-23.5,13.8-51.2-1.7-72.3-13.2c-20.8-11.4-38.5-28.3-53.4-46.7
	c-12.1-14.9-21.8-32.3-28.9-50.2c-0.8-2.1-1.6-4.7-0.1-6.5c1.3-1.6,3.9-1.5,5.7-0.6c1.8,1,3.2,2.6,4.7,4c6,5.4,15.6,7.6,23.5,7.4
	c10.6-0.3,20.9-3.6,30.8-7c16.5-5.6,31.9-12.4,49.4-13.2c9-0.4,18,0.8,26.6,3.5c17.6,5.6,37.8,19,40.1,38.9
	C250.5,273.9,230.9,284.2,212.8,284.2z"/>
<path class="st3" d="M344.5,219.6c-5.3-4-0.3-12.2,1.5-16.7c3.1-8.2,5.4-16.7,7.7-25.1c2.1-7.5,4.1-15,6.9-22.2
	c6-15.2,16.3-28.3,30.4-36.6c17.8-10.5,44.3-7.5,56.6-26.6c1.5-2.3,2.7-4.8,4.9-6.4c2.5-1.8,6-2.1,8.7-0.7
	c6.8,3.4,10.3,17.8,12,24.5c5.2,20.8,2.6,42.8-6.8,61.9c-7.9,16.2-21.2,32.9-37.5,41.4c-12,6.3-26.5,8.4-39.8,5.5
	c-2-0.4-4.3-1.4-4.5-3.4c-0.2-2,1.8-3.5,3.6-4.5c21.5-12.7,35.6-32.7,42.2-56.5c0.7-2.6,1.4-5.3,1.9-7.9c0.8-3.9-0.3-10.4-5.3-7.3
	c-2.8,1.7-4.5,6.5-5.7,9.4c-7.6,18.8-18.5,36.7-32.9,51.1c-6.9,6.9-14.6,13.4-23.4,17.7C360.7,219.1,349.2,223.2,344.5,219.6z"/>
<path class="st4" d="M346.3,150.9c-5.6,28.7-14,58.3-28.5,83.8c-0.8,1.4-1.6,2.8-2.5,4.2c-1,1.6-2,3.2-3.1,4.7
	c-2.4,3.6-15,22.8-19.1,10.5c-1.6-4.9-0.3-12-0.6-17.1c-0.4-5.8-1-11.6-1.9-17.3c-3.7-22.8-11.9-45.4-25.8-64
	c-2.7-3.6-5.4-7.1-8.2-10.6c-1.7-2.1-5.2-5.4-2.2-7.9c3.2-2.7,7.3-0.2,10.5,1.1c4.1,1.7,8,3.7,11.7,5.9c9.5,5.8,17.6,13.2,23.1,22.9
	c3.6,6.4,5.8,13.4,5.9,20.8c0,2.9,0.3,8,4.6,5.7c1-0.5,1.8-1.4,2.5-2.3c8.2-10.7,3.1-26.4-4.4-36c-1.5-1.9-3.2-4.6-1.6-6.5
	c0.8-1,2.1-1.2,3.3-1.5c5.6-1,12.1-1.3,17.4-3.2c3.6-1.3,6.8-3.3,9.7-5.7c1.9-1.5,6.3-7.3,9-6.4c3.3,1,2.5,5.5,2.2,8.1
	C347.6,143.7,347,147.3,346.3,150.9z"/>
<path class="st5" d="M331.7,125.3c-10.7,8.9-30.4,10.2-42,8.7c-17-2.2-30.8-9.3-43.2-21.1c-13.6-12.9-22.7-29.9-25-48.6
	c-0.6-5,0-11.3,4.7-13.3c4.1-1.9,9.1,1.2,11.5,5c2.5,3.9,3.2,8.5,5.3,12.7c4,8.3,13.3,13.7,22.6,13.3c6.6-0.4,13.5-3.5,19.8-1.3
	c5,1.7,6.3,6.1,9.5,9.6c3.3,3.5,8,4.2,12.6,3.3c11.9-2.3,33.3,2.4,31.6,18.2C338.5,117.6,335.7,122,331.7,125.3z"/>
<path class="st6" d="M300.1,74.6c3,3.5,8.7,4.9,12.8,2.3c3.8-2.4,4.7-7.7,4.2-11.8c-1.1-10.5-7.3-22.7-17.4-27.2
	c-8.8-3.9-19.4-2.2-27.7,2.3c-3.5,1.9-6.7,4.4-9.2,7.5c-2.4,2.9-4.3,6.4-4.6,10.2c-0.2,3.5,1.3,7.4,4.5,9.2
	c5.7,3.3,11.7-1.3,17.2-2.7c3.8-1,8-0.9,11.5,0.8C295.7,67.3,297.2,71.2,300.1,74.6z"/>
<path class="st7" d="M58.1,284.5c3.6-1.2,7.5-0.9,10.2,1.7c2.3,2.2,3.2,5.6,2.9,8.8c-0.2,3.2-1.4,6.2-2.5,9.2
	c-2.8,7.4-5.6,14.9-8.4,22.3c-1.7,4.5-5,13.3-0.8,17.2c2.3,2.2,5.8,2.8,8.9,2.3c5.3-0.8,8-3.9,12.3-6.6c5.4-3.3,11-6.3,16.7-9.1
	c4.7-2.3,10.1-4.4,14.8-2.4c3.1,1.3,5.3,4.3,5.8,7.6c0.6,4.5-2.5,8.3-5.7,11.1c-11.5,9.8-23.9,17.5-38.1,22.5
	c-10,3.5-28.3,10.1-37,0.8c-5.1-5.4-3.6-14-2.9-20.6c0.5-4.4,1-8.7,1.6-13c1.3-8.7,2.6-17.5,5.2-26c2.3-7.6,6.3-18.1,12.5-23.3
	C55,285.8,56.5,285,58.1,284.5z"/>
<path class="st7" d="M145.9,392.1c5.1,1.2,10.2,2.4,15.4,3.7c4,1,8.1,1.9,12.2,1.3c8.5-1.2,11.4-9.1,11.4-16.7
	c-0.1-7.6-3.1-14.7-8-20.4c-1.3-1.5-2.8-2.9-4.6-4.4c-11.7-8.9-30.2-8.2-42.6-0.5c-14.4,9.1-21.3,28.6-16,44.9
	c5.5,16.3,22.7,27.7,39.7,26.5c4.9-0.4,10-1.8,13.4-5.5c3.4-3.5,3.4-9.7-1.6-11.8c-4.4-1.6-8.8,0.8-13.3,0.8
	c-4.3-0.2-8.8-2.5-11.7-5.8c-1.7-2.2-4-7.1-3-9.9C138.8,390,142.7,391.3,145.9,392.1z M142.2,374.8c-0.2-0.1-0.4-0.2-0.5-0.4
	c-2.7-2.4,2.8-4.3,4.4-4.6c6.7-1.5,14.5-1,19.1,4.9c0.9,1.1,1.6,2.7,0.9,4c-0.8,1.4-2.7,1.5-4.2,1.3c-6.2-0.6-12.3-2.6-18.2-4.6
	C143.2,375.2,142.7,375,142.2,374.8z"/>
<path class="st7" d="M276.5,411.9c0.4-12.6-1.4-25.8-5.8-37.4c-1.3-3-2.6-6.2-5.1-8.3c-2.5-2.1-6.2-3-8.9-1.3c-3.1,2-4,7-8.7,5.4
	c-1.9-0.7-3.6-2.3-5.4-3.6c-12.1-8.8-30.6-2.9-36.7,10c-5.4,10.6-3.9,28.3,5.9,36c9,7.2,22.3,9.8,32,2.7c1.6-1.3,3.4-2.9,5.4-3.1
	c2.5-0.1,4.9,1.8,5.9,4c2.4,6.2,2,13.9-3.3,18.3c-4.3,3.5-10.4,5.1-15.9,3.8c-5.1-1.1-13.3-5.9-18.1-1.6c-2.6,2.3-2.8,6.4-1.5,9.4
	c1.3,3,4.2,5.3,7,7.2c6.5,3.9,14.2,5.6,21.9,4.7c1.1-0.1,2.2-0.3,3.3-0.4c6.5-1.3,11.9-5.3,16.4-10.1
	C273.7,438.2,276.2,424.4,276.5,411.9z M225.2,399.1c-1.1-0.9-2.1-2.1-2.6-3.6c-1.2-3-0.5-6.7,1.9-9.2c3.9-3.8,12.5-4.6,17-1.8
	c2.7,1.8,4.3,5.1,3.8,8.2C244.3,402,231.7,404.3,225.2,399.1z"/>
<path class="st7" d="M406.1,414.4c-1.3,2.5-4.5,4.2-7.3,4.2c-2.3,0-4.5-1-6.3-2.4c-6.9-5.2-12.2-14-16.5-21.3
	c-2.9-4.9-5.4-10.1-7.5-15.4c-1.9-4.9-4.3-11.2,0.2-15.5c2.1-2,5.2-2.9,8-2.3c3.2,0.6,4.4,2.6,7.8,0.7c2.7-1.5,4.5-4.1,6.7-6.3
	c5.2-5.3,12.6-8.2,19.9-8c11.7,0.4,19.7,7.8,23.9,18.2c3.3,8.1,5.1,16.8,5.3,25.5c0,2,0,4-0.7,5.9c-0.7,1.9-2.2,3.5-4.2,4
	c-3.7,0.8-6.7-2.8-8.5-6.1c-2.5-4.6-4.5-9.5-7.3-13.9c-2.8-4.4-6.7-8.4-11.7-10.1c-5.9-1.9-10.8-0.4-11.4,6.6
	c-0.3,3.6,0.8,7.1,2,10.5c1.5,4.5,3,9,4.5,13.5C404,405.3,407.4,411.3,406.1,414.4z"/>
<path class="st7" d="M356,406.4c-0.4-5.9-1.1-11.9-3.1-17.6c-3.1-9.7-9.3-18.9-19.4-22.1c-10.2-3.4-21.5-0.4-31.1,4.1
	c-2.2,1.1-4.1,2.9-4.8,4.8c-1.1,2.3-0.7,5,2.3,6.8c8.3,5.2,16.5-5.7,25-2.7c3.8,1.3,6.5,5.7,3.1,9c-1.4,1.6-3.8,2.2-5.7,2.2
	c-5.2,0.2-9.3-0.9-14.4,1.1c-7.2,2.9-14.2,9.3-15.3,17.1c-1.1,8.3,2.2,16.9,8.8,21.9c5,4,11.7,5.4,18,4.3c3.4-0.5,6.1-2.2,9.2-3.8
	c2.7-1.4,5-3.8,8.3-4.3c2.3-0.4,4.7,0.4,6.8,1.1c2.2,0.7,4.5,1.4,6.8,1.3C362.3,428.8,356.7,413,356,406.4z M319.3,418.3
	c-3.4-0.8-5.2-3.2-5.4-6.1c-0.6-10.7,20-12,18.4-0.8C331.5,417.4,324.6,419.8,319.3,418.3z"/>
</svg>
