<?xml version="1.0" encoding="utf-8"?>
<!-- Generator: Adobe Illustrator 22.1.0, SVG Export Plug-In . SVG Version: 6.00 Build 0)  -->
<svg version="1.1" id="Layer_1" xmlns="http://www.w3.org/2000/svg" xmlns:xlink="http://www.w3.org/1999/xlink" x="0px" y="0px"
	 viewBox="0 0 512 512" style="enable-background:new 0 0 512 512;" xml:space="preserve">
<style type="text/css">
	.st0{fill:#3031D7;}
	.st1{fill:#279239;}
	.st2{fill:#FFFFFF;}
</style>
<g>
	<path class="st0" d="M512,255.9c0,51.9-15.3,100-41.8,140.4C424.6,465.9,345.6,512,256,512c-11.5,0-22.8-0.7-33.9-2.2
		c-26.8-3.5-52.4-11.3-76.1-22.4C59.5,446.1,0,358.1,0,256.1C0,114.6,114.6,0,256,0c21,0,41.6,2.4,61.1,7.3
		C428.8,34.6,512,135.7,512,255.9z"/>
	<path class="st1" d="M512,255.9c0,51.9-15.3,100-41.8,140.4c0.4-0.7-2.2-5.1-2.7-6c-0.9-1.8-1.8-3.8-2.9-5.5
		c-1.8-2.7-4-5.5-4.9-8.9c-0.4-1.6-0.7-3.3-0.7-5.1c0-2.4,0.4-5.3,0-7.8c-0.2-1.6-1.1-2.7-1.3-4.2c-0.2-2,0-4.2,0-6.2
		c0-2.9,0.7-3.1,2.4-4.9c1.1-1.3,1.8-3.1,2.4-4.7c0.7-1.6,1.8-3.5,2-5.1c0.2-0.9-0.2-2.4-0.9-3.1c-1.1-0.9-1.5,0-2.2,0.7
		c-0.9,0.9-2.2,1.3-3.1,2.2c-1.1,0.9-2.2,2.4-3.1,3.5c-2.9,3.1-6.2,6.9-10.4,8.2c-2,0.7-4.2,1.8-6.2,2c-2,0.2-3.5-0.4-5.5,0.4
		c-2.7,1.3-4.9,3.5-7.5,4.7c-1.5,0.7-2.9,1.3-4.2,2.2c-1.3,0.9-2.4,1.8-4,2.2c-1.8,0.4-3.3,0.2-5.1,0.4c-1.5,0.2-3.1,0.7-4.6,1.1
		c-1.5,0.4-3.1,0.9-4.6,1.3c-1.8,0.4-3.3,1.8-5.1,2.4c-6.2,2.2-12.2,0.4-17.5-2.7c-3.8-2.2-7.3-5.1-11.1-7.3c-2-1.3-4-3.1-5.8-4.7
		c-1.8-1.3-3.5-2.9-4.9-4.7c-4.4-6-3.5-14.2-3.1-21.1c0-2,0.9-4,0.7-5.8c0-1.8-0.4-4-0.9-5.5c-0.2-1.6-1.1-2.7-2-4
		c-1.5-2.2-2-3.8-1.5-6.7c0.4-3.1,1.1-6.2,2-9.3c0.4-2,1.3-3.5,1.5-5.5c0.2-1.6,0.7-2.4,1.3-4c1.8-4,3.3-7.8,5.5-11.5
		c1.3-2,1.8-4,2.9-6.2c2-3.8,4.9-8.2,8.6-10.4c1.8-1.1,3.1-2,4.6-3.3s3.8-2,5.8-2.9c2.7-1.3,5.3-2,8.2-2.4c1.5-0.2,2.9-0.2,4.4-0.2
		c2.9-0.2,4.6-3.1,7.5-3.8c1.8-0.4,4.6-0.2,6.6,0.2c2.4,0.4,4.6,1.8,7.3,1.8c3.3,0,7.1-0.9,10.4-2c1.1-0.4,2.2-1.1,3.3-1.3
		c2.2-0.4,4.2,0.4,6.6-0.2c0.7-0.2,1.1,0,1.8-0.2s1.1-0.4,2-0.4c0.7,0,1.5,0.2,2.2,0c0.9-0.2,2-0.7,2.7-1.3c1.3-1.1,1.8-2.7,2.7-4
		c1.3-2,1.3-3.5,1.8-6c0.7-3.1-0.2-6.4,0.4-9.5c0.7-3.1,2-6,2-9.3c0-3.1,1.1-6.2-0.2-9.3c-0.7-1.3-0.9-2-2.2-2c-1.3,0-3.1,0.7-4,1.3
		c-1.1,0.7-2.2,1.3-3.3,2c-1.1,0.9-1.5,2-3.3,1.6c-2.7-0.7-1.3-4.2-1.1-6c0.2-1.8-0.2-3.5,0.4-5.3c0.7-1.3,1.8-2.2,2.7-3.3
		c0.9-0.9,1.5-2.2,2.4-3.3s2-2.2,2.4-3.5c0.7-1.6,1.1-3.8,0.9-5.3c-0.4-3.1-1.5-5.8-3.1-8.6c-1.3-2.7-2.9-5.8-5.8-7.1
		c-2.9-1.3-6.9-1.8-9.5-0.2c-3.1,1.8-5.8,4.9-7.7,7.8c-2,2.4-4.2,4.7-5.1,7.8c-0.9,3.1-1.1,5.3,0.2,8.2c0.7,1.8,1.1,4.2,0.7,6.2
		c-0.4,1.6-2,2.7-3.3,3.3c-1.3,0.9-3.1,0.4-4.6,0.4c-1.5,0-2.7-0.4-4-0.4c-1.8-0.2-2.9-1.1-3.8-2.7c-0.4-1.1-0.9-2.7-1.8-3.1
		c-1.1-0.7-2.7-1.1-4-0.9c-2,0.4-2.7,1.8-2.7,3.5c0,1.3-0.2,3.1,0,4.4s0.2,2.7,0.7,4c0.2,1.1,1.3,2.7,2.2,3.5
		c0.9,0.9,1.1,1.6,1.8,2.4c0.9,0.9,2,1.6,2.9,2.4c0.9,0.7,1.3,0.9,0.7,2c-1.1,2.4-4.2,3.5-6.6,3.8c-1.3,0.2-2.2,0.4-3.8,0.4
		c-1.1,0-2.7-0.2-3.3,1.1s0,3.8-0.4,5.1c-0.4,1.6,0,3.1-0.2,4.7c0,0.9-0.4,0.9-0.9,1.6c-0.2,0.4-0.4,1.1-0.4,1.6
		c-0.4,1.6-0.7,2.9-0.7,4.4c-0.2,1.6-1.3,3.1-2,4.4c-0.7,1.8-1.3,2.4-2.7,3.8c-1.3,1.3-2.2,3.1-4,4.2c-1.3,0.9-2.4,1.3-4,1.8
		c-2,0.4-3.5,1.3-5.5,0.7c-3.1-0.9-9.7-3.5-8.9-7.8c0.4-1.8,1.5-3.5,2-5.3c0.7-2,1.5-3.8,3.5-4.9c0.9-0.4,2-0.4,2.7-1.1
		c0.9-0.7,1.3-1.3,1.8-2.2c1.8-2.9,1.3-6.9-0.7-9.5c-1.8-2.4-3.3-5.1-4-8c-0.9-3.8-2.4-7.3-1.8-11.3c0.2-1.8,1.8-3.5,2.4-5.1
		c0.9-1.8,2.2-3.1,2.2-5.3c0.2-2.4,0.4-4.7,0.4-7.1c0-3.3,0-6.4-0.7-9.8c-0.7-3.1-1.3-6.7-4-8.6c-1.8-1.6-3.8-2.7-5.8-3.8
		c-1.3-0.9-2.7-1.6-4-2.2c-1.5-0.9-3.5-1.6-4.6-3.1c-1.8-2.7-4.6-4-6.9-0.7c-1.3,2-1.3,4.9-1.3,7.1c0,1.8,1.1,3.1,1.1,4.9
		c0,1.1,0.2,1.6,0.4,2.4c0.2,0.7,0.4,1.3,0.7,1.8c0.4,2.2-0.7,5.1-1.5,6.9c-1.1,2.4-1.5,5.3-2.9,7.8c-0.4,0.9-1.1,1.8-1.5,2.7
		c-0.4,0.9-0.2,1.8-0.7,2.7c-0.2,0.7-0.9,1.3-1.1,1.8c-0.4,0.9-0.9,2-1.5,2.7c-4,5.3-8-1.8-9.1-5.8c-1.1-4.2,0.4-8.2-1.3-12.4
		c-0.4-1.1-1.5-2.4-2.4-3.5c-0.9-1.1-2.2-1.6-3.3-2.7c-0.4-0.7-0.9-1.3-1.3-2c-0.7-0.9-1.5-1.3-2.2-2c-1.8-1.6-3.3-3.3-4.4-5.5
		c-1.1-2.4-1.1-4.9-1.1-7.5c0-2.2,0.7-4.2,2.7-5.1c0.9-0.2,1.1,0,1.8,0.2c1.1,0.2,2,0,3.1,0.2c0.9,0.2,1.1,0.9,1.8,1.3
		c0.7,0.2,1.3,0,1.8,0c1.1,0.2,2.2,0.9,3.5,0.7c0.7-0.2,2-1.6,2.4-2.2c1.3-1.3,2.4-3.3,3.3-4.9c0.4-0.7,0.7-1.3,1.1-2.2
		c0.2-0.7,0.7-0.9,0.9-1.6c0.4-1.3,1.1-2.2,1.8-3.5c0.4-0.9,1.1-1.6,2-2.4c0.7-0.9,1.1-1.6,1.8-2.2c1.5-1.6,2.7-3.1,3.8-4.9
		c0.2-0.4,0.4-1.1,0.7-1.6s0.7-0.7,0.9-1.1c0.4-0.7,0.9-2.2,1.1-2.9c0.2-1.1,0.9-2.2,1.1-3.3s0.4-2.2,0.7-3.3c0-0.4,0.4-0.7,0.4-1.1
		c0-0.2,0-0.7,0-0.9c0.2-0.7,0.4-0.9,0.7-1.6c0.4-1.6,0-3.5,0-5.1c0-1.1,0-2.2,0-3.3c0-0.4,0-1.1,0-1.6c0-0.7,0.4-0.9,0.4-1.3
		c0.2-1.1,0.2-2.7,0-4c0-0.7-0.2-1.1-0.4-1.8c-0.2-1.1,0-2-0.2-3.1c-0.2-2-1.1-4.2-2-6c-0.7-1.8-1.3-4.2-2.7-5.5
		c-1.8-1.8-4.4-2.9-6.9-2.9c-0.7,0-1.1-0.4-2-0.4c-0.4,0-1.1,0-1.5,0c-0.9-0.2-1.8-0.7-2.4-0.9c-1.8-0.4-3.8-1.1-4.9-2.9
		c-1.5-2.2-2.7-5.1-3.1-7.8c-0.2-0.9,0-1.3-0.4-2.2c-0.2-0.7-0.7-1.3-0.9-2c-0.7-1.6-2-2.9-3.1-4.2c-1.3-1.8-3.1-2.9-5.1-3.5
		c-1.5-0.4-3.1-1.6-4.6-2c-3.1-0.9-6.2-1.6-9.5-2.2c-3.8-0.9-7.5-1.6-11.1-2.4c-4-0.9-7.7-1.6-11.7-1.8c-2.7-0.2-5.8-0.7-8.2-1.3
		c-2.4-0.7-5.1-1.3-7.3-2.7c-1.8-1.1-3.8-3.3-3.8-5.5c0-2.9,3.1-4.4,5.3-4.9c6.6-1.3,12.8,0.7,19.2,0.7c2.2,0,5.5,0.4,7.7-0.2
		c1.5-0.7,4-1.8,5.3-2.7c1.8-1.3,3.3-3.1,5.1-4.7c2.9-2.9,8-2.2,11.5-4.2c3.8-2,4.9-5.5,7.3-9.1c0.4-0.7,1.1-1.3,1.5-2
		C428.8,34.6,512,135.7,512,255.9z"/>
	<path class="st1" d="M281,469c0,0.2-0.2,0.2-0.2,0.4c-1.3,2-3.3,3.3-5.1,4.9c-1.5,1.3-3.1,2.7-4.9,3.8c-1.1,0.7-2.2,1.1-3.1,1.8
		c-0.4,0.2-1.5,0.9-2.2,0.9c-0.7,0-1.1-0.4-1.8-0.4c-0.9-0.2-2.2,0-3.1,0c-0.7,0-1.3,0-2-0.2c-0.4-0.2-0.4-0.4-1.1-0.4
		s-1.1,0.4-1.5,0.7c-0.7,0.4-1.1,0.2-2,0.4c-0.4,0-0.7,0.4-1.1,0.4c-0.7,0.2-1.3-0.2-2.2,0c-1.1,0.2-1.8,0.9-2.9,1.1
		c-1.8,0.4-3.8,0.9-5.3,2s-2.7,2.7-3.8,4.2c-1.1,1.3-2.2,2.2-3.3,3.8c-1.8,2.4-3.8,4.7-6,6.7c-1.8,1.8-3.3,3.8-4.6,6.2
		c-0.4,0.9-0.9,1.6-1.3,2.4c-0.2,0.4-0.4,0.9-0.7,1.3c-0.4,0.9-0.2,0.7-1.1,0.9c-2,0.2-4.4-0.7-6.2-0.9
		c-16.2-2.7-32.3-6.9-47.8-12.4c-3.8-1.3-7.3-2.9-10.8-4.2c-1.8-0.7-3.5-1.6-5.3-2.2c-1.3-0.7-4-1.3-5.1-2.4c-2-2-3.8-5.1-5.3-7.3
		c-1.3-2-3.8-4.9-4.6-6.9c-1.3-3.1-0.2-7.8-0.2-11.1c0-4.7,1.3-12.2-0.9-16.2c-2.2-4-7.3-5.5-8-10.4c-0.2-1.1-0.2-2.4-0.2-3.8
		c0-1.3,0.2-2.7,0-4c-0.2-2-0.9-4-1.3-6c-0.4-2.4-0.9-4.9-2-7.1c-0.4-1.3-1.3-2.7-2.2-3.5c-0.9-0.9-2-1.3-2.7-2.2
		c-0.9-1.1-1.1-2-2.7-2.4c-1.3-0.4-2.2-0.7-3.3-1.6c-2.4-1.8-5.1-3.1-7.7-4.9c-0.9-0.7-1.5-1.6-2.7-2.2c-1.3-0.9-2.7-2-4-2.9
		c-3.1-2-5.3-5.3-7.7-8c-1.8-1.8-2.9-4-4.2-6.2c-0.9-1.3-1.5-2.2-2-3.8c-0.2-0.7-0.2-1.3-0.4-1.8c-0.2-0.9-0.9-1.3-1.3-2.2
		c-1.5-2.7-2.7-5.5-4.6-7.8c-0.7-0.7-1.3-1.3-2-2.2c-1.8-2.2-2.2-5.3-3.5-8c-1.8-3.8-3.8-7.3-5.5-11.3c-2-4.2-3.1-8.4-5.8-12.4
		c-1.1-1.8-1.5-3.8-2.4-5.8c-0.4-0.9-1.3-1.8-2-2.7c-0.7-0.9-0.9-2-1.5-2.7c-0.4-0.4-0.9-0.4-1.3-1.1c-0.2-0.4-0.7-0.9-0.9-1.1
		c-1.3-2.4-2.9-4.4-4.6-6.4c-1.1-1.3-1.3-2.7-2.2-4c-1.1-2-2.2-4.2-3.1-6.2c-0.9-2-0.9-4.4-1.8-6.4c-1.1-2.4-1.1-4.9-1.8-7.5
		c-0.4-2.4-1.3-4.9-1.5-7.3c0-2.9,0.2-5.8,0.7-8.6c0.2-2,0.4-3.1,0-4.9c-0.2-1.1,0-2.4-0.2-3.5c-0.4-2-0.9-4.2-1.3-6.4
		c-0.9-4.7,1.3-9.1,1.3-13.7c0-2.2-0.2-4.4,0-6.4c0.2-2.2,1.8-4.7,3.3-6.2c1.3-1.3,2.4-2.9,3.8-4c1.5-1.1,3.3-2.2,4.9-3.3
		c0.9-0.7,2-0.7,2.9-1.3c1.1-0.7,3.1-1.8,4.2-2.7c0.2-0.2,0.4-0.4,0.4-0.4c0-0.2,0.2-0.4,0.2-0.9c0.4-0.2,0.7-0.4,1.1-0.7
		c0.7-0.7,1.1-1.1,2-1.8c0.4-0.4,1.3-1.6,1.8-1.8c0.4-0.2,0.9,0,1.5-0.2c1.5-0.7,2.9-2.2,4.2-3.1c3.1-2.4,5.3-5.5,7.5-8.6
		c1.5-2.4,3.8-4.7,4.9-7.5c0.7-2,0.7-4.2,0.9-6.2c0.2-1.1,0.4-2,0.9-2.9c1.3-2.4,3.3-4.9,3.3-7.5c0-1.6-1.1-2.9-0.4-4.4
		c0.7-1.6,1.8-3.1,2.4-4.7c0.4-0.9,0.7-1.8,1.1-2.7c0.4-0.9,1.3-2,1.5-3.1c0.4-1.6,0-3.3,0-4.9c0-1.6,0-2.9,0-4.4c0-0.9,0-1.8,0-2.7
		c-0.2-1.1-1.1-2.2-1.1-3.5c0-1.6,0.7-3.5,1.1-5.1c0.4-1.8,0-3.5,0.2-5.3c0.7-3.3,0.9-6.7-0.9-9.8c-1.1-2.2-2.9-5.1-3.1-7.5
		c-0.2-2.9,0-5.8,0.4-8.6c0.2-1.1,0-2,0.2-3.1c0.2-1.1,0.4-2.4,0.7-3.5c0.4-2.4,0.9-5.1,3.1-6.4c1.1-0.7,0.9-0.7,2.2-0.7
		c1.8,0,3.1-0.9,4.9-0.4c1.1,0.2,1.8,0.9,2.9,1.1c0.9,0.2,2,0.2,2.9,0.4c1.5,0.4,2.9,0.2,4.6,0.4c1.3,0.2,2.4,0.9,3.5,1.3
		c1.1,0.4,2.2,0.4,3.3,0.9c2.2,0.9,3.3,3.3,3.8,5.5c0.4,2.2-1.5,4.4-2,6.4c-0.2,0.9,0,2.2,0,3.3c0,0.7,0,1.1,0,1.6
		c0.4,0.4,0.7,0.7,0.9,1.1c0.2,0.7,0.4,1.3,0.7,2c1.1,1.8,2.7,2.2,2.7,4.4c0.2,1.8,0.2,4.2-0.2,6c-0.4,2-0.7,4-1.1,6.2
		c-0.4,1.8-0.9,3.8-0.9,5.8c0,0.7,0,1.3,0,1.8c0,4-2.4,6.9-4,10.2c-1.5,3.5-1.3,8.2-2,11.8c-0.4,2.9,0.4,6.9,2.4,8.9
		c0.7,0.9,2,2,2.9,2.4c1.1,0.7,2,0.4,3.3,0.7c2,0.4,3.5,0.4,5.5,0.4c1.3,0,2.9,0,4.2-0.4c1.1-0.4,1.3-0.9,1.8-2.2
		c0.7-1.6,1.1-2.4,2.7-3.3c1.1-0.7,2-1.1,2.7,0.4c0.4,1.3,1.1,2.7,1.1,4s0,2.7,0,4c0,1.6,0.2,3.1-0.7,4.4c-0.7,1.1-1.8,2-3.1,2.2
		c-2.9,0.7-6,0-8.6,1.1c-5.3,2-2.7,8.9-3.3,13.1c-0.7,4.2-2.9,8-3.3,12.2c-0.4,3.3-0.7,6.7-1.5,10c-1.8,6.2-2.7,12.4-2.4,19.1
		c0.2,6.4,1.1,13.5,5.3,18.6c2.7,3.3,6,9.3,11.1,7.5c1.3-0.4,2.9-0.4,4-1.3c0.9-0.7,1.3-1.6,1.8-2.4c0.7-1.3,0.9-3.1,0.4-4.7
		c-0.2-0.4-0.4-0.9-0.7-1.3c-0.2-0.7,0-1.1-0.2-1.6s-0.4-0.7-0.7-1.3c-0.2-0.7,0-1.6,0-2.2c0-2.4,1.8-4.4,3.5-6
		c0.9-0.9,1.8-2.2,2.7-3.5c1.1-1.6,2.4-3.1,3.3-4.7c0.9-1.3,1.3-3.5,1.8-5.1c0.7-2.7,0.4-5.8,1.1-8.6c0.2-1.6,0.7-4.4,1.8-5.8
		c1.3-1.6,2.4-0.7,2.9,0.9c0.4,1.1,0.9,2.4,1.1,3.5c0.4,1.8-0.2,2.9,0.7,4.7c0.4,0.7,0.7,1.6,1.1,2.2c0.4,0.7,1.1,0.9,1.5,1.6
		c1.8,2,4,3.5,5.8,5.5c0.7,0.7,1.3,1.6,2,2.2c2.2,2.2,5.3,3.5,7.3,6c1.3,1.6,3.3,2.7,4.6,4.2c1.1,1.3,2.4,2.2,3.5,3.5
		c1.5,1.8,2.7,3.5,4,5.3c1.1,1.6,3.1,3.1,3.8,4.9c0.7,2-0.2,3.5-1.3,5.1c-0.7,0.7-1.3,1.3-2,2.2c-0.4,0.4-1.3,2-2,2.2
		c-0.7,0-1.3-0.4-1.8-0.7c-1.3-0.4-2.2,0-3.5,0c-1.3,0.2-2.9,0-4.4,0s-2.7,0.2-4,0.4c-0.4,0-0.9,0.4-1.3,0.4c-0.7,0.2-1.3,0-1.8,0.4
		c-1.3,0.9-2.4,3.1-3.3,4.4c-0.9,1.6-2,3.5-1.5,5.3c0.2,1.1,1.8,3.3,0.9,4.7c-0.2,0.4-1.5,1.1-2,1.6c-1.1,0.9-1.8,1.6-2.2,2.9
		c-1.5,3.5,1.3,7.1,0.4,10.9c-0.2,1.1,0,2.2-0.2,3.5c-0.2,1.1-0.4,2.2-0.7,3.3c-0.2,1.1-0.2,2-0.4,3.1c-0.7,3.1-2.9,5.5-5.1,7.5
		c-1.1,1.1-2.2,1.6-2.9,3.1c-1.3,2.9-1.8,6-0.7,9.1c0.4,1.3,3.3,7.3-0.7,6.7c-1.8-0.2-2-2.7-2.4-4c-0.7-2-1.8-3.8-2.7-5.8
		c-1.3-2.4-2.4-2.9-5.1-3.3c-0.9-0.2-1.8-0.4-2.7-0.7c-2.4-0.4-5.3,0-7.7,0.2c-1.8,0.2-3.1,0.7-5.1,0.2c-2.2-0.4-4.4-1.1-6.4-1.8
		c-1.3-0.4-2-1.1-3.1-2c-1.3-1.1-3.1-2.2-3.3-4c0-0.9,0.7-2.2,0.9-3.1c0.4-1.8,0.7-2.7,0.4-4.4c-0.4-2.7,0-7.1-3.5-7.8
		c-1.3-0.2-2.9,0.7-4.2,0.9s-2.4,0.7-3.8,0.9c-0.9,0.2-2,0.4-2.9,0.9c-1.1,0.7-2.2,1.8-3.1,2.7c-1.8,1.6-4,2.7-5.8,4.2
		c-1.1,1.1-2.4,2-2.9,3.5c-0.7,2.2-0.7,4,0.2,6.2c0.2,0.9,0.4,1.8,0.4,2.7c0,0.7-0.4,0.9-0.4,1.3c-0.4,2.2-0.2,5.8,0.7,7.8
		c1.5,3.8,6.6,1.1,9.3,3.1c2.2,1.6,1.1,3.3,0,5.1c-0.7,0.9-1.1,1.3-2.4,1.6c-1.1,0.2-1.3,0.4-2.2,1.1c-1.5,1.3-2.4,2-2.9,4.2
		c-0.7,2.7-1.3,4.9-0.7,7.8c0.4,1.8,1.3,3.5,2,5.3c0.4,1.3,0.9,2.7,2,3.8c1.3,1.6,2.4,3.3,3.1,5.1c1.1,3.3,0.4,6.9,2.4,10.4
		c3.3,5.8,11.5,11.3,17,14.9c4.2,2.9,9.1,3.1,13.3,5.5c2,1.1,4,3.8,5.3,5.8c3.1,4.2,3.5,6.4,8,9.1c5.8,3.5,13.3,2.4,19.9,2.2
		c4,0,8.9-0.9,12.6,0.2c5.5,1.6,9.3,7.1,13.3,10.9c5.1,4.9,10.6,9.1,16.6,12.6c2.7,1.6,5.5,3.3,8.6,4.4c1.5,0.7,3.3,0.9,4.6,2
		c1.8,1.6,3.1,4,4.2,6c0.9,2.2,1.5,4.7,3.8,5.8c3.5,1.8,8.6,1.8,11.5-1.1c1.1-1.1,2.4-3.5,2.2-5.3c-0.2-1.1-0.7-2.2-1.1-3.3
		c-0.7-1.6-1.1-2.9-1.5-4.4c-0.7-1.6-1.3-2.9-1.1-4.4c0.2-1.6,1.1-3.1,1.8-4.4c2-3.5,5.5-3.8,8.9-5.3c2.2-0.9,4.9,0,7.1,0.7
		c2,0.4,4.2,0.9,5.5,2.2c2,2.2,2.9,4.4,5.3,6.2c1.1,0.9,2,1.6,2.4,2.9c1.3,2.9,0.9,6.2,3.8,8c2.4,1.6,4.2,2.7,7.1,2.9
		c2.2,0.2,2.9,1.1,4,2.7c0.7,0.9,1.3,1.3,1.3,2.7c0,0.9,0,2.2,0,3.1C282.6,466.3,281.9,467.7,281,469z"/>
	<path class="st2" d="M239.2,98c4.4,1.8,7.3,4.9,10.8,7.8c1.1,0.9,2.2,1.6,3.5,1.8c1.8,0.4,3.8,0.4,5.3,0.2c0.9,0,2-0.4,2.7-0.9
		c0.9-0.7,1.1-2,1.8-2.9c1.1-1.3,3.1-2.4,4.9-1.8c2,0.7,4,0.9,6,1.6c1.8,0.4,2.7,1.6,4.2,2.2c2.2,1.1,5.1,2.2,7.5,1.8
		c1.3-0.2,2.7-0.4,4-0.9c1.8-0.7,3.1-2.2,4.6-3.3c1.1-0.9,1.8-2.4,2.7-3.5c-1.5-1.6-1.1-2.9-1.8-4.9c-0.7-2.7-1.3-5.5-0.2-8.2
		c0.9-2.4,0.9-5.5-0.2-8c-0.7-1.6-3.5-3.3-5.1-3.8c-1.1-0.2-2-0.9-3.1-1.1c-1.5-0.4-2.9-0.2-4.4-0.7c-3.1-0.9-7.1-0.9-8.9-4
		c-0.7-1.3-0.9-2.7-1.3-4c-0.7-1.6-0.4-2.7-0.7-4c-0.2-1.1-0.7-2-1.1-2.9c-0.9-1.6-1.5-2-3.1-2.9c-0.9-0.7-1.5-0.7-2.4-0.9
		c-1.3-0.2-2.4-0.7-3.8-0.7c-2.4,0-5.1,1.1-7.1,2.4c-0.7,0.4-0.9,0.9-1.5,1.1c-0.4,0.2-1.3,0.2-2,0.4c-1.5,0.4-3.3,1.1-5.1,1.8
		c-1.3,0.4-2.9,0.7-4.4,0.9c-0.7,0.2-1.5,0-2.2,0.2c-1.1,0.2-2,0.7-3.1,0.4c-1.1,0-2.2-0.2-3.3-0.7c-1.3-0.2-2-1.3-2.9-2.2
		c-1.3-1.1-2.2-2.7-3.5-3.5c-1.5-1.1-4-2.4-6-2.9c-4-0.9-10,0.2-13.1,3.1c-1.5,1.6-2.4,4-2.7,6c-0.2,2.2-0.4,5.5,0.4,7.5
		c1.8,3.5,4.6,7.3,3.3,11.5c-0.7,1.8-1.5,3.3-3.1,4.7c-1.1,0.9-2.4,1.6-2.7,3.3c-1.3,5.5,11.1,5.3,13.9,5.8c2.4,0.4,4.9,1.1,7.3,1.6
		c3.8,0.4,7.5,0,11.1,0.9C236.1,96.9,237.9,97.3,239.2,98z"/>
</g>
</svg>
