<?xml version="1.0" encoding="utf-8"?>
<!-- Generator: Adobe Illustrator 21.0.0, SVG Export Plug-In . SVG Version: 6.00 Build 0)  -->
<svg version="1.1" id="Layer_1" xmlns="http://www.w3.org/2000/svg" xmlns:xlink="http://www.w3.org/1999/xlink" x="0px" y="0px"
	 viewBox="0 0 350 350" style="enable-background:new 0 0 350 350;" xml:space="preserve">
<style type="text/css">
	.st0{fill:#008080;}
	.st1{fill:#FFFFFF;}
</style>
<rect class="st0" width="350" height="350"/>
<g>
	<g>
		<path class="st1" d="M53.9,60.7h18.4l34.6,59.3V60.7h16.3v89.2h-17.4L70.3,89.2v60.7H53.9V60.7z"/>
		<path class="st1" d="M155.6,145c-9.1-6.7-13.6-15.7-13.6-26.9c0-0.4,0-0.6,0-0.8s0-0.4,0-0.8c0-11.2,4.5-20.2,13.6-26.9
			c5.4-4,11.5-6,18.3-6s12.9,2,18.3,5.9l-9.5,13.2c-2.5-1.9-5.4-2.8-8.6-2.8c-3.2,0-6.1,0.9-8.6,2.8c-4.8,3.4-7.2,8.1-7.2,14.1
			c0,0.2,0,0.4,0,0.6s0,0.3,0,0.6c0,5.9,2.4,10.6,7.2,14.1c2.5,1.9,5.4,2.8,8.6,2.8c3.2,0,6.1-0.9,8.6-2.8l9.5,13.2
			c-5.4,3.9-11.5,5.9-18.3,5.9C167.1,151,161,149,155.6,145z"/>
		<path class="st1" d="M208.8,68.2c0-2.8,1-5.2,3-7.2s4.4-3,7.2-3s5.2,1,7.2,3s3,4.4,3,7.2s-1,5.2-3,7.2c-2,2-4.4,3-7.2,3
			s-5.2-1-7.2-3C209.8,73.4,208.8,71,208.8,68.2z M227.2,85h-16.3v64.9h16.3V85z"/>
		<path class="st1" d="M259.5,145c-9.1-6.7-13.6-15.7-13.6-26.9c0-0.4,0-0.6,0-0.8s0-0.4,0-0.8c0-11.2,4.5-20.2,13.6-26.9
			c5.4-4,11.5-6,18.3-6c6.8,0,12.9,2,18.3,5.9l-9.5,13.2c-2.5-1.9-5.4-2.8-8.6-2.8s-6.1,0.9-8.6,2.8c-4.8,3.4-7.2,8.1-7.2,14.1
			c0,0.2,0,0.4,0,0.6s0,0.3,0,0.6c0,5.9,2.4,10.6,7.2,14.1c2.5,1.9,5.4,2.8,8.6,2.8s6.1-0.9,8.6-2.8l9.5,13.2
			c-5.4,3.9-11.5,5.9-18.3,5.9C271,151,264.9,149,259.5,145z"/>
	</g>
	<rect x="51" y="190.1" class="st1" width="248" height="7"/>
	<g>
		<path class="st1" d="M60.8,274.4c3.6,2.5,7.5,4.1,11.8,4.7c1.1,0,2.1,0,3,0c1.7,0,3.4-0.2,5.1-0.6c1-0.2,1.9-0.8,2.5-1.6
			c0.3-0.5,0.5-1,0.5-1.7c0-1.5-0.7-2.4-2.2-2.7l0,0l-17.1-4c-2.9-0.7-5.3-2.3-7.1-4.8s-2.7-5.4-2.7-8.5c0-2.8,0.8-5.3,2.3-7.7
			c1.6-2.3,3.6-4,6.2-5.1c2.9-1.1,5.9-1.8,9-2c1.2,0,2.4,0,3.5,0c7.7,0,14.7,2.2,21,6.5l-7,10.2c-4.4-2.7-9.3-4.1-14.5-4.1
			c-0.8,0-1.7,0-2.6,0c-1.3,0-2.5,0.3-3.6,0.8c-0.9,0.5-1.3,1.2-1.3,2.2c0,1.2,0.5,1.9,1.6,2.3c0.3,0.1,0.7,0.3,1.2,0.4l16,3.6
			c3.2,0.7,5.7,2.4,7.7,5.1c2,2.6,3,5.6,3,8.9c0,3.8-1.3,7.1-3.8,9.8c-3.2,3.2-7,5-11.4,5.4c-2.3,0.3-4.5,0.5-6.7,0.5
			s-4.4-0.2-6.7-0.5c-5.4-0.7-10.3-2.7-14.7-6.1L60.8,274.4z"/>
		<path class="st1" d="M108.4,253.2v-12.6h5.1v-12.5l12.6,5.2v7.4h6.3v12.6h-6.3v22.5c0,1.8,0.9,2.7,2.7,2.7c0.1,0,0.1,0,0.2,0h2
			v12.6h-9.2c-2.3,0-4.2-0.8-5.8-2.4s-2.4-3.5-2.4-5.8c0-0.2,0-0.3,0-0.3v-29.3h-5.2C108.4,253.3,108.4,253.2,108.4,253.2z"/>
		<path class="st1" d="M193.3,264.9c0,3.3-0.4,6.4-1.2,9.2c-1.8,6.3-5.6,11.2-11.3,14.7c-3.6,2.1-7.5,3.2-11.7,3.2h-1
			c-5.3,0-10.1-1.7-14.4-5.1s-7.2-7.6-8.7-12.8c-0.8-2.8-1.2-5.8-1.2-9.2c0-2.5,0.3-5,0.8-7.4c2-6.3,6-11.2,11.8-14.6
			c3.7-2.2,7.6-3.3,11.7-3.3h1c4.1,0,8,1.1,11.7,3.3c5.8,3.4,9.7,8.3,11.7,14.6C193.1,259.9,193.3,262.4,193.3,264.9z M180.7,265.7
			c0-1.9-0.3-3.6-0.8-5.1c-1-2.8-2.9-5.1-5.7-6.8c-1.7-1.1-3.5-1.6-5.4-1.6c-0.1,0-0.2,0-0.3,0s-0.2,0-0.3,0c-1.9,0-3.7,0.5-5.4,1.6
			c-2.8,1.7-4.7,4-5.7,6.8c-0.5,1.5-0.8,3.2-0.8,5.1s0.3,3.6,0.8,5.1c1,2.8,2.9,5.1,5.7,6.9c1.7,1.1,3.5,1.6,5.4,1.6h0.6
			c1.9,0,3.7-0.5,5.4-1.6c2.8-1.8,4.7-4.1,5.7-6.9C180.5,269.3,180.7,267.6,180.7,265.7z"/>
		<path class="st1" d="M205,240.6h12.5v3.7c4.4-2.8,9.1-4.1,14.3-4.1c1.6,0,3.3,0.1,4.9,0.4v13c-1.3-0.5-2.7-0.8-4.1-0.8h-0.7
			c-2.5,0-4.9,0.7-7,2c-4.2,2.5-6.7,6.1-7.3,11V291h-12.5L205,240.6L205,240.6z"/>
		<path class="st1" d="M296.1,268.9h-35.2c0.3,2.5,1.3,4.8,3,6.7c1.7,2,3.8,3.2,6.3,3.8c0.9,0.2,1.9,0.3,3.1,0.3
			c4,0,7.5-1.3,10.5-3.9l7.3,10.1c-5.3,4-11.3,6-17.9,6h-1.1c-5.1,0-9.6-1.5-13.6-4.4c-7-5.2-10.5-12.1-10.5-20.9c0-0.1,0-0.2,0-0.3
			c0-0.1,0-0.2,0-0.3s0-0.2,0-0.3c0-0.1,0-0.2,0-0.3c0-8.7,3.5-15.6,10.5-20.8c4-3,8.6-4.5,13.6-4.5s9.5,1.5,13.6,4.5
			c7,5.1,10.5,11.9,10.5,20.2v4.1L296.1,268.9L296.1,268.9z M282.7,260.7c-0.4-2.6-1.6-4.8-3.7-6.5c-2-1.7-4.4-2.6-7-2.6
			s-5,0.9-7,2.6s-3.3,3.9-3.7,6.5H282.7z"/>
	</g>
</g>
</svg>
