<?xml version="1.0" encoding="utf-8"?>
<!-- Generator: Adobe Illustrator 18.1.0, SVG Export Plug-In . SVG Version: 6.00 Build 0)  -->
<!DOCTYPE svg PUBLIC "-//W3C//DTD SVG 1.1//EN" "http://www.w3.org/Graphics/SVG/1.1/DTD/svg11.dtd">
<svg version="1.1" id="Layer_1" xmlns="http://www.w3.org/2000/svg" xmlns:xlink="http://www.w3.org/1999/xlink" x="0px" y="0px"
	 width="512px" height="512px" viewBox="0 0 512 512" enable-background="new 0 0 512 512" xml:space="preserve">
<g>
	<path fill="#004080" d="M252.2,13.4v319.7c-86.5-2-156-72.8-156-159.8C96.1,86.2,165.6,15.4,252.2,13.4z"/>
	<path fill="#004080" d="M330.2,95.2c0,39.6-31.2,72.1-70.3,74.1V21.1C299,23.1,330.2,55.6,330.2,95.2z"/>
	<path fill="#004080" d="M259.8,182.5L366.1,289c-27.8,26.5-65.2,43.1-106.5,44.1V182.5H259.8L259.8,182.5z"/>
	<path fill="#004080" d="M265.2,177.1h150.6c-1,41.2-17.6,78.6-44.1,106.5L265.2,177.1z"/>
	<path fill="#004080" d="M257,13.3c86.5,0.6,156.8,69.9,158.8,156.1H290.6c27.9-13.1,47.2-41.4,47.2-74.2
		C337.8,50.4,301.7,13.9,257,13.3z"/>
	<path fill="#004080" d="M260.4,4.4c0,2.4-2,4.4-4.4,4.4s-4.4-2-4.4-4.4c0-2.5,2-4.4,4.4-4.4S260.4,2,260.4,4.4z"/>
	<path fill="#004080" d="M260.4,342c0,2.4-2,4.4-4.4,4.4s-4.4-2-4.4-4.4c0-2.5,2-4.4,4.4-4.4S260.4,339.6,260.4,342z"/>
	<g>
		<path fill="#004080" d="M201.9,469.8c-27,0-48.9-21.9-48.9-48.9s21.9-48.9,48.9-48.9s48.9,21.9,48.9,48.9
			C250.7,447.8,228.8,469.8,201.9,469.8z M201.9,379c-23.1,0-41.9,18.8-41.9,41.9s18.8,41.9,41.9,41.9s41.9-18.8,41.9-41.9
			C243.7,397.8,224.9,379,201.9,379z"/>
		<path fill="#004080" d="M307.3,424.4h-45.4c-1.9,0-3.5-1.6-3.5-3.5v-45.4c0-1.9,1.6-3.5,3.5-3.5s3.5,1.6,3.5,3.5v41.9h41.9
			c1.9,0,3.5,1.6,3.5,3.5S309.3,424.4,307.3,424.4z"/>
		<path fill="#004080" d="M322.7,469.8c-1.9,0-3.5-1.6-3.5-3.5v-45.4c0-1.4,0.9-2.7,2.2-3.2s2.8-0.2,3.8,0.8l32.1,32.1
			c1.4,1.4,1.4,3.6,0,5s-3.6,1.4-5,0l-26.1-26.1v36.9C326.2,468.2,324.5,469.8,322.7,469.8z"/>
		<path fill="#004080" d="M119.8,469.8c-1.9,0-3.5-1.6-3.5-3.5v-90.9c0-1.9,1.6-3.5,3.5-3.5c14.4,0,26.2,11.8,26.2,26.2
			c0,13.3-9.9,24.2-22.7,26v42.1C123.3,468.2,121.7,469.8,119.8,469.8z M123.3,379.3V417c8.9-1.7,15.7-9.5,15.7-18.9
			C138.8,388.8,132.1,381,123.3,379.3z"/>
		<path fill="#004080" d="M369.1,469.8c-1.9,0-3.5-1.6-3.5-3.5v-45.4c0,0,0,0,0-0.1v-45.4c0-1.9,1.6-3.5,3.5-3.5
			c14.4,0,26.2,11.8,26.2,26.2c0,11.9-7.9,21.9-18.8,25.1l27.2,27.2c1.4,1.4,1.4,3.6,0,5s-3.6,1.4-5,0l-26.1-26.1v36.9
			C372.7,468.2,370.9,469.8,369.1,469.8z M372.7,379.3V417c8.9-1.7,15.7-9.5,15.7-18.9C388.3,388.7,381.5,381,372.7,379.3z"/>
	</g>
	<g>
		<path fill="#004080" d="M196.8,512c-1.5,0-2.9-0.2-4.2-0.5l0.2-3.7c1.2,0.4,2.8,0.7,4.3,0.7c2,0,3.5-0.8,3.5-2.7
			c0-3.9-8.6-2.1-8.6-8.9c0-3.6,2.9-6.2,7.8-6.2c1.2,0,2.5,0.2,3.7,0.4l-0.2,3.5c-1.2-0.3-2.4-0.5-3.7-0.5c-2.3,0-3.4,1-3.4,2.5
			c0,3.7,8.6,2.3,8.6,8.7C204.8,509.1,201.9,512,196.8,512z"/>
		<path fill="#004080" d="M218.8,511.6l-6.6-9.8v9.8h-3.9v-20.5h3.9v9.3l6.6-9.3h4.8l-7.5,9.9l7.8,10.6H218.8L218.8,511.6z"/>
		<path fill="#004080" d="M238.8,511.6l-1.4-4.2h-7.7l-1.4,4.2h-4l7.2-20.5h4.5l7.3,20.5H238.8z M234.4,499
			c-0.4-1.1-0.7-2.1-0.9-3.3l0,0c-0.2,1.1-0.6,2.2-1,3.4l-1.9,5.2h5.7L234.4,499z"/>
		<path fill="#004080" d="M250.8,494.5v17.1h-3.9v-17.1h-5.3v-3.4h14.6v3.4H250.8z"/>
		<path fill="#004080" d="M258.3,511.6v-20.5h11.1v3.3h-7.2v5h6.8v3.2h-6.8v5.5h7.2v3.4h-11.1V511.6z"/>
		<path fill="#004080" d="M288.3,511.9c-7.2,0-9.5-4.8-9.5-9.9c0-6.5,3.4-11,10.3-11c1.5,0,3,0.2,4.3,0.5L293,495
			c-1.3-0.4-2.7-0.6-4.1-0.6c-3.8,0-5.7,2.9-5.7,6.9c0,4.5,1.8,6.9,6,6.9c1.2,0,2.9-0.4,4-0.8l0.5,3.5
			C292.1,511.5,290.1,511.9,288.3,511.9z"/>
		<path fill="#004080" d="M304.5,512c-6.2,0-9.3-4-9.3-10.3c0-6.8,4.5-10.8,10-10.8s9.3,3.3,9.3,10.3
			C314.4,507.9,309.9,512,304.5,512z M304.8,494.4c-2.8,0-5.4,2.2-5.4,6.9c0,4.3,1.7,7.2,5.4,7.2c2.7,0,5.5-2.1,5.5-7
			C310.1,496.9,308.3,494.4,304.8,494.4z"/>
		<path fill="#004080" d="M320.9,509.5c0,1.4-1.1,2.5-2.5,2.5s-2.5-1.1-2.5-2.5s1.1-2.5,2.5-2.5C319.7,507,320.9,508.1,320.9,509.5z
			"/>
	</g>
</g>
</svg>
