<?xml version="1.0" encoding="utf-8"?>
<!-- Generator: Adobe Illustrator 21.0.0, SVG Export Plug-In . SVG Version: 6.00 Build 0)  -->
<svg version="1.1" id="Layer_1" xmlns="http://www.w3.org/2000/svg" xmlns:xlink="http://www.w3.org/1999/xlink" x="0px" y="0px"
	 viewBox="0 0 512 512" style="enable-background:new 0 0 512 512;" xml:space="preserve">
<style type="text/css">
	.st0{fill:#FFFFFF;}
</style>
<g>
	<path class="st0" d="M443.4,415.3h-36.2c0.7-4.3,2.8-8,6.2-10.9c3.5-2.9,7.4-4.4,11.9-4.4s8.4,1.5,11.9,4.4
		C440.7,407.3,442.7,410.9,443.4,415.3z"/>
	<path class="st0" d="M270,415.2c-1.7-4.8-4.9-8.6-9.6-11.5c-2.8-1.8-5.8-2.8-9-2.8h-1c-3.2,0-6.2,0.9-9,2.8
		c-4.7,2.9-7.9,6.8-9.6,11.5c-0.9,2.5-1.3,5.4-1.3,8.6s0.4,6.1,1.3,8.6c1.7,4.8,5,8.6,9.6,11.7c2.8,1.8,5.8,2.8,9,2.8h1
		c3.2,0,6.2-0.9,9-2.8c4.8-3,8-6.9,9.6-11.7c0.9-2.6,1.3-5.4,1.3-8.6S270.9,417.7,270,415.2z M270,415.2c-1.7-4.8-4.9-8.6-9.6-11.5
		c-2.8-1.8-5.8-2.8-9-2.8h-1c-3.2,0-6.2,0.9-9,2.8c-4.7,2.9-7.9,6.8-9.6,11.5c-0.9,2.5-1.3,5.4-1.3,8.6s0.4,6.1,1.3,8.6
		c1.7,4.8,5,8.6,9.6,11.7c2.8,1.8,5.8,2.8,9,2.8h1c3.2,0,6.2-0.9,9-2.8c4.8-3,8-6.9,9.6-11.7c0.9-2.6,1.3-5.4,1.3-8.6
		S270.9,417.7,270,415.2z M0,0v512h512V0H0z M127,448.2c-2.8,5.3-6.7,9.7-11.7,13s-10.5,5.2-16.5,5.5c-3.1,0.6-6.3,0.9-9.5,0.9
		c-17.5,0-32.2-6.5-44-19.4l15.6-14.4c7.7,8.4,17.1,12.5,28.4,12.5c2.4,0,4.8-0.3,7.1-0.9c5.6-0.1,9.6-2.7,11.9-7.7
		c1.2-1.7,1.7-3.5,1.7-5.7c0-1.9-0.5-3.7-1.5-5.4c-2.1-3.8-5.3-6.3-9.4-7.5v0.1l-30.9-9c-6.3-1.8-11.5-5.3-15.4-10.5
		c-3.9-5.2-5.9-11-5.9-17.5c0-6.6,2-12.5,6.1-17.9c6.4-8.1,14.7-13,24.9-14.7c3.5-0.7,7.1-1,10.8-1c15.1,0,28.3,5,39.8,14.9l-14,16
		c-7.4-6.4-16-9.6-25.8-9.6c-2.4,0-4.8,0.2-7.1,0.7c-4.9,0.8-8.7,3.1-11.7,6.8c-1.2,1.5-1.7,3.1-1.7,4.8c0.1,3.8,1.9,6.3,5.6,7.5
		l31.2,8.9c9.7,2.8,17,8.5,22,17.2c2.9,5.1,4.4,10.4,4.4,16.2S129.9,443.2,127,448.2z M189.8,402.7h-10.6v38c0,3,1.5,4.5,4.5,4.5
		h3.7v21.3h-15.6c-3.9,0-7.2-1.3-9.8-4c-2.7-2.7-4-5.9-4-9.8v-50h-8.7v-21.4h8.6v-21.1l21.3-10.3v31.5h10.6V402.7z M290.6,437.7
		c-3,10.7-9.4,18.9-19.1,24.8c-6.1,3.6-12.7,5.4-19.8,5.4H250c-8.9,0-17-2.8-24.3-8.5c-7.2-5.7-12.1-12.9-14.6-21.6
		c-1.4-4.7-2-9.8-2-15.4c0-4.2,0.4-8.4,1.3-12.5c3.4-10.7,10.1-18.9,20-24.6c6.2-3.7,12.8-5.5,19.7-5.5h1.6c6.9,0,13.5,1.8,19.8,5.5
		c9.8,5.7,16.4,13.9,19.8,24.6c0.8,4.1,1.3,8.2,1.3,12.4C292.6,427.9,291.9,433.1,290.6,437.7z M365.7,403.4
		c-2.2-0.9-4.5-1.3-6.8-1.3h-1.3c-4.3,0-8.2,1.1-11.8,3.4c-7.1,4.2-11.2,10.3-12.4,18.5v42.6h-21.1v-85.2h21.1v6.3
		c7.4-4.7,15.4-7,24-7c2.7,0,5.5,0.2,8.3,0.7V403.4z M465.9,429h-59.4c0.5,4.3,2.2,8.1,5,11.4c2.9,3.3,6.4,5.4,10.7,6.4
		c1.5,0.3,3.2,0.4,5.2,0.4c6.7,0,12.6-2.2,17.6-6.6l12.4,17c-8.9,6.8-19,10.2-30.2,10.2h-1.9c-8.5,0-16.2-2.5-23-7.4
		c-11.9-8.7-17.8-20.5-17.8-35.3v-2c0-14.7,5.9-26.4,17.8-35.1c6.8-5,14.4-7.6,22.9-7.6s16.1,2.5,22.9,7.6
		c11.9,8.6,17.8,20,17.8,34.1V429z M260.4,403.7c-2.8-1.8-5.8-2.8-9-2.8h-1c-3.2,0-6.2,0.9-9,2.8c-4.7,2.9-7.9,6.8-9.6,11.5
		c-0.9,2.5-1.3,5.4-1.3,8.6s0.4,6.1,1.3,8.6c1.7,4.8,5,8.6,9.6,11.7c2.8,1.8,5.8,2.8,9,2.8h1c3.2,0,6.2-0.9,9-2.8
		c4.8-3,8-6.9,9.6-11.7c0.9-2.6,1.3-5.4,1.3-8.6s-0.4-6.1-1.3-8.6C268.3,410.4,265.1,406.6,260.4,403.7z M270,415.2
		c-1.7-4.8-4.9-8.6-9.6-11.5c-2.8-1.8-5.8-2.8-9-2.8h-1c-3.2,0-6.2,0.9-9,2.8c-4.7,2.9-7.9,6.8-9.6,11.5c-0.9,2.5-1.3,5.4-1.3,8.6
		s0.4,6.1,1.3,8.6c1.7,4.8,5,8.6,9.6,11.7c2.8,1.8,5.8,2.8,9,2.8h1c3.2,0,6.2-0.9,9-2.8c4.8-3,8-6.9,9.6-11.7
		c0.9-2.6,1.3-5.4,1.3-8.6S270.9,417.7,270,415.2z M270,415.2c-1.7-4.8-4.9-8.6-9.6-11.5c-2.8-1.8-5.8-2.8-9-2.8h-1
		c-3.2,0-6.2,0.9-9,2.8c-4.7,2.9-7.9,6.8-9.6,11.5c-0.9,2.5-1.3,5.4-1.3,8.6s0.4,6.1,1.3,8.6c1.7,4.8,5,8.6,9.6,11.7
		c2.8,1.8,5.8,2.8,9,2.8h1c3.2,0,6.2-0.9,9-2.8c4.8-3,8-6.9,9.6-11.7c0.9-2.6,1.3-5.4,1.3-8.6S270.9,417.7,270,415.2z"/>
</g>
</svg>
