<?xml version="1.0" encoding="utf-8"?>
<!-- Generator: Adobe Illustrator 19.2.0, SVG Export Plug-In . SVG Version: 6.00 Build 0)  -->
<svg version="1.1" id="Layer_1" xmlns="http://www.w3.org/2000/svg" xmlns:xlink="http://www.w3.org/1999/xlink" x="0px" y="0px"
	 viewBox="0 0 512 512" style="enable-background:new 0 0 512 512;" xml:space="preserve">
<style type="text/css">
	.st0{fill:#3E4950;}
	.st1{fill:#999999;}
	.st2{fill:#ECE7EB;}
	.st3{font-family:'TratexPosVersal';}
	.st4{font-size:83.1601px;}
	.st5{font-family:'Mustardo-Regular';}
	.st6{font-size:143px;}
	.st7{letter-spacing:2;}
</style>
<g>
	<g>
		<path class="st0" d="M43.8,258.7c2.9,25.4,61.8,40.4,35.8,70.2c-8.5,9.8-21.6,19.5-16.3,33.6c4.2,11.3,17.5,17.6,25.8,26.1
			c13.7,14.1,13.6,36.7,9.4,54.1c-1.9,7.7-5.2,13.7-11.9,18.7C70.1,473.8,59,492.8,71.5,512h338.9l63-63l-63-63l63-63l-63-63l63-63
			l-63-63l63-63l-63-63H71.5C57.2,10.3,46,23.4,50.9,37c8.4,23.3,35.1,41.9,19.3,68.8c-9.3,16-28.5,32.6-17.7,52.2
			c8.2,14.8,33.5,21.2,29.3,41.3C76.9,222.5,40.8,233.3,43.8,258.7z"/>
		<path class="st1" d="M38.8,250.9c2.9,25.4,61.8,40.4,35.8,70.2c-8.5,9.8-21.6,19.5-16.3,33.6c4.2,11.3,17.5,17.6,25.8,26.1
			c13.7,14.1,13.6,36.7,9.4,54.1c-1.9,7.7-5.2,13.7-11.9,18.7c-16.5,12.4-27.6,31.4-15.1,50.6h338.9l63-63l-63-63l63-63l-63-63
			l63-63l-63-63l63-63l-63-63L66.5,0C52.2,2.5,41,15.6,45.9,29.1C54.3,52.4,81,71,65.2,97.9c-9.3,16-28.5,32.6-17.7,52.2
			c8.2,14.8,33.5,21.2,29.3,41.3C71.9,214.6,35.8,225.4,38.8,250.9z"/>
	</g>
	<g>
		<text transform="matrix(1 0 0 1 178.739 240.9468)" class="st2 st3 st4">MY</text>
		<text transform="matrix(1 0 0 1 111.9626 142.8692)" class="st2 st3 st4">VISIT</text>
		<text transform="matrix(1 0 0 1 114.9142 338.1324)" class="st2 st3 st4">BLOG</text>
		<g>
			<text transform="matrix(1 0 0 1 261.9571 435.5191)" class="st2 st5 st6 st7">&gt;</text>
			<text transform="matrix(1 0 0 1 177.9571 435.5191)" class="st2 st5 st6 st7">&gt;</text>
		</g>
	</g>
</g>
</svg>
