<?xml version="1.0" encoding="utf-8"?>
<!-- Generator: Adobe Illustrator 19.0.0, SVG Export Plug-In . SVG Version: 6.00 Build 0)  -->
<svg version="1.1" id="Layer_1" xmlns="http://www.w3.org/2000/svg" xmlns:xlink="http://www.w3.org/1999/xlink" x="0px" y="0px"
	 viewBox="-41 164.9 512 512" style="enable-background:new -41 164.9 512 512;" xml:space="preserve">
<style type="text/css">
	.st0{fill:#80574A;}
	.st1{fill:#E0D7C9;}
	.st2{fill:#FF425F;}
	.st3{fill:#FFCB3A;}
	.st4{fill:#3FB381;}
	.st5{fill:#3A86FE;}
	.st6{fill:#54423B;}
	.st7{fill:#C8C3B6;}
	.st8{fill:#1F2832;}
	.st9{fill:#0D141C;}
	.st10{fill:#2C3F54;}
	.st11{fill:#5D8687;}
	.st12{fill:#39516B;}
	.st13{fill:#715886;}
	.st14{fill:#E2DFD8;}
	.st15{fill:#FFFFFF;}
	.st16{fill:#4F4E75;}
	.st17{fill:#97A7B1;}
</style>
<path class="st0" d="M471,272.9v53H-41v-53c0-29.3,11.7-55.9,30.7-75.4c7.3-7.6,15.9-14.1,25.2-19.2c7.9-4.4,16.4-7.8,25.3-10
	c8.1-2.1,16.6-3.2,25.3-3.3c0.5,0,1,0,1.5,0h296C422.7,164.9,471,213.2,471,272.9z"/>
<path class="st1" d="M471,325.9v243c0,59.6-48.3,108-108,108H67c-59.7,0-108-48.4-108-108v-243H471z"/>
<path class="st2" d="M14.9,178.3v147.6h-25.2V197.5C-3,189.9,5.6,183.4,14.9,178.3z"/>
<path class="st3" d="M40.2,168.2v157.7H14.9V178.3C22.8,173.9,31.3,170.5,40.2,168.2z"/>
<path class="st4" d="M65.5,164.9v161H40.2V168.2C48.3,166.2,56.8,165,65.5,164.9z"/>
<path class="st5" d="M90.8,164.9v161H65.5v-161c0.5,0,1,0,1.5,0H90.8z"/>
<rect x="-41" y="323.6" class="st6" width="512" height="8.6"/>
<path class="st7" d="M471,481.1v87.8c0,59.6-48.3,108-108,108h-95.8L120.8,530.5l199.8-199.8L471,481.1z"/>
<circle class="st1" cx="215" cy="424.9" r="145.9"/>
<circle class="st8" cx="215" cy="424.9" r="115.8"/>
<path class="st9" d="M215,317.7c-59.2,0-107.2,48-107.2,107.2s48,107.2,107.2,107.2s107.2-48,107.2-107.2S274.2,317.7,215,317.7z
	 M215,541.6c-64.5,0-116.7-52.3-116.7-116.7c0-64.5,52.3-116.7,116.7-116.7s116.7,52.2,116.7,116.7S279.5,541.6,215,541.6z"/>
<path class="st9" d="M215,369.5c-30.6,0-55.4,24.8-55.4,55.4s24.8,55.4,55.4,55.4s55.4-24.8,55.4-55.4S245.6,369.5,215,369.5z
	 M215,485.2c-33.3,0-60.3-27-60.3-60.3s27-60.3,60.3-60.3s60.3,27,60.3,60.3S248.3,485.2,215,485.2z"/>
<path class="st9" d="M215,337.7c-48.2,0-87.2,39.1-87.2,87.2s39.1,87.2,87.2,87.2s87.2-39.1,87.2-87.2S263.2,337.7,215,337.7z
	 M215,517.6c-51.2,0-92.7-41.5-92.7-92.7s41.5-92.7,92.7-92.7s92.7,41.5,92.7,92.7S266.2,517.6,215,517.6z"/>
<circle class="st9" cx="215" cy="424.9" r="46.6"/>
<path class="st10" d="M204.7,335.6c0.3,0.5,0.4,1.2,0.3,1.7c0,1-0.7,2.1-1.3,3c-0.4,0.7-1.8,1.3-2.6,1.7c-2.7,0.9-3.8-2.1-4.6-4.1
	c-0.3-0.8-0.6-1.7-0.2-2.6c0.7-1.3,2.3-2.4,3.8-2.5C201.9,332.5,203.9,333.8,204.7,335.6z"/>
<path class="st10" d="M235.6,345.7c0.1,0.3,0.2,0.6,0.2,0.9c0.1,0.7,0,1.3-0.4,1.9c-1.3,1.4-3.9,1.7-5.1,0c-0.5-0.8-0.4-1.8,0-2.6
	c0.2-0.4,0.6-1.2,1.1-1.4c0.3-0.1,0.6-0.1,0.9-0.2c0.4-0.2,0.8-0.3,1.4-0.1C234.6,344.4,235.2,344.9,235.6,345.7z"/>
<path class="st11" d="M222.6,346.4c0,0.1,0.1,0.2,0.2,0.4c0.7,1.7,0,3.6-1.7,4.1c-0.8,0.2-1.7,0.3-2.4-0.1c-0.4-0.2-0.9-0.5-1.3-0.8
	c-0.3-0.3-0.3-0.6-0.4-1c-0.1-0.9-0.1-2,0.4-2.8c0.2-0.4,0.7-0.7,1.1-0.9c0.8-0.5,1.7-0.8,2.8-0.3
	C221.8,345.3,222.3,345.8,222.6,346.4z"/>
<path class="st12" d="M243.9,347.5c0.1-0.2,0.4-0.4,0.6-0.6c0.3-0.3,0.4-0.5,0.6-0.8c0.5-0.5,1.4-0.6,2.1-0.6c0.9,0,2.2,0.4,3,0.8
	c0.8,0.4,1.4,1.1,2.1,1.5c0.4,0.3,0.8,0.4,1.2,0.5c0.8,0.2,1.2,0.9,2,0.9c1.2,0.2,2.5,0.3,3.8,0.6c3.5,0.7,5.6,3.7,7.2,6.7
	c0.6,1.3,0.8,2.1-0.4,2.9c-1.9,1.3-3.8-0.6-5-2c-0.9-1-1.7-2.5-3-3.2c-0.4-0.3-0.8-0.3-1.2-0.3c-0.5-0.1-0.7-0.4-1.1-0.7
	c-0.7-0.5-1.7-0.3-2.5,0c-1.7,0.6-3.4,1.8-5.2,1.4c-1.3-0.4-2.2-1-3.1-1.9c-0.5-0.5-1.2-0.5-1.6-1c-0.5-0.5-0.4-1.4-0.2-2
	c0.1-0.6,0.4-1.3,0.6-2C243.6,347.8,243.7,347.6,243.9,347.5z"/>
<path class="st13" d="M289.5,381.2c2.2,4.7,4.9,9.3,6.8,14.2c1.3,3.5,2.2,7.6,2.6,11.3c0.6,4.4,1.2,8.7,1.5,13.1
	c0.3,3.1,0.3,7.2-0.4,10c-1.6-3-1.9-6.1-2.2-9.4c-0.4-4-1.6-9.3-3.1-13.3c-1-2.5-2.1-4.4-2.7-7c-0.7-3.1-1.6-5.8-3-8.6
	c-1.1-2.3-2.4-4.3-3.9-6.2c-1.7-2.1-2.1-2.2-2.4-5c-0.2-1.8-0.8-3.7,1.5-3.1C285.7,377.7,288.4,380,289.5,381.2z"/>
<path class="st14" d="M411,211.4c0.1,0,0.1,0,0.2,0"/>
<path class="st9" d="M393.2,288.6h-42.3c-12.2,0-22-9.8-22-22v-42.3c0-12.2,9.8-22,22-22h42.3c12.2,0,22,9.8,22,22v42.3
	C415.2,278.7,405.3,288.6,393.2,288.6z"/>
<path class="st8" d="M391.1,282.4h-38c-9.9,0-18-8.1-18-18v-38c0-9.9,8.1-18,18-18h38c9.9,0,18,8.1,18,18v38
	C409.1,274.4,401,282.4,391.1,282.4z"/>
<path class="st9" d="M372.1,210.7c-19.2,0-34.7,15.5-34.7,34.7s15.5,34.7,34.7,34.7s34.7-15.5,34.7-34.7S391.3,210.7,372.1,210.7z
	 M372.1,278.1c-18,0-32.7-14.6-32.7-32.7c0-18,14.6-32.7,32.7-32.7c18,0,32.7,14.6,32.7,32.7C404.7,263.4,390,278.1,372.1,278.1z"/>
<path class="st9" d="M372.1,217.5c-15.5,0-27.9,12.5-27.9,27.9s12.5,27.9,27.9,27.9c15.5,0,27.9-12.5,27.9-27.9
	S387.5,217.5,372.1,217.5z"/>
<path class="st15" d="M371.5,221c0.1-0.1,0.1-0.2,0.2-0.3c-1.4-0.4-3.4,1.1-4.2,2.2c-0.6,0.8,0.3,2.2,1.3,2.1c0.7,0,1.4-0.3,2.1-0.6
	c0.8-0.3,1.2-0.3,2-0.4c0.5-0.1,0.9-0.4,1.3-0.7c1.2-1.2,0.4-1.6-1-1.6"/>
<path class="st15" d="M380.3,225c-1,0-2.1,0.7-1.3,1.6c0.4,0.6,1.5,1.7,2.2,2c0.7,0.2,1.2,0,1.5-0.6c0.8-1.5-0.8-1.7-2-2.4"/>
<path class="st15" d="M372,228.7c-1,0.2-1.6,0.7-2.2,1.6c-0.5,0.8-0.7,1.4,0.4,1.6c1,0.2,1.8-0.2,2.6-0.9c0.4-0.4,0.8-0.9,0.5-1.5
	C373,229.1,372.3,229.1,372,228.7"/>
<path class="st15" d="M348.2,241.3c-1.2,1.8-1,4.7-0.5,6.6c0.2,1.1,0.8,2.3,1.3,3.3c0.4,0.8,1.1,2.4,2,2.7c0.5-1.2-0.7-2.8-1.3-3.9
	c-0.6-1.4-0.8-3.2-0.6-4.7c0.1-1.2,0.5-2.3,0.9-3.5c0.1-0.4,0.4-1,0.2-1.4C349.7,239.3,348.7,240.8,348.2,241.3"/>
<path class="st15" d="M379.4,227c-0.9,0-1.5-0.7-2.3-0.9s-1.7-0.1-2.6-0.4c-0.9-0.2-1.9-0.2-2.8-0.1c-0.4,0.1-0.6,0.2-1.1,0.2
	c-0.3,0-0.6-0.3-0.9-0.2c-0.9,0-1.7,0.6-2.5,0.6c-0.4,0-1-0.1-1.4,0.1s-0.5,0.5-0.8,0.8c-0.7,0.6-1.7,0.6-2.6,1.1
	c-0.8,0.4-1.9,1-2.6,1.6c-1.2,1-2.7,2.1-4.3,2.7c-0.5,0.2-1.6,0.3-2-0.2c-0.7-0.6,0.2-1.7,0.6-2.3c2.2-2.9,4.4-5.1,7.9-5.2
	c2.1-0.1,4.2-0.4,6.2-0.9c1.2-0.3,2.3-0.9,3.5-1c1.7,0,3.2,1.2,4.6,2c0.6,0.3,1.3,0.6,1.8,1C378.5,225.9,379.7,227.1,379.4,227z"/>
<path class="st16" d="M366.7,222.2c0.4-0.7,1.4-0.5,2.1-0.7c1.7-0.2,3.5-0.2,5.2-0.1c2.3,0.3,5,1.1,7.1,2.3c1,0.6,1.8,1.5,2.9,2.2
	c0.8,0.5,1.5,1.3,2.2,1.9c1,1,5,3.7,4,5.5c-0.8-0.1-1.8-1-2.6-1.3c-1.3-0.6-2.4-1.2-3.7-1.8c-2-1-4-2.2-6-3.3
	c-3.7-1.8-7.3-2.5-11.3-2.2c-1.5,0.1-2.8,0.4-4.2,1c-1.1,0.4-3.1,0.3-2.7-1.5c0.3-1.2,2.1-2.4,3.1-2.8
	C365.1,220.3,368.1,219.4,366.7,222.2z"/>
<path class="st11" d="M386,261.7c-0.7,0.4-1.1,1-1.9,1.6c-0.9,0.7-2.2,1.3-3.2,1.9s-1.9,1.1-3,1.6c-0.6,0.3-1.8,0.3-2,0.9
	c1.1,0.5,2.6,0.2,3.8,0.1c0.6-0.1,1.3-0.1,1.9-0.3c0.7-0.3,1.3-0.8,2-1c1.3-0.5,2.7-1.2,3.8-2.2c1-1,1.9-2.2,2.7-3.4
	c0.4-0.5,3.1-5.2,1.7-5.8c-0.6-0.2-2.6,2-2.9,2.3c-1.4,1.3-2.6,2.7-4,4.1"/>
<path class="st17" d="M267.2,366.3c0.1,0,0.2,0.1,0.3,0.2c0.2,0.2,0.4,0.6,0.6,0.8c0.4,0.5,0.8,0.7,1.3,1.2c0.4,0.4,0.6,0.8,1,1.3
	c0.5,0.5,0.9,1,1.3,1.6c0.4,0.5,0.7,1,1.1,1.5c0.7,0.9,1.3,1.8,1.9,2.7c0.4,0.5,0.4,1.2,0.6,1.7c0.1,0.3,0.4,0.7,0.4,1
	c-0.2,0.7-1.2-0.1-1.4-0.4c-1.4-1.7-2.5-3.3-4.2-4.7c-0.8-0.6-1.2-1.4-1.9-2.1c-0.7-0.5-1.5-0.9-2.1-1.4c-0.7-0.5-1.5-1-2.2-1.7
	c-1.3-1.3-3.3-1.9-4.8-2.7c-2.5-1.1-5-2.2-7.6-3c-0.9-0.3-1.7-0.5-2.5-1.1c-0.7-0.4-1.4-0.8-2.2-0.9c-0.4,0-0.7-0.1-1.1-0.2
	c-0.4-0.2-0.8-0.5-0.9-1c-0.1-0.7,0.5-1.4,1.1-1.6c1.4-0.4,3,0.2,4.4,0.5c0.8,0.2,1.6,0.4,2.4,0.5c0.7,0.1,1.3,0.1,2,0.4
	c0.4,0.2,0.9,0.3,1.4,0.6c0.5,0.3,1,0.6,1.4,0.9c0.4,0.2,0.9,0.3,1.4,0.6c0.5,0.3,0.9,0.7,1.5,0.9c0.9,0.5,1.8,1.2,2.8,1.6
	c0.4,0.2,0.8,0.4,1.3,0.6c0.4,0.2,0.7,0.8,1.2,1c0.5,0.3,0.8,0.6,1.3,0.9C266.9,366.2,267.1,366.2,267.2,366.3z"/>
<path class="st11" d="M201.1,398c0.7-0.1,1.4-0.4,2.1-0.5c0.2,0,0.4,0,0.8,0c0.2,0,0.5-0.2,0.7-0.3c1.1-0.5,2.2-0.9,3.4-1.2
	c1.4-0.4,3-0.2,4.4-0.5c1.5-0.3,3.1-0.3,4.7-0.4c0.6-0.1,1.2,0.1,2,0.2c1,0.2,2,0.2,2.8,0.4c0.7,0.1,1.2,0.5,1.9,0.7
	c0.8,0.2,1.5,0.6,2.2,1.1c1.2,0.7,2.4,1.2,3.6,2.1c0.9,0.7,2.5,1.9,3,2.9c-0.3-0.9-1.9-1-2.6-1.4c-0.8-0.4-1.6-0.8-2.3-1.3
	c-1.4-0.6-2.8-1.4-4.3-1.5c-0.9,0-1.7-0.2-2.6-0.2c-0.4,0-0.8-0.2-1.2-0.3c-0.5-0.1-0.9,0.1-1.4,0.1c-1.7,0-3.4-0.1-5-0.1
	c-1.5,0-3,0.4-4.4,0.4c-0.8,0-1.7,0.1-2.4,0.3c-0.4,0.2-0.8,0.5-1.2,0.5s-0.7,0-1.1,0c-0.5,0.1-1,0.5-1.4,0.6s-0.7,0-1.1,0
	c-0.8,0.2-1.4,0.6-2.2,0.7c-0.8,0-2-0.6-0.9-1.3C199,398.7,200.4,398.8,201.1,398z"/>
<path class="st17" d="M199.2,395.3c-0.4,0.4-2.9,1.8-1.4,2.4c0.9,0.4,2.4-0.7,3.2-1c0.5-0.2,1.8-1,1.5-1.7c-0.2-0.5-0.9-0.4-1.3-0.4
	c-0.9,0-1.2,0.5-2,0.9"/>
<path class="st15" d="M198.2,402.5c-1.6-1.2-3.7,2.1-4.4,3.2c-0.5,0.8-2.2,3.3-0.6,3.6c0.9,0.2,1.5-0.4,2-1c0.7-0.8,1.6-1.4,2.6-1.9
	c0.8-0.4,1.7-0.5,2.4-1c0.6-0.4,1-0.9,1.5-1.4c-0.4-1.5-1.5-0.9-2.7-0.7"/>
<path class="st12" d="M176.9,516c-0.1,0.1-0.2,0.3-0.3,0.4c1,1.9,4.9,2.3,6.8,2.9c1.4,0.4,3.2,1,4.7,0.6c0.3-1.4-2.3-1.8-3.1-2.1
	c-1.1-0.4-2.3-0.9-3.3-1.4c-0.8-0.4-4.4-3.5-4.8-1.3"/>
<path class="st12" d="M224.4,522c1.1,0,2.3,0,3.4,0c1.3,0,2.9-0.8,4.2-0.4c0.3,0.5-0.8,1.4-1.2,1.6c-0.7,0.4-1.3,0.3-2,0.4
	c-1.4,0.2-2.5,0.4-3.9,0.4c-1.5,0-2.9,0-4.4,0c-0.4,0-0.9,0.1-1.3,0c-0.4-0.1-0.6-0.5-1.1-0.5c-0.1-0.7,0.3-0.9,0.8-1.1
	c0.6,0,1.2,0.1,1.8,0.3c1,0.1,2,0,3-0.3"/>
<path class="st11" d="M170.2,364.8c-1.3,1.1-3.2,1.6-4.7,2.5c-2.2,1.3-3.6,2.9-5.5,4.7c-1.6,1.6-3.1,3.4-4.5,5.1
	c-1.9,2.3-3.7,4.5-5,7.1c-2.2,4.3-6.1,7.9-7.8,12.5c-0.6,1.7-1,3.8-1.5,5.6c-0.3,1-1.2,6.1-2.1,5.8c-0.2-1-0.5-2.2-0.6-3.2
	c0-1.1,0.6-2,0.7-3.1c0.2-1.7,0.3-3.5,0.7-5.3c0.8-3.2,2.1-6.7,3.6-9.7c0.5-1,1.4-1.8,2-2.9c0.4-0.7,0.9-1.5,1.4-2.2
	c1.3-1.6,2.5-3.1,3.6-4.8c2.3-3.6,5.1-7,8.2-9.9c2.8-2.7,6.5-5,10.1-6.6c3-1.4,6.4-1.5,9.4-2.5c1-0.3,2.5-1,2.4,0.9
	c-0.1,1.2-1.5,1.9-2.5,2.2c-1.1,0.4-2.1,0.7-3.2,1c-0.7,0.2-1.4,0.5-2,1C170.8,364.9,169.3,366.5,170.2,364.8z"/>
</svg>
