<?xml version="1.0" encoding="utf-8"?>
<!-- Generator: Adobe Illustrator 22.1.0, SVG Export Plug-In . SVG Version: 6.00 Build 0)  -->
<svg version="1.1" id="Layer_1" xmlns="http://www.w3.org/2000/svg" xmlns:xlink="http://www.w3.org/1999/xlink" x="0px" y="0px"
	 viewBox="0 0 886.6 512" style="enable-background:new 0 0 886.6 512;" xml:space="preserve">
<style type="text/css">
	.st0{fill:#3031D7;}
	.st1{fill:#279239;}
	.st2{fill:#FFFFFF;}
	.st3{fill:#FFFF6D;}
	.st4{fill:none;stroke:#00FF73;stroke-width:3;stroke-linecap:round;stroke-linejoin:round;}
	.st5{fill:none;stroke:#00FF73;stroke-width:3;stroke-linecap:round;stroke-linejoin:round;stroke-dasharray:11.6689,21.393;}
	.st6{fill:none;stroke:#00FF73;stroke-width:3;stroke-linecap:round;stroke-linejoin:round;stroke-dasharray:12.2193,22.402;}
	.st7{fill:none;stroke:#00FF73;stroke-width:3;stroke-linecap:round;stroke-linejoin:round;stroke-dasharray:12.3238,22.5937;}
	.st8{fill:none;stroke:#00FF73;stroke-width:3;stroke-linecap:round;stroke-linejoin:round;stroke-dasharray:12.0484,22.0888;}
	.st9{fill:none;stroke:#00FF73;stroke-width:3;stroke-linecap:round;stroke-linejoin:round;stroke-dasharray:11.761,21.5618;}
	.st10{fill:none;stroke:#00FF73;stroke-width:3;stroke-linecap:round;stroke-linejoin:round;stroke-dasharray:12.2389,22.4379;}
	.st11{fill:none;stroke:#00FF73;stroke-width:3;stroke-linecap:round;stroke-linejoin:round;stroke-dasharray:12.0369,22.0676;}
	.st12{fill:none;stroke:#00FF73;stroke-width:3;stroke-linecap:round;stroke-linejoin:round;stroke-dasharray:12.5239,22.9606;}
	.st13{fill:none;stroke:#00FF73;stroke-width:3;stroke-linecap:round;stroke-linejoin:round;stroke-dasharray:12.1951,22.3578;}
	.st14{fill:none;stroke:#00FF73;stroke-width:3;stroke-linecap:round;stroke-linejoin:round;stroke-dasharray:12.0671,22.123;}
	.st15{fill:none;stroke:#00FF73;stroke-width:3;stroke-linecap:round;stroke-linejoin:round;stroke-dasharray:12.1142,22.2094;}
	.st16{fill:none;stroke:#00FF73;stroke-width:3;stroke-linecap:round;stroke-linejoin:round;stroke-dasharray:12.0295,22.0541;}
	.st17{fill:none;stroke:#00FF73;stroke-width:3;stroke-linecap:round;stroke-linejoin:round;stroke-dasharray:11.9095,21.8341;}
	.st18{fill:none;stroke:#00FF73;stroke-width:3;stroke-linecap:round;stroke-linejoin:round;stroke-dasharray:12.1252,22.2294;}
	.st19{fill:none;stroke:#00FF73;stroke-width:3;stroke-linecap:round;stroke-linejoin:round;stroke-dasharray:12.2951,22.541;}
</style>
<g>
	<path class="st0" d="M512,255.9c0,51.9-15.3,100-41.8,140.4C424.6,465.9,345.6,512,256,512c-11.5,0-22.8-0.7-33.9-2.2
		c-26.8-3.5-52.4-11.3-76.1-22.4C59.5,446.1,0,358.1,0,256.1C0,114.6,114.6,0,256,0c21,0,41.6,2.4,61.1,7.3
		C428.8,34.6,512,135.7,512,255.9z"/>
	<path class="st1" d="M512,255.9c0,51.9-15.3,100-41.8,140.4c0.4-0.7-2.2-5.1-2.7-6c-0.9-1.8-1.8-3.8-2.9-5.5
		c-1.8-2.7-4-5.5-4.9-8.9c-0.4-1.6-0.7-3.3-0.7-5.1c0-2.4,0.4-5.3,0-7.8c-0.2-1.6-1.1-2.7-1.3-4.2c-0.2-2,0-4.2,0-6.2
		c0-2.9,0.7-3.1,2.4-4.9c1.1-1.3,1.8-3.1,2.4-4.7c0.7-1.6,1.8-3.5,2-5.1c0.2-0.9-0.2-2.4-0.9-3.1c-1.1-0.9-1.5,0-2.2,0.7
		c-0.9,0.9-2.2,1.3-3.1,2.2c-1.1,0.9-2.2,2.4-3.1,3.5c-2.9,3.1-6.2,6.9-10.4,8.2c-2,0.7-4.2,1.8-6.2,2s-3.5-0.4-5.5,0.4
		c-2.7,1.3-4.9,3.5-7.5,4.7c-1.5,0.7-2.9,1.3-4.2,2.2c-1.3,0.9-2.4,1.8-4,2.2c-1.8,0.4-3.3,0.2-5.1,0.4c-1.5,0.2-3.1,0.7-4.6,1.1
		s-3.1,0.9-4.6,1.3c-1.8,0.4-3.3,1.8-5.1,2.4c-6.2,2.2-12.2,0.4-17.5-2.7c-3.8-2.2-7.3-5.1-11.1-7.3c-2-1.3-4-3.1-5.8-4.7
		c-1.8-1.3-3.5-2.9-4.9-4.7c-4.4-6-3.5-14.2-3.1-21.1c0-2,0.9-4,0.7-5.8c0-1.8-0.4-4-0.9-5.5c-0.2-1.6-1.1-2.7-2-4
		c-1.5-2.2-2-3.8-1.5-6.7c0.4-3.1,1.1-6.2,2-9.3c0.4-2,1.3-3.5,1.5-5.5c0.2-1.6,0.7-2.4,1.3-4c1.8-4,3.3-7.8,5.5-11.5
		c1.3-2,1.8-4,2.9-6.2c2-3.8,4.9-8.2,8.6-10.4c1.8-1.1,3.1-2,4.6-3.3s3.8-2,5.8-2.9c2.7-1.3,5.3-2,8.2-2.4c1.5-0.2,2.9-0.2,4.4-0.2
		c2.9-0.2,4.6-3.1,7.5-3.8c1.8-0.4,4.6-0.2,6.6,0.2c2.4,0.4,4.6,1.8,7.3,1.8c3.3,0,7.1-0.9,10.4-2c1.1-0.4,2.2-1.1,3.3-1.3
		c2.2-0.4,4.2,0.4,6.6-0.2c0.7-0.2,1.1,0,1.8-0.2s1.1-0.4,2-0.4c0.7,0,1.5,0.2,2.2,0c0.9-0.2,2-0.7,2.7-1.3c1.3-1.1,1.8-2.7,2.7-4
		c1.3-2,1.3-3.5,1.8-6c0.7-3.1-0.2-6.4,0.4-9.5c0.7-3.1,2-6,2-9.3c0-3.1,1.1-6.2-0.2-9.3c-0.7-1.3-0.9-2-2.2-2c-1.3,0-3.1,0.7-4,1.3
		c-1.1,0.7-2.2,1.3-3.3,2c-1.1,0.9-1.5,2-3.3,1.6c-2.7-0.7-1.3-4.2-1.1-6c0.2-1.8-0.2-3.5,0.4-5.3c0.7-1.3,1.8-2.2,2.7-3.3
		c0.9-0.9,1.5-2.2,2.4-3.3s2-2.2,2.4-3.5c0.7-1.6,1.1-3.8,0.9-5.3c-0.4-3.1-1.5-5.8-3.1-8.6c-1.3-2.7-2.9-5.8-5.8-7.1
		s-6.9-1.8-9.5-0.2c-3.1,1.8-5.8,4.9-7.7,7.8c-2,2.4-4.2,4.7-5.1,7.8s-1.1,5.3,0.2,8.2c0.7,1.8,1.1,4.2,0.7,6.2
		c-0.4,1.6-2,2.7-3.3,3.3c-1.3,0.9-3.1,0.4-4.6,0.4s-2.7-0.4-4-0.4c-1.8-0.2-2.9-1.1-3.8-2.7c-0.4-1.1-0.9-2.7-1.8-3.1
		c-1.1-0.7-2.7-1.1-4-0.9c-2,0.4-2.7,1.8-2.7,3.5c0,1.3-0.2,3.1,0,4.4s0.2,2.7,0.7,4c0.2,1.1,1.3,2.7,2.2,3.5
		c0.9,0.9,1.1,1.6,1.8,2.4c0.9,0.9,2,1.6,2.9,2.4c0.9,0.7,1.3,0.9,0.7,2c-1.1,2.4-4.2,3.5-6.6,3.8c-1.3,0.2-2.2,0.4-3.8,0.4
		c-1.1,0-2.7-0.2-3.3,1.1s0,3.8-0.4,5.1c-0.4,1.6,0,3.1-0.2,4.7c0,0.9-0.4,0.9-0.9,1.6c-0.2,0.4-0.4,1.1-0.4,1.6
		c-0.4,1.6-0.7,2.9-0.7,4.4c-0.2,1.6-1.3,3.1-2,4.4c-0.7,1.8-1.3,2.4-2.7,3.8c-1.3,1.3-2.2,3.1-4,4.2c-1.3,0.9-2.4,1.3-4,1.8
		c-2,0.4-3.5,1.3-5.5,0.7c-3.1-0.9-9.7-3.5-8.9-7.8c0.4-1.8,1.5-3.5,2-5.3c0.7-2,1.5-3.8,3.5-4.9c0.9-0.4,2-0.4,2.7-1.1
		c0.9-0.7,1.3-1.3,1.8-2.2c1.8-2.9,1.3-6.9-0.7-9.5c-1.8-2.4-3.3-5.1-4-8c-0.9-3.8-2.4-7.3-1.8-11.3c0.2-1.8,1.8-3.5,2.4-5.1
		c0.9-1.8,2.2-3.1,2.2-5.3c0.2-2.4,0.4-4.7,0.4-7.1c0-3.3,0-6.4-0.7-9.8c-0.7-3.1-1.3-6.7-4-8.6c-1.8-1.6-3.8-2.7-5.8-3.8
		c-1.3-0.9-2.7-1.6-4-2.2c-1.5-0.9-3.5-1.6-4.6-3.1c-1.8-2.7-4.6-4-6.9-0.7c-1.3,2-1.3,4.9-1.3,7.1c0,1.8,1.1,3.1,1.1,4.9
		c0,1.1,0.2,1.6,0.4,2.4c0.2,0.7,0.4,1.3,0.7,1.8c0.4,2.2-0.7,5.1-1.5,6.9c-1.1,2.4-1.5,5.3-2.9,7.8c-0.4,0.9-1.1,1.8-1.5,2.7
		s-0.2,1.8-0.7,2.7c-0.2,0.7-0.9,1.3-1.1,1.8c-0.4,0.9-0.9,2-1.5,2.7c-4,5.3-8-1.8-9.1-5.8c-1.1-4.2,0.4-8.2-1.3-12.4
		c-0.4-1.1-1.5-2.4-2.4-3.5s-2.2-1.6-3.3-2.7c-0.4-0.7-0.9-1.3-1.3-2c-0.7-0.9-1.5-1.3-2.2-2c-1.8-1.6-3.3-3.3-4.4-5.5
		c-1.1-2.4-1.1-4.9-1.1-7.5c0-2.2,0.7-4.2,2.7-5.1c0.9-0.2,1.1,0,1.8,0.2c1.1,0.2,2,0,3.1,0.2c0.9,0.2,1.1,0.9,1.8,1.3
		c0.7,0.2,1.3,0,1.8,0c1.1,0.2,2.2,0.9,3.5,0.7c0.7-0.2,2-1.6,2.4-2.2c1.3-1.3,2.4-3.3,3.3-4.9c0.4-0.7,0.7-1.3,1.1-2.2
		c0.2-0.7,0.7-0.9,0.9-1.6c0.4-1.3,1.1-2.2,1.8-3.5c0.4-0.9,1.1-1.6,2-2.4c0.7-0.9,1.1-1.6,1.8-2.2c1.5-1.6,2.7-3.1,3.8-4.9
		c0.2-0.4,0.4-1.1,0.7-1.6s0.7-0.7,0.9-1.1c0.4-0.7,0.9-2.2,1.1-2.9c0.2-1.1,0.9-2.2,1.1-3.3s0.4-2.2,0.7-3.3c0-0.4,0.4-0.7,0.4-1.1
		c0-0.2,0-0.7,0-0.9c0.2-0.7,0.4-0.9,0.7-1.6c0.4-1.6,0-3.5,0-5.1c0-1.1,0-2.2,0-3.3c0-0.4,0-1.1,0-1.6c0-0.7,0.4-0.9,0.4-1.3
		c0.2-1.1,0.2-2.7,0-4c0-0.7-0.2-1.1-0.4-1.8c-0.2-1.1,0-2-0.2-3.1c-0.2-2-1.1-4.2-2-6c-0.7-1.8-1.3-4.2-2.7-5.5
		c-1.8-1.8-4.4-2.9-6.9-2.9c-0.7,0-1.1-0.4-2-0.4c-0.4,0-1.1,0-1.5,0c-0.9-0.2-1.8-0.7-2.4-0.9c-1.8-0.4-3.8-1.1-4.9-2.9
		c-1.5-2.2-2.7-5.1-3.1-7.8c-0.2-0.9,0-1.3-0.4-2.2c-0.2-0.7-0.7-1.3-0.9-2c-0.7-1.6-2-2.9-3.1-4.2c-1.3-1.8-3.1-2.9-5.1-3.5
		c-1.5-0.4-3.1-1.6-4.6-2c-3.1-0.9-6.2-1.6-9.5-2.2c-3.8-0.9-7.5-1.6-11.1-2.4c-4-0.9-7.7-1.6-11.7-1.8c-2.7-0.2-5.8-0.7-8.2-1.3
		c-2.4-0.7-5.1-1.3-7.3-2.7c-1.8-1.1-3.8-3.3-3.8-5.5c0-2.9,3.1-4.4,5.3-4.9c6.6-1.3,12.8,0.7,19.2,0.7c2.2,0,5.5,0.4,7.7-0.2
		c1.5-0.7,4-1.8,5.3-2.7c1.8-1.3,3.3-3.1,5.1-4.7c2.9-2.9,8-2.2,11.5-4.2c3.8-2,4.9-5.5,7.3-9.1c0.4-0.7,1.1-1.3,1.5-2
		C428.8,34.6,512,135.7,512,255.9z"/>
	<path class="st1" d="M281,469c0,0.2-0.2,0.2-0.2,0.4c-1.3,2-3.3,3.3-5.1,4.9c-1.5,1.3-3.1,2.7-4.9,3.8c-1.1,0.7-2.2,1.1-3.1,1.8
		c-0.4,0.2-1.5,0.9-2.2,0.9s-1.1-0.4-1.8-0.4c-0.9-0.2-2.2,0-3.1,0c-0.7,0-1.3,0-2-0.2c-0.4-0.2-0.4-0.4-1.1-0.4s-1.1,0.4-1.5,0.7
		c-0.7,0.4-1.1,0.2-2,0.4c-0.4,0-0.7,0.4-1.1,0.4c-0.7,0.2-1.3-0.2-2.2,0c-1.1,0.2-1.8,0.9-2.9,1.1c-1.8,0.4-3.8,0.9-5.3,2
		s-2.7,2.7-3.8,4.2c-1.1,1.3-2.2,2.2-3.3,3.8c-1.8,2.4-3.8,4.7-6,6.7c-1.8,1.8-3.3,3.8-4.6,6.2c-0.4,0.9-0.9,1.6-1.3,2.4
		c-0.2,0.4-0.4,0.9-0.7,1.3c-0.4,0.9-0.2,0.7-1.1,0.9c-2,0.2-4.4-0.7-6.2-0.9c-16.2-2.7-32.3-6.9-47.8-12.4
		c-3.8-1.3-7.3-2.9-10.8-4.2c-1.8-0.7-3.5-1.6-5.3-2.2c-1.3-0.7-4-1.3-5.1-2.4c-2-2-3.8-5.1-5.3-7.3c-1.3-2-3.8-4.9-4.6-6.9
		c-1.3-3.1-0.2-7.8-0.2-11.1c0-4.7,1.3-12.2-0.9-16.2s-7.3-5.5-8-10.4c-0.2-1.1-0.2-2.4-0.2-3.8c0-1.3,0.2-2.7,0-4
		c-0.2-2-0.9-4-1.3-6c-0.4-2.4-0.9-4.9-2-7.1c-0.4-1.3-1.3-2.7-2.2-3.5c-0.9-0.9-2-1.3-2.7-2.2c-0.9-1.1-1.1-2-2.7-2.4
		c-1.3-0.4-2.2-0.7-3.3-1.6c-2.4-1.8-5.1-3.1-7.7-4.9c-0.9-0.7-1.5-1.6-2.7-2.2c-1.3-0.9-2.7-2-4-2.9c-3.1-2-5.3-5.3-7.7-8
		c-1.8-1.8-2.9-4-4.2-6.2c-0.9-1.3-1.5-2.2-2-3.8c-0.2-0.7-0.2-1.3-0.4-1.8c-0.2-0.9-0.9-1.3-1.3-2.2c-1.5-2.7-2.7-5.5-4.6-7.8
		c-0.7-0.7-1.3-1.3-2-2.2c-1.8-2.2-2.2-5.3-3.5-8c-1.8-3.8-3.8-7.3-5.5-11.3c-2-4.2-3.1-8.4-5.8-12.4c-1.1-1.8-1.5-3.8-2.4-5.8
		c-0.4-0.9-1.3-1.8-2-2.7c-0.7-0.9-0.9-2-1.5-2.7c-0.4-0.4-0.9-0.4-1.3-1.1c-0.2-0.4-0.7-0.9-0.9-1.1c-1.3-2.4-2.9-4.4-4.6-6.4
		c-1.1-1.3-1.3-2.7-2.2-4c-1.1-2-2.2-4.2-3.1-6.2c-0.9-2-0.9-4.4-1.8-6.4c-1.1-2.4-1.1-4.9-1.8-7.5c-0.4-2.4-1.3-4.9-1.5-7.3
		c0-2.9,0.2-5.8,0.7-8.6c0.2-2,0.4-3.1,0-4.9c-0.2-1.1,0-2.4-0.2-3.5c-0.4-2-0.9-4.2-1.3-6.4c-0.9-4.7,1.3-9.1,1.3-13.7
		c0-2.2-0.2-4.4,0-6.4c0.2-2.2,1.8-4.7,3.3-6.2c1.3-1.3,2.4-2.9,3.8-4c1.5-1.1,3.3-2.2,4.9-3.3c0.9-0.7,2-0.7,2.9-1.3
		c1.1-0.7,3.1-1.8,4.2-2.7c0.2-0.2,0.4-0.4,0.4-0.4c0-0.2,0.2-0.4,0.2-0.9c0.4-0.2,0.7-0.4,1.1-0.7c0.7-0.7,1.1-1.1,2-1.8
		c0.4-0.4,1.3-1.6,1.8-1.8c0.4-0.2,0.9,0,1.5-0.2c1.5-0.7,2.9-2.2,4.2-3.1c3.1-2.4,5.3-5.5,7.5-8.6c1.5-2.4,3.8-4.7,4.9-7.5
		c0.7-2,0.7-4.2,0.9-6.2c0.2-1.1,0.4-2,0.9-2.9c1.3-2.4,3.3-4.9,3.3-7.5c0-1.6-1.1-2.9-0.4-4.4c0.7-1.6,1.8-3.1,2.4-4.7
		c0.4-0.9,0.7-1.8,1.1-2.7s1.3-2,1.5-3.1c0.4-1.6,0-3.3,0-4.9c0-1.6,0-2.9,0-4.4c0-0.9,0-1.8,0-2.7c-0.2-1.1-1.1-2.2-1.1-3.5
		c0-1.6,0.7-3.5,1.1-5.1c0.4-1.8,0-3.5,0.2-5.3c0.7-3.3,0.9-6.7-0.9-9.8c-1.1-2.2-2.9-5.1-3.1-7.5c-0.2-2.9,0-5.8,0.4-8.6
		c0.2-1.1,0-2,0.2-3.1s0.4-2.4,0.7-3.5c0.4-2.4,0.9-5.1,3.1-6.4c1.1-0.7,0.9-0.7,2.2-0.7c1.8,0,3.1-0.9,4.9-0.4
		c1.1,0.2,1.8,0.9,2.9,1.1c0.9,0.2,2,0.2,2.9,0.4c1.5,0.4,2.9,0.2,4.6,0.4c1.3,0.2,2.4,0.9,3.5,1.3s2.2,0.4,3.3,0.9
		c2.2,0.9,3.3,3.3,3.8,5.5c0.4,2.2-1.5,4.4-2,6.4c-0.2,0.9,0,2.2,0,3.3c0,0.7,0,1.1,0,1.6c0.4,0.4,0.7,0.7,0.9,1.1
		c0.2,0.7,0.4,1.3,0.7,2c1.1,1.8,2.7,2.2,2.7,4.4c0.2,1.8,0.2,4.2-0.2,6c-0.4,2-0.7,4-1.1,6.2c-0.4,1.8-0.9,3.8-0.9,5.8
		c0,0.7,0,1.3,0,1.8c0,4-2.4,6.9-4,10.2c-1.5,3.5-1.3,8.2-2,11.8c-0.4,2.9,0.4,6.9,2.4,8.9c0.7,0.9,2,2,2.9,2.4
		c1.1,0.7,2,0.4,3.3,0.7c2,0.4,3.5,0.4,5.5,0.4c1.3,0,2.9,0,4.2-0.4c1.1-0.4,1.3-0.9,1.8-2.2c0.7-1.6,1.1-2.4,2.7-3.3
		c1.1-0.7,2-1.1,2.7,0.4c0.4,1.3,1.1,2.7,1.1,4s0,2.7,0,4c0,1.6,0.2,3.1-0.7,4.4c-0.7,1.1-1.8,2-3.1,2.2c-2.9,0.7-6,0-8.6,1.1
		c-5.3,2-2.7,8.9-3.3,13.1c-0.7,4.2-2.9,8-3.3,12.2c-0.4,3.3-0.7,6.7-1.5,10c-1.8,6.2-2.7,12.4-2.4,19.1c0.2,6.4,1.1,13.5,5.3,18.6
		c2.7,3.3,6,9.3,11.1,7.5c1.3-0.4,2.9-0.4,4-1.3c0.9-0.7,1.3-1.6,1.8-2.4c0.7-1.3,0.9-3.1,0.4-4.7c-0.2-0.4-0.4-0.9-0.7-1.3
		c-0.2-0.7,0-1.1-0.2-1.6s-0.4-0.7-0.7-1.3c-0.2-0.7,0-1.6,0-2.2c0-2.4,1.8-4.4,3.5-6c0.9-0.9,1.8-2.2,2.7-3.5
		c1.1-1.6,2.4-3.1,3.3-4.7c0.9-1.3,1.3-3.5,1.8-5.1c0.7-2.7,0.4-5.8,1.1-8.6c0.2-1.6,0.7-4.4,1.8-5.8c1.3-1.6,2.4-0.7,2.9,0.9
		c0.4,1.1,0.9,2.4,1.1,3.5c0.4,1.8-0.2,2.9,0.7,4.7c0.4,0.7,0.7,1.6,1.1,2.2c0.4,0.7,1.1,0.9,1.5,1.6c1.8,2,4,3.5,5.8,5.5
		c0.7,0.7,1.3,1.6,2,2.2c2.2,2.2,5.3,3.5,7.3,6c1.3,1.6,3.3,2.7,4.6,4.2c1.1,1.3,2.4,2.2,3.5,3.5c1.5,1.8,2.7,3.5,4,5.3
		c1.1,1.6,3.1,3.1,3.8,4.9c0.7,2-0.2,3.5-1.3,5.1c-0.7,0.7-1.3,1.3-2,2.2c-0.4,0.4-1.3,2-2,2.2c-0.7,0-1.3-0.4-1.8-0.7
		c-1.3-0.4-2.2,0-3.5,0c-1.3,0.2-2.9,0-4.4,0s-2.7,0.2-4,0.4c-0.4,0-0.9,0.4-1.3,0.4c-0.7,0.2-1.3,0-1.8,0.4
		c-1.3,0.9-2.4,3.1-3.3,4.4c-0.9,1.6-2,3.5-1.5,5.3c0.2,1.1,1.8,3.3,0.9,4.7c-0.2,0.4-1.5,1.1-2,1.6c-1.1,0.9-1.8,1.6-2.2,2.9
		c-1.5,3.5,1.3,7.1,0.4,10.9c-0.2,1.1,0,2.2-0.2,3.5c-0.2,1.1-0.4,2.2-0.7,3.3c-0.2,1.1-0.2,2-0.4,3.1c-0.7,3.1-2.9,5.5-5.1,7.5
		c-1.1,1.1-2.2,1.6-2.9,3.1c-1.3,2.9-1.8,6-0.7,9.1c0.4,1.3,3.3,7.3-0.7,6.7c-1.8-0.2-2-2.7-2.4-4c-0.7-2-1.8-3.8-2.7-5.8
		c-1.3-2.4-2.4-2.9-5.1-3.3c-0.9-0.2-1.8-0.4-2.7-0.7c-2.4-0.4-5.3,0-7.7,0.2c-1.8,0.2-3.1,0.7-5.1,0.2c-2.2-0.4-4.4-1.1-6.4-1.8
		c-1.3-0.4-2-1.1-3.1-2c-1.3-1.1-3.1-2.2-3.3-4c0-0.9,0.7-2.2,0.9-3.1c0.4-1.8,0.7-2.7,0.4-4.4c-0.4-2.7,0-7.1-3.5-7.8
		c-1.3-0.2-2.9,0.7-4.2,0.9s-2.4,0.7-3.8,0.9c-0.9,0.2-2,0.4-2.9,0.9c-1.1,0.7-2.2,1.8-3.1,2.7c-1.8,1.6-4,2.7-5.8,4.2
		c-1.1,1.1-2.4,2-2.9,3.5c-0.7,2.2-0.7,4,0.2,6.2c0.2,0.9,0.4,1.8,0.4,2.7c0,0.7-0.4,0.9-0.4,1.3c-0.4,2.2-0.2,5.8,0.7,7.8
		c1.5,3.8,6.6,1.1,9.3,3.1c2.2,1.6,1.1,3.3,0,5.1c-0.7,0.9-1.1,1.3-2.4,1.6c-1.1,0.2-1.3,0.4-2.2,1.1c-1.5,1.3-2.4,2-2.9,4.2
		c-0.7,2.7-1.3,4.9-0.7,7.8c0.4,1.8,1.3,3.5,2,5.3c0.4,1.3,0.9,2.7,2,3.8c1.3,1.6,2.4,3.3,3.1,5.1c1.1,3.3,0.4,6.9,2.4,10.4
		c3.3,5.8,11.5,11.3,17,14.9c4.2,2.9,9.1,3.1,13.3,5.5c2,1.1,4,3.8,5.3,5.8c3.1,4.2,3.5,6.4,8,9.1c5.8,3.5,13.3,2.4,19.9,2.2
		c4,0,8.9-0.9,12.6,0.2c5.5,1.6,9.3,7.1,13.3,10.9c5.1,4.9,10.6,9.1,16.6,12.6c2.7,1.6,5.5,3.3,8.6,4.4c1.5,0.7,3.3,0.9,4.6,2
		c1.8,1.6,3.1,4,4.2,6c0.9,2.2,1.5,4.7,3.8,5.8c3.5,1.8,8.6,1.8,11.5-1.1c1.1-1.1,2.4-3.5,2.2-5.3c-0.2-1.1-0.7-2.2-1.1-3.3
		c-0.7-1.6-1.1-2.9-1.5-4.4c-0.7-1.6-1.3-2.9-1.1-4.4c0.2-1.6,1.1-3.1,1.8-4.4c2-3.5,5.5-3.8,8.9-5.3c2.2-0.9,4.9,0,7.1,0.7
		c2,0.4,4.2,0.9,5.5,2.2c2,2.2,2.9,4.4,5.3,6.2c1.1,0.9,2,1.6,2.4,2.9c1.3,2.9,0.9,6.2,3.8,8c2.4,1.6,4.2,2.7,7.1,2.9
		c2.2,0.2,2.9,1.1,4,2.7c0.7,0.9,1.3,1.3,1.3,2.7c0,0.9,0,2.2,0,3.1C282.6,466.3,281.9,467.7,281,469z"/>
	<path class="st2" d="M239.2,98c4.4,1.8,7.3,4.9,10.8,7.8c1.1,0.9,2.2,1.6,3.5,1.8c1.8,0.4,3.8,0.4,5.3,0.2c0.9,0,2-0.4,2.7-0.9
		c0.9-0.7,1.1-2,1.8-2.9c1.1-1.3,3.1-2.4,4.9-1.8c2,0.7,4,0.9,6,1.6c1.8,0.4,2.7,1.6,4.2,2.2c2.2,1.1,5.1,2.2,7.5,1.8
		c1.3-0.2,2.7-0.4,4-0.9c1.8-0.7,3.1-2.2,4.6-3.3c1.1-0.9,1.8-2.4,2.7-3.5c-1.5-1.6-1.1-2.9-1.8-4.9c-0.7-2.7-1.3-5.5-0.2-8.2
		c0.9-2.4,0.9-5.5-0.2-8c-0.7-1.6-3.5-3.3-5.1-3.8c-1.1-0.2-2-0.9-3.1-1.1c-1.5-0.4-2.9-0.2-4.4-0.7c-3.1-0.9-7.1-0.9-8.9-4
		c-0.7-1.3-0.9-2.7-1.3-4c-0.7-1.6-0.4-2.7-0.7-4c-0.2-1.1-0.7-2-1.1-2.9c-0.9-1.6-1.5-2-3.1-2.9c-0.9-0.7-1.5-0.7-2.4-0.9
		c-1.3-0.2-2.4-0.7-3.8-0.7c-2.4,0-5.1,1.1-7.1,2.4c-0.7,0.4-0.9,0.9-1.5,1.1c-0.4,0.2-1.3,0.2-2,0.4c-1.5,0.4-3.3,1.1-5.1,1.8
		c-1.3,0.4-2.9,0.7-4.4,0.9c-0.7,0.2-1.5,0-2.2,0.2c-1.1,0.2-2,0.7-3.1,0.4c-1.1,0-2.2-0.2-3.3-0.7c-1.3-0.2-2-1.3-2.9-2.2
		c-1.3-1.1-2.2-2.7-3.5-3.5c-1.5-1.1-4-2.4-6-2.9c-4-0.9-10,0.2-13.1,3.1c-1.5,1.6-2.4,4-2.7,6c-0.2,2.2-0.4,5.5,0.4,7.5
		c1.8,3.5,4.6,7.3,3.3,11.5c-0.7,1.8-1.5,3.3-3.1,4.7c-1.1,0.9-2.4,1.6-2.7,3.3c-1.3,5.5,11.1,5.3,13.9,5.8c2.4,0.4,4.9,1.1,7.3,1.6
		c3.8,0.4,7.5,0,11.1,0.9C236.1,96.9,237.9,97.3,239.2,98z"/>
</g>
<path class="st3" d="M856.5,162.7v227.1c0,4-3.2,7.2-7.2,7.2H653.9c-4,0-7.2-3.2-7.2-7.2V122.2c0-4,3.2-7.2,7.2-7.2h154.9
	L856.5,162.7z"/>
<g>
	<g>
		<path class="st4" d="M794.9,213.3c-1.5-1.3-3-2.6-4.5-4"/>
		<path class="st5" d="M774,195.5C731.1,160.5,666,116.9,578.6,88c-138-45.6-258.9-30.6-322.9-17.1"/>
		<path class="st4" d="M245.3,73.2c-2,0.5-4,0.9-5.8,1.4"/>
	</g>
</g>
<g>
	<g>
		<path class="st4" d="M770.4,312.2c-1.4,1.3-2.9,2.6-4.5,3.9"/>
		<path class="st6" d="M748.5,330.3c-48.3,38-137.6,95.1-261.4,111c-200.7,25.8-351.6-74.8-402-113.5"/>
		<path class="st4" d="M76.3,321c-1.8-1.4-3.4-2.7-4.6-3.8"/>
	</g>
</g>
<g>
	<g>
		<path class="st4" d="M707.3,285.8c-2,0.4-3.9,0.7-5.9,1.1"/>
		<path class="st7" d="M679.1,290.8C602.8,303.7,511,313.1,407,311.5c-119.7-1.8-223.4-17.9-306.3-36.6"/>
		<path class="st4" d="M89.7,272.4c-2-0.5-3.9-0.9-5.8-1.4"/>
	</g>
</g>
<g>
	<g>
		<path class="st4" d="M707.3,247.6c-1.8-0.8-3.6-1.6-5.5-2.4"/>
		<path class="st8" d="M681.5,236.5c-35.3-14.6-74.4-28.2-117.1-39.4c-178.1-46.6-336.2-29.4-441.5-6.7"/>
		<path class="st4" d="M112.1,192.8c-2,0.4-3.9,0.9-5.8,1.3"/>
	</g>
</g>
<g>
	<g>
		<path class="st4" d="M751.6,256c-1.5-1.4-3-2.7-4.5-4"/>
		<path class="st9" d="M730.5,238.3c-72.9-55.9-162.5-72.2-234.7-40.4c-39.1,17.2-64.9,45-80.7,66.9"/>
		<path class="st4" d="M409.1,273.7c-1.1,1.8-2.2,3.4-3.2,5.1"/>
	</g>
</g>
<g>
	<g>
		<path class="st4" d="M751.6,256c-1.1-1.5-2.2-3.1-3.5-4.9"/>
		<path class="st10" d="M734.3,233.5C706.9,200.5,655.8,151,576.4,123c-71.7-25.3-135.2-22-172.7-16.5"/>
		<path class="st4" d="M392.6,108.3c-2.1,0.4-4.1,0.7-5.9,1.1"/>
	</g>
</g>
<g>
	<g>
		<path class="st4" d="M739.5,299c-1.4,1.2-3,2.4-4.7,3.8"/>
		<path class="st11" d="M717,315.8c-27.6,18.8-72.3,42.5-131.6,50.5c-66.5,8.9-120.4-6.1-151-17.8"/>
		<path class="st4" d="M424.1,344.3c-2-0.9-3.8-1.7-5.5-2.4"/>
	</g>
</g>
<g>
	<g>
		<path class="st4" d="M751.2,210.2c-1.4-0.7-3.2-1.5-5.4-2.5"/>
		<path class="st12" d="M724.4,199.2c-37.8-13.2-107-28.6-181.9,0.3c-47.8,18.4-80.1,48-99.1,69.4"/>
		<path class="st4" d="M436,277.7c-1.3,1.7-2.6,3.2-3.7,4.7"/>
	</g>
</g>
<g>
	<g>
		<path class="st4" d="M78.3,293.1c1.7,0.8,3.5,1.7,5.4,2.6"/>
		<path class="st13" d="M104,305c67.1,29.6,184.4,69.1,333.2,62.2c148.6-6.9,260.8-57.1,322.5-91"/>
		<path class="st4" d="M769.4,270.7c1.8-1,3.5-2,5.2-3"/>
	</g>
</g>
<g>
	<g>
		<path class="st4" d="M150.4,299c1.9,0.5,3.8,1,5.8,1.5"/>
		<path class="st14" d="M177.7,305.6c79.5,18.1,202.9,34.4,348.2,7c100.3-18.9,180.8-53,238.5-83.6"/>
		<path class="st4" d="M774.2,223.8c1.8-1,3.5-1.9,5.3-2.9"/>
	</g>
</g>
<g>
	<g>
		<path class="st4" d="M61.7,233.6c1.9,0.6,3.8,1.2,5.7,1.9"/>
		<path class="st15" d="M88.6,242.2c92.4,28.3,223.3,56.5,380.8,53.9c128.9-2.2,237.6-24.4,319.1-47.8"/>
		<path class="st4" d="M799.1,245.1c1.9-0.6,3.8-1.1,5.7-1.7"/>
	</g>
</g>
<g>
	<g>
		<path class="st4" d="M390.3,128.3c2-0.1,4-0.1,6-0.2"/>
		<path class="st16" d="M418.4,128c38.5,0.7,86.7,6,139.7,22.7c106.1,33.6,176.5,95.9,213.8,135.6"/>
		<path class="st4" d="M779.4,294.5c1.4,1.5,2.7,3,4,4.5"/>
	</g>
</g>
<g>
	<g>
		<path class="st4" d="M348.4,138.1c1.8-0.4,3.8-0.8,5.9-1.2"/>
		<path class="st17" d="M375.8,132.9c51.1-8,138.9-13.1,236.9,23.7c90.2,33.8,149.3,88.1,181,122.8"/>
		<path class="st4" d="M800.9,287.6c1.4,1.6,2.7,3.1,3.9,4.6"/>
	</g>
</g>
<g>
	<g>
		<path class="st4" d="M58.8,289.2c1.7,0.8,3.5,1.7,5.4,2.6"/>
		<path class="st18" d="M84.4,301.1c66.1,29,181.7,67.8,327.9,60.2c168.1-8.7,291.2-74.4,352-113.3"/>
		<path class="st4" d="M773.6,241.9c1.7-1.1,3.4-2.3,5-3.3"/>
	</g>
</g>
<g>
	<g>
		<path class="st4" d="M395.2,341.9c1.9,0.4,3.9,0.7,5.9,1.1"/>
		<path class="st19" d="M423.4,346.5c42.6,5.6,103.2,7.9,172.7-8.5c65.5-15.4,115.8-41.9,149.5-63.5"/>
		<path class="st4" d="M755,268.2c1.7-1.2,3.3-2.3,4.9-3.4"/>
	</g>
</g>
</svg>
