<?xml version="1.0" encoding="utf-8"?>
<!-- Generator: Adobe Illustrator 19.2.1, SVG Export Plug-In . SVG Version: 6.00 Build 0)  -->
<svg version="1.1" id="Layer_1" xmlns="http://www.w3.org/2000/svg" xmlns:xlink="http://www.w3.org/1999/xlink" x="0px" y="0px"
	 viewBox="0 0 512 512" style="enable-background:new 0 0 512 512;" xml:space="preserve">
<style type="text/css">
	.st0{fill:#909090;}
	.st1{fill:#FFFFFF;}
	.st2{fill:#3031D7;}
	.st3{fill:#279239;}
</style>
<g>
	<rect x="155.6" y="40.7" class="st0" width="356.4" height="471.3"/>
	<rect x="115.7" y="0" class="st1" width="356.4" height="471.3"/>
</g>
<g>
	<path class="st2" d="M409.4,169.6c0,23.4-6.9,45.1-18.9,63.3c-20.6,31.4-56.2,52.2-96.6,52.2c-5.2,0-10.3-0.3-15.3-1
		c-12.1-1.6-23.7-5.1-34.3-10.1c-39-18.6-65.9-58.3-65.9-104.3c0-63.8,51.7-115.5,115.5-115.5c9.5,0,18.8,1.1,27.6,3.3
		C371.9,69.8,409.4,115.4,409.4,169.6z"/>
	<path class="st3" d="M409.4,169.6c0,23.4-6.9,45.1-18.9,63.3c0.2-0.3-1-2.3-1.2-2.7c-0.4-0.8-0.8-1.7-1.3-2.5
		c-0.8-1.2-1.8-2.5-2.2-4c-0.2-0.7-0.3-1.5-0.3-2.3c0-1.1,0.2-2.4,0-3.5c-0.1-0.7-0.5-1.2-0.6-1.9c-0.1-0.9,0-1.9,0-2.8
		c0-1.3,0.3-1.4,1.1-2.2c0.5-0.6,0.8-1.4,1.1-2.1c0.3-0.7,0.8-1.6,0.9-2.3c0.1-0.4-0.1-1.1-0.4-1.4c-0.5-0.4-0.7,0-1,0.3
		c-0.4,0.4-1,0.6-1.4,1c-0.5,0.4-1,1.1-1.4,1.6c-1.3,1.4-2.8,3.1-4.7,3.7c-0.9,0.3-1.9,0.8-2.8,0.9s-1.6-0.2-2.5,0.2
		c-1.2,0.6-2.2,1.6-3.4,2.1c-0.7,0.3-1.3,0.6-1.9,1s-1.1,0.8-1.8,1c-0.8,0.2-1.5,0.1-2.3,0.2c-0.7,0.1-1.4,0.3-2.1,0.5
		s-1.4,0.4-2.1,0.6c-0.8,0.2-1.5,0.8-2.3,1.1c-2.8,1-5.5,0.2-7.9-1.2c-1.7-1-3.3-2.3-5-3.3c-0.9-0.6-1.8-1.4-2.6-2.1
		c-0.8-0.6-1.6-1.3-2.2-2.1c-2-2.7-1.6-6.4-1.4-9.5c0-0.9,0.4-1.8,0.3-2.6c0-0.8-0.2-1.8-0.4-2.5c-0.1-0.7-0.5-1.2-0.9-1.8
		c-0.7-1-0.9-1.7-0.7-3c0.2-1.4,0.5-2.8,0.9-4.2c0.2-0.9,0.6-1.6,0.7-2.5c0.1-0.7,0.3-1.1,0.6-1.8c0.8-1.8,1.5-3.5,2.5-5.2
		c0.6-0.9,0.8-1.8,1.3-2.8c0.9-1.7,2.2-3.7,3.9-4.7c0.8-0.5,1.4-0.9,2.1-1.5s1.7-0.9,2.6-1.3c1.2-0.6,2.4-0.9,3.7-1.1
		c0.7-0.1,1.3-0.1,2-0.1c1.3-0.1,2.1-1.4,3.4-1.7c0.8-0.2,2.1-0.1,3,0.1c1.1,0.2,2.1,0.8,3.3,0.8c1.5,0,3.2-0.4,4.7-0.9
		c0.5-0.2,1-0.5,1.5-0.6c1-0.2,1.9,0.2,3-0.1c0.3-0.1,0.5,0,0.8-0.1s0.5-0.2,0.9-0.2c0.3,0,0.7,0.1,1,0c0.4-0.1,0.9-0.3,1.2-0.6
		c0.6-0.5,0.8-1.2,1.2-1.8c0.6-0.9,0.6-1.6,0.8-2.7c0.3-1.4-0.1-2.9,0.2-4.3c0.3-1.4,0.9-2.7,0.9-4.2c0-1.4,0.5-2.8-0.1-4.2
		c-0.3-0.6-0.4-0.9-1-0.9s-1.4,0.3-1.8,0.6c-0.5,0.3-1,0.6-1.5,0.9c-0.5,0.4-0.7,0.9-1.5,0.7c-1.2-0.3-0.6-1.9-0.5-2.7
		c0.1-0.8-0.1-1.6,0.2-2.4c0.3-0.6,0.8-1,1.2-1.5c0.4-0.4,0.7-1,1.1-1.5s0.9-1,1.1-1.6c0.3-0.7,0.5-1.7,0.4-2.4
		c-0.2-1.4-0.7-2.6-1.4-3.9c-0.6-1.2-1.3-2.6-2.6-3.2c-1.3-0.6-3.1-0.8-4.3-0.1c-1.4,0.8-2.6,2.2-3.5,3.5c-0.9,1.1-1.9,2.1-2.3,3.5
		s-0.5,2.4,0.1,3.7c0.3,0.8,0.5,1.9,0.3,2.8c-0.2,0.7-0.9,1.2-1.5,1.5c-0.6,0.4-1.4,0.2-2.1,0.2s-1.2-0.2-1.8-0.2
		c-0.8-0.1-1.3-0.5-1.7-1.2c-0.2-0.5-0.4-1.2-0.8-1.4c-0.5-0.3-1.2-0.5-1.8-0.4c-0.9,0.2-1.2,0.8-1.2,1.6c0,0.6-0.1,1.4,0,2
		s0.1,1.2,0.3,1.8c0.1,0.5,0.6,1.2,1,1.6s0.5,0.7,0.8,1.1c0.4,0.4,0.9,0.7,1.3,1.1c0.4,0.3,0.6,0.4,0.3,0.9c-0.5,1.1-1.9,1.6-3,1.7
		c-0.6,0.1-1,0.2-1.7,0.2c-0.5,0-1.2-0.1-1.5,0.5s0,1.7-0.2,2.3c-0.2,0.7,0,1.4-0.1,2.1c0,0.4-0.2,0.4-0.4,0.7
		c-0.1,0.2-0.2,0.5-0.2,0.7c-0.2,0.7-0.3,1.3-0.3,2c-0.1,0.7-0.6,1.4-0.9,2c-0.3,0.8-0.6,1.1-1.2,1.7s-1,1.4-1.8,1.9
		c-0.6,0.4-1.1,0.6-1.8,0.8c-0.9,0.2-1.6,0.6-2.5,0.3c-1.4-0.4-4.4-1.6-4-3.5c0.2-0.8,0.7-1.6,0.9-2.4c0.3-0.9,0.7-1.7,1.6-2.2
		c0.4-0.2,0.9-0.2,1.2-0.5c0.4-0.3,0.6-0.6,0.8-1c0.8-1.3,0.6-3.1-0.3-4.3c-0.8-1.1-1.5-2.3-1.8-3.6c-0.4-1.7-1.1-3.3-0.8-5.1
		c0.1-0.8,0.8-1.6,1.1-2.3c0.4-0.8,1-1.4,1-2.4c0.1-1.1,0.2-2.1,0.2-3.2c0-1.5,0-2.9-0.3-4.4c-0.3-1.4-0.6-3-1.8-3.9
		c-0.8-0.7-1.7-1.2-2.6-1.7c-0.6-0.4-1.2-0.7-1.8-1c-0.7-0.4-1.6-0.7-2.1-1.4c-0.8-1.2-2.1-1.8-3.1-0.3c-0.6,0.9-0.6,2.2-0.6,3.2
		c0,0.8,0.5,1.4,0.5,2.2c0,0.5,0.1,0.7,0.2,1.1c0.1,0.3,0.2,0.6,0.3,0.8c0.2,1-0.3,2.3-0.7,3.1c-0.5,1.1-0.7,2.4-1.3,3.5
		c-0.2,0.4-0.5,0.8-0.7,1.2s-0.1,0.8-0.3,1.2c-0.1,0.3-0.4,0.6-0.5,0.8c-0.2,0.4-0.4,0.9-0.7,1.2c-1.8,2.4-3.6-0.8-4.1-2.6
		c-0.5-1.9,0.2-3.7-0.6-5.6c-0.2-0.5-0.7-1.1-1.1-1.6s-1-0.7-1.5-1.2c-0.2-0.3-0.4-0.6-0.6-0.9c-0.3-0.4-0.7-0.6-1-0.9
		c-0.8-0.7-1.5-1.5-2-2.5c-0.5-1.1-0.5-2.2-0.5-3.4c0-1,0.3-1.9,1.2-2.3c0.4-0.1,0.5,0,0.8,0.1c0.5,0.1,0.9,0,1.4,0.1
		c0.4,0.1,0.5,0.4,0.8,0.6c0.3,0.1,0.6,0,0.8,0c0.5,0.1,1,0.4,1.6,0.3c0.3-0.1,0.9-0.7,1.1-1c0.6-0.6,1.1-1.5,1.5-2.2
		c0.2-0.3,0.3-0.6,0.5-1c0.1-0.3,0.3-0.4,0.4-0.7c0.2-0.6,0.5-1,0.8-1.6c0.2-0.4,0.5-0.7,0.9-1.1c0.3-0.4,0.5-0.7,0.8-1
		c0.7-0.7,1.2-1.4,1.7-2.2c0.1-0.2,0.2-0.5,0.3-0.7c0.1-0.2,0.3-0.3,0.4-0.5c0.2-0.3,0.4-1,0.5-1.3c0.1-0.5,0.4-1,0.5-1.5
		s0.2-1,0.3-1.5c0-0.2,0.2-0.3,0.2-0.5c0-0.1,0-0.3,0-0.4c0.1-0.3,0.2-0.4,0.3-0.7c0.2-0.7,0-1.6,0-2.3c0-0.5,0-1,0-1.5
		c0-0.2,0-0.5,0-0.7c0-0.3,0.2-0.4,0.2-0.6c0.1-0.5,0.1-1.2,0-1.8c0-0.3-0.1-0.5-0.2-0.8c-0.1-0.5,0-0.9-0.1-1.4
		c-0.1-0.9-0.5-1.9-0.9-2.7c-0.3-0.8-0.6-1.9-1.2-2.5c-0.8-0.8-2-1.3-3.1-1.3c-0.3,0-0.5-0.2-0.9-0.2c-0.2,0-0.5,0-0.7,0
		c-0.4-0.1-0.8-0.3-1.1-0.4c-0.8-0.2-1.7-0.5-2.2-1.3c-0.7-1-1.2-2.3-1.4-3.5c-0.1-0.4,0-0.6-0.2-1c-0.1-0.3-0.3-0.6-0.4-0.9
		c-0.3-0.7-0.9-1.3-1.4-1.9c-0.6-0.8-1.4-1.3-2.3-1.6c-0.7-0.2-1.4-0.7-2.1-0.9c-1.4-0.4-2.8-0.7-4.3-1c-1.7-0.4-3.4-0.7-5-1.1
		c-1.8-0.4-3.5-0.7-5.3-0.8c-1.2-0.1-2.6-0.3-3.7-0.6s-2.3-0.6-3.3-1.2c-0.8-0.5-1.7-1.5-1.7-2.5c0-1.3,1.4-2,2.4-2.2
		c3-0.6,5.8,0.3,8.7,0.3c1,0,2.5,0.2,3.5-0.1c0.7-0.3,1.8-0.8,2.4-1.2c0.8-0.6,1.5-1.4,2.3-2.1c1.3-1.3,3.6-1,5.2-1.9
		c1.7-0.9,2.2-2.5,3.3-4.1c0.2-0.3,0.5-0.6,0.7-0.9C371.9,69.8,409.4,115.4,409.4,169.6z"/>
	<path class="st3" d="M305.2,265.7c0,0.1-0.1,0.1-0.1,0.2c-0.6,0.9-1.5,1.5-2.3,2.2c-0.7,0.6-1.4,1.2-2.2,1.7
		c-0.5,0.3-1,0.5-1.4,0.8c-0.2,0.1-0.7,0.4-1,0.4s-0.5-0.2-0.8-0.2c-0.4-0.1-1,0-1.4,0c-0.3,0-0.6,0-0.9-0.1
		c-0.2-0.1-0.2-0.2-0.5-0.2s-0.5,0.2-0.7,0.3c-0.3,0.2-0.5,0.1-0.9,0.2c-0.2,0-0.3,0.2-0.5,0.2c-0.3,0.1-0.6-0.1-1,0
		c-0.5,0.1-0.8,0.4-1.3,0.5c-0.8,0.2-1.7,0.4-2.4,0.9c-0.7,0.5-1.2,1.2-1.7,1.9c-0.5,0.6-1,1-1.5,1.7c-0.8,1.1-1.7,2.1-2.7,3
		c-0.8,0.8-1.5,1.7-2.1,2.8c-0.2,0.4-0.4,0.7-0.6,1.1c-0.1,0.2-0.2,0.4-0.3,0.6c-0.2,0.4-0.1,0.3-0.5,0.4c-0.9,0.1-2-0.3-2.8-0.4
		c-7.3-1.2-14.6-3.1-21.6-5.6c-1.7-0.6-3.3-1.3-4.9-1.9c-0.8-0.3-1.6-0.7-2.4-1c-0.6-0.3-1.8-0.6-2.3-1.1c-0.9-0.9-1.7-2.3-2.4-3.3
		c-0.6-0.9-1.7-2.2-2.1-3.1c-0.6-1.4-0.1-3.5-0.1-5c0-2.1,0.6-5.5-0.4-7.3c-1-1.8-3.3-2.5-3.6-4.7c-0.1-0.5-0.1-1.1-0.1-1.7
		s0.1-1.2,0-1.8c-0.1-0.9-0.4-1.8-0.6-2.7c-0.2-1.1-0.4-2.2-0.9-3.2c-0.2-0.6-0.6-1.2-1-1.6s-0.9-0.6-1.2-1
		c-0.4-0.5-0.5-0.9-1.2-1.1c-0.6-0.2-1-0.3-1.5-0.7c-1.1-0.8-2.3-1.4-3.5-2.2c-0.4-0.3-0.7-0.7-1.2-1c-0.6-0.4-1.2-0.9-1.8-1.3
		c-1.4-0.9-2.4-2.4-3.5-3.6c-0.8-0.8-1.3-1.8-1.9-2.8c-0.4-0.6-0.7-1-0.9-1.7c-0.1-0.3-0.1-0.6-0.2-0.8c-0.1-0.4-0.4-0.6-0.6-1
		c-0.7-1.2-1.2-2.5-2.1-3.5c-0.3-0.3-0.6-0.6-0.9-1c-0.8-1-1-2.4-1.6-3.6c-0.8-1.7-1.7-3.3-2.5-5.1c-0.9-1.9-1.4-3.8-2.6-5.6
		c-0.5-0.8-0.7-1.7-1.1-2.6c-0.2-0.4-0.6-0.8-0.9-1.2c-0.3-0.4-0.4-0.9-0.7-1.2c-0.2-0.2-0.4-0.2-0.6-0.5c-0.1-0.2-0.3-0.4-0.4-0.5
		c-0.6-1.1-1.3-2-2.1-2.9c-0.5-0.6-0.6-1.2-1-1.8c-0.5-0.9-1-1.9-1.4-2.8s-0.4-2-0.8-2.9c-0.5-1.1-0.5-2.2-0.8-3.4
		c-0.2-1.1-0.6-2.2-0.7-3.3c0-1.3,0.1-2.6,0.3-3.9c0.1-0.9,0.2-1.4,0-2.2c-0.1-0.5,0-1.1-0.1-1.6c-0.2-0.9-0.4-1.9-0.6-2.9
		c-0.4-2.1,0.6-4.1,0.6-6.2c0-1-0.1-2,0-2.9c0.1-1,0.8-2.1,1.5-2.8c0.6-0.6,1.1-1.3,1.7-1.8c0.7-0.5,1.5-1,2.2-1.5
		c0.4-0.3,0.9-0.3,1.3-0.6c0.5-0.3,1.4-0.8,1.9-1.2c0.1-0.1,0.2-0.2,0.2-0.2c0-0.1,0.1-0.2,0.1-0.4c0.2-0.1,0.3-0.2,0.5-0.3
		c0.3-0.3,0.5-0.5,0.9-0.8c0.2-0.2,0.6-0.7,0.8-0.8c0.2-0.1,0.4,0,0.7-0.1c0.7-0.3,1.3-1,1.9-1.4c1.4-1.1,2.4-2.5,3.4-3.9
		c0.7-1.1,1.7-2.1,2.2-3.4c0.3-0.9,0.3-1.9,0.4-2.8c0.1-0.5,0.2-0.9,0.4-1.3c0.6-1.1,1.5-2.2,1.5-3.4c0-0.7-0.5-1.3-0.2-2
		s0.8-1.4,1.1-2.1c0.2-0.4,0.3-0.8,0.5-1.2s0.6-0.9,0.7-1.4c0.2-0.7,0-1.5,0-2.2s0-1.3,0-2c0-0.4,0-0.8,0-1.2
		c-0.1-0.5-0.5-1-0.5-1.6c0-0.7,0.3-1.6,0.5-2.3c0.2-0.8,0-1.6,0.1-2.4c0.3-1.5,0.4-3-0.4-4.4c-0.5-1-1.3-2.3-1.4-3.4
		c-0.1-1.3,0-2.6,0.2-3.9c0.1-0.5,0-0.9,0.1-1.4s0.2-1.1,0.3-1.6c0.2-1.1,0.4-2.3,1.4-2.9c0.5-0.3,0.4-0.3,1-0.3
		c0.8,0,1.4-0.4,2.2-0.2c0.5,0.1,0.8,0.4,1.3,0.5c0.4,0.1,0.9,0.1,1.3,0.2c0.7,0.2,1.3,0.1,2.1,0.2c0.6,0.1,1.1,0.4,1.6,0.6
		c0.5,0.2,1,0.2,1.5,0.4c1,0.4,1.5,1.5,1.7,2.5s-0.7,2-0.9,2.9c-0.1,0.4,0,1,0,1.5c0,0.3,0,0.5,0,0.7c0.2,0.2,0.3,0.3,0.4,0.5
		c0.1,0.3,0.2,0.6,0.3,0.9c0.5,0.8,1.2,1,1.2,2c0.1,0.8,0.1,1.9-0.1,2.7c-0.2,0.9-0.3,1.8-0.5,2.8c-0.2,0.8-0.4,1.7-0.4,2.6
		c0,0.3,0,0.6,0,0.8c0,1.8-1.1,3.1-1.8,4.6c-0.7,1.6-0.6,3.7-0.9,5.3c-0.2,1.3,0.2,3.1,1.1,4c0.3,0.4,0.9,0.9,1.3,1.1
		c0.5,0.3,0.9,0.2,1.5,0.3c0.9,0.2,1.6,0.2,2.5,0.2c0.6,0,1.3,0,1.9-0.2c0.5-0.2,0.6-0.4,0.8-1c0.3-0.7,0.5-1.1,1.2-1.5
		c0.5-0.3,0.9-0.5,1.2,0.2c0.2,0.6,0.5,1.2,0.5,1.8s0,1.2,0,1.8c0,0.7,0.1,1.4-0.3,2c-0.3,0.5-0.8,0.9-1.4,1c-1.3,0.3-2.7,0-3.9,0.5
		c-2.4,0.9-1.2,4-1.5,5.9s-1.3,3.6-1.5,5.5c-0.2,1.5-0.3,3-0.7,4.5c-0.8,2.8-1.2,5.6-1.1,8.6c0.1,2.9,0.5,6.1,2.4,8.4
		c1.2,1.5,2.7,4.2,5,3.4c0.6-0.2,1.3-0.2,1.8-0.6c0.4-0.3,0.6-0.7,0.8-1.1c0.3-0.6,0.4-1.4,0.2-2.1c-0.1-0.2-0.2-0.4-0.3-0.6
		c-0.1-0.3,0-0.5-0.1-0.7s-0.2-0.3-0.3-0.6c-0.1-0.3,0-0.7,0-1c0-1.1,0.8-2,1.6-2.7c0.4-0.4,0.8-1,1.2-1.6c0.5-0.7,1.1-1.4,1.5-2.1
		c0.4-0.6,0.6-1.6,0.8-2.3c0.3-1.2,0.2-2.6,0.5-3.9c0.1-0.7,0.3-2,0.8-2.6c0.6-0.7,1.1-0.3,1.3,0.4c0.2,0.5,0.4,1.1,0.5,1.6
		c0.2,0.8-0.1,1.3,0.3,2.1c0.2,0.3,0.3,0.7,0.5,1s0.5,0.4,0.7,0.7c0.8,0.9,1.8,1.6,2.6,2.5c0.3,0.3,0.6,0.7,0.9,1
		c1,1,2.4,1.6,3.3,2.7c0.6,0.7,1.5,1.2,2.1,1.9c0.5,0.6,1.1,1,1.6,1.6c0.7,0.8,1.2,1.6,1.8,2.4c0.5,0.7,1.4,1.4,1.7,2.2
		c0.3,0.9-0.1,1.6-0.6,2.3c-0.3,0.3-0.6,0.6-0.9,1c-0.2,0.2-0.6,0.9-0.9,1c-0.3,0-0.6-0.2-0.8-0.3c-0.6-0.2-1,0-1.6,0
		c-0.6,0.1-1.3,0-2,0s-1.2,0.1-1.8,0.2c-0.2,0-0.4,0.2-0.6,0.2c-0.3,0.1-0.6,0-0.8,0.2c-0.6,0.4-1.1,1.4-1.5,2
		c-0.4,0.7-0.9,1.6-0.7,2.4c0.1,0.5,0.8,1.5,0.4,2.1c-0.1,0.2-0.7,0.5-0.9,0.7c-0.5,0.4-0.8,0.7-1,1.3c-0.7,1.6,0.6,3.2,0.2,4.9
		c-0.1,0.5,0,1-0.1,1.6c-0.1,0.5-0.2,1-0.3,1.5s-0.1,0.9-0.2,1.4c-0.3,1.4-1.3,2.5-2.3,3.4c-0.5,0.5-1,0.7-1.3,1.4
		c-0.6,1.3-0.8,2.7-0.3,4.1c0.2,0.6,1.5,3.3-0.3,3c-0.8-0.1-0.9-1.2-1.1-1.8c-0.3-0.9-0.8-1.7-1.2-2.6c-0.6-1.1-1.1-1.3-2.3-1.5
		c-0.4-0.1-0.8-0.2-1.2-0.3c-1.1-0.2-2.4,0-3.5,0.1c-0.8,0.1-1.4,0.3-2.3,0.1c-1-0.2-2-0.5-2.9-0.8c-0.6-0.2-0.9-0.5-1.4-0.9
		c-0.6-0.5-1.4-1-1.5-1.8c0-0.4,0.3-1,0.4-1.4c0.2-0.8,0.3-1.2,0.2-2c-0.2-1.2,0-3.2-1.6-3.5c-0.6-0.1-1.3,0.3-1.9,0.4
		c-0.6,0.1-1.1,0.3-1.7,0.4c-0.4,0.1-0.9,0.2-1.3,0.4c-0.5,0.3-1,0.8-1.4,1.2c-0.8,0.7-1.8,1.2-2.6,1.9c-0.5,0.5-1.1,0.9-1.3,1.6
		c-0.3,1-0.3,1.8,0.1,2.8c0.1,0.4,0.2,0.8,0.2,1.2c0,0.3-0.2,0.4-0.2,0.6c-0.2,1-0.1,2.6,0.3,3.5c0.7,1.7,3,0.5,4.2,1.4
		c1,0.7,0.5,1.5,0,2.3c-0.3,0.4-0.5,0.6-1.1,0.7c-0.5,0.1-0.6,0.2-1,0.5c-0.7,0.6-1.1,0.9-1.3,1.9c-0.3,1.2-0.6,2.2-0.3,3.5
		c0.2,0.8,0.6,1.6,0.9,2.4c0.2,0.6,0.4,1.2,0.9,1.7c0.6,0.7,1.1,1.5,1.4,2.3c0.5,1.5,0.2,3.1,1.1,4.7c1.5,2.6,5.2,5.1,7.7,6.7
		c1.9,1.3,4.1,1.4,6,2.5c0.9,0.5,1.8,1.7,2.4,2.6c1.4,1.9,1.6,2.9,3.6,4.1c2.6,1.6,6,1.1,9,1c1.8,0,4-0.4,5.7,0.1
		c2.5,0.7,4.2,3.2,6,4.9c2.3,2.2,4.8,4.1,7.5,5.7c1.2,0.7,2.5,1.5,3.9,2c0.7,0.3,1.5,0.4,2.1,0.9c0.8,0.7,1.4,1.8,1.9,2.7
		c0.4,1,0.7,2.1,1.7,2.6c1.6,0.8,3.9,0.8,5.2-0.5c0.5-0.5,1.1-1.6,1-2.4c-0.1-0.5-0.3-1-0.5-1.5c-0.3-0.7-0.5-1.3-0.7-2
		c-0.3-0.7-0.6-1.3-0.5-2s0.5-1.4,0.8-2c0.9-1.6,2.5-1.7,4-2.4c1-0.4,2.2,0,3.2,0.3c0.9,0.2,1.9,0.4,2.5,1c0.9,1,1.3,2,2.4,2.8
		c0.5,0.4,0.9,0.7,1.1,1.3c0.6,1.3,0.4,2.8,1.7,3.6c1.1,0.7,1.9,1.2,3.2,1.3c1,0.1,1.3,0.5,1.8,1.2c0.3,0.4,0.6,0.6,0.6,1.2
		c0,0.4,0,1,0,1.4C305.9,264.5,305.6,265.1,305.2,265.7z"/>
	<path class="st1" d="M286.3,98.4c2,0.8,3.3,2.2,4.9,3.5c0.5,0.4,1,0.7,1.6,0.8c0.8,0.2,1.7,0.2,2.4,0.1c0.4,0,0.9-0.2,1.2-0.4
		c0.4-0.3,0.5-0.9,0.8-1.3c0.5-0.6,1.4-1.1,2.2-0.8c0.9,0.3,1.8,0.4,2.7,0.7c0.8,0.2,1.2,0.7,1.9,1c1,0.5,2.3,1,3.4,0.8
		c0.6-0.1,1.2-0.2,1.8-0.4c0.8-0.3,1.4-1,2.1-1.5c0.5-0.4,0.8-1.1,1.2-1.6c-0.7-0.7-0.5-1.3-0.8-2.2c-0.3-1.2-0.6-2.5-0.1-3.7
		c0.4-1.1,0.4-2.5-0.1-3.6c-0.3-0.7-1.6-1.5-2.3-1.7c-0.5-0.1-0.9-0.4-1.4-0.5c-0.7-0.2-1.3-0.1-2-0.3c-1.4-0.4-3.2-0.4-4-1.8
		c-0.3-0.6-0.4-1.2-0.6-1.8c-0.3-0.7-0.2-1.2-0.3-1.8c-0.1-0.5-0.3-0.9-0.5-1.3c-0.4-0.7-0.7-0.9-1.4-1.3c-0.4-0.3-0.7-0.3-1.1-0.4
		c-0.6-0.1-1.1-0.3-1.7-0.3c-1.1,0-2.3,0.5-3.2,1.1c-0.3,0.2-0.4,0.4-0.7,0.5c-0.2,0.1-0.6,0.1-0.9,0.2c-0.7,0.2-1.5,0.5-2.3,0.8
		c-0.6,0.2-1.3,0.3-2,0.4c-0.3,0.1-0.7,0-1,0.1c-0.5,0.1-0.9,0.3-1.4,0.2c-0.5,0-1-0.1-1.5-0.3c-0.6-0.1-0.9-0.6-1.3-1
		c-0.6-0.5-1-1.2-1.6-1.6c-0.7-0.5-1.8-1.1-2.7-1.3c-1.8-0.4-4.5,0.1-5.9,1.4c-0.7,0.7-1.1,1.8-1.2,2.7c-0.1,1-0.2,2.5,0.2,3.4
		c0.8,1.6,2.1,3.3,1.5,5.2c-0.3,0.8-0.7,1.5-1.4,2.1c-0.5,0.4-1.1,0.7-1.2,1.5c-0.6,2.5,5,2.4,6.3,2.6c1.1,0.2,2.2,0.5,3.3,0.7
		c1.7,0.2,3.4,0,5,0.4C285,97.9,285.7,98.1,286.3,98.4z"/>
</g>
<g>
	<path class="st2" d="M194,383.4c0-1.8,0.3-3.7,0.5-4.6l8.5-38.3h7.9l-8.5,38.2c-0.1,0.7-0.5,2.3-0.5,3.9c0.1,8.5,6,14.8,16.5,14.8
		c11.6,0,16.8-7.1,19.4-18.7l8.5-38.2h7.9l-8.5,38.2c-3.4,15.4-10.5,25.6-27.3,25.6C202.9,404.3,194,396.1,194,383.4z"/>
	<path class="st2" d="M318.1,403.2l-10.5-24.9h-13.1l-5.5,24.9h-7.8l13.8-62.7h23c9,0,17.8,6,17.8,16.4c0,11.6-8.2,20.2-20.4,21.1
		l11.3,25.3H318.1z M312.6,371.4c9.7,0,15.1-6.4,15.1-13.9c0-5.9-5.3-10.1-10.7-10.1h-15.6l-5.4,24h16.4H312.6z"/>
	<path class="st2" d="M363.8,403.2l13.8-62.7h7.8l-12.3,55.7h29.1l-1.5,7H363.8z"/>
</g>
</svg>
