<?xml version="1.0" encoding="utf-8"?>
<!-- Generator: Adobe Illustrator 19.0.0, SVG Export Plug-In . SVG Version: 6.00 Build 0)  -->
<svg version="1.1" id="Layer_1" xmlns="http://www.w3.org/2000/svg" xmlns:xlink="http://www.w3.org/1999/xlink" x="0px" y="0px"
	 viewBox="-41 164.9 512 512" style="enable-background:new -41 164.9 512 512;" xml:space="preserve">
<style type="text/css">
	.st0{fill:#005787;}
	.st1{fill:#FFFFFF;}
</style>
<polygon class="st0" points="2015.6,841.8 1917.8,798 1846.2,718 1813.1,615.7 1824.3,508.6 1877.8,415.4 1964.4,352.2 
	2069.1,329.8 2173.8,352.2 2260.4,415.4 2313.9,508.6 2325.1,615.7 2292.1,718 2220.4,798 2122.6,841.8 "/>
<polygon class="st0" points="807.9,841.8 689.1,773.2 620.5,654.4 620.5,517.2 689.1,398.4 807.9,329.8 945.1,329.8 1063.9,398.4 
	1132.5,517.2 1132.5,654.4 1063.9,773.2 945.1,841.8 "/>
<polygon class="st0" points="1422.5,841.8 1328.4,802.8 1256.4,730.8 1217.5,636.7 1217.5,534.9 1256.4,440.8 1328.4,368.8 
	1422.5,329.8 1524.4,329.8 1618.5,368.8 1690.5,440.8 1729.5,534.9 1729.5,636.7 1690.5,730.8 1618.5,802.8 1524.4,841.8 "/>
<polygon class="st0" points="142.1,676.9 19.5,597.3 -41,463.4 -20.3,317.6 75.2,206.4 215,164.9 354.8,206.4 450.3,317.6 
	471,463.4 410.5,597.3 287.9,676.9 "/>
<g>
	<path class="st1" d="M76.4,393.4c-6.3,2.7-13.3,10.1-15.5,19.5c-2.8,11.9,8.8,16.9,9.7,15.3c1.1-1.9-2.1-2.6-2.7-8.8
		c-0.8-8,2.9-16.9,7.5-20.8c0.9-0.7,0.8,0.3,0.8,2.2c0,3.3-0.2,33.4-0.2,39.6c0,8.5-0.4,11.2-1,13.8c-0.6,2.7-1.7,4.5-0.9,5.2
		c0.9,0.8,4.6-1.1,6.7-4.1c2.6-3.6,3.5-7.9,3.6-12.6c0.2-5.6,0.2-14.6,0.2-19.7c0-4.7,0.1-18.4-0.1-26.6
		C84.6,394.4,79,392.2,76.4,393.4z"/>
	<path class="st1" d="M368.2,437.9c-0.9,0-1.3,0.9-1.7,2.5c-1.2,5.5-2.5,6.8-4.1,6.8c-1.8,0-3.5-2.7-3.9-8.2
		c-0.3-4.3-0.3-12.3,0.1-20.2c0.1-1.6-0.4-3.2-4.7-4.8c-1.9-0.7-4.6-1.7-6,1.6c-3.8,9.3-5.3,16.6-5.7,19.6c0,0.2-0.2,0.2-0.2-0.2
		c-0.2-2.4-0.7-6.7-0.8-15.9c0-1.8-0.4-3.3-2.4-4.5c-1.3-0.8-5.1-2.2-6.5-0.5c-1.2,1.4-2.6,5.1-4.1,9.5c-1.2,3.6-2,6-2,6
		s0-9.7,0-13.4c0-1.4-0.9-1.8-1.2-1.9c-1.3-0.4-3.8-1-4.9-1c-1.3,0-1.7,0.7-1.7,1.8c0,0.1-0.2,12.8-0.2,21.6c0,0.4,0,0.8,0,1.2
		c-0.7,4.1-3.1,9.6-5.7,9.6s-3.8-2.3-3.8-12.8c0-6.1,0.2-8.8,0.3-13.2c0.1-2.6,0.2-4.5,0.1-5c0-1.4-2.4-2.1-3.5-2.3
		c-1.1-0.3-2.1-0.4-2.8-0.3c-1.1,0.1-1.8,0.8-1.8,1.7c0,0.5,0,1.5,0,1.5c-1.4-2.1-3.6-3.6-5-4.1c-3.9-1.2-8-0.1-11.1,4.2
		c-2.5,3.4-3.9,7.3-4.5,13c-0.4,4.1-0.3,8.3,0.5,11.8c-0.9,4-2.6,5.6-4.5,5.6c-2.7,0-4.7-4.4-4.4-12.1c0.2-5,1.2-8.6,2.3-13.7
		c0.5-2.2,0.1-3.3-0.9-4.4c-0.9-1-2.7-1.5-5.4-0.9c-1.9,0.4-4.6,0.9-7.1,1.3c0,0,0.2-0.6,0.3-1.7c0.7-5.6-5.4-5.1-7.3-3.3
		c-1.2,1.1-1.9,2.3-2.2,4.6c-0.5,3.6,2.4,5.3,2.4,5.3c-1,4.4-3.3,10.1-5.7,14.2c-1.3,2.2-2.3,3.9-3.6,5.6c0-0.6,0-1.3,0-1.9
		c0-9.2,0.1-16.4,0.1-19c0.1-2.6,0.2-4.5,0.1-4.9c0-1-0.6-1.4-1.8-1.9c-1.1-0.4-2.3-0.7-3.7-0.8c-1.7-0.1-2.7,0.8-2.6,1.8
		c0,0.2,0,1.4,0,1.4c-1.4-2.1-3.6-3.6-5-4.1c-3.9-1.2-8-0.1-11.1,4.2c-2.5,3.4-4.1,8.3-4.5,12.9c-0.4,4.3-0.3,8,0.2,11.1
		c-0.6,3.1-2.4,6.3-4.5,6.3c-2.6,0-4.1-2.3-4.1-12.8c0-6.1,0.2-8.8,0.3-13.2c0.1-2.6,0.2-4.5,0.1-5c0-1.4-2.4-2.1-3.5-2.3
		c-1.1-0.3-2.1-0.4-2.9-0.3c-1,0.1-1.7,1-1.7,1.6c0,0.7,0,1.5,0,1.5c-1.4-2.1-3.6-3.6-5-4.1c-3.9-1.2-8-0.1-11.1,4.2
		c-2,2.8-3.7,5.9-4.5,12.8c-0.2,2-0.4,3.9-0.3,5.6c-0.8,5-4.4,10.7-7.3,10.7c-1.7,0-3.4-3.3-3.4-10.4c0-9.4,0.6-22.9,0.7-24.2
		c0,0,3.7-0.1,4.4-0.1c1.8,0,3.5,0,6-0.1c1.2-0.1,2.4-4.5,1.1-5c-0.6-0.2-4.7-0.5-6.3-0.5c-1.4,0-5.1-0.3-5.1-0.3s0.3-8.9,0.4-9.9
		c0.1-0.8-1-1.2-1.5-1.4c-1.4-0.6-2.7-0.9-4.2-1.2c-2.1-0.4-3,0-3.2,1.7c-0.3,2.7-0.4,10.5-0.4,10.5c-1.5,0-6.7-0.3-8.3-0.3
		c-1.4,0-2.9,6.1-1,6.2c2.3,0.1,6.2,0.2,8.8,0.2c0,0-0.1,13.7-0.1,17.9c0,0.4,0,0.9,0,1.3c-1.4,7.5-6.5,11.5-6.5,11.5
		c1.1-4.9-1.1-8.7-5.1-11.8c-1.5-1.2-4.4-3.3-7.6-5.8c0,0,1.9-1.9,3.5-5.6c1.2-2.6,1.2-5.7-1.7-6.3c-4.8-1.1-8.7,2.4-9.9,6.2
		c-0.9,2.9-0.4,5.1,1.4,7.3c0.1,0.2,0.3,0.3,0.4,0.5c-1.1,2.1-2.6,4.9-3.8,7.1c-3.5,6-6.1,10.8-8.1,10.8c-1.6,0-1.6-4.9-1.6-9.4
		c0-3.9,0.3-9.8,0.5-15.9c0.1-2-0.9-3.2-2.6-4.2c-1-0.6-3.2-1.9-4.5-1.9c-1.9,0-7.4,0.3-12.6,15.2c-0.7,1.9-1.9,5.3-1.9,5.3l0.1-18
		c0-0.4-0.2-0.8-0.7-1.1c-0.9-0.5-3.2-1.4-5.3-1.4c-1,0-1.5,0.5-1.5,1.4l-0.2,28.2c0,2.1,0.1,4.6,0.3,5.7c0.2,1.1,0.6,2,1,2.5
		s0.9,0.9,1.7,1.1c0.8,0.2,4.9,0.7,5.1-0.9c0.3-1.9,0.3-3.9,2.4-11.5c3.4-11.8,7.7-17.6,9.8-19.6c0.4-0.4,0.8-0.4,0.8,0.2
		c-0.1,2.6-0.4,9.1-0.6,14.6c-0.6,14.7,2.1,17.4,5.9,17.4c2.9,0,7.1-2.9,11.5-10.3c2.8-4.6,5.4-9.1,7.4-12.3c1.3,1.2,2.8,2.6,4.3,4
		c3.5,3.3,4.6,6.5,3.9,9.5c-0.6,2.3-2.8,4.6-6.7,2.4c-1.1-0.7-1.6-1.2-2.8-1.9c-0.6-0.4-1.6-0.5-2.1-0.1c-1.5,1.1-2.3,2.5-2.8,4.2
		s1.2,2.6,3,3.4c1.5,0.7,4.8,1.3,6.8,1.3c8.1,0.3,14.5-3.9,19-14.6c0.8,9.3,4.2,14.5,10.2,14.5c4,0,8-5.1,9.7-10.2
		c0.5,2.1,1.2,3.9,2.2,5.4c4.6,7.3,13.5,5.7,17.9-0.5c1.4-1.9,1.6-2.6,1.6-2.6c0.7,5.8,5.3,7.9,8,7.9c3,0,6.1-1.4,8.3-6.3
		c0.3,0.5,0.5,1,0.8,1.5c4.6,7.3,13.5,5.7,17.9-0.5c0.2-0.3,0.4-0.6,0.6-0.8l0.1,3.8c0,0-2.5,2.3-4.1,3.8
		c-6.9,6.3-12.1,11.1-12.5,16.7c-0.5,7.1,5.3,9.8,9.6,10.1c4.6,0.4,8.6-2.2,11-5.8c2.1-3.2,3.6-9.9,3.4-16.6c0-2.7-0.1-6.1-0.2-9.8
		c2.4-2.8,5.1-6.4,7.7-10.5c2.7-4.5,5.7-10.6,7.2-15.3c0,0,2.5,0,5.3-0.2c0.9-0.1,1.1,0.1,1,0.8c-0.2,0.8-3.4,13.3-0.5,21.6
		c2,5.7,6.6,7.5,9.3,7.5c3.2,0,6.2-2.4,7.8-5.9c0.2,0.4,0.4,0.8,0.6,1.1c4.6,7.3,13.4,5.7,17.9-0.5c1-1.4,1.6-2.6,1.6-2.6
		c1,6,5.7,7.9,8.3,7.9c2.8,0,5.4-1.1,7.6-6.2c0.1,2.2,0.2,4.1,0.5,4.7c0.1,0.4,0.9,0.8,1.5,1c2.6,0.9,5.2,0.5,6.1,0.3
		c0.7-0.1,1.2-0.7,1.3-2.1c0.2-3.6,0.1-9.7,1.2-14.3c1.9-7.6,3.6-10.6,4.4-12c0.5-0.8,1-1,1-0.1c0,1.8,0.1,6.9,0.8,13.8
		c0.5,5.1,1.2,8.1,1.8,9.1c1.5,2.7,3.4,2.9,5,2.9c1,0,3.1-0.3,2.9-2c-0.1-0.8,0.1-6.1,1.9-13.6c1.2-4.9,3.2-9.3,3.9-11
		c0.3-0.6,0.4-0.1,0.4,0c-0.2,3.4-0.5,14.4,0.9,20.5c1.9,8.2,7.3,9.1,9.1,9.1c4,0,7.3-3.1,8.4-11.1
		C369.7,439.4,369.3,437.9,368.2,437.9z M200.1,432.9c-0.2,4.3-1.1,7.8-2.4,10.4c-2.4,4.7-7.2,6.2-9.3-0.6c-1.5-4.9-1-11.5-0.4-15.1
		c0.9-5.3,3.3-9.1,6.9-8.7C198.7,419.2,200.5,424.1,200.1,432.9z M236.7,433c-0.2,4-1.3,8-2.4,10.3c-2.3,4.7-7.2,6.2-9.3-0.6
		c-1.4-4.6-1.1-10.6-0.4-14.4c0.9-4.9,3.1-9.4,6.9-9.4C235.4,418.9,237.3,423,236.7,433z M237.7,460.4c-0.1,7.3-1.2,13.7-3.7,15.6
		c-3.5,2.6-8.2,0.7-7.2-4.7c0.9-4.7,4.9-9.6,10.9-15.5C237.7,455.8,237.7,457.2,237.7,460.4z M301,433c-0.2,4.4-1.2,7.9-2.4,10.3
		c-2.3,4.7-7.2,6.2-9.3-0.6c-1.1-3.7-1.2-9.8-0.4-15c0.8-5.2,3.1-9.2,6.9-8.8C299.7,419.2,301.4,424.1,301,433z"/>
</g>
</svg>
