<?xml version="1.0" encoding="utf-8"?>
<!-- Generator: Adobe Illustrator 21.0.0, SVG Export Plug-In . SVG Version: 6.00 Build 0)  -->
<svg version="1.1" id="Layer_1" xmlns="http://www.w3.org/2000/svg" xmlns:xlink="http://www.w3.org/1999/xlink" x="0px" y="0px"
	 viewBox="0 0 512 512" style="enable-background:new 0 0 512 512;" xml:space="preserve">
<style type="text/css">
	.st0{fill:#008080;}
	.st1{fill:#FFFFFF;}
</style>
<rect class="st0" width="512" height="512"/>
<g>
	<g>
		<path class="st1" d="M78.8,88.8h26.9l50.6,86.7V88.8h23.8v130.5h-25.5l-51.9-88.8v88.8h-24V88.8z"/>
		<path class="st1" d="M227.6,212.1c-13.3-9.8-19.9-23-19.9-39.4c0-0.6,0-0.9,0-1.2c0-0.3,0-0.6,0-1.2c0-16.4,6.6-29.5,19.9-39.4
			c7.9-5.9,16.8-8.8,26.8-8.8c9.9,0,18.9,2.9,26.8,8.6l-13.9,19.3c-3.7-2.8-7.9-4.1-12.6-4.1c-4.7,0-8.9,1.3-12.6,4.1
			c-7,5-10.5,11.8-10.5,20.6c0,0.3,0,0.6,0,0.9s0,0.4,0,0.9c0,8.6,3.5,15.5,10.5,20.6c3.7,2.8,7.9,4.1,12.6,4.1
			c4.7,0,8.9-1.3,12.6-4.1l13.9,19.3c-7.9,5.7-16.8,8.6-26.8,8.6C244.4,220.9,235.5,218,227.6,212.1z"/>
		<path class="st1" d="M305.4,99.8c0-4.1,1.5-7.6,4.4-10.5c2.9-2.9,6.4-4.4,10.5-4.4s7.6,1.5,10.5,4.4c2.9,2.9,4.4,6.4,4.4,10.5
			c0,4.1-1.5,7.6-4.4,10.5c-2.9,2.9-6.4,4.4-10.5,4.4s-7.6-1.5-10.5-4.4C306.9,107.4,305.4,103.9,305.4,99.8z M332.4,124.3h-23.8
			v94.9h23.8V124.3z"/>
		<path class="st1" d="M379.6,212.1c-13.3-9.8-19.9-23-19.9-39.4c0-0.6,0-0.9,0-1.2c0-0.3,0-0.6,0-1.2c0-16.4,6.6-29.5,19.9-39.4
			c7.9-5.9,16.8-8.8,26.8-8.8c9.9,0,18.9,2.9,26.8,8.6l-13.9,19.3c-3.7-2.8-7.9-4.1-12.6-4.1c-4.7,0-8.9,1.3-12.6,4.1
			c-7,5-10.5,11.8-10.5,20.6c0,0.3,0,0.6,0,0.9s0,0.4,0,0.9c0,8.6,3.5,15.5,10.5,20.6c3.7,2.8,7.9,4.1,12.6,4.1
			c4.7,0,8.9-1.3,12.6-4.1l13.9,19.3c-7.9,5.7-16.8,8.6-26.8,8.6C396.4,220.9,387.5,218,379.6,212.1z"/>
	</g>
	<rect x="74.6" y="278.1" class="st1" width="362.8" height="10.2"/>
	<g>
		<path class="st1" d="M88.9,401.4c5.3,3.7,11,6,17.3,6.9c1.6,0,3.1,0,4.4,0c2.5,0,5-0.3,7.5-0.9c1.5-0.3,2.8-1.2,3.7-2.3
			c0.4-0.7,0.7-1.5,0.7-2.5c0-2.2-1-3.5-3.2-3.9l0,0l-25-5.9c-4.2-1-7.8-3.4-10.4-7s-3.9-7.9-3.9-12.4c0-4.1,1.2-7.8,3.4-11.3
			c2.3-3.4,5.3-5.9,9.1-7.5c4.2-1.6,8.6-2.6,13.2-2.9c1.8,0,3.5,0,5.1,0c11.3,0,21.5,3.2,30.7,9.5l-10.2,14.9
			c-6.4-3.9-13.6-6-21.2-6c-1.2,0-2.5,0-3.8,0c-1.9,0-3.7,0.4-5.3,1.2c-1.3,0.7-1.9,1.8-1.9,3.2c0,1.8,0.7,2.8,2.3,3.4
			c0.4,0.1,1,0.4,1.8,0.6l23.4,5.3c4.7,1,8.3,3.5,11.3,7.5c2.9,3.8,4.4,8.2,4.4,13c0,5.6-1.9,10.4-5.6,14.3
			c-4.7,4.7-10.2,7.3-16.7,7.9c-3.4,0.4-6.6,0.7-9.8,0.7c-3.2,0-6.4-0.3-9.8-0.7c-7.9-1-15.1-3.9-21.5-8.9L88.9,401.4z"/>
		<path class="st1" d="M158.6,370.4V352h7.5v-18.3l18.4,7.6v10.8h9.2v18.4h-9.2v32.9c0,2.6,1.3,3.9,3.9,3.9c0.1,0,0.1,0,0.3,0h2.9
			v18.4h-13.5c-3.4,0-6.1-1.2-8.5-3.5s-3.5-5.1-3.5-8.5c0-0.3,0-0.4,0-0.4v-42.9h-7.6C158.6,370.5,158.6,370.4,158.6,370.4z"/>
		<path class="st1" d="M282.8,387.5c0,4.8-0.6,9.4-1.8,13.5c-2.6,9.2-8.2,16.4-16.5,21.5c-5.3,3.1-11,4.7-17.1,4.7h-1.5
			c-7.8,0-14.8-2.5-21.1-7.5c-6.3-5-10.5-11.1-12.7-18.7c-1.2-4.1-1.8-8.5-1.8-13.5c0-3.7,0.4-7.3,1.2-10.8
			c2.9-9.2,8.8-16.4,17.3-21.4c5.4-3.2,11.1-4.8,17.1-4.8h1.5c6,0,11.7,1.6,17.1,4.8c8.5,5,14.2,12.1,17.1,21.4
			C282.5,380.2,282.8,383.9,282.8,387.5z M264.3,388.7c0-2.8-0.4-5.3-1.2-7.5c-1.5-4.1-4.2-7.5-8.3-9.9c-2.5-1.6-5.1-2.3-7.9-2.3
			c-0.1,0-0.3,0-0.4,0c-0.1,0-0.3,0-0.4,0c-2.8,0-5.4,0.7-7.9,2.3c-4.1,2.5-6.9,5.9-8.3,9.9c-0.7,2.2-1.2,4.7-1.2,7.5
			s0.4,5.3,1.2,7.5c1.5,4.1,4.2,7.5,8.3,10.1c2.5,1.6,5.1,2.3,7.9,2.3h0.9c2.8,0,5.4-0.7,7.9-2.3c4.1-2.6,6.9-6,8.3-10.1
			C264,393.9,264.3,391.5,264.3,388.7z"/>
		<path class="st1" d="M299.9,352h18.3v5.4c6.4-4.1,13.3-6,20.9-6c2.3,0,4.8,0.1,7.2,0.6v19c-1.9-0.7-3.9-1.2-6-1.2h-1
			c-3.7,0-7.2,1-10.2,2.9c-6.1,3.7-9.8,8.9-10.7,16.1v36.9H300L299.9,352L299.9,352z"/>
		<path class="st1" d="M433.2,393.4h-51.5c0.4,3.7,1.9,7,4.4,9.8c2.5,2.9,5.6,4.7,9.2,5.6c1.3,0.3,2.8,0.4,4.5,0.4
			c5.9,0,11-1.9,15.4-5.7l10.7,14.8c-7.8,5.9-16.5,8.8-26.2,8.8H398c-7.5,0-14-2.2-19.9-6.4c-10.2-7.6-15.4-17.7-15.4-30.6
			c0-0.1,0-0.3,0-0.4c0-0.1,0-0.3,0-0.4c0-0.1,0-0.3,0-0.4c0-0.1,0-0.3,0-0.4c0-12.7,5.1-22.8,15.4-30.4c5.9-4.4,12.6-6.6,19.9-6.6
			c7.3,0,13.9,2.2,19.9,6.6c10.2,7.5,15.4,17.4,15.4,29.5v6L433.2,393.4L433.2,393.4z M413.5,381.4c-0.6-3.8-2.3-7-5.4-9.5
			c-2.9-2.5-6.4-3.8-10.2-3.8s-7.3,1.3-10.2,3.8s-4.8,5.7-5.4,9.5H413.5z"/>
	</g>
</g>
</svg>
