<?xml version="1.0" encoding="utf-8"?>
<!-- Generator: Adobe Illustrator 19.0.0, SVG Export Plug-In . SVG Version: 6.00 Build 0)  -->
<svg version="1.1" id="Layer_1" xmlns="http://www.w3.org/2000/svg" xmlns:xlink="http://www.w3.org/1999/xlink" x="0px" y="0px"
	 viewBox="-41 164.9 512 512" style="enable-background:new -41 164.9 512 512;" xml:space="preserve">
<style type="text/css">
	.st0{fill:none;stroke:#E6E6E6;stroke-width:4;stroke-miterlimit:10;}
	.st1{fill:none;stroke:#CCCCCC;stroke-width:2;stroke-miterlimit:10;}
	.st2{fill:#FFFFFF;}
	.st3{fill:#00CC66;}
</style>
<g>
	<circle class="st0" cx="-13" cy="192.9" r="24.5"/>
	<circle class="st0" cx="25.1" cy="192.9" r="24.5"/>
	<circle class="st0" cx="63" cy="192.9" r="24.5"/>
	<circle class="st0" cx="101.1" cy="192.9" r="24.5"/>
	<circle class="st0" cx="139" cy="192.9" r="24.5"/>
	<circle class="st0" cx="177" cy="192.9" r="24.5"/>
	<circle class="st0" cx="215" cy="192.9" r="24.5"/>
	<circle class="st0" cx="253" cy="192.9" r="24.5"/>
	<circle class="st0" cx="291" cy="192.9" r="24.5"/>
	<circle class="st0" cx="328.9" cy="192.9" r="24.5"/>
	<circle class="st0" cx="367" cy="192.9" r="24.5"/>
	<circle class="st0" cx="404.9" cy="192.9" r="24.5"/>
	<circle class="st0" cx="443" cy="192.9" r="24.5"/>
	<circle class="st0" cx="-13" cy="648.9" r="24.5"/>
	<circle class="st0" cx="25.1" cy="648.9" r="24.5"/>
	<circle class="st0" cx="63" cy="648.9" r="24.5"/>
	<circle class="st0" cx="101.1" cy="648.9" r="24.5"/>
	<circle class="st0" cx="139" cy="648.9" r="24.5"/>
	<circle class="st0" cx="177" cy="648.9" r="24.5"/>
	<circle class="st0" cx="215" cy="648.9" r="24.5"/>
	<circle class="st0" cx="253" cy="648.9" r="24.5"/>
	<circle class="st0" cx="291" cy="648.9" r="24.5"/>
	<circle class="st0" cx="328.9" cy="648.9" r="24.5"/>
	<circle class="st0" cx="367" cy="648.9" r="24.5"/>
	<circle class="st0" cx="404.9" cy="648.9" r="24.5"/>
	<circle class="st0" cx="443" cy="648.9" r="24.5"/>
	<circle class="st0" cx="-13" cy="610.8" r="24.5"/>
	<circle class="st0" cx="-13" cy="572.9" r="24.5"/>
	<circle class="st0" cx="-13" cy="534.9" r="24.5"/>
	<circle class="st0" cx="-13" cy="496.9" r="24.5"/>
	<circle class="st0" cx="-13" cy="458.9" r="24.5"/>
	<circle class="st0" cx="-13" cy="420.9" r="24.5"/>
	<circle class="st0" cx="-13" cy="382.9" r="24.5"/>
	<circle class="st0" cx="-13" cy="344.9" r="24.5"/>
	<circle class="st0" cx="-13" cy="306.9" r="24.5"/>
	<circle class="st0" cx="-13" cy="268.9" r="24.5"/>
	<circle class="st0" cx="-13" cy="231" r="24.5"/>
	<circle class="st0" cx="443" cy="610.8" r="24.5"/>
	<circle class="st0" cx="443" cy="572.9" r="24.5"/>
	<circle class="st0" cx="443" cy="534.9" r="24.5"/>
	<circle class="st0" cx="443" cy="496.9" r="24.5"/>
	<circle class="st0" cx="443" cy="458.9" r="24.5"/>
	<circle class="st0" cx="443" cy="420.9" r="24.5"/>
	<circle class="st0" cx="443" cy="382.9" r="24.5"/>
	<circle class="st0" cx="443" cy="344.9" r="24.5"/>
	<circle class="st0" cx="443" cy="306.9" r="24.5"/>
	<circle class="st0" cx="443" cy="268.9" r="24.5"/>
	<circle class="st0" cx="443" cy="231" r="24.5"/>
</g>
<g>
	<circle class="st1" cx="-13" cy="192.9" r="24.5"/>
	<circle class="st1" cx="25.1" cy="192.9" r="24.5"/>
	<circle class="st1" cx="63" cy="192.9" r="24.5"/>
	<circle class="st1" cx="101.1" cy="192.9" r="24.5"/>
	<circle class="st1" cx="139" cy="192.9" r="24.5"/>
	<circle class="st1" cx="177" cy="192.9" r="24.5"/>
	<circle class="st1" cx="215" cy="192.9" r="24.5"/>
	<circle class="st1" cx="253" cy="192.9" r="24.5"/>
	<circle class="st1" cx="291" cy="192.9" r="24.5"/>
	<circle class="st1" cx="328.9" cy="192.9" r="24.5"/>
	<circle class="st1" cx="367" cy="192.9" r="24.5"/>
	<circle class="st1" cx="404.9" cy="192.9" r="24.5"/>
	<circle class="st1" cx="443" cy="192.9" r="24.5"/>
	<circle class="st1" cx="-13" cy="648.9" r="24.5"/>
	<circle class="st1" cx="25.1" cy="648.9" r="24.5"/>
	<circle class="st1" cx="63" cy="648.9" r="24.5"/>
	<circle class="st1" cx="101.1" cy="648.9" r="24.5"/>
	<circle class="st1" cx="139" cy="648.9" r="24.5"/>
	<circle class="st1" cx="177" cy="648.9" r="24.5"/>
	<circle class="st1" cx="215" cy="648.9" r="24.5"/>
	<circle class="st1" cx="253" cy="648.9" r="24.5"/>
	<circle class="st1" cx="291" cy="648.9" r="24.5"/>
	<circle class="st1" cx="328.9" cy="648.9" r="24.5"/>
	<circle class="st1" cx="367" cy="648.9" r="24.5"/>
	<circle class="st1" cx="404.9" cy="648.9" r="24.5"/>
	<circle class="st1" cx="443" cy="648.9" r="24.5"/>
	<circle class="st1" cx="-13" cy="610.8" r="24.5"/>
	<circle class="st1" cx="-13" cy="572.9" r="24.5"/>
	<circle class="st1" cx="-13" cy="534.9" r="24.5"/>
	<circle class="st1" cx="-13" cy="496.9" r="24.5"/>
	<circle class="st1" cx="-13" cy="458.9" r="24.5"/>
	<circle class="st1" cx="-13" cy="420.9" r="24.5"/>
	<circle class="st1" cx="-13" cy="382.9" r="24.5"/>
	<circle class="st1" cx="-13" cy="344.9" r="24.5"/>
	<circle class="st1" cx="-13" cy="306.9" r="24.5"/>
	<circle class="st1" cx="-13" cy="268.9" r="24.5"/>
	<circle class="st1" cx="-13" cy="231" r="24.5"/>
	<circle class="st1" cx="443" cy="610.8" r="24.5"/>
	<circle class="st1" cx="443" cy="572.9" r="24.5"/>
	<circle class="st1" cx="443" cy="534.9" r="24.5"/>
	<circle class="st1" cx="443" cy="496.9" r="24.5"/>
	<circle class="st1" cx="443" cy="458.9" r="24.5"/>
	<circle class="st1" cx="443" cy="420.9" r="24.5"/>
	<circle class="st1" cx="443" cy="382.9" r="24.5"/>
	<circle class="st1" cx="443" cy="344.9" r="24.5"/>
	<circle class="st1" cx="443" cy="306.9" r="24.5"/>
	<circle class="st1" cx="443" cy="268.9" r="24.5"/>
	<circle class="st1" cx="443" cy="231" r="24.5"/>
</g>
<g>
	<circle class="st2" cx="-13" cy="192.9" r="24.5"/>
	<circle class="st2" cx="25.1" cy="192.9" r="24.5"/>
	<circle class="st2" cx="63" cy="192.9" r="24.5"/>
	<circle class="st2" cx="101.1" cy="192.9" r="24.5"/>
	<circle class="st2" cx="139" cy="192.9" r="24.5"/>
	<circle class="st2" cx="177" cy="192.9" r="24.5"/>
	<circle class="st2" cx="215" cy="192.9" r="24.5"/>
	<circle class="st2" cx="253" cy="192.9" r="24.5"/>
	<circle class="st2" cx="291" cy="192.9" r="24.5"/>
	<circle class="st2" cx="328.9" cy="192.9" r="24.5"/>
	<circle class="st2" cx="367" cy="192.9" r="24.5"/>
	<circle class="st2" cx="404.9" cy="192.9" r="24.5"/>
	<circle class="st2" cx="443" cy="192.9" r="24.5"/>
	<circle class="st2" cx="-13" cy="648.9" r="24.5"/>
	<circle class="st2" cx="25.1" cy="648.9" r="24.5"/>
	<circle class="st2" cx="63" cy="648.9" r="24.5"/>
	<circle class="st2" cx="101.1" cy="648.9" r="24.5"/>
	<circle class="st2" cx="139" cy="648.9" r="24.5"/>
	<circle class="st2" cx="177" cy="648.9" r="24.5"/>
	<circle class="st2" cx="215" cy="648.9" r="24.5"/>
	<circle class="st2" cx="253" cy="648.9" r="24.5"/>
	<circle class="st2" cx="291" cy="648.9" r="24.5"/>
	<circle class="st2" cx="328.9" cy="648.9" r="24.5"/>
	<circle class="st2" cx="367" cy="648.9" r="24.5"/>
	<circle class="st2" cx="404.9" cy="648.9" r="24.5"/>
	<circle class="st2" cx="443" cy="648.9" r="24.5"/>
	<circle class="st2" cx="-13" cy="610.8" r="24.5"/>
	<circle class="st2" cx="-13" cy="572.9" r="24.5"/>
	<circle class="st2" cx="-13" cy="534.9" r="24.5"/>
	<circle class="st2" cx="-13" cy="496.9" r="24.5"/>
	<circle class="st2" cx="-13" cy="458.9" r="24.5"/>
	<circle class="st2" cx="-13" cy="420.9" r="24.5"/>
	<circle class="st2" cx="-13" cy="382.9" r="24.5"/>
	<circle class="st2" cx="-13" cy="344.9" r="24.5"/>
	<circle class="st2" cx="-13" cy="306.9" r="24.5"/>
	<circle class="st2" cx="-13" cy="268.9" r="24.5"/>
	<circle class="st2" cx="-13" cy="231" r="24.5"/>
	<circle class="st2" cx="443" cy="610.8" r="24.5"/>
	<circle class="st2" cx="443" cy="572.9" r="24.5"/>
	<circle class="st2" cx="443" cy="534.9" r="24.5"/>
	<circle class="st2" cx="443" cy="496.9" r="24.5"/>
	<circle class="st2" cx="443" cy="458.9" r="24.5"/>
	<circle class="st2" cx="443" cy="420.9" r="24.5"/>
	<circle class="st2" cx="443" cy="382.9" r="24.5"/>
	<circle class="st2" cx="443" cy="344.9" r="24.5"/>
	<circle class="st2" cx="443" cy="306.9" r="24.5"/>
	<circle class="st2" cx="443" cy="268.9" r="24.5"/>
	<circle class="st2" cx="443" cy="231" r="24.5"/>
</g>
<g>
	<path class="st3" d="M-12.9,643.9c0,2.6,2.2,4.9,4.9,4.9h446c2.6,0,4.9-2.2,4.9-4.9v-446c0-2.6-2.2-4.9-4.9-4.9H-8
		c-2.6,0-4.9,2.2-4.9,4.9V643.9z"/>
</g>
<g>
	<path class="st2" d="M47.7,473.9l22.1-106h17.4l10.7,68.7c1.4,9,2.3,17.7,2.7,26c2.9-7.1,7.9-16.8,14.8-29l37.2-65.7h17.7l-22,106
		h-14l11.1-51.6c2.6-11.9,6.2-25.3,11-40.1c-3,6.9-6.8,14.3-11.3,22.3l-39.5,69.4H91.9l-10.6-68c-1-6.2-1.7-13.5-2.1-21.8
		c-1.2,9.3-2.4,16.7-3.5,22.1l-14.2,67.7H47.7z"/>
	<path class="st2" d="M161.6,473.9l60.2-106h16.7l17.5,106h-13.7l-5.1-30.5h-42.9l-17,30.5H161.6z M200.3,432.5h35.1l-4.1-26.6
		c-1.6-10.6-2.6-19.4-3-26.4c-2.4,6.1-5.9,13.3-10.6,21.6L200.3,432.5z"/>
	<path class="st2" d="M271.9,473.9l22.2-106h14.1l-22.1,106H271.9z"/>
	<path class="st2" d="M310.5,473.9l22.2-106h14.2l-19.6,94h55.1l-2.5,12H310.5z"/>
</g>
</svg>
