<?xml version="1.0" encoding="utf-8"?>
<!-- Generator: Adobe Illustrator 18.0.0, SVG Export Plug-In . SVG Version: 6.00 Build 0)  -->
<!DOCTYPE svg PUBLIC "-//W3C//DTD SVG 1.1//EN" "http://www.w3.org/Graphics/SVG/1.1/DTD/svg11.dtd">
<svg version="1.1" id="Layer_1" xmlns="http://www.w3.org/2000/svg" xmlns:xlink="http://www.w3.org/1999/xlink" x="0px" y="0px"
	 width="512px" height="512px" viewBox="0 0 512 512" enable-background="new 0 0 512 512" xml:space="preserve">
<polygon opacity="0.25" fill="#FFE873" enable-background="new    " points="480.3,176.5 480.3,335.5 335.5,480.3 176.5,480.3 
	31.7,335.5 31.7,176.5 176.5,31.7 335.5,31.7 "/>
<path fill="#005099" d="M458.7,23.3H53.3c-16.6,0-30,13.4-30,30v405.5c0,16.6,13.4,30,30,30h405.5c16.6,0,30-13.4,30-30V53.3
	C488.7,36.7,475.3,23.3,458.7,23.3z M471.7,332.5H332.5v139.2H179.5V332.5H40.3V179.5h139.2V40.3h152.9v139.2h139.2L471.7,332.5
	L471.7,332.5z"/>
</svg>
