<?xml version="1.0" encoding="utf-8"?>
<!-- Generator: Adobe Illustrator 18.1.0, SVG Export Plug-In . SVG Version: 6.00 Build 0)  -->
<!DOCTYPE svg PUBLIC "-//W3C//DTD SVG 1.1//EN" "http://www.w3.org/Graphics/SVG/1.1/DTD/svg11.dtd">
<svg version="1.1" id="Layer_1" xmlns="http://www.w3.org/2000/svg" xmlns:xlink="http://www.w3.org/1999/xlink" x="0px" y="0px"
	 width="512px" height="512px" viewBox="0 0 512 512" enable-background="new 0 0 512 512" xml:space="preserve">
<g>
	<g>
		<path fill="#86B817" d="M138.6,359.1c2.7-0.4,3.8-2.1,6.3-3.6c3.7-2.3,7.9-2.5,11.7-4.4c5.5-2.7,11.3-6.4,17-7.9
			c2.6-0.7,5.9-2.3,8.4-2.2c0,4.4-0.5,6.6-2.3,10.5c-1.1,2.4-2.5,3.3-2,6.3c0.3,2,4.8,0.5,5.6,0.3c2-0.9,3.9-1.3,5.7-1.3
			c1.7-0.2,4.5-2.3,5.8-1.4c1,0.7,0.8,2.4,2.1,2.7c1.7,0.4,4.4-1.5,6.5-2.2c4-1.2,7.5-0.3,12-1.5c7.2-2,14.4-2.3,22.6-2.8
			c12-3.4,24.5-9.1,36.9-23c8.6-9.8,19.8-23.4,28.2-20.1c-2.7,4.6-6.5,8.6-9.7,13.9c-1.3,2.1-6.1,9.7-5.8,13.7
			c3.5-0.1,8.5-3.8,11.9-4.6c2.2-0.5,4.3-1.2,6.3-0.3c2.3,1,2,1.8,4.8,1.3c4.4-0.9,9.1-4.2,13.5-5.9c6-2.3,11.9-4.5,18-5.7
			c11-2.2,21.9-5.2,32.7-8.1c4.6-1.2,8.9-2.6,13.3-4.2c4.5-1.5,9.2-0.1,13.6-2.7c1.6-1,2.5-2.6,3.9-3.4c1.7-1,4.7-1.8,6.7-2.2
			c4-0.8,7.4-1,11-3.3c3.9-2.5,7.4-5.6,11.8-7.2c1.2,2.6-4.4,6.5-6.2,7.9c-3.7,2.9-7.4,5.5-11.2,8.2c-2.4,1.7-3.9,3.8-6.5,5.4
			c-3,1.8-5.3,3.5-8.7,4.6c-3,1-6,2.3-8.8,3.8c-3.4,1.8-6.1,5.2-8.7,7.9c-3.3,3.4-8,5.2-12,7.7c-2,1.2-4.4,1.9-6.3,3.2
			c-0.8,0.7-1.6,1.4-2.4,2c-0.7,0.2-1.4,0.3-2.1,0c-2.6,1.3-5.3,4.1-6.8,6.6c-2.1,3.4-6,5.1-9.4,7.5c-2.3,1.6-3.6,3.7-5.6,5.7
			c-2.4,2.4-5.4,3.1-7.7,5.4c-1.3,1.3-4.9,4.4-2.2,5.6c2.8,1.2,6.7-1.3,9-0.4s1.8,1.2,4.4,0.6c1.7-0.4,2.6-0.7,4-1.4
			c1.9-0.8,3.6-2.4,5.6-3.1c1.4-0.5,2.9-0.5,4.2-1.2c1,7.6-11.9,7.7-16.2,9.4c-3.6,1.4-7.2,3.1-11,3.6c-1.3,0.2-2,0.5-3.3,0.8
			c-1.8,0.5-3.8-0.3-5.6,0.2c-2.2,0.6-3.9,2.1-6.4,2.3c-2.5,0.1-5.1,0-7.6,0c-4.9,0-9.2,1.6-12,5.5c-1.1,1.5-3.3,2.9-4.1,4.6
			c-0.5,1-0.1,2-0.4,3.1c-0.4,1.3-1.4,2-2.2,2.9c-1.7,2-3.7,2.8-5.5,4.6c-2,2.1-2.8,5.1-4.4,7.5c-1.4,2.1-2.9,4.3-5.2,5.5
			c-1.4,0.7-1.4,0-2.5,1.3c-1,1.1-1.4,3.1-1.9,4.4c-0.9,2.4-2.5,5.8-4.3,7.7c-2.7,2.8-6.8,4.9-9.9,7.1c-2.1-1.7-1.1-4.4,0.3-6.1
			c1-1.3,2.3-2,3.3-3.2c1.3-1.5,1.9-3.8,2.8-5.6c0.6-1.4,2.9-6.1,0.3-6.6c-0.8-0.2-3.5,1.2-4.4,1.5c-2,0.6-3.4,0.4-5.5,0.8
			c-1.6,0.3-2.7,1.1-4.4,1.2c-1.8,0.1-2.7,0.1-4.4,0.8c-2.6,1.1-5.2,1.8-7.4,3.8c-0.8,0.8-1.4,1.2-2.3,1.8c-2.4,1.6-4.2,3.6-6.4,5.4
			c-2.7,2.2-6.1,3-8.9,5.5c-3.3,3-6.5,5.9-11,6.7c-1.5,0.2-2.8-0.2-4.3,0.2c-2,0.5-4.4,0.9-6.4,1.6c-2.4,0.8-4.7,2.7-6.7,4.1
			c-1.4,0.9-2.3,2.8-3.6,3.7c-1.2,0.9-2.1,1-3.3,2.1c-1.9,1.9-3.9,3.8-6.3,5c-1.7,0.8-2.9,0.2-4.4,0.7c-1.1,0.3-1.5,1.2-2.3,1.9
			c-5.6,4.9-11.9,8-18.7,10.6c-8.1,3.1-15.3,8-23.8,10.5c-5,1.5-10.8,1.3-15.6,3.4c-3.3,1.4-5.5,4.2-8.3,6.2c-1.8,1.3-4,1.4-3.1-1.7
			c0.9-3.3,7.4-5.7,9.7-8.1c2.9-3.1,6.8-6.6,8.9-10.3c-1.4-1.5-3,0.4-4.4,1.1c-1.8,0.8-3.5,0.8-5.3,1.4c-3.3,1.2-6.8,3.3-10,4.8
			c-2.6,1.2-4.4,2.7-7,4c-1.3,0.6-2.6,1.4-4,1.8c-1.6,0.4-3.2-0.2-4.8,0.4c-1.5,0.6-2.9,1.9-4.4,2.5c-1.7,0.7-3.2,1.5-4.8,2.5
			c-2.4,1.7-4.3,3.8-7,5c-2.3,1-5.5,1.5-8,1.7c-2.4,0.3-4.6,1.2-6.8,2.2c-0.7,0.4-1.8,1.3-2.5,1.5c-1.3,0.4-2.5,0-3.8,0.2
			c-2.7,0.5-5.4,1.5-8,2.1c-2.5,0.5-11.9,4.8-13,0c-0.3-1.5,0.9-2.5,0.9-3.8c-0.5-0.2-0.8-0.6-1-1.2c0.1-0.8,0.4-1.5,1.1-2.1
			c1.9-2.7,5.2-3.8,8.1-5.2c3.9-1.9,7.8-3.9,11.1-6.8c2.1-1.8,3.5-4.1,5.3-6.1c5.8-6.5,12.6-11.6,17.8-18.7
			c-2.5-3.1-7.8-2.4-11.3-2.5c-1.8-0.1-4.2,0.3-5.8-0.3c-1.8-0.7-3.2-2.7-5-3.6c-2-1-4.3-2.3-4.9-4.5c1.3-1,4-4.7,4.7-6.3
			c0.7-1.5,1.2-2.7,2-4.2c0.7-1.3,1.5-3.3,1.1-4.7c-3.1,0.6-6,1.9-8.9,3.2c-2.7,1.2-5.3,1.2-8,1.9c-1.5,0.4-2.6,1.8-3.8-0.1
			c-0.9-1.4-0.1-2.5,0.8-3.3c2.6-2.3,7-2.6,9.9-4.5s5.3-4.5,8.4-6.1c3.5-1.8,7.3-3.2,10.8-4.9c3.3-1.6,6-3.8,8.8-6.1
			c2.5-2,5.2-3.6,7.1-6.2c1.7-2.3,3.2-4.2,5.5-6c6.2-4.9,12.5-9.8,18.6-14.9c12.5-10.3,24.7-20.8,36.9-31.5"/>
		<path fill="#F5AF02" d="M508.2,194.4c-2.1,0.8-4.2,1.1-6.3,1.8c-4.4,1.5-8.6,4.6-13,6c-4.9,1.5-9.3,5.8-14.4,5.8
			c-1.5,0-3.2-0.4-4.7,0.2c-0.8,0.3-1.1,1-1.9,0.5c0.8-2,2.9-3.7,4-6.1c-1.9-1.5-6.6,3.3-8.7,4.3c-3.8,1.9-7.7,2.8-11.5,4.4
			c-4.3,1.9-8.3,5.8-12.6,7.6c-3.9,1.6-7.4,3.9-11.2,6.3c-7.9,5.1-16,8.9-23.8,14.3c-3.2,2.3-10.6,5.3-12.1-2.8
			c-0.6-3.4,0.5-5.4,1.7-7.9c1.2-2.8,2.4-5.4,3.9-7.9c2-3.4,4.4-6.5,5.8-10.7c0.6-1.9,2.8-5.9,2.7-7.6c-0.4-3.3-3.1,0.3-4.3-2.1
			c-1.1-1.9,2.9-3.9,3.8-4.4c4-2.6,8.7-6,13.7-10.5c4.7-4.5,11.1-10.3,16.3-15.2c7.4-5.8,15-8.4,22.6-10.6c5.1-1.9,11-4.7,17.7-8.4
			c1.3-0.7,7.7-4.7,5.4-6.6c-0.9-0.8-5.3,0.5-5.8,0.7c-3,0.8-5.5,2.6-8.3,3.3c-4.5,0.9-8.3,1.9-12.2,2.9c-3.5,1-6.7,1.5-9.4,0.9
			c-2.7-0.6-5.9-2.1-11-1.1c-1.4,1.3-2.7,2.6-4.1,3.8c-3.3,3-6.5,6-9.9,8.9c-1.7,1.4-3.3,2.8-5,4.2c-0.4,0.3-0.8,0.6-1.2,1
			c-0.3,0.2-0.4,0.6-0.6,0.9c-0.3,0.4-0.7,0.7-1,0.9c-0.4,0.3-0.8,0.6-1.2,0.9c-0.4,0.3-0.8,0.6-1.2,0.8c-0.6,0.3-1,0.7-1.5,1.1
			c-0.3,0.2-0.6,0.4-0.9,0.6c-0.2,0.2-0.5,0.4-0.7,0.5c-0.6,0.4-1.2,0.4-1.8,0.8c-0.6,0.4-1.2,0.7-1.8,1.2c-0.6,0.6-1.3,1-1.9,1.6
			c-1,1-2,1.8-3,2.6c-1.5,1.2-3.3,1.9-4.9,2.9c-1.4,0.8-2.7,1.7-4.2,2.2c-0.5,0.1-1,0.2-1.4,0.4c-0.6,0.3-1.2,0.8-1.7,1.2
			c-1.3,1.2-2.3,2.9-3.4,4.3c-0.9,1.1-2,2-3.1,2.6c-0.8,0.4-1.5,0.8-2.3,1.3c-1.5,1-2.8,2.5-4.3,3.6c-0.6,0.4-1.2,0.7-1.8,1.2
			c-0.6,0.5-1.2,1.3-1.7,1.9c-1.4,1.5-2.9,2.7-4.5,3.6c-7.5,4.2-15.6,3.2-22.9,8.3c-3.3,2.3-6.3,2.4-9.8,3.8
			c-6.4,2.7-12.6,8.2-18.5,12.5c-7.3,5.5-14.4,12.4-21.1,19.8c-4.2,4.6-7.8,10.6-11.4,16.4c-7.8,12.7-18.2,23.5-27.4,35.3
			c-1.5,1.9-3,3.7-4.7,5.4c-0.7,0.8-1.4,1.4-1.9,2.3c-0.4,0.8-1.1,1.5-1.7,2.1c-1.1,1.1-2,2.3-3.1,3.4c-0.6,0.6-1.2,1.2-1.7,1.9
			c-1,1.4-2.2,2.5-3.3,3.8c-0.5,0.6-0.9,1.7-1.6,1.9c-0.6,0.2-2.1,0.1-2.7-0.1c-1.4-0.4-0.6-2.6-0.3-3.6c0.2-0.7,0.1-1.4,0.3-2
			c0.2-0.5,0.4-1,0.6-1.5c0.3-1.7-0.9-1.3-2-1c-1.2,0.3-1.7,0.7-2.4,1.7c-0.2,0.3-0.5,0.7-0.6,1s-0.1,0.5,0,0.8
			c-0.2,0.4-0.7,0.6-1.1,0.9c-0.3,0.2-0.6,0.5-0.9,0.7c-0.2,0-0.4,0.1-0.6,0.1c-0.4,0.3-0.5,0.8-0.4,1.3s0.7,0.8,0.7,1.3
			c0.1,0.9-1,1-1.7,1.3c-1.9,0.8-3.7,1.5-5.5,2.5c-3.3,1.7-6.7,2.4-10.2,3.2c-1.4,0.3-3,0.7-4.4,0.8c-1,0-1.8,0.1-2.7,0.6
			c-1.3,0.7-2.5,2.3-3.9,2.7c-0.6,0.2-1.3-0.1-1.9,0.1c-0.8,0.2-1.4,0.2-2.2,0.2c-1.8,0.2-2.4,1.6-3.6,2.6c-1.4,1.1-2.9,2.9-3.3,4.8
			c-0.1,0.4,0.1,0.9-0.1,1.3c-0.2,0.2-0.4,0.4-0.5,0.6c-0.3,0.4-0.7,1.2-0.8,1.7c-0.1,1.1,0.9,1.3,1.7,1c1-0.3,1.6-1.3,2.3-2.1
			c1.2-1.4,2.9-1.9,4.3-2.9c0.8-0.6,1.4-1.3,2.4-1.8c0.6-0.3,1.3-0.4,1.9-0.6c0.8-0.3,1.4-1.1,2.2-1.3c0.8-0.3,1.9,0.6,2.2,1.3
			c0.5,1.2-0.5,2-1.3,2.7c-0.8,0.8-1.4,1.3-1.7,2.4c-0.1,0.4-0.2,0.9-0.4,1.3c-0.6,1.3-1.3,2.7-2.2,3.8c-0.5,0.6-0.7,1.3-1.2,1.9
			s-1.2,1.1-1.8,1.7c-0.8,0.8-1.7,1.5-1.8,2.7c-0.1,1.5-1.1,2.3-2.1,3.3c-0.3,0.3-0.8,0.8-1.1,1c-0.5,0.3-1,0.3-1.5,0.6
			c-0.4,0.3-0.7,0.9-1.1,1.3c-0.5,0.5-0.9,0.6-1.5,0.8c-1.3,0.5-2.3,1.2-3.4,2c-0.8,0.6-1.5,0.9-2.4,1.3c-0.5,0.2-0.9,0.7-1.3,1
			c-0.5,0.3-1.1,0.4-1.7,0.6c-0.7,0.3-1.4,0.7-2.2,1c-0.7,0.2-2.8,0.3-2.8,1.4c0,0.4,0.9,1.1,1.3,1.3c0.7,0.3,1.8,0.1,2.6,0.1
			c1,0,1.8-0.3,2.7-0.3c0.8-0.1,1.5-0.1,2.3-0.2c0.4-0.1,1.8-0.4,2.2,0c1,0.9-1.3,1.6-1.9,2c-1.4,0.8-2.9,1.4-4.4,2
			c-1.3,0.6-2.8,0.8-4.2,1.3c-1.7,0.7-3.3,1.4-5,2c-1,0.3-2,0.8-3,1c-0.7,0.1-1.4,0-2.1,0c-1.8,0-3.2,2.5-4.3,3.7
			c-1.2,1.2-2.3,2.5-3.4,3.8c-1.3,1.4-2.5,2.9-4.2,4c-1.2,0.8-2.3,1.6-3.4,2.5c-1.1,1-2.1,1.9-3.2,2.8c-1.3,1.1-2.9,2.2-4.5,2.7
			c-0.7,0.2-1.2,0.2-2,0.2c-0.7,0-1.4,0.3-2.1,0.4c-1.1,0.1-3-0.2-3.9,0.6c0.2,0.3,0.5,0.6,0.9,0.7c1.1,0.5,2.1,1,3,1.7
			c0.5,0.5,1.1,0.8,1.7,1c1.1,0.2,1.9-0.6,2.8-1c2.3-1.1,4.9-1.1,7.3-1.7c1.6-0.4,3-1.4,4.6-2c1.2-0.4,2.6-0.5,3.8-1
			c1.3-0.6,2.2-1.9,3.4-2.7c2.1-1.4,4.1-3.1,6-4.7c0.9-0.8,2.1-1.5,2.9-2.4c0.7-0.8,1.4-1.4,2.3-2c3.1-1.9,6.2-3.1,9.1-3.6
			c2.6-0.4,5-0.9,8.2-2.7c1.9-1,4-2.5,6-2.4c1.2,0,2.3,1,3.5,1.4c3.1,1.2,5.9-2.6,8.5-4.7c2.8-2.1,5.8-4.1,8.7-5.4
			c2.6-1.2,5.3-1.5,7.8-2.9c2.8-1.6,5.3-5.3,8.3-5.6c2.1-0.2,4.1,1.8,6.3,1.7c1.6-0.1,3.1-1.2,4.6-1.7c1.7-0.6,3.4-0.6,5.1-0.7
			c3-0.1,5.7-1.9,8.3-4.3c3.2-2.9,6.4-5.3,9.8-7.2c2.3-1.2,4.7-3.8,7.1-4c2.2-0.2,2.6-1.5,4.5-3.9c3.7-4.8,8.8-4.7,12.6-9.1
			c2.6-3,4.9-6.3,7.7-8.9c2.1-2,4.3-1.6,6.4-3c1.6-1.1,3.1-2.7,4.7-3.8c0.7-0.6,1.5-1,2.3-1.2c1.3-0.6,2.5-2.1,3.8-2.6
			s2.4-0.6,2.8,1.8c0.3,1.9,0,4.7-0.6,6.3c-0.8,2-2,2.6-3,4c-1.1,1.4-1.9,3.4-3,4.7c-3,3.5-6.3,6.4-9.4,9.7
			c-0.4,0.2-0.8,0.6-1.1,1.2c-0.1,0.6,0,1,0.4,1.2c-0.1,1.8-0.2,3-1,4.7c-1.5,3.2-3.4,7-5.2,9.7c-1.1,1.7-2.5,2.8-3.7,4.4
			c-1.6,2-2.7,5-4.4,6.8c-2.7,2.7-5.6,4.4-8.4,6.9c-1.2,1.1-2.4,2.4-3.6,3.7c-4,4.3-7.9,8.2-12.7,9.5c-1.9,0.5-3.8,0.7-5.7,1.7
			c-2.2,1.2-4.2,1.6-6.5,2.3c-3,0.8-5.9,0.7-8.9,2c-2,0.8-3.8,0.7-5.8,0.7s-4,0.9-6,0.4c-1.6-0.4-2.7,1.5-4.2,2.3
			c-2.9,1.7-5.9,2.6-8.9,3.6c-2.9,1-5.3,3.4-7.8,6.2c-3.5,4-7.4,6.7-11.2,9.6c-2.9,2.2-6.4,4.5-8.3,9.2c-1,2.5,0.9,2.4,2.3,2.7
			c2.8,0.5,5.3-0.9,8.1-2.2c3.6-1.7,7.6-4,12.9-6.4c3.2-1.4,7.1-2.8,11.2-4.2c2.8-0.9,6-1,9.2-1.5c5.5-0.8,11-1.9,17-2.3
			c4.2-0.5,8.6-1.8,12.5-3.4c2.7-1.1,5.1-2.5,7.5-4c1.6-1,3-1.9,4.4-3.2c2.3-2.4,3.3-3.7,5.6-5.8c1.3-1.2,2.1-2.7,3.4-4
			c1.3-1.4,2.5-1.7,3.6-2.8c7.4-7.1,13.5-15.4,19.1-19.3c13.5-9.2,26.4-17.6,39.2-26.2c10.3-7,19.2-18.3,29.2-26.3
			c6.9-5.5,14.3-7.8,21.5-11.9c2.2-1.3,3.5-3.2,5-6.2c2-4.2,5.4-7,8.5-8.4c2.5-1.1,5-2.3,7.5-3.5c1.3-0.6,2.4-1.9,3.6-2.9
			c0.9-0.7,2.1-0.9,2.9-1.7c1.3-1.2,2.5-2.8,3.7-4.1c1.6-1.7,3.2-3.5,4.7-5.4c1.2-1.5,1.7-3.1,2.5-5.1c1.7-4,4.8-6.8,7.3-9.2
			c3.5-3.6,7.5-6.2,11.2-9.2c8.3-6.5,16.3-13.9,25-19.2c2.5-1.5,4.6-3.2,7-5.4c1.9-1.8,3.9-2.7,5.9-4.2c3.1-2.3,6.5-4.9,9.4-7.8
			c3.1-3.2,6.5-5.8,9.5-9.5c1.3-1.7,3.8-3.5,4.6-5.9C511.4,193.1,509.2,194,508.2,194.4z M348.2,258.4c1,1.3,2.5,1.8,3.6,1.3
			c1.4-0.6,2.8-1,4.3-1.6c0.7-0.3,1.5-0.6,2.2-0.8c2.4,0.6,1.5,2.3,0.1,3.8c-2.1,2.3-4.4,3.8-6.7,5.7c-4.1,3.4-8.1,6.3-11.9,10.5
			c-1.1,1.2-2.3,1.8-3.4,3.1c-0.9,1.1-1.5,2.7-2.4,3.8c-1.8,2.1-3.9,3.9-5.8,5.9c-2.9,3.3-6.4,4.7-9.8,4.9c-1.5,0.1-3.3,0.8-4.8,1.2
			c-1.8,0.5-3.4,0.6-5.2,0.8c-1.5,0.1-2.3,1.6-3.6,2.2c-1,0.5-2.1,1.1-2.9,2c-3.1,3.1-6.5,6.3-10,8c-2.5,1.2-4.7,2.7-7.1,4.7
			c-1.6,1.4-3,3.3-4.5,4.7c-3.3,3-5.7,7.7-9.2,10.1c-2.4,1.7-4.5,4.1-6.8,6c-1.7,1.4-3.4,1.8-4.7,3.9c-1.6,2.5-2.5,4.5-4.7,5.7
			c-2.1,1.2-3.4,4.1-5.7,5c-1.8,0.7-3.7,2.2-5.6,2.3c-1.1,0.1-2.2-1.2-3.2-1c1-1.7,2.3-1.7,3.3-3.1c0.9-1.2,1.5-2.8,2.4-4
			c1.1-1.4,1.9-3.2,3-4.6c1.9-2.3,4-4,6-6.1c3.5-3.8,7.4-7.2,10.5-12c0.3-2.8,5.2-3,6.4-4.1c3.1-3,6.1-5.2,9.6-7
			c2.7-1.4,5.1-2.8,7.5-5.5c2.1-2.4,4.9-3.2,7.2-5.2c1.6-1.4,2.9-3.6,4-6c0-0.6,0.1-1.2,0.2-1.8c0.2-0.1,0.4-0.3,0.6-0.4
			c0.7-0.3,1.2-0.9,1.7-1.8c2.6-3.5,5.5-6.5,8.3-9.6c3.3-3.8,7.5-6.8,10.5-11.2c1.3-1.9,2.2-3.7,3.6-5.2c0.7-0.7,2.2-4.5,2.8-4.6
			c0.7-0.2,1.6,1.9,1.7,2.9c0.1,1.4-1,3.8-1.5,4.9c7.5-8.9,16.7-14.4,23.8-24.5c3.9-5.6,8.8-10.2,13.6-12.7c2.8-1.5,5.7-2.7,8.7-3.6
			c1.7-0.5,4.3-1.9,6-0.7c0.4,2.7-4.6,5.5-5.6,6.6c-1.7,1.8-3.2,3.9-4.8,5.9c-1.5,1.8-3.2,2.7-4.8,4.2c-1.2,1.2-2.2,2.8-3.5,4
			c-2.1,2-4.3,3.1-6.5,4.9c-1.7,1.5-3.6,2.4-5.3,4C348.2,255.4,346.9,256.8,348.2,258.4z M439.9,239.4c-1.2,0.9-2.2,2.2-3.2,3.3
			c-1.4,1.4-2.9,2.1-4.4,3.3c-0.9,0.7-1.4,1.3-2.3,1.9c-1.4,0.8-2.1,0.6-3.1,2.2c-1.3,1.9-1.8,3.1-3.5,4.6
			c-3.5,3.3-7.5,4.3-11.8,6.5c-7,3.7-14.7,9.1-20,15.1c-3.3,3.7-6.2,6.1-10.9,8.4c-4,2-7.5,5-10.9,7.7c-0.7,0.5-1.6,0.8-2.2,1.3
			c-0.8,0.6-1.3,1.4-2.1,2c-1.5,1-4,2-4.3-0.6c2.6-2.2,4.1-5.6,6.6-7.7c0.5-0.5,2.4-0.8,3.1-1.2c0.6-0.5,1.2-1,1.9-1.4
			c0.7-0.6,1.5-1.4,2.1-2.1c2.7-3.1,4.1-6.2,6-9.8c1.5-3.1,3.9-4.1,6.1-6.5s3.1-5.3,5.7-7.4c4-3.4,5.3-7.7,10.9-7.6
			c5.7,0.1,9.9-1.2,14.2-5.2c1.9-1.8,3.7-4.6,6.5-5.5c1.8-0.6,2.8-0.4,4.7-1.3c0.8-0.4,2.5-1.7,3.3-2c1.6-0.6,2.5-0.4,4.1-1.3
			c1.5-0.9,2.9-2,4.4-3c0.9-0.6,2.2-1,3-1.5c1-0.8,0.7-1.9,2.3-1.9C447.5,234.8,443.4,236.8,439.9,239.4z"/>
		<path fill="#F5AF02" d="M89,459.1c-0.2,0-0.3,0-0.5,0c-1.4,0-2.7-0.2-4.1,0.1c-1,0.2-1.9,0.7-2.9,1c-1,0.4-2,0.6-2.9,1
			c-0.6,0.3-1,0.7-1.7,0.8c-0.7,0.2-1.4,0-2.1,0.3c-1.9,1-3.8,2.1-5.9,2.6c-1.9,0.5-3.7,0.8-5.6,1.2c-1.3,0.3-2.4,1.1-3.8,1.3
			c-0.4,0.1-1.5,0.3-1.7-0.2c0-0.1,0.3-1,0.3-1.2c0.3-0.9,1-1.8,1.6-2.6c0.3-0.4,1.6-1.5,1.5-1.9c-1.4-0.5,0.1-1.1,0.6-1.6
			c0.8-0.7,1.7-1.1,2.6-1.6c2.3-1.5,4.3-3.3,6.7-4.7c1.6-0.9,2.9-1.5,4.7-1.9c1.2-0.3,2.2-0.6,3.3-1.1c1.7-0.8,3.2-1.4,4.3-3.1
			c0.8-1.3,1.5-2.4,2.5-3.5c0.8-0.8,1.4-1.4,1.4-2.6c0-0.8,0.1-1.1,0.8-1.7c0.8-0.6,1.9-1.1,3-0.9c0.5,0.1,0.8,0.3,1.4,0.3
			c0.7,0,1.5-0.4,2.2-0.5c0.9-0.2,1.8-0.4,2.6-0.8c2.4-1,4.9-1.8,7.3-2.8c4.1-1.8,8.1-4.1,10.1-8.3c0.4-0.8,0.8-1.7,1.3-2.4
			c0.6-0.9,1.6-1.4,2.4-2.1s1.6-1.2,2.4-1.9c1.7-1.4,3.9-2.6,6.2-2.7c2.8-0.1,3.2,2.7,3.1,4.9c-0.3,7-5.8,11.7-8.7,16
			c-2.3,3.4-5.8,6.2-9.1,8.6c-5,3.8-10.4,7.2-16.2,9.7C94,458.1,91.5,459.1,89,459.1z"/>
		<path fill="#0064D2" d="M166.3,185.8c-4.8,0-9.5-0.1-14.4,0.6c-14.2,2.3-27.9-1.5-42.1-0.5c-16.3,1.2-33,7.4-48.9,13.6
			c-6.9,2.5-13.7,5.9-20.3,10c-4.3,2.8-11.3,6.4-14.2,13.4c4,4.4,21.7,6.3,20.5,18.4c-0.3,2.8-3.6,6.1-4.9,7.3
			c-3.9,3.6-8.5,5.2-12.6,9.1c-7.3,7-15.7,13-23.9,16c-4.7,1.7,11-0.4,6.7,2c-2.1,1.1-12.8,8.7-12.2,13.9c0.4,3.4,5.6,6.1,6.9,7
			c4.9,3.5,8.9,3,14.1,2.9c1.2,0-17.6,4.7-16.4,5.3c1.1,0.5,1.6,1.4,2.8,1.4s4.3-1.1,5.3,0.1c2.6,3.2-1.5,9.7-2,13.3
			c-0.5,3.9-1.1,7.6,0.6,11.3c1.2,2.6,2.2,1.6,3.9,2.1c1.9,0.6,3.3,2.6,5.3,2.4c2.2-0.2,4.5-2.3,6.5-3.5c2.7-1.5,5.4-3,8.2-4.4
			c2.6-1.4,4.9-3.7,7.5-4.9c2.2-0.9,4.4-1.6,6.5-2.9c2.9-1.8,5.6-5,8.4-7.2c3-2.4,6.3-3.8,9.2-6.3c2.6-2.2,5-5.2,7.7-6.9
			c2.2-1.4,4.7-2.4,6.6-4.7c-2.7-4.9-8.7,5.2-11.9,2.4c0-1.7,1.7-3.2,2.4-4.3c1.4-2.1,2.7-4.5,4.2-6.5c2-2.7,4.2-3.9,6.5-5.7
			c1.3-1.1,2.4-2.5,3.4-4.2c2.9-3.9,5.7-7,8.3-11.4c2.6-4.3,7-6.2,10.4-7.4c7.8-2.6,13.8-9,22-8.6c4.2,0.2,8.1,0.1,12.1-2.3
			c3-2.4,6-4.9,8.9-7.7c4-2.6,8.1-4.5,12.3-5.8c12.7-5.7,24.8-15,37.5-20.7c6.6-3,12.8-8,18.7-13.8c3.6-3.5,12.8-11.2,7.9-18.6
			c-4.1-6.3-12.5-1.6-17,0.2c-5.3,2.1-11.8,7.1-17.3,5.4c-1.9-0.6-2.2-2.6-4.5-3.1C182.7,182.3,165.8,179.5,166.3,185.8z"/>
		<path fill="#0064D2" d="M282.4,153.7c-0.3,0.5-0.7,0.9-0.9,1.3c-1.3,1.8-3,3.8-4.1,5.9c-1,1.7-1.5,3.7-2,5.7
			c-0.2,0.9-0.6,1.9-0.7,2.8c-0.1,0.9,0.3,2,0.1,2.9c-0.3,1.5-1.8,2-2.2,3.7c-0.2,1.1-0.3,5,0.5,5.7c-1,0.4-1.7,2.4-1.8,3.8
			c-0.2,2.2,1.4,2.8,1.5,4.8c0.1,2.1-1.2,2.2-2,3.7c-0.5,0.9-1.3,2.7-1.6,3.8c-0.2,0.9,0,3.4,0.9,3.7c1,0.3,1.1-1.7,1.4-2.5
			c0.2-0.3,0.5-0.6,0.8-0.9c0.3-0.8-0.1-1.2,0.4-1.9c0.8-1.2,3.1-2,4.2-2.8c1.3-0.9,2.4-1.8,2.1-4c-0.2-1.8-1.1-2.6-0.6-4.5
			c0.9-3.1,4.6-2.5,6.1-4.9c0.7-1.1,1-2.5,2-2.9c0.5,0,1,0.1,1.5,0.1c0.6-0.2,0.7-0.8,1.3-1c1.2-0.4,1.9,0,3-0.7
			c2.4-1.4,4-3.6,6.6-4.4c3.4-1.1,7.5-0.9,10.7-3.1c0.8-0.1,1.5-0.4,2.2-0.7c2.1-2.3,2.2-6,5.1-7.6c3.7-2.1,7.2-1.6,10.9-2.2
			c1.5,0,2.9-0.7,4.2-2.1c2.7-1.9,5-2.8,7.8-4.2c3.4-1.7,7-6,8.8-11.8c0.5-1.7,1.3-4.2,0.2-5.7c-1-1.4-3.2-1-4.4-1
			c-1.6,0.1-3.4,0-4.9,0.5c-1.9,0.7-3.6,3.1-5.4,4.4c-0.9,0.7-1.1,1.6-1.9,2.3c-0.9,0.9-0.5,0.4-1.4,0.1c-0.9-0.3-1.3,0.2-2.2,0.4
			c-0.5,0.2-0.9,0.3-1.4,0.2c-0.2-0.1-0.4-0.4-0.6-0.7c-0.7-0.1-1.3,0.4-2,0.6c-1.1,0.3-2.1,0.4-3.2,0.8c-1,0.4-2,1.2-3.1,1.5
			c-1.1,0.4-2.3,0.8-3.4,1.1c-2.2,0.6-4.6,0.8-6.5-1.5c-2.4-2.9-2.2-5.9-5.9-5.3c-0.8,0.3-1.7,0.9-2.5,1.1c-0.6,0.1-1.1-0.3-1.6-0.2
			c-1,0.1-1.6,0.6-2.4,1.4c-1.6,1.7-2.7,4-4.2,5.8c-1.1,1.3-2.5,3-3.9,3.9c-0.6,0.3-1.3,0.4-1.8,0.8
			C284.7,150.6,283.5,152.3,282.4,153.7z"/>
		<path fill="#0064D2" d="M201,255.9c2-1.4,4-3,6-4.7c2.1-1.9,4.1-3.6,6.3-5.2c2.2-1.6,4.3-3.8,6.5-5.5c1.4-1,2.9-1.8,4.4-2.2
			c2.3-0.9,4.6-2.2,6.9-3.1c3.9-1.4,7.9-2.8,11.9-3.1c2.4-0.1,4.9,0,7.4,0.1c2.3,0.1,4.2-1.5,6.5-1.6c4.9-0.1,9.7-3.4,14.5-5.3
			c2.9-1.2,5.7-2.4,8.5-4c1.5-0.9,3-2.1,4.6-2.8c0.8-0.3,1.7-0.6,2.5-1c2.1-1.2,4.1-2.6,6.2-3.7c1.7-0.9,3.4-1.4,5.1-2.5
			c2.5-1.7,5.1-3.7,7.9-5c2-1,4-1,6.1-1.6c2.8-0.8,5.5-2.6,7.7-4.3c2.3-1.7,3.9-4.4,6.3-5.9c1.4-0.9,3-1.3,4.3-2.3
			c2.9-2.3,4.6-5.7,7.5-7.9c2.8-2.2,6-4.3,8.8-6.4c2.5-1.8,5.5-3.4,7.6-5.6c2.4-2.5,4.1-5.7,6.6-8.1c2.6-2.4,5.8-4.1,8.5-6.4
			c3.3-2.8,6.5-5.8,9.8-8.6c4.8-4,9.1-8.4,14.5-11.7c2.2-1.3,3.4-2.9,5.3-4.6c2.1-1.9,4.7-3.3,6.9-5.2c4.6-3.8,8.7-8.1,13.2-12
			c1.9-1.6,3-3.2,5.1-4.6c1.4-0.9,2.9-1.9,4-3.1c-4.1-0.4-7.6,3.4-10.7,5.5c-4.9,3.3-10.3,5.9-15.2,9.1c-3.6,2.3-6.4,3.9-8.9,7.4
			c-1.9,2.6-4.8,5-7.6,6.6c-3.5,1.9-7.4,3-10.7,5.2c-3.2,2.1-6,4.4-9,6.8c-3.5,2.9-7.5,4.3-10.7,7.6c-1.7,1.8-3.1,2.9-5.2,4.1
			c-1,0.6-3.4,2.5-4.5,2.3c-1.1-3.1,3.4-5.7,3.1-8.6c-1.7-0.3-3.1,2.1-4.3,3c-1.9,1.4-3.5,3.2-5.5,4.7c-3.7,2.8-7.5,5.6-10.9,8.7
			c-6.2,5.5-11.8,11.4-17.7,17.2c-2.6,2.5-5.3,4.8-8.1,7c-4.1,3.3-9,4.9-13.3,7.8c-2.5,1.6-5.1,2.6-7.6,4.2
			c-2.3,1.5-4.5,2.8-6.9,3.7c-2.3,0.8-4.7,2-7.1,2.1c-3.5,0.2-6.8,1.4-10.2,2.1c-1.6,0.3-3.2,0.1-4.9,0.2c-1,0-4.6,0.4-5.1-1.5
			c-0.9-3.1,4-5.7,5.1-6.9c1-1.2,2.2-2.2,3.1-3.5c0.3-0.7,0.6-1.3,0.9-1.9c1-1.4,2.3-2.2,3.2-3.9c0.8-1.4,1.4-3-0.1-3.6
			c-0.7-0.3-2.3,1.5-2.6,0c0.3-1.3,1.1-2,1.6-2.9c0.6-1,0.9-2.3,1.5-3.3c0.7-1.3,2.3-3.1,0.5-4.4c-3.4-2.4-6.3,4.2-8.6,6.9
			c-3.5,4.3-6.2,9.9-9.6,14.4c-3.8,5.1-7.9,9.4-12,13.7c-2,2-3.9,2.7-6.1,3.8c-3.2,1.6-6,4.2-9,6.7c-1.3,1.1-2.5,2.3-3.8,3.6
			c-1.6,1.7-3.4,2.7-4.9,4.4c-3.9,4.3-8.5,7.6-12.9,10.3c-3.5,2.1-7.3,4.4-10.5,7.6c-1.3,1.3-2.6,3-3.6,5c-2.1,4.3,3.9,3.1,4.9,1.6
			c-0.8,5.5,7.8,1.5,9,0.5L201,255.9z"/>
		<path fill="#0064D2" d="M188.2,261.1c-3.6-1.1-6.1,0.2-9.6,2c-5.8,3-11.7,5.6-17.5,8.6c-1.6,0.8-1.4,5.5,0.4,5.2
			c4.3-0.9,8.7-1,12.8-3.7c4.3-2.9,8.8-7.2,13.5-7.1C189.5,266.2,189.9,261.6,188.2,261.1z"/>
		<path fill="#0064D2" d="M153.7,275.5c-1.4,0-1.4,3.6,0,3.6C155.1,279.1,155.1,275.5,153.7,275.5z"/>
		<path fill="#0064D2" d="M152.5,279.1c-1.2,0.7-2.4,1.7-3.8,1.5c-1.6-0.2-1.6,3.9,0,4.1s3-0.8,4.4-1.6
			C154.6,282.2,154,278.2,152.5,279.1z"/>
		<path fill="#0064D2" d="M339.4,141c-0.4-1-1.1-1.2-1.7-0.7c-0.3,0.2-0.6,0.5-0.9,0.7c-1.4,1.2-0.2,4.8,1.2,3.6
			c0.3-0.3,0.6-0.5,0.9-0.8C339.6,143.3,339.7,141.9,339.4,141z"/>
		<path fill="#0064D2" d="M358.9,123.7c-0.4-0.5-2-2.1-0.4,0.1c-1.1-1.5-2.2-2.1-3.6-1.6c-1.8,0.6-3.3,2.6-5,3.5
			c-2,1-3.4,2.5-4.5,5.5c-0.3,0.8-0.3,1.7-0.6,2.4c-0.7,1.2-1.7,2.1-2.4,3.1c-1.2,1.6,0.3,4.8,1.6,3.5c1.3-1.4,3.5-0.7,5-1.1
			c1.6-0.4,3.2-0.3,4.7-0.9c2.6-1,5.8-4.7,5.9-9.5c0,0,0,0,0-0.1C360.2,126.7,359.9,124.9,358.9,123.7z"/>
		<path fill="#0064D2" d="M359.2,123.2c-1.6,0-1.6,4.1,0,4.1C360.8,127.3,360.8,123.2,359.2,123.2z"/>
		<path fill="#0064D2" d="M361,120.6c-0.3,0.6-0.6,1.2-1,1.6c-0.4,0.5-0.9,0.8-1.4,1.2c-0.6,0.5-0.7,1.9-0.4,2.8
			c0.4,1,1,1.2,1.6,0.7c1.2-0.9,2.5-1.9,3.2-3.7C363.9,121.2,362.1,119,361,120.6z"/>
		<path fill="#0064D2" d="M367.8,113.5c-0.7-0.3-1.4,0.2-1.7,1.1c-1.4,1-2.7,2.8-3.7,4.5c-1.3,2,0.6,5,1.9,3.2
			c0.8-1.2,1.9-2.8,3.1-2.9c0.7,0,1.3-0.8,1.5-1.9c0-0.2,0.1-0.4,0.1-0.6C369.2,115.4,368.6,113.8,367.8,113.5z"/>
		<path fill="#0064D2" d="M376.9,106.6c-0.2,0-0.3,0-0.5,0.1c-1.9,0.2-1.9,4.8,0,5c0.2,0,0.3,0,0.5,0.1
			C378.9,112,378.9,106.4,376.9,106.6z"/>
		<path fill="#0064D2" d="M385.2,104.8c-0.2,0.3-0.3,0.5-0.5,0.8c-1.1,1.8,0.6,4.5,1.6,2.7c0.2-0.3,0.3-0.5,0.5-0.8
			C387.8,105.7,386.2,103,385.2,104.8z"/>
		<path fill="#0064D2" d="M392.8,104c-1.6,0-1.6,4.3,0,4.3S394.4,104,392.8,104z"/>
		<path fill="#0064D2" d="M376.8,107.4c-0.5,0.9-1.3,1.4-2,1.9c-0.7,0.6-0.9,2.3-0.5,3.5c0.4,1.3,1.3,1.5,2,0.9
			c0.9-0.7,1.8-1.5,2.6-2.7C380.3,108.7,378.2,105.2,376.8,107.4z"/>
		<path fill="#0064D2" d="M373.8,109.7c-2,1.2-4,2.8-6,4.2c-0.9,0.6-1.5,2-1.2,3.7c0.2,1.4,1.3,2.7,2.2,2.1c2.1-1.5,4.3-3,6.2-5.2
			C376.4,112.9,375.5,108.7,373.8,109.7z"/>
		<path fill="#0064D2" d="M377.3,111.4c-0.8-0.4-1.7-0.2-2.4,0.5c-0.7,0.6-1,1.2-1.5,1.7c-1.9,1.9-0.2,6.9,1.7,5
			c0.5-0.5,0.9-1,1.3-1.6c0-0.1,0.5-0.7,0.3-0.5c0.1-0.1,0.1-0.1,0.2-0.2c0,0,0,0,0.1,0C378.6,116.3,378.9,112.2,377.3,111.4z"/>
		<path fill="#0064D2" d="M371.9,114.9c-1.8-0.2-3.4,1.4-4.9,2.5c-1.8,1.3-0.5,6.4,1.3,5.2c1.3-0.9,2.6-2.1,4.1-2.4
			c0.7-0.2,1.2-1.5,1.2-2.6C373.5,116.1,372.8,115,371.9,114.9z"/>
		<path fill="#0064D2" d="M209.8,164.7c-3.2,2.5-6.8,5.7-10.2,7c-1.7,0.6-4.5,3.4-6.2,2.9c-1-0.3-1.6-0.1-2.4,0.8
			c-1.5,1.7-0.2,5.5,1.4,4.1c0.5-0.4,1.8,0.9,2.5,0.6c1.9-0.8,3.6-2.4,5.5-3c3.7-1.1,7.5-5.4,10.8-8.1
			C213.1,167.6,211.6,163.4,209.8,164.7z"/>
		<path fill="#0064D2" d="M203.6,167.4c-0.3-1.7-1.3-2.5-2.3-2.2c-0.9,0.3-1.7,0.6-2.5,1.3c-0.7,0.6-1.3,1.7-1.9,2.7
			c-1.3,2.4,0.7,5.9,2.1,3.6c0.7-1.2,2.2-1.3,3.2-1.6C203.3,170.9,203.8,168.9,203.6,167.4z"/>
		<path fill="#0064D2" d="M209.2,166.1c-0.2-1.5-1.1-2.2-2-1.9c-1.4,0.4-3,1-4,2.9c-1.3,2.5,0.8,6.1,2.2,3.7
			c0.3-0.5,0.6-0.7,1.1-0.9s1.1-0.3,1.6-0.5C209,169.2,209.4,167.4,209.2,166.1z"/>
		<path fill="#0064D2" d="M175.2,183.3c-1.8-0.1-3.6-0.9-5.4-1.2c-2.1-0.3-3.9,0.7-6.1,0c-1.8-0.6-3.3-2.3-5.1-2.8
			c-1.5-0.4-3-0.2-4.5-0.1c-2.7,0.1-2.7,7.3,0,7.1c2.1-0.1,4-0.4,6.1,0.5c1.5,0.7,2.9,2,4.5,2.3c1.8,0.3,3.4,0,5.2-0.3
			c1.7-0.3,3.6,0.8,5.4,0.8C177.6,189.5,177.6,183.4,175.2,183.3z"/>
		<path fill="#0064D2" d="M135,186.4c1.2,0.2,2.4-0.4,3.6-0.7c2-0.5,4.1,0.3,6.1-0.2c2.8-0.6,4.9-4.3,7-7.2c2.2-3,5.1-3.3,7.8-4
			c1.7-0.4,3.5-0.7,5.2-1.6c1.2-0.6,2.7-1.9,3.9-1.8c0.1,1.5-1.2,1.9-1.1,3.5c1,0.1,1.6-1.1,2.7-0.6c1.2,0.5,1.9,0.7,3.2,0.7
			c3,0.1,6-2,8.8-3.9c1.7-1.1,3.5-2.5,5.2-3.5c2-1.2,4.2-1.5,6.2-2.7c1.6-0.9,3.2-1.2,4.7-2c1.7-0.8,3.1-3.7,4.9-3.4
			c-0.2,1.4-1.7,2.9-2.3,3.6c-1.7,2.1-3.4,3-5.2,4.6c-2.5,2.2-4.7,5-7.1,7.3c-1.5,1.4-2.8,3.3-4.3,4.6c-1.7,1.5-3.5,2.5-5.3,3.7
			c-1.6,1-3.2,1.7-4.8,2.6c-2,1.2-3.8,3.2-5.7,4.7c-1.7,1.3-3.5,1.6-5.3,2.7c-1.4,0.8-2.8,1.5-4.2,2.1c-1.6,0.6-3,0.4-4.6,0.8
			c-1.8,0.6-3.6,1.9-5.4,2.4c-1.9,0.6-3.9-0.3-5.8,0.3c-2.2,0.7-4.4,2.3-6.5,3.5c-2.3,1.3-4.3,2-6.2,4.9c-2.3,3.5-4.5,7.1-6.8,10.7"
			/>
		<path fill="#0064D2" d="M96.8,284.5c1-1.2,3-1.2,4.2-1.4c1.9-0.3,3.9-0.9,5.8-1.1c1.5-0.1,2.8,0.6,4.3,0.2
			c1.1-0.3,2.2-0.1,3.3-0.3c1.4-0.2,2.8-0.8,4.2-1.3c1.9-0.6,4.1-0.7,6-1.8c2.2-1.2,4.1-3.2,6.4-4c3.1-1.1,6.3-1.2,9.3-2.9
			c0.2,1.7-1.7,2.5-2.4,3.1c-2,2-4.4,3.5-6.7,4.1c-2,0.5-3.9,1.6-5.9,2.2c-2,0.5-3.8,1.3-5.7,2.3c-3.4,1.7-6.7,4.8-9.9,7.3
			c-1.1,0.9-2,2.2-2.9,3.7c-0.6,1.1-1.6,2-1.6,3.5c0,1,0.8,2,0.8,3.2c0.1,2.5-1.6,3.5-2.6,4.7c-1.9,2.2-3.9,4.3-5.9,6.4
			c-2.4,2.6-5,4-7.6,6c-7.8,5.8-16.1,8.8-24.1,13.4c-5.7,3.3-11.5,6.6-17.3,9.5c-2.4,1.2-4.9,2.1-7.4,3c-0.9,0.3-2.2,1-3.2,0.6
			c0.5-1.9,2.2-3.5,3.2-4.7c0.7-0.9,3.8-3.7,3.4-5.7c-0.3-1.6-1.9-0.9-2.6-1c-2-0.1-4.1-0.4-6.1-1.1c-1-0.3-5.6-0.6-5.4-3.1
			c0.1-1,1.4-3,1.9-3.6c1.6-2.1,4-3.1,5.9-4.1c3.7-1.8,7.2-3.6,10.8-5.8c2-1.3,4.1-2.6,6.2-3.7c3.2-1.8,6.4-2.9,9.6-4.8
			c3.5-2.1,6.7-5.1,10.1-7.6c1.6-1.2,3.4-1.5,4.9-2.8c1.9-1.7,3.4-4.8,5.5-5.9c0.5-0.3,0.8,0,1.3-0.2c0.3-0.3,0.6-0.6,0.9-0.9
			c0.6-0.2,1.4,0.3,2,0.5"/>
		<path fill="#0064D2" d="M298.8,202.5c-3.5,5.4-8.2,7.8-12.3,11.7c-0.4,0.4-0.8,0.7-1.2,1.1c-4.6,2.3-9.4,3.8-13.4,5.7
			c-1.3,0.6-2.6,1.3-3.8,2.1c-0.2-1.4-1.3-2.5-2.1-1.2c-2,3.2-4,3.3-6.3,5.2c-3.4,2.8-6.7,5.9-10.1,8.6c-5.5,4.4-11.4,8-16.8,12.9
			c-2.9,2.7-0.9,11.3,2.3,9.1c1.7-1.2,3.3-2.2,5-3.3c0.2,0.3,0.4,0.5,0.6,0.7c-6.4,5-13.6,6.6-20,11.4c-3.6,2.7-7,6-10.6,8.7
			c-2.9,2.2-5.8,4.5-7.2,9.5c-0.9,3.4,2,6.4,3,3c2-6.8,7.1-8,10.8-10.8c4.4-3.3,9.3-7.3,14.1-8.1c7-1.2,14.6-8.5,20.2-15.3
			c0.1-0.1,0.2-0.2,0.3-0.4c1.4-0.6,2.7-1.3,4.1-2.1c0.7,0.1,1.4,0,2.1-0.6s1.4-1.2,2.1-1.9c4.9-3.1,9.5-7,13.1-12
			c0.2-0.3,0.4-0.7,0.6-1.1c2.2-1.2,4.4-2.3,6.6-3.2c9.4-3.8,19.8-8.7,23.9-24.9C305.1,202.4,300.8,199.4,298.8,202.5z"/>
		<path fill="#0064D2" d="M200.4,286.6h-0.8c-1.8,0-1.8,4.6,0,4.6h0.8C202.2,291.2,202.2,286.6,200.4,286.6z"/>
		<path fill="#0064D2" d="M194.9,292.7c-0.5-0.8-1.5-1-1.9,0c-0.2,0.5-0.3,0.7-0.7,0.7c-1.8,0.1-1.8,4.7,0,4.6c1-0.1,1.9-0.7,2.6-2
			C195.4,295,195.5,293.7,194.9,292.7z"/>
		<path fill="#0064D2" d="M222.1,261c-4.4,4.6-8.5,9.9-13.2,13.5c-1.4,1.1-0.4,5.2,1.1,4.2c4.9-3.5,9.3-8.4,13.7-13.3
			C225.3,263.6,223.8,259.3,222.1,261z"/>
		<path fill="#0064D2" d="M241.2,246.2c-0.8,0.5-1.7,0.9-2.5,1.4c-0.7-1.2-1.6-1.8-2.7-1c-2,1.4-3.9,2.7-5.9,4.1
			c-2.3,1.4-4.5,2.9-6.7,4.6c-0.5,0.4-0.9,1-1.1,1.7c-0.5,0.4-0.9,0.9-1.4,1.4c-2.6,2.7-0.9,10.2,2.1,8.5c0.6-0.3,1.1-0.7,1.7-1
			c0.2,0.1,0.4,0.2,0.6,0.2c2.6-0.4,4.6-2.7,6.8-4.8c3.4-3.3,7.4-4.7,10.7-8.3C245,250.7,243.6,244.8,241.2,246.2z"/>
		<path fill="#0064D2" d="M270.6,233.6c-1.6,0.8-3.2,1.7-4.8,2.7c-0.4-1.8-1.6-3.2-2.9-2.7c-3.2,1.1-6.2,2.9-9.2,5
			c-1.2,0.9-2.8,2.3-4.4,3.4c-0.5-1.7-1.9-2.6-3-1.1c-2.4,3.4-5.6,3.6-8.3,6c-3.9,3.3-7.6,6.9-11.7,9.3c-1.4,0.8-0.9,4.6,0.6,3.8
			c3.8-1.8,7.3-4.6,10.8-7.4c2-1.6,4.1-2.5,6.2-3.6c0.2,0.5,0.6,0.9,1,1.1c0.7,0.3,1.5,0.3,2.2,0.3c-0.6,3,0.8,6.8,3,5.7
			c4.7-2.4,9.1-5.8,13.6-8.9c0.4,0.4,0.9,0.5,1.5,0.1c2.6-1.7,5-3.3,7.4-5.5C275.3,239.3,273.5,232.2,270.6,233.6z"/>
		<path fill="#0064D2" d="M289.6,224.7c-10.7,3.5-20.4,11.9-29.7,21.1l0,0c-1.3,1.3-0.3,4.7,1.2,3.6c4.8-3.5,9.3-8,14.3-10.9
			s10.1-5.4,15.1-8.2C292.7,229.1,291.8,224,289.6,224.7z"/>
		<path fill="#0064D2" d="M287.5,225.2c-4.6,5.1-9.5,9.1-14.5,13c-5.5,4.3-10.8,10.3-16.6,13.6c-1.7,1-1,5.2,0.7,4.5
			c5.4-2.1,10.5-8.2,15.5-12.1c5.6-4.4,11.2-8.7,16.4-14.3C290.8,228,289.2,223.3,287.5,225.2z"/>
		<path fill="#0064D2" d="M264,245c-7.8,6.3-15.6,13.2-23.4,19.6c-2.5,1.8-5,4-7.4,5.8c-0.7,0.6-0.9,1.7-0.7,2.7c-1.5,1-3.1,2-4.5,3
			c-2,1.4-0.3,6.5,1.7,5.1c5.9-4.2,12.7-8,17.9-15c0.4-0.6,0.5-1.6,0.4-2.5c5.8-5,11.5-10.1,17.3-14.9
			C266.9,247.5,265.5,243.7,264,245z"/>
		<path fill="#0064D2" d="M361.3,160.6c-3-1.4-5.7,0.4-8.5,2.2c-4.8,3-9.8,5.4-14.6,8.4c-1.7,1.1-0.9,5.6,0.7,4.5
			c3.8-2.6,7.7-4.9,11.6-7.1c1.5-0.9,3.4-2.4,5.3-3.4c-5.7,5-12.1,8.9-17.7,13.7c-8.7,7.4-17.5,14.3-26.4,21.2
			c-8.1,6.2-15.7,13.9-23.6,20.5c-7,5.8-14.1,11.1-21,17.1c-0.3-0.1-0.6-0.1-0.9,0.2c-8.7,7-17.3,14.4-25.9,21.6
			c-0.3-0.2-0.6-0.3-0.9-0.2c-5.5,2.8-10.5,7.2-15.7,11.5c-1.3,1.1-2.6,2.1-3.9,3.1c-0.3-0.1-0.6-0.1-0.9,0.1
			c-1.9,1.6-3.8,3.2-5.7,4.7c-2.9,2.1-5.8,4.3-8.9,6c-2.1,1.2-4.3,2.3-5.9,4.5c-1.2,1.7-2.1,3.8-3.1,5.6c-1.9,3.2-4.2,6.1-6.4,8.9
			c-1.2,1.6-2.7,2.5-4.1,3.5c-0.6,0.4-1.6,0.8-2.1,1.4c-0.8,0.9-1,2.3-1.5,3.4c-1.4,3-3.8,5.7-5.9,8c-2.5,2.8-5.8,3.8-8.3,6.6
			c1.1,1.2,3.2,1.8,4.6,1.7c2.3-0.2,3.9-2.7,6.2-2.9c2.7-0.2,4.1-1.8,6.1-4.5c0.8-1,2.1-3.3,3.1-3.8c0.8-0.5,1.7,0.1,2.6-0.3
			c0.9-0.4,1.8-2.1,2.6-2.7c0.9-0.8,2-1.2,2.8-2.1c1.2-1.3,2.5-2.5,3.8-3.8c0.6-0.6,1.2-1.3,1.9-1.9c1.2-1.1,1.8-2.4,2.9-3.6
			c1.6-1.7,3.7-2.9,5.4-4.5c3.9-3.5,7.9-5.9,11.3-10.3c2.1-2.1,4.2-4.2,6.3-6.4c0.6-0.6,3.3-3.2,6.4-6.3c1-0.7,2-1.5,3-2.1
			c2.6,0.4,5.6-0.7,6.9-4.8c0.3-1,0.3-2,0.1-2.8c0.6,0.7,1.7,0.2,1.6-1.3c0-0.4,0-0.7-0.1-1.1c0-0.9-0.4-1.7-1-1.7
			c6.4-5.2,12.7-10.5,19.1-15.6c0.3,0.2,0.6,0.4,1,0.2c1.5-0.5,2.7-1.5,3.7-3.2c6.7-5.9,13.5-11.2,20.4-16.6
			c8.7-6.9,17-15,25.5-22.4c8-6.9,16.2-13.1,24.2-20c7.8-6.8,17-11.9,24.3-19.9C362.4,163.2,362.3,161,361.3,160.6z M193.7,294.5
			c2.2-1.7,5.2-3.2,7.6-4.3c-0.3,0.3-0.6,0.6-0.9,1C198.2,292.5,196,293.6,193.7,294.5z"/>
		<path fill="#E53238" d="M325.4,31c-1.2-1.4-4.2-0.5-5.4,0c-4.4,1.7-9,5.1-13.2,7.9c-3.1,2-6.3,3-9.4,4.9c-2.9,1.8-5,5.1-7.8,6.8
			c-2.8,1.6-4.3,3.4-6.9,6.1c-3.5,3.6-7.3,3.9-10.8,6.9c-8.1,6.9-16.7,13.1-25.3,18.1c-6.7,3.8-12.7,9.9-19.4,13.8
			c-1.7,1-2.9,2.3-4.4,3.9s-3.6,1.4-5.2,2.7c-0.7,0.6-1.3,1.5-2,2.2c-1.1,1.3-2.1,2.2-3,3.7c-0.5,0.9-0.8,0.7-1.5,1
			c-1.1,0.4-2,1.5-3.1,1.8c-0.9,0.3-1.9,0-2.8,0.2c-1.7,0.9-3.4,1-5,2c-1.3,0.8-2.4,1.8-3.8,2.3c-3.7,1.5-7.6,2.3-11.2,4.5
			c-2.7,1.6-6.1,3-8.3,6.2c0.6,2.1,2,2.7,2.8,4.5c-0.9,5.6-8.8,9.3-11.7,10.8c-2.1,1.1-4.2,2.3-6.1,4.1c-2.6,2.4-3.2,2.7-6,3.5
			c-1.9,0.5-3.5,2.9-5.1,3.7c-2.2,1.2-4.6,1.6-6.9,2.9c-2.9,1.7-5.6,3.4-8.6,3.7c-3.3,0.3-6.2,1.7-9.4,2.1c-2.5,0.3-5.1-0.9-7.5,0.3
			c-2.6,1.3-5.4,4.5-7.3,7.7c-1.5,2.5-2.6,5.4-3.9,8.1c-2.5,5.4-5.8,9.2-9.4,12.4s-7.3,7.9-11,10.4c-0.9,0.6-2.4,0.6-3.5,1.3
			c-1.7,1-3.3,1.7-5,2.6c-2.5,1.4-11.3,5-9.5,12c3.4,2.4,9.5-3.9,12.9-5.4c4.6-2.1,9.5-3.5,14.1-5.1c2.1-1.2,4.3-1.6,6.5-1.3
			c2,1,3.9,2.2,5.8,3.5c3.4,1.3,5.6-1.4,8.6-3.8c3-2.4,7-3.1,9.8-6c2.3-2.4,3.6-6.7,5.9-9c0.9-0.9,1.8-1.9,2.7-2.8
			c1.1-1.1,2.6-0.8,3.8-1.8c1.3-1,1.9-3.3,3.2-4.5c1.1-0.9,2-1.5,3.2-2s2.4-1.8,3.7-1.9c0.5,0,2-0.4,2.4,0c0.5,0.5,0.3,0.4,0.4,1.4
			c0.1,2-0.9,3.5-1.5,4.9c-0.4,1-2.2,3.4-2.1,4.5c1,0.6,1.5-0.5,2.3-1.3c1-0.9,2-1.3,2.9-2.5c1.2-1.6,2.3-3.5,3.6-4.7
			c0.8-0.7,1.6-0.9,2.4-1.6c0.7-0.6,1.3-1.3,1.9-1.9c2.3-2.2,4.8-4.3,7-6.9c1.2-1.4,2.2-3.3,3.3-4.8c2.2-2.9,4.2-5.9,6.3-9.1
			c1.4-2.1,3.6-5.9,5.7-5.2c1.6,0.6,2.1-1,3.5-1.6c2.3-1,5.1-1.3,7.4-2c3.6-1.1,7.4,0.1,11-0.9c2.3-0.6,4.9-1.1,7.1-2
			c1.6-0.7,3.1-3.2,4.9-1.3c1.9,2.1,0.8,4.9,1.1,7.8c0.2,2.7,1.3,5,1.5,7.8c1.7,0.4,3,2.1,4.6,2.5c1,0.3,1.1,0.2,1.8,1.3
			c0.6,1,1.3,1.4,2.1,1.8c1.1,0.6,1.5,0.7,2.2,2.2c0.2,0.5,0.4,1,0.7,1.4c0.3,0.7,0.3,1.7,0.8,2.3c0.6,0.8,1.7,0.5,2.5,0.4
			c0.8,0,1.8-0.2,2.5,0.8c0.8,1.3,0.1,2.3-0.4,3.4c-1.5,3.2-4,3.7-6,6c-0.6,0.7-1.2,1.4-1.7,2.1c-1.3,1.7-2.7,2.8-4.1,4.1
			c-1.1,1-2.1,2.1-3.2,3.1c-0.9,0.7-1.9,1.2-2.7,2.2c-0.3,0.5-0.5,1-0.8,1.4c-0.5,0.6-1,0.8-1.5,1.3c-0.4,0.5-0.8,0.9-1.2,1.4
			c-0.7,0.7-1.3,1-2,1.5c-1.3,1-2.4,2-3.7,2.7c-1.3,0.6-2.5,1.4-3.6,2.6c-0.8,0.8-1.6,1.3-2.4,2.1c-0.7,0.9-1.3,2-1.9,3.2
			c-0.7,1.4-1.5,2.4-2.2,3.6c-0.8,1.3-1.3,2.8-2,4.2c-1.3,2.5-2.6,3.2-4.3,4.6c-0.6,0.5-3.2,2.7-2.9,4.1c0.3,1.6,3.7,1.4,4.4,1.4
			c2,0,3.7-0.9,5.6-2.1c2.1-1.3,4.2-2,6.2-3.5c4.3-3.1,8.5-5.3,11.9-10.6c2.6-3.9,5.3-7.4,8.1-10.9c1.1-1.4,2.5-1.5,3.7-2.3
			c1.5-1,2.9-2.2,4.3-3.2c2.4-1.8,4.5-4.4,6.8-6.2c1.8-1.4,2.9-3.7,4.2-6.2c1.4-2.6,3.5-3.1,5.4-4.1c2.6-1.5,5-3.4,7.4-5.5
			c1.5-1.3,3.2-2.2,4.8-2.5c1.6-0.3,4.9,0.8,5.9-2.4c1.2-3.6-2-4.6-3.5-5.2c-0.8-0.6-1.6-0.8-2.4-0.5c-1.1-0.2-2.7-1.6-3.6-1.7
			c-1-0.3-1.8,0.1-2.5,1.3c-1.3,0-1-1.4-2.3-1.3c-0.7,0.9-1.6,1.5-2.5,1.8c-1,0.4-2.6-0.1-3.6-0.1c-1.9,0-11.1,1.1-9.6-6.2
			c1-4.7,10.8-1.3,13.2-2.4c8.3-3.6,16-13,23.9-19.5c4.1-3.3,8.3-4.1,12.4-7.1c2.5-1.9,10.8-3.5,10.8-9.3c-0.2-0.1-0.3-0.1-0.5-0.2
			c1.9-1.5,3.8-3.3,6-3.5c1.4-0.1,1.4-3.5,0-3.6c-2-0.1-3.7,1.3-5.5,2.7c-0.7,0.6-2.5,2.4-4.2,4c-1.9,0.3-3.8,1.1-5.6,1.7
			c-3.7,1.2-7.3,1.8-10.8,4.1c-3.3,2.2-7.7,3-11.1,2.1c-0.7-0.2-0.7-0.7-1.6-0.8c-1.1,0-2.5,1.1-3.8,1.1c-2.6,0-11-1.8-7.6-9.1
			c3.2-6.9,9.5-9.2,13.9-13c1.8-1.5,3.2-3.6,4.6-5.9c1.3-2.1,3-3.3,4.3-5.3c0.8-1.2,1.6-2.7,2.7-3.3c1.6-0.8,2.5-1.2,3.9-2.6
			c1.1-1.1,1.7-1.8,2.7-3.2c3-4.3,5.8-8.8,8.8-13.1c2.1-3,4.3-3.7,6.8-5.2c3.4-1.9,5.8-6.4,8.9-9.4c3.5-3.4,7.2-5.9,10.7-9.5
			C324.4,40.7,328.7,35,325.4,31z"/>
		<path fill="#E53238" d="M151.6,218.3c-0.8-0.1-1.5,0.9-2.2,1.3c-1.8,1.1-3.6,1.4-5.4,2.7c-2,1.4-3.9,2.9-5.7,4.8
			c-1.4,1.5-3.1,3.1-4.1,5.2c-0.5,1.1-0.8,2.5-1.2,3.6c-0.6,1.4-1.4,2.4-2.3,3.4c-3.3,3.7-7.2,5.7-10.6,9c-3,2.9-6.3,6.2-9.6,8
			c-1.9,1.1-3.6,2.5-5.3,4.1c-1.1,1-2.4,1.7-3.5,2.9c-0.6,0.6-2.1,2.5-2,3.8c0.6,0.3,1.6,0.3,2.3,0.3c1.2,0.1,2.2-0.5,3.3-1.1
			c4.3-2.1,8.7-4.8,13.1-6.3c3.4-1.1,7.4-0.3,10.4-3.5c1.5-1.7,3.1-2.6,4.7-3.8c2.6-1.8,5-4.3,7.6-6.5c2.2-1.9,4.4-3.7,6.6-5.6
			c2.1-1.8,3.8-3.9,5.7-6.3c4-5.1,8.2-9.2,12.8-12.2c1.8-1.2,3.5-2.5,5.3-3.7c1.9-1.3,3.7-2.1,5.5-3.9c1.9-1.9,3.8-4,5.7-5.8
			c1.8-1.8,3.1-3.6,4.3-6.6c-0.7-0.7-2.9-0.3-3.8-0.3c-1.4,0.1-3.1,2.3-4.4,1.3c0.1-1.7,0.9-3,1.6-4.1c0.9-1.4,3.4-3.5,3.5-5.9
			c-0.9-0.9-0.7-2.2-1.9-2.7c-1.9-0.8-3.8,0.9-5.6,1.9c-1.4,0.8-2.8,1.3-4.3,2s-2.7,2-4,3.3c-1.3,1.2-2.4,2.2-3.6,3.6
			c-1.5,1.7-2.8,2.4-4.5,3.4c-1.5,0.9-3,1.9-4.5,1.8c-1,0-1.1-0.1-2.1,0.9c-0.6,0.6-1,1.1-1.6,1.6c-1.1,0.8-1.7,1.7-2.7,2.7
			c-0.6,0.6-1.3,2.2-2,1.9h2.8h0.4c-0.1,0-0.2,0.1-0.3,0.1c-0.1,1.2-0.5,2.1-0.5,3.3c0,0.8,0.5,1.2,0.4,2.1
			c-0.2,0.3-0.4,0.6-0.7,0.7C149,220.4,151.7,217.7,151.6,218.3z"/>
		<path fill="#E53238" d="M301.3,103.6c-2.2,0-4.2,1.9-6,4.2c-1,1.3,0,4.2,1,2.9c1.4-1.9,3.1-3.7,5-3.7
			C302.6,106.9,302.6,103.6,301.3,103.6z"/>
		<path fill="#E53238" d="M300.5,105.1c-1.3,0.4-2.2,1.8-3.2,3.1c-0.3-1.3-1.1-2.1-2.1-1.5c-2,1.2-3.8,2.8-5.5,4.6
			c-4.3,3-8.8,4.9-13,8.3l-0.1,0.1c-1,0.5-2,1.1-3,1.6c-1.5,0.9-1.4,5.1,0.4,4.9c3.3-0.5,6.9-1.8,10.5-3.8c0.3,0.2,0.6,0.3,0.9,0.1
			c1.1-0.5,2.1-1.1,3.1-1.7c4.9-0.9,9.5-5.3,13.4-10.3C303.5,108.4,302.6,104.4,300.5,105.1z"/>
		<path fill="#E53238" d="M277.9,117.9c-4.5,0.8-9.1,0.8-13.7,1.8c-2.2,0.5-4.5,0.8-5.8,4.1c-0.4,0.9,0,2.3,0.6,2.6
			c4.8,1.9,9.3-1.1,14.1-1.4c1-0.1,1-2.6,0-2.6c-3.8,0.1-7.5,2.1-11.3,1.4c2-1.1,4.9-0.8,6.3-1c3.2-0.4,6.4-0.6,9.6-1.3
			C279.2,121.2,279.3,117.7,277.9,117.9z"/>
		<path fill="#E53238" d="M301.6,106.7c-3.3,4.2-7.2,6.2-10.9,9.3c-0.9,0.8-0.1,3,0.8,2.3c3.7-3,7.8-4.9,11.1-9.3
			C303.4,107.9,302.4,105.7,301.6,106.7z"/>
		<path fill="#E53238" d="M311,98.7c-0.5,0.4-1,0.9-1.6,1.3c-1,0.9-0.1,3.4,0.9,2.6c0.5-0.4,1-0.9,1.6-1.3
			C312.9,100.4,312,97.9,311,98.7z"/>
		<path fill="#E53238" d="M327.9,87c-0.3,0.4-0.5,0.9-0.8,1.3c-0.9,1.5,0.5,3.9,1.4,2.4c0.3-0.4,0.5-0.9,0.8-1.3
			C330.2,87.8,328.8,85.5,327.9,87z"/>
		<path fill="#E53238" d="M316.4,98.6c-2.1,1-4.2,1.9-6.1,3.3c-1.3,0.9-2.4,2-3.6,2.8c-0.2-0.3-0.5-0.4-0.8-0.4
			c-2.2,0-3.6,3.2-4.3,6.4c-0.4,1.7,0.7,3.3,1.7,2.8c1.9-0.9,3.6-2,5.3-3.7c3-0.1,6-2.3,8.4-5.4c0.3-0.2,0.6-0.4,0.9-0.7
			C319.4,102.3,318.2,97.8,316.4,98.6z"/>
		<path fill="#E53238" d="M329.3,86.5c-1.5,0.2-2.8,1.5-3.8,3.2c-1,1.5,0.5,3.8,1.4,2.4c0.8-1.1,1.7-1.8,2.7-2.2
			C330.7,89.4,330.5,86.3,329.3,86.5z"/>
		<path fill="#E53238" d="M341.8,76c-1.9,0.1-3.3,2.4-4.6,4.4c-1,1.5,0.4,3.8,1.4,2.4c1-1.5,2.1-3.2,3.5-3.5
			C343.2,79,342.9,75.9,341.8,76z"/>
		<path fill="#E53238" d="M333.4,87.8c-0.1,0.1-0.2,0.1-0.3,0.2l0,0l-0.1,0.1c-0.4,0.3-0.7,0.6-1,1c-2.5,2.4-5.9,5.1-8.4,2.7
			c-0.5-0.5-1.1-0.5-1.7-0.3c0.1-2.4-1.5-4.6-2.9-3.2c-2.8,2.7-5.3,5.6-8.4,7.2c-2.3,1.2-3.7,2-5.4,4.6c-1.5,2.3,0.1,7,2,5.8
			c3.9-2.4,7.2-5.1,10.5-8.5c0.1,0.1,0.3,0.2,0.4,0.3c2.2,0.7,3.2-1.8,5.2-0.7c2.1,1.2,4.8-0.2,7.1-2.2c0.3,0.3,0.7,0.3,1-0.3
			c0.2-0.4,0.4-0.8,0.7-1.3c0.7-0.7,1.4-1.5,2-2.2C335.2,90.1,334.6,87.1,333.4,87.8z"/>
		<path fill="#0064D2" d="M106.8,366.5c-4.9,1.7-7.8,10.9-12.3,14c-1.5,1.1-2.7,1.5-4.2,2.9c-2,1.9-4.2,2.6-6.4,3.7
			c-2.1,1.1-3.7,3.4-5.6,5.3c-1.6,1.6-3.2,2.9-4.6,5c-1.1,1.6-1.7,3.3-3,4.2c-1.4,1-2.1,0.9-2.6,3.6c1,0.8,2.3-0.7,3.2-1.1
			c1.1-0.6,2.1-0.6,3.2-0.9c1-0.3,1.8-0.6,2.8-0.7c0.9-0.1,1.5-0.8,2.4-1.1c1.5-0.4,3.2-0.4,4.7-1.1c1-0.5,2.6-1.9,3.6-2.8
			c1-0.8,1.9-1.9,2.9-2.7c0.9-0.8,2.1-1.5,3-2.5s1.3-2.2,2.3-2.8c0.4,0.2,0.8,0.1,1.1-0.1c0.5-0.6,1.1-1.1,1.7-1.6
			c1.1-0.9,1.8-1.1,2.9-1.2c1.6-0.2,2.6-1.2,4.1-1.8c1.5-0.6,3.2-0.6,4.7-1.2c3.8-1.3,7.6-3.4,11.2-5.9c1.4-1,3-2.1,4.4-3.2
			s2.5-3.2,4-4.3c1.7-1.4,4-2.8,5.9-3.4c2.1-0.7,4.6-2.5,6.5-4.2c1-0.9,2-2,3-2.8c0.7-0.6,1.5-1.4,1.9-2.7c0.8-2.2,0.2-4.9,1.6-7
			c1.8-2.7,4.1-4,6-6.3c2.4-3,4.6-6,6.9-9c1.1-1.4,2.4-2.5,3.5-3.7c1.2-1.2,4.2-3.6,4.6-6.1c-0.4-1.8-3.2-1.8-4.1-1.7
			c-1.7,0.3-4.3,2.7-5.7,0.8c-2.6-3.8,3.1-10,4.6-12c2.6-3.4,5.6-5.8,8.2-9.1c1.4-1.8,2.7-4,4.1-5.8c1.2-1.5,3.1-2.4,4-4.8
			c-1.6-0.6-3-0.1-4.5,0.8c-2.2,1.4-4.5,2.1-6.5,4c-1.8,1.6-3.5,3.3-5.3,5c-1,1-1.9,2-2.9,2.9c-1.5,1.5-2.6,3.8-4.1,5.1
			c-2.3,1.9-4.3,4.3-6.4,6.7c-1.3,1.5-2.9,2.1-4.3,3.4c-1.7,1.6-3.4,3.2-5.2,4.7c-1,0.9-1.8,2.2-2.8,3c-1,0.9-2,1.1-3,1.9
			c-1.3,1-2.4,2.5-3.6,3.7c-2.3,2.2-3,7-4.6,10.5c-1.5,3.4-3.5,6-5.8,7.9c-2.8,2.3-5.6,4.8-8.4,6.7
			C111.5,360.2,109.2,365.6,106.8,366.5z"/>
		<path fill="#E53238" d="M92.6,277.2c-0.9-0.4-1.2,0.2-1.9,1.1c-1.6,2.2-2.8,4.2-4.7,5.9c-2.7,2.5-5.5,3.7-8,6.8
			c-2.4,3-4.8,5.6-7.2,8.4c-1,1.2-4.6,5.7-4,8.3c0.8,3.3,5.2,0.4,6.6,0.2c3.5-0.6,1.9,3.4,0.3,6.3c-3.1,5.6-7,9-10.6,13.6
			s-8.1,8.1-12.2,11.1c-1.1,0.8-3.7,3.5-4.1,5.7c-0.9,5.8,3.3,3,4.7,2.3c4.5-2.1,8.9-5.1,13.5-6c1.8-0.3,3.5-0.3,5.2-1.6
			c1.8-1.4,3.3-2.7,5.2-3.8c4.6-2.7,9.6-6.9,11.8-14.4c-1.9-2.5-0.7-6.9-1.2-10.2c-0.5-3.1-0.6-3.3,0.7-5.9c0.6-1.2,1-3.2,1.7-4.1
			c0.7-1,1.7-1.1,2.5-1.8c4-3.4,7-9.7,11.1-12.8c0.5-0.4,1.1-0.4,1.7-0.8c1.1-0.8,1.9-2.5,3-3.4c0.9-0.7,1.5-0.6,2.3-1.1
			c1-0.5,2-2,3-2.8c0.9-0.7,5.6-3.4,5.2-5.8c-0.4-2-3-1.3-4-1.2c-0.8,0.1-1.4,0.5-2.2,0.8c-0.6,0.2-1.3-0.1-1.9,0.2
			c-1.3,0.5-2.6,2-4,2.1c-1.1,0.1-2-1-3.1-1.1c-1.2-0.1-2.4,0-3.5,0C95.9,273.2,94.2,273.8,92.6,277.2z"/>
		<path fill="#E53238" d="M228.9,76.7c-2-0.3-3.9,2.7-5.5,3.8c-3.3,2.3-6.3,4.9-9.4,7.6c-2.9,2.5-6.1,4.2-9.3,5.8
			c-2.3,1.2-4.6,3.1-6.9,4.5c-5,3.1-9.8,7-14.9,9.5c-5,2.5-10.7,4-15.5,7.3c-1,0.7-2.3,1.2-2.3,3.1c0,1.6,1.4,2.8,0.6,4.5
			c-0.6,1.2-1.9,1.4-2.8,2c-0.7,0.6-1.4,1.3-2,2c-0.9,0.8-1.1,0.4-2.1,0.8c-0.9,0.4-1.8,1.4-2.7,1.9c-1.3,0.8-2.1,1.5-3.5,1.9
			c-1.6,0.5-5.2,2.6-6.2,4.4c0.5-3.2-3.9-0.8-4.8-0.4c-0.9,0.4-2,0.8-2.8,1.4c-0.3,0.3-0.6,0.6-0.8,1c-0.4,0.2-0.8,0.3-1.3,0.2
			c-1.5,0.9-3.1,1.8-4.8,1.9c-0.9,0.1-1.9-0.3-2.8-0.1c-1,0.2-1.7,1-2.8,1c-2.1,0.1-4.2,1.2-6.2,1.8c-1,0.3-1.7,0.8-2.8,1
			c-1.4,0.2-1.6,0.7-2.8,1.7c-1.9,1.6-4.3,3.5-6.3,4.8c-0.9,0.6-1.8,0.5-2.7,1.3c-1.3,1.2-2.1,2.8-3.5,3.8c-2.1,1.5-4.3,2.9-6.2,4.4
			c-1.9,1.5-3.4,1.8-5.5,2.6c-1.5,0.6-2.2,0.7-3.5,1.9c-0.9,0.8-1.8,1.7-2.8,2.4c-2.4,1.8-5.1,2.9-7.6,4.4c-1.6,1-2.8,2.4-4.2,3.6
			c-0.9,0.8-1.8,0.7-2.7,1.3c-1.9,1.2-3.6,3.5-4.9,5.5c-1.2,1.8-2.3,4.7-4.1,5.5c-3.1,1.4-2.1-2.8-0.7-4.6c0.8-1,2.2-1.9,2.8-2.8
			c0.5-0.7,0.9-1.5,1.2-2.6c-0.9-1.7-4.1-1.8-5.4-1c-0.5,0.5-1,1.1-1.4,1.8c-0.8,0.8-1.2,0.6-2.1,1.1c-1.4,0.8-2.7,2.4-4.1,3.3
			c-4.1,2.7-7.6,6.9-11.8,9.5c-1.7,1-3.1,1.8-4.7,3.1c-1.4,1.1-2.8,2.1-4.3,2.8c-2.7,1.3-5.1,1.2-6.7,4.7c-1.2,2.6-1.5,5.6-2.8,8.2
			c-1,2-1.6,3.9-2.4,5.9c-0.7,1.8-1.9,2.9-3.2,3.8c-1.1,0.7-1.8,1.6-2.7,2.3C10,224,7,223.7,4.5,224c1.6-0.7,2.6-3.4,3.8-4.8
			c1.5-1.7,3.2-3.3,4.3-5.3c3.1-5.3,4.5-12.4,6.9-18.3c1.5-3.7,2.9-7.9,5-11c1.6-2.4,3-4.1,4.9-5.9c0.9-0.8,1.7-2.1,2.5-2.9
			c1-0.9,2.2-1.1,3.3-1.8c7.6-4.9,14.8-11,22.8-14.5c5.1-2.2,9-6.6,13.7-10.2c2.2-1.7,4.1-3,6.5-3.9c2.5-0.9,4.2-3.6,6.1-5.7
			c2.3-2.6,4.2-5.6,7.1-7.3c2.1-1.3,3.8-3.7,6-4.8c1.1-0.6,2.3-0.9,3.5-0.8c2-0.2,3-1.4,4.8-2.4c2.8-1.6,5.7-1.5,8.5-3.4
			c3.4-2.4,5.8-4.1,9.7-4.8c3.7-0.7,7.4-1.6,11-2.8c3.7-1.3,6.6-4.9,10.3-6.2c3-1,5.9-3.5,8.4-5.9c2.6-2.5,3.6-5.8,5.1-9.5
			c3-7.6,9-10.7,14.4-14.1c6.1-4,11.5-9,17.4-13.5c2.1-1.6,4.6-3.4,6.4-5.6c1.6-2.1,3.5-4.5,6-3.4c0.2,1.9-1.1,4.2-2,5.3
			c-1.6,2.1-3,4-4.7,5.9c-1.1,1.2-2.1,1.9-0.9,3.6c1.1,1.6,3.2,1.4,4.5,0.7c3.5-1.8,7.2-3.1,10.9-4.3c2.9-0.9,5.7-2.5,8.6-3.7
			c1.7-0.6,3.4-1.6,4.9-2.9c2.2-1.6,4.5-2.6,6.8-4c2.2-1.4,4.8-2.8,7-4.5c0.6-0.6,1.2-1.2,1.8-1.9c1.3-1,2.7-1.4,4-2.6
			c3.2-2.9,7.2-5.1,11-5c1.4,0,2.3,0.1,3.6-0.8c1-1,2.1-1.9,3.2-2.8c1.3-0.9,2.6-1.2,3.9-2c2.5-1.5,4.8-2.6,7.3-3.9
			c1.3-0.7,2.8-0.9,4-1.8c1.5,4.2-7.8,7.7-9.5,8.4c-4.2,1.7-8.1,4.2-12,6.8c-2.5,1.7-4.5,5-6.8,7.3c-1.1,1.1-1.5,2.6-2.2,3.9
			c-0.7,1.2-2,1.8-2,3.8c0,1.7,0.9,0.7,0.3,2.8c-0.3,1.1-1.6,3.1-2.3,3.8c-1.6,1.8-3.7,3.2-5.5,4c-1.8,0.7-3.4,2-5,3.3
			C230.6,76,230.3,74.5,228.9,76.7z"/>
		<path d="M278.3,39.9c2.4-0.4,3.8-4,6-5.8c1.1-0.9,2.2-1.2,3.4-1.8c2.2-1,3.4-3.2,5.4-4.6c1.6-1.1,3.3-2.6,5-3
			c2.4-0.6,4.3-3,6.8-3.6c5.3-1.3,10.6-3,15.9-4.6c2.1-0.6,3.7-2.1,5.5-3.7c1.4-1.3,4.5-2.6,5-5c-4-1.8-8.5,1.4-12.4,2.4
			c-1.4,0.4-2.9,0.3-4.3,0.2c-2-0.1-2.5-0.9-2.7-3.7c-3.2-1.3-8.1,1-11,2.9c-1.2,0.8-2.2,2.1-3.4,2.9c-1.6,1.1-3.3,1-4.9,1.7
			c-2.2,0.9-3.5,3.6-5.5,5.2c-2.6,2.1-6.2,3.9-9.2,4.2c-3,0.3-5.5,0.9-8.3,2.7c-2.3,1.5-4.2,3.5-6.6,4.8c-1.9,1.1-3.8,2.3-5.6,3.8
			c-1,0.9-2,1.8-2.9,2.9c-1.1,1.3-2,1.7-3.3,2.8c-1.2,1-1.8,2.6-2.8,3.9c-0.7,0.9-1.4,1.7-2.1,2.8c-1.3,2.1-2.9,3.3-4.8,4.7
			c-1.5,1-2.1,1.5-3.7,1.9c-0.8,0.2-1.2,0.4-1.9,0.9c-0.7-2,0.7-2.9,0.6-4.7c0-0.9-0.7-0.9-0.8-1.8c-0.2-1.3,0.4-1.8,0.6-2.9
			c0.3-1.7,0.7-3.1,0.9-4.7c0-0.4,0.2-2.4-0.1-2.7c-0.9-0.8-0.8,0.5-1.4,0.6c-0.6,0.2-1.3,0.5-2,0.3c-0.6-0.2-0.7-1-1.3-1.1
			c-1.1-0.1-2.6,1.9-3.3,2.9c-2.1,2.8-4,5.9-6.2,8.5c-1.3,1.5-2.8,2.5-4.1,3.9c-4,4.4-4.2,11.8-7.1,17.2c-1.5,2.9-2.6,2.9-4.9,4.4
			c-2.5,1.7-4.7,3.9-6.8,6.2s-4.3,3.8-6.5,6.1c-2.5,2.6-5.7,4.3-8.2,7c-0.5,0.8-0.9,1.7-1.4,2.5c-0.6,0.7-1.4,1.2-2.1,1.8
			c-1.6,1.4-2.5,3.5-3.5,5.7c-0.7,1.7-0.7,3.1-1.4,4.7c-0.9,2.1-2.4,3.5-3.3,5.6c1.2,0.5,3.3-1,4.5-1.5c1.7-0.7,3.4-1.4,5.1-1.9
			c2.1-0.6,3.8-0.8,5.9-1.8c2.6-1.3,5.1-4,7.8-4.8c1.5-0.4,2.7,0,4.1-1c1.7-1.1,3-2.9,4.7-4c2.2-1.4,4.8-2.8,6.9-4.6
			c1.2-1.1,1.9-3,3.1-4c0.9-0.7,2.4-1.3,3.4-1.6c1.1-0.3,3.1-1.5,4-1c0.3,2.1-3.1,4.4-4.1,5.6c-1.3,1.6-2.4,2.6-3.2,4.7
			c1.2,1-0.7,3.9-0.2,5.6c1.1,0.5,2.3,0,3.3-0.7c1-0.9,2-1.8,2.9-2.7c1.4-0.8,2.7-1.6,4-2.6c3.5-2.7,7.1-6,10.3-9.2
			c2.2-2.2,3.4-5,4.3-8.3c0.6-2.1,0.8-3.3,2.1-4.8c1.2-1.5,3.1-3.8,4.6-4.5c2.4-1.1,4.5-2.7,6.9-4.1c0.9-0.6,1.9-1.1,2.8-1.6
			c0.6-0.3,0.9-0.9,0.7-1.9c-0.3-2,3.2-6.4,4.1-7.7c0.3-0.4,1.1-1.1,1.2-1.7c0.1-0.5-0.3-0.7-0.2-1.1c0.1-0.7,0.1-1.2,0.3-1.9
			c1-3.1,3.8-5.6,5.7-7.6c1.3-1.4,2.9-3,4.3-4c1.7-1.2,1.7-0.8,3.2-0.1C277.3,39.9,277.8,40,278.3,39.9z"/>
		<path d="M192.3,158.1c0.3-1,0.2-1.9-0.2-2.7c-4.1,2-8.1,8-11,12.2c-1.9,2.7-2.5,6.3-4.1,9.3c-2.5,4.7-6.1,7.8-9.1,11.7
			c-2.3,2.9-5.2,5.5-8.1,7.4c-1.2,0.8-2.5,0.7-3.5,1.8c-0.8,0.7-1.4,2-2.1,2.8c-2.3,2.5-4.7,4.7-7,7.4c-2.2,2.6-5.3,5-7.9,6.9
			c-1.7,1.3-4.9,3.5-3.3-1c0.4-1.2,0.9-1.8,1.6-2.8c0.7-1.1,1.4-2.7,2.1-3.6c1.4-1.9,2.4-1.9,2.3-4.9c-0.1-1.9-0.3-3.8-1.5-4.8
			c-2.2-1.7-4.2,1.2-6.1,2.2c-2,1-3.4,2-5,3.9c-1.7,2.1-3,4.9-4.5,7.2c-3.7,5.3-7.6,9.9-11.4,15.1c-2,2.7-3.9,4.8-6.2,6.8
			c-0.8,0.7-1.9,1.7-2.6,2.6c-0.9,1.1-1.3,2.7-2.2,3.7c-0.7,0.8-2,1.3-2.8,2c-1,0.9-2.1,2-3,3c-2.5,3-3.1,7.4-3.8,11.7
			c-0.5,3-1.5,6.7-3.1,9c-0.9,1.4-2.8,2.5-4,3.5c-0.7,0.6-1.5,0.8-2.2,1.3c-1.1,0.8-1.7,1.8-2.6,2.7c-3,2.8-1.9-2.2-1.1-4.5
			c0.8-2.2,2.3-3.9,3.2-6c0.8-1.8,1.6-2.8,2.6-4.4c2.3-3.6,3.7-8.4,5.2-12.7c1.3-3.6,2.9-7.2,4-10.9c0.8-2.8,1.3-5.7,2.6-8.1
			c1-1.9,2.5-3,3.8-4.5c3.5-3.8,6.4-9.1,9.6-13.4c2.7-3.6,4.7-7.4,7.1-11.3c1.6-2.7,3.4-5.4,4.7-8.5c1.3-3.3,2.5-4.3,5-5.4
			c1-0.4,2.9-2.2,3.8-0.9c-0.1,1-1.8,4.4-1.1,5.2c0.8,0.8,2.7-1.3,3.4-1.8c1.4-1,3.1-2.4,4.7-2.7c1.3-0.2,1.1,0.2,2.2,0.6
			c1.2,0.4,1,0,2-0.7c5.5-4,10.2-9.9,15.2-15.2c2-2.1,3.8-4.5,5.8-6.6c2.4-2.4,3.5-5.8,5.5-8.8c1.5-2.3,3.3-5.1,5.4-6.4
			c1.8-1.1,3.9-1.6,5.7-2.5c2.2-1.1,3.5-2.9,5.3-4.8c2.4-2.4,5.2-4.3,7.6-6.6c1.9-1.8,4.2-3,6.1-4.9c1.8-1.9,3.6-3.9,5.5-5.7
			c1.7-1.6,3.3-3.4,5-4.7c1.7-1.3,4.7-5.1,6.7-4.7c1.1,2.4-4.2,7.5-5.3,8.6c-1.7,1.9-3.2,4-4.9,5.8c-1.1,1.1-2.4,2.1-3.3,3.5
			c-0.2,0.4-0.8,1.2-0.9,1.8c-0.1,1.5,1.2,1.7,1.4,2.9c0.3,2.6-1.7,3.6-2.7,4.9c-1,1.3-2.3,3.6-2.9,5.3c-0.5,1.4-0.7,2.6-1.4,4
			c-0.8,1.7-1.4,2.4-2.4,3.8C192.8,153.8,194.1,158.6,192.3,158.1z"/>
		<path d="M248.3,123.1c0.1-6.1,2.4-10,5.6-14.2c1.6-2.1,3.1-5,5-6.6c1.6-1.4,3-1.4,4.7-2c2.4-0.9,4.6-3.4,6.9-4.8
			c0.6-0.4,1.3-0.7,2-0.9c0.9-0.6,1.4-2,2.2-2.5c2.6-1.5,2.3,1.8,1.4,3.9c-1.9,4.9-5.7,4.8-8.2,8.5c-0.9,1.3-0.9,3.6-1.5,5.2
			c-0.5,1.5-1.6,2.7-2.2,4.1s-0.3,1.4-0.6,2.8c-0.4,1.9-2.3,3.6-3.5,4.8c-1.4,1.4-3,2.3-4.7,3c-1.4,0.6-2.3,0.3-3.6,0.6
			c-1.5,0.3-2.3,1.5-3.9,0.9C248.4,124.6,248.3,124.4,248.3,123.1z"/>
	</g>
	<path fill="#86B817" d="M369.8,356c3.9-0.1,6.5-0.1,9.9-2.4c2.9-2.1,5.5-5.1,8.7-6.6c1.1-0.5,2.3-0.5,3.3-1
		c1.6-0.8,2.7-2.3,4.4-3.1c2.9-1.4,5.6-4.2,7.9-6.5c1-1,2.2-2.3,3.1-3.3c1.1-1.4,1.4-3.1,2.4-4.4c0.7-1,2-1.6,3-2.3
		c1.6-1.3,2.9-3.1,4.7-4.2c1.4-0.9,2.8-1.1,4.2-2.1c1.8-1.3,3.3-2.7,5.2-3.9c1.7-1,2.9-1.2,4.6-1.9c1.8-0.7,2-1.6,3.2-3
		c1.1-1.3,2.2-1.5,3.4-2.4c1.6-1.2,2-2.6,3.2-4.1c2.3-3,5.6-5.6,7.8-8.7c1.6-2.2,1.5-5.2,2.9-7.7c1.3-2.2,4-4.8,4.2-7.5
		c0.1-1.5-0.8-2.4-0.4-4.1c0.2-1.2,0.6-3.4,1.1-4.6c0.7-1.9,2.3-3,2.8-5.2c0.5-1.7,0.6-2.8,1.6-4.4c1.6-2.5,2.8-3.8,5.2-5.6
		c1.4-1,3.4-3,4.4-4.4s1-3.8,3.1-4.1c0.2,1.8-1.2,3.9-1.8,5.6c-0.7,2.4-1,4.8-1.6,7.1c-0.5,1.9-1.6,3.6-2,5.5
		c-0.3,1.7,0,2.7-0.7,4.3c-3.4,7.6-5.3,15.3-8.2,23.2c-1.7,4.6-4,9.3-7.4,12.9c-3,3.2-6.4,5.7-9.6,8.7c-2.8,2.7-6.8,5.5-9.1,8.7
		c-0.7,1.1-1.8,3-1.1,4.4c0.9,2,1.8,0.6,3.2,0c-0.8,8.6-10.4,13.7-17.3,16.5c-3.2,1.3-6.6,2-9.8,3.3c-1.6,0.7-3.2,0.9-4.6,1.6
		c-1.7,0.8-3.5,2-5.2,2.5c-3.4,1-6.8,1.4-9.8,3.5c-3.3,2.3-6.4,4.1-9.9,6c-3.3,1.8-8.3,1.9-12.1,1.4c-2.5-0.4-2.6-0.6-1.1-2.2
		C366.4,360.4,368.5,357,369.8,356z"/>
	<path d="M394.3,165.3c0.1-0.3,0.2-0.7,0.3-0.9c0.4-0.8,1.2-1.2,1.8-1.7c0.4-0.4,0.6-0.9,0.9-1.3c0.5-0.6,1.1-1.1,1.6-1.7
		c1-1.2,2.3-2.2,3.6-3.1c1.1-0.7,2.3-1.4,3.5-2c1.2-0.7,2.5-1.3,3.6-2.1c1-0.7,2-1.5,2.5-2.6c0.3-0.8,0.4-1.7,0.8-2.5
		c0.7-1.2,1.9-2.3,2.9-3.3c0.6-0.6,1.2-0.9,1.9-1.3c1-0.6,2.1-1.3,2.9-2.1c0.5-0.5,0.8-0.8,1.2-1.4c0.3-0.6,0.9-0.9,1.3-1.4
		c0.2-0.3,0.3-0.6,0.5-0.9c0.2-0.3,0.7-0.8,0.5-1.1c-0.2-0.4-0.8,0-1.2,0c-1,0.1-2.4,0.5-3.4,0.2c-0.1-0.3,0.1-0.7-0.2-0.9
		c-0.2-0.3-0.3-0.1-0.6-0.2c-0.1-0.5,1.2-1.3,1.5-1.7c0.2-0.3,0.6-1,0.4-1.4c-0.4-0.1-0.8,0.4-1.1,0.6c-0.5,0.3-1.1,0.5-1.7,0.8
		c-0.7,0.4-1.7,0.6-2.1,1.3c-0.4,0.5-0.8,0.7-1.2,1.2c-0.8,0.9-1.6,1.7-2.5,2.4c-1.9,1.4-3.7,2.9-5.8,4c-0.9,0.5-1.4,1.3-2.2,1.9
		c-0.2,0.2-1.6,0.8-1.5,1.2c0,0.4,0.4,0.1,0.6,0.2c0.3,0.1,0.1,0.1,0.2,0.4c0.1,0.7-0.4,1-0.7,1.5c-0.3,0.4-0.4,0.7-0.8,1
		c-0.5,0.4-1,0.6-1.5,1.1c-0.8,0.7-1.7,1.6-2.7,1.8c-0.5,0.1-1,0.2-1.4,0.4c-0.3,0.2-0.5,0.5-0.8,0.7c-0.6,0.6-1.4,1-2,1.5
		c-0.5,0.4-0.9,0.7-1.5,1c-0.5,0.2-1.1,0.4-1.6,0.6c-0.6,0.2-1.2,0.3-1.8,0.6c-0.4,0.2-0.6,0.5-1,0.7c-0.8,0.4-1.7,0.4-2.4,0.8
		c-0.5,0.3-1.1,0.7-1.6,1.2c-0.4,0.4-0.7,0.8-1.1,1.1c-0.5,0.4-1.2,0.5-1.6,0.9c-0.8,0.7-1.2,1.9-1.7,2.8c-0.3,0.7-0.1,1.4-0.6,2.1
		c-0.2,0.4-0.6,0.5-0.8,0.8c-0.2,0.3-0.3,0.6-0.5,0.9c-0.6,0.9-0.6,2.1-0.9,3c-0.2,0.5-0.5,1-0.8,1.5c-0.2,0.4-0.4,0.9-0.8,1.2
		c-0.7,0.7-1.4,1.4-2.3,1.9c-1.2,0.6-1.5,1.7-2.3,2.7c-0.9,1.2-2.1,2.1-3.3,2.9c-0.5,0.3-0.8,0.5-0.7,1.2c0,0.6,0.2,1,0.8,0.6
		c0.4-0.3,0.8-0.6,1.3-0.8s0.9-0.4,1.4-0.7c0.4-0.3,0.8-0.4,1.3-0.4c0.4,0,0.6,0.1,0.9-0.2c0.4-0.3,0.6-0.9,0.9-1.3
		c0.3-0.4,0.7-0.8,1.1-1.2c0.6-0.6,1.4-1.5,2.3-1.6c0.6-0.1,1.2,0.1,1.8,0c1-0.2,1.9-0.6,2.8-0.8c0.6-0.1,1.2-0.4,1.8-0.5
		c0.6-0.1,1.1-0.1,1.7-0.3c1.1-0.3,2.3-0.6,3.3-1.1c1.7-0.8,3.2-1.6,4-3.3c0.4-0.7,0.7-1.4,1.4-1.9c0.7-0.5,1.3-0.8,1.5-1.7
		C394.3,166,394.2,165.7,394.3,165.3L394.3,165.3z"/>
	<path fill="#0064D2" d="M390.5,118.2c-2.9,0.3-4.3,2.6-6,4.7c-0.7,0.8,0.5,2,1.2,1.2c1.5-1.8,2.7-3.6,5.1-4.1
		C391.8,119.8,391.5,118.1,390.5,118.2z"/>
	<path fill="#0064D2" d="M399.3,109.7c-2.9-0.2-4.7,1.3-6.6,3c-3.5,0.5-6.7,4.8-5.3,8.1c0.2,0.4,0.7,0.6,1.1,0.6c0.5,0,1,0,1.5-0.1
		c0.6,0.4,1.3,0.4,1.7-0.4c0-0.1,0-0.1,0.1-0.2c2-0.9,3.6-2.7,3.4-4.7c0-0.3-0.1-0.6-0.3-0.8c0.1-0.6,0.1-1.1,0-1.7
		c-0.1-0.2-0.2-0.4-0.4-0.6c1.4-1.1,3.1-2,4.9-1.8C400.1,111.1,400.1,109.8,399.3,109.7z"/>
	<path fill="#0064D2" d="M399.1,110.5c-6-3.8-12,1.8-12.6,7.7c0,0.3,0,0.6-0.1,0.9c-1.3,1.3-2.2,2.9-2.5,4.8c-0.4,0.5-0.9,1-1.3,1.5
		c-4.5,4.6,2.3,11.4,7,7c0.7-0.6,1.3-1.4,1.9-2.1c0.7-0.3,1.3-0.6,1.9-1.1c0.3-0.1,0.6-0.3,1-0.4c0.9-0.4,1.5-1,2.2-1.6
		c1.3-1,2.1-3,2.4-4.5c0.1-0.6,0.2-1.2,0.3-1.8C402.8,118.1,403.3,113.1,399.1,110.5z"/>
	<path fill="#0064D2" d="M412.2,103.1c-1-1.8-3.1-2.1-4.9-1.3c-0.7,0.4-1.5,0.7-2.2,1.1c-1.7,0.9-2.2,3.3-1.3,4.9
		c1,1.8,3.1,2.1,4.9,1.3c0.7-0.4,1.5-0.7,2.2-1.1C412.6,107.1,413.1,104.7,412.2,103.1z"/>
	<path fill="#0064D2" d="M423.2,94c-1.1-1.1-3.1-1.2-4.2,0c-0.7,0.8-1.4,1.5-2.1,2.3c-1,1.1-1.1,2.9,0,4s2.9,1,4,0l2.3-2.1
		C424.4,97.2,424.3,95.1,423.2,94z"/>
	<path fill="#0064D2" d="M429.8,84.1c-4.2,0-4.2,6.6,0,6.6C434.1,90.7,434.1,84.1,429.8,84.1z"/>
	<path fill="#0064D2" d="M409.5,104.4c-1.2-1-2.8-2-4.5-1.8c-2.1,0.3-3.6,1.1-4.7,2.9c-1,1.7-1.4,4-1.5,5.9
		c-0.1,2.6,2.2,4.8,4.8,4.8c2.6,0,4.9-2.2,4.8-4.8c0-0.1,0-0.2,0-0.3c0.4-0.3,0.8-0.6,1-0.9C410.8,108.7,411.4,105.9,409.5,104.4z"
		/>
	<path fill="#0064D2" d="M412.8,106.6c-1-1.8-3.3-2.7-5.3-2.2c-1.1,0.3-2,0.9-2.7,1.8c-0.9,0.1-1.8,0.6-2.4,1.2
		c-1.7,1.7-1.5,4.3,0,6c1.4,1.6,4,2.1,6,1.2c0.7-0.3,1.5-0.6,2.2-1c0.7-0.5,1.3-1,1.7-1.6C413.6,110.8,413.8,108.3,412.8,106.6z"/>
	<path fill="#0064D2" d="M419.9,92.8c-1.6-0.8-2.8-0.9-4.6-0.6c-1.9,0.3-3.4,2.2-4,3.9c-0.4,1.1-0.3,2.2,0,3.2c0,0.5,0,1,0.1,1.4
		c0.1,0.7,0.5,1.3,0.9,1.9c0.1,1.2,0.9,2.3,2.3,2.8c2,0.7,3.9-0.3,5.1-1.8c0.2-0.2,0.4-0.4,0.5-0.6c0,0,0,0-0.1,0
		c0.2-0.3,0.3-0.5,0.4-0.8c0.1-0.1,0.3-0.2,0.4-0.3C423.5,99.5,423.1,94.3,419.9,92.8z"/>
	<path fill="#0064D2" d="M429.8,91.9c-0.4-1.3-1.6-1.9-2.9-1.6c-0.8,0.2-1.9,0.3-2.6,0.8s-1.1,1.1-1.1,2c0,1.1,0.7,1.8,1.7,2.2
		c0.9,0.4,1.8,0,2.6-0.4c-0.6,0.3,0,0,0.2,0s0.4-0.1,0.6-0.2C429.4,94.4,430.2,93.2,429.8,91.9z"/>
	<g>
		<path fill="#0064D2" d="M428.5,91.5c-0.1-0.1-0.2-0.3-0.3-0.4c-0.1-0.2-0.2-0.3-0.3-0.4c0-0.1-0.2-0.2-0.4-0.5
			c-0.2-0.2-0.4-0.3-0.6-0.5c-0.3-0.1-0.5-0.3-0.8-0.3c-0.1,0-0.1-0.1-0.2-0.1c-1.1-0.7-2.3-0.3-3.2,0.4c-0.1,0.1-0.2,0.1-0.2,0.2
			c-0.5,0.6-0.8,1.2-0.8,2c0,0.9,0.5,2,1.4,2.4l0,0c0.1,0.3,0.3,0.6,0.5,0.8c0.9,0.9,2.2,1,3.3,0.4c0.2-0.1,0.4-0.2,0.6-0.3
			C428.8,94.5,429.2,92.8,428.5,91.5z"/>
		<path fill="#0064D2" d="M427.9,90.7L427.9,90.7C427.9,90.8,427.9,90.7,427.9,90.7z"/>
		<path fill="#0064D2" d="M427.9,90.7L427.9,90.7L427.9,90.7z"/>
		<path fill="#0064D2" d="M427.9,90.7c0-0.1-0.1-0.1-0.2-0.3C427.8,90.5,427.8,90.6,427.9,90.7z"/>
	</g>
	<path fill="#0064D2" d="M430.3,89.5c0-0.8-0.3-1.4-0.8-1.9c-0.1-0.2-0.3-0.4-0.4-0.6c-1.2-1.2-3.1-1.1-4.3,0
		c-0.2,0.2-0.4,0.4-0.5,0.6c-0.1,0.1-0.1,0.1-0.2,0.2c-0.2,0.3-0.3,0.7-0.4,1c-0.3,1.1,0.4,2.4,1.3,3.1c0.6,0.9,1.7,1.3,2.7,1
		c0.7-0.1,1.2-0.6,1.7-1.1c0.4-0.4,0.6-0.9,0.7-1.4C430.3,90.3,430.3,89.9,430.3,89.5z"/>
	<path d="M348.2,42.5c0.2-0.2,0.4-0.4,0.6-0.6C348.6,42.1,348.4,42.3,348.2,42.5"/>
	<path d="M363.1,26.6c0.3-0.6,0.5-1.2,0.7-1.8c0.7-1.7,1.1-3.6,1.7-5.4c1-2.7,1.8-6.1,1.8-9c-0.1-4.5-3.9-2.4-7-3.2
		c-2.4-0.6-7.4-2.2-7.9,1.9c1.3-0.6,5.2-0.4,5.8,1.3c0.3,0.9-1.7,4.3-1.7,5.3c0,1.1,0.5,1.2,0.6,2c0.2,1.7,0,2.1-0.5,3.8
		c-1,3.3-4.2,6-5,9.2c-0.7,2.9-0.6,5-2.4,7.8c-1.8,2.7-3.9,5.4-6,7.9c-1.8,2.2-3.8,4.1-6,5.8c-2.5,1.9-4.2,4.3-6.5,6.3
		c-1.5,1.3-3.4,2.3-4,4.2c-0.4,1.3-0.1,2.6-0.9,3.8c-0.7,1.1-2.3,2-3.3,2.9c-1.7,1.5-5,2.8-6.3,4.7c-0.6,0.9-1.5,2.5,0.2,3.2
		c1.8,0.8,4.1-3.2,5.4-4.1c2.4-1.6,5.3-2.6,7.8-4.1c1.2-0.8,3-1.7,4-2.7c0.4-0.6,0.8-1.2,1.2-1.9c0.5-0.1,1-0.3,1.5-0.4
		c1.7-1.1,3.6-2.3,5.3-3.5c0.2-0.2,0.4-0.3,0.6-0.5c0.1,0.2,0.3,0.3,0.5,0.1c0.3-0.3,0.7-0.7,1.1-0.9c0.4-0.1,0.4,0.1,0.7,0.1
		c0.6,0,1.2-1.1,1.7-1.5c0.4-0.3,0.7-0.5,1.1-0.8c-0.1-0.1,0-0.2,0.1-0.3c0.9-0.9,2-1.7,3-2.6c0.8-0.8,1.7-1.5,2.2-2.5
		s1.2-2.1,2.3-2.6c0.4-0.2,0.8-0.2,1.2-0.4c0.6-0.3,1.1-0.8,1.5-1.4c0.4-0.6,0.7-1.2,1.3-1.7c0.5-0.5,1.1-0.7,1.4-1.4
		c0.2-0.5,0.4-1,0.5-1.6c0.2-0.7,0.6-1.4,0.8-2c0.2-0.6,0.6-0.7,1-1.1c0.4-0.3,0.7-0.9,1-1.3c0.5-0.7,0.9-1.5,1.4-2.1
		c0.8-1,2.1-1.7,2.4-3c0.1-0.5,0.3-1.3,0.1-1.8c-0.2-0.5-0.6-0.5-1-0.5c-0.9,0-1.5,0.6-2.3,1c-0.5,0.3-2.2,0.6-2.6,0
		c0.1-0.1,0.2-0.2,0.3-0.3c-0.4-0.2-0.7,0.1-1-0.2c-0.3-0.3-0.2-1.1,0-1.5s0.6-0.7,0.8-1.1c0.4-0.7,1.1-1.3,1.5-2
		C363,26.8,363,26.7,363.1,26.6z"/>
	<path d="M320.3,77.9c-1,0.4-1.8,1.2-2.8,1.7s-2.2,1.6-2.7,2.6c-0.5,0.9,0.3,2.3,1.4,1.8c1.2-0.5,1.6-1.6,2.5-2.4
		c0.4-0.4,0.9-0.7,1.3-1.1c0.4-0.3,0.5-0.7,0.9-0.9C322,79.1,321.3,77.5,320.3,77.9z"/>
	<path d="M313.4,83.8c-0.1,0.1-0.3,0.3-0.4,0.4c-1,0.9,0.5,2.4,1.4,1.4c0.1-0.1,0.3-0.3,0.4-0.4C315.7,84.2,314.4,82.9,313.4,83.8z"
		/>
	<path d="M309,87.1c-0.3,0.3-0.6,0.5-0.8,0.8c-0.9,1,0.4,2.3,1.5,1.5c0.3-0.2,0.5-0.5,0.8-0.8C311.4,87.6,310,86.2,309,87.1z"/>
	<path d="M326.5,77.7c0-2.1-2.6-3-4.3-2.4c-1,0.4-2,1.3-2,2.5c-0.1,0.1-0.3,0.2-0.4,0.3c-0.5,0.4-1.1,0.9-1.4,1.5
		c-0.2,0.4-0.3,1.2-0.5,1.4c-0.3,0.5-0.7,0.7-0.9,1.3c-0.2,0.5,0.1,1,0.6,1.3l0,0h0.1c0.1,0,0.2,0.1,0.3,0.1
		c0.6,0.2,1.2,0.2,1.7-0.2c0.4-0.2,0.7-0.5,1.1-0.8c0.1-0.1,0.7-0.7,0.6-0.8c0.5-0.3,1.3-0.4,1.8-0.7c0.6-0.3,1.1-0.7,1.5-1.2
		C325.7,79.8,326.5,78.9,326.5,77.7z"/>
	<path d="M329.4,73.9c-0.4-0.4-1-0.3-1.4,0c-0.3,0.2-0.5,0.5-0.7,0.8c-0.2,0.2-0.5,0.2-0.8,0.3c-0.6,0.3-1.1,0.9-1.6,1.3
		c-1.2,0.8,0.2,2.5,1.2,1.5c0.3-0.2,0.5-0.5,0.8-0.7s0.7-0.3,1-0.5c0.7-0.3,1.2-0.9,1.7-1.5C329.8,74.7,329.7,74.2,329.4,73.9z"/>
	<path d="M328.8,72.7c-0.5,0.3-1,0.7-1.6,1c-0.6,0.2-1.2,0.3-1.8,0.5c-1.3,0.6-1.5,2.9,0.3,2.8c0.5,0,0.7-0.3,0.8-0.7
		c0.5-0.1,1,0,1.4-0.1c1.1-0.2,2-0.9,2.5-1.8C331,73.4,329.8,72,328.8,72.7z"/>
	<path d="M330.8,72c-0.3,0.1-0.6,0.2-0.8,0.4c-0.2,0.1-0.3,0.3-0.4,0.3c-0.9,0.1-0.7,1.6,0.2,1.6c0.3,0,0.6-0.1,0.8-0.2
		c0.1-0.1,0.2-0.1,0.3-0.2l0.2-0.1C332.4,73.8,332.1,71.8,330.8,72z"/>
	<path d="M333.1,70.1c-1.2,0-1.2,1.8,0,1.8S334.3,70.1,333.1,70.1z"/>
	<path d="M335,69.8c-0.3-0.6-1.3-0.8-1.8-0.2c-0.7,0.2-1.2,1.2-0.6,1.8l0.1,0.1c0.4,0.4,0.9,0.4,1.3,0.2c-0.1,0,0.3-0.2,0.2-0.1
		C334.9,71.3,335.4,70.5,335,69.8z"/>
	<path d="M336.9,68.9c0-0.2-0.2-0.5-0.5-0.5c-0.4,0-0.7,0.1-1.1,0.2s-0.7,0.3-1,0.5c-0.5,0.3-0.2,1.1,0.4,0.9l0,0c0,0,0,0,0,0.1
		c-0.1,0.1-0.2,0.2-0.3,0.3c-0.3,0.4,0.3,0.7,0.6,0.3l0,0c0.1,0,0.2,0,0.3,0c0.5-0.2,0.7-0.5,1.1-0.8c0.2-0.1,0.4-0.3,0.6-0.5
		C337.1,69.3,337.1,69.1,336.9,68.9z"/>
	<path d="M336.2,68.2c-0.4,0.2-0.7,0.4-1,0.6c-0.4,0.3,0,1,0.4,0.7c0.3-0.2,0.7-0.4,1-0.6C337.1,68.7,336.7,67.9,336.2,68.2z"/>
	<path d="M341.9,63.8c-0.9,0-1.9,0.7-2.3,1.5c-0.2,0.4,0.2,0.6,0.5,0.4l0,0c0.1-0.1,0.1-0.1,0.2-0.2s0.3-0.2,0.5-0.2
		c0.1-0.1,0.2-0.2,0.1-0.3c0.3-0.2,0.7-0.4,1.1-0.4C342.4,64.4,342.3,63.8,341.9,63.8z"/>
	<path d="M271.8,43.9c-0.7,0.5-1.1,1.2-1.6,2c0.4,0.4-0.3,1.8-0.6,2.1c0.6,0,1.2-0.6,1.6-0.9c0.5-0.3,0.8-0.7,1.2-1.1
		c0.6-0.6,0.8-1.4,1.7-1.7c0.6-0.2,1.5-0.4,2-0.9c0.2-0.2,0.4-0.6,0.2-0.9c-0.3-0.4-0.7-0.2-1.1-0.3c-0.6-0.1-1-0.5-1.7-0.2
		c-0.5,0.2-1,0.9-1.3,1.3c-0.2,0.3-0.7,0.9-0.8,1.2"/>
	<path d="M291.7,32.4c0.4-0.9,1.1-2.5,2-2.8c0.5-0.2,0.6,0.1,0.9,0.2c0.6,0.1,1.2-0.2,1.7-0.6c0.8-0.5,1.5-1.2,2.4-1.7
		c0.7-0.4,1.4-0.7,2-1.2c0.4-0.4,0.8-0.8,1.4-0.8c0.4,1-0.5,0.8-1.1,1.2c-0.4,0.2-0.5,0.6-0.9,0.8c-0.2,0.1-0.3,0.2-0.5,0.3
		c0,0.2-0.1,0.3-0.1,0.5c-0.9,1.3-2.2,2.4-3.6,3.1c-0.4,0.2-0.6,0.3-0.9,0.6c-0.5,0.4-1,0.6-1.5,0.9c-0.4,0.3-0.5,0.7-0.8,1
		s-0.8,0.6-1.2,0.9c-0.3,0.2-0.6,0.3-0.9,0.5c-0.4,0.2-0.5,0.5-0.8,0.7s-0.6,0.2-0.8,0.5c-0.3,0.3-0.3,0.9-0.9,0.6
		c-0.2-1.1,1.5-2.1,2.1-2.8C290.7,33.7,291.3,33.3,291.7,32.4z"/>
	<path d="M274.1,51.7c-0.6-0.2-0.6,0.4-0.9,0.8c-0.6,0.7-1.2,1.3-1.6,2.1c-0.3,0.5-0.2,1-0.4,1.4c-0.1,0.1-0.3,0.3-0.5,0.3
		c-0.2,0.2-0.4,0.5-0.6,0.8c-0.6,0.9-0.9,2-1.4,2.9c-0.5,1-1.3,1.9-2.2,2.7c-0.4,0.3-0.6,0.7-1.1,0.9c-0.4,0.2-0.7,0.3-1.1,0.6
		c-0.6,0.5-0.7,0.9-1.4,0.9c-0.5,0-0.9-0.1-1.4,0.2c-1.1,0.5-1.7,1.7-2.4,2.7c-0.4,0.6-2.3,2.5-2,0.6c0.1-0.5,0.3-0.8,0.6-1.1
		c0.6-0.7,1.3-1.4,2-2c0.7-0.8,0.8-1.4,1.2-2.3c0.3-0.7,0.5-0.7,0.5-1.4c0-1.3,0.5-2.2,1.4-3.2c0.5-0.5,1-1,1.4-1.4
		c0.2-0.2,0.4-0.4,0.6-0.5c0.4-0.1,0.4,0.2,0.6,0.2c1,0,1.6-1.3,2-2.3c0.6-1.3,1.6-2.7,2.6-3.8c0.4-0.4,0.7-0.7,1.1-1.1
		c0.4-0.3,0.5-0.2,0.9-0.4c0.7-0.3,1.2-0.7,1.8-1.1c1-0.6,1.9-1.1,3.1-1.6c0.3,1.1-0.7,2-1.5,2.7c-0.4,0.4-0.7,0.4-1,0.9
		C274.1,50.9,274.4,51,274.1,51.7z"/>
	<path fill="#F5AF02" d="M304.6,234.9c2.3-1.9,4.4-4.1,6.8-5.8c1.2-0.8,2.7-1.4,3.9-2.2c1-0.7,2.1-1.3,2.6-2.5
		c-0.6-0.5-1.6,0-2.2,0.2c-0.5,0.2-1.8,0.8-2.4,0.5c0.2-0.3,0.6-0.5,0.8-0.9c0.3-0.5,0.4-0.9,0.8-1.4c0.6-0.7,1.5-1.4,2.2-2
		c1.7-1.2,3.3-2.4,5-3.6c2.1-1.4,3.9-3.4,6.1-4.7c1.3-0.7,2-1.8,3.1-2.8c0.8-0.7,2.3-1.6,2.4-2.7c-1-0.4-2.1,0.8-3,0.8
		c-0.2-0.2-0.3-0.2-0.6-0.2c-0.2,0.1-0.4,0.2-0.6,0.3c-0.4,0.2-0.6,0.3-0.9,0c-0.5-0.4-0.2-1.5,0-2s0.3-1,0.4-1.4s0.5-0.7,0.5-1.1
		c-0.8-0.3-1.8,0.6-2.4,1.1c-1,0.7-2,1.6-2.6,2.7c-0.5,0.9-0.5,1.9-0.8,2.9c-0.5,1.4-1.5,2.4-2.6,3.4c-1.9,1.8-3.6,3.7-5.7,5.2
		c-1.8,1.3-3.8,2.6-5.4,4.2c-0.5,0.5-1.2,1-1.3,1.7c-0.2,0.7,0.1,1.2-0.4,1.9s-1.3,1.1-1.8,1.7c-0.7,0.7-1.3,1.7-1.8,2.5
		c-0.4,0.7-1.1,1.3-1.6,1.9c-0.5,0.6-0.9,1.3-1.4,1.9c-0.2,0.3-0.6,0.5-0.8,0.8c-0.2,0.3-0.4,0.8-0.7,1.1c-0.4,0.4-2,0.9-1.9,1.7
		c0.5,0.2,1.8-0.1,2.2-0.3c0.4-0.2,0.5-0.6,0.8-0.8c0.4-0.3,0.7-0.6,1.1-0.8c0.5-0.4,1.1-0.6,1.6-0.9
		C304.9,235,304,235.4,304.6,234.9z"/>
	<path fill="#F5AF02" d="M340.4,201.3c-0.6,0.1-1,0.6-1.4,1c-0.1,0-0.2,0-0.3,0.1s-0.2,0.2-0.2,0.3c-0.1-0.1-0.3-0.1-0.5-0.1
		c-0.6,0.2-0.9,0.7-1.1,1.2c-0.1,0.2-0.2,0.3-0.2,0.6c0,0.1,0,0.2,0.1,0.3c0,0.2,0.1,0.3,0.3,0.4c0.2,0.2,0.5,0.2,0.8,0.1
		c0.2-0.1,0.4-0.2,0.5-0.4c0.3,0,0.7-0.2,1-0.5c0.3-0.2,0.6-0.5,0.9-0.8c0.1-0.2,0.2-0.4,0.3-0.6c0.1-0.3,0.2-0.5,0.3-0.8
		C341.1,201.6,340.8,201.2,340.4,201.3z"/>
	<path fill="#F5AF02" d="M344.2,198.5c-0.2,0.2-0.3,0.3-0.5,0.5c-0.3,0.3,0.2,0.8,0.5,0.5l0.5-0.5
		C345.1,198.7,344.6,198.2,344.2,198.5z"/>
	<path fill="#F5AF02" d="M350.6,195.5c-0.2-0.3-0.3-0.4-0.5-0.5c-0.1-0.3-0.4-0.5-0.7-0.4c-0.3,0.1-0.5,0.3-0.7,0.5
		c-0.1,0-0.2,0.1-0.4,0.2c-0.2,0.1-0.3,0.3-0.4,0.5c0,0.1-0.2,0.3-0.3,0.4l0,0c-0.3,0-0.6,0.2-0.6,0.5v0.1l0,0
		c-0.4,0.3-0.1,0.8,0.3,0.7c0.1,0.1,0.2,0.1,0.4,0.1c0.6-0.1,0.9-0.4,1.2-0.8c0,0,0,0,0.1,0h0.1c0.7,0.1,1.4-0.1,1.8-0.7
		C350.7,195.9,350.7,195.7,350.6,195.5z"/>
	<path d="M87.9,353.6c-0.3,0.4-0.5,0.7-0.8,1c-0.9,0.9-1.7,1.9-2.5,2.9c-0.8,0.8-1.3,1.7-1.9,2.7c-0.6,0.9-1.4,2.1-1.7,3.2
		c-0.1,0.6,0.1,1.4,0.3,2c0.2,0.6,0.4,1.1,0.8,1.6c0.2,0.3,0.6,0.6,0.6,0.9c0,0.5-0.6,1.3-0.9,1.7c-0.3,0.5-0.5,1-0.8,1.5
		c-0.6,1.2-1.2,2.4-1.7,3.7c-0.6,1.4-1.6,2.2-2.9,2.9c-0.8,0.4-1.6,0.9-2.2,1.6c-0.5,0.4-0.8,0.9-1.3,1.2c-0.6,0.3-1.3,0.3-1.9,0.8
		c-0.7,0.5-1.3,1-1.8,1.5c-0.8,0.8-1.5,1.5-2.2,2.6c-0.4,0.8-1,1.6-1.5,2.3c-0.4,0.5-0.8,0.9-1.3,1.3c-1.7,1.4-3.1,3-4.8,4.4
		c-1.2,1-2.4,2-3.4,3.2c-2.9,3.2-3.6,6.6-3.7,10.8c0,2-0.1,2.8,0.9,4.2c1.6,2.2,3.5,2.8,6,2.8c4.6,0,8.7,2.8,13.3,2
		c2-0.3,3.7-1.8,5.8-2.1c0.7,0,1.3,0,2,0.1c1.1-0.1,2-0.7,3-0.8c2.4-0.3,2.4,0.7,1.3,2.8c-1.4,2.7-3.5,2-6.3,2
		c-1.5,0-3.4-0.3-4.9-0.1c-1.7,0.3-3.3,1.4-5,1.8c-3.6,0.8-7.3,1.2-10.2,3.2c-1.8,1.2-3.1,2.8-4.8,4.1c-1.5,1.2-3.4,1.7-5,2.7
		c-1.2,0.8-2.4,1.7-2,3.3c0.5,2.3,3,1.5,1.4,4.2c-1.7,2.9-3.8,5.7-6.4,7.8c-1.3,1-2.3,1.5-3.9,1.6c-0.8,0-1.3,0.4-2,0.8
		s-1.6,0.3-2.1,1c-0.5,0.3-0.7,0.2-1.3,0c-0.8-0.3-1.3-0.4-2-1c-0.9-0.8-0.5-1.2-0.2-2.3c0.2-0.6,0.6-1.7,0.6-2.3
		c0-0.3-0.3-0.6-0.4-0.9c0-0.3,0-0.5,0-0.8c-0.1-0.6-0.4-1-0.3-1.6c0-1.3,0.6-2.6,0.3-3.9c-0.2-0.5-0.5-1-0.8-1.4
		c-0.4-0.6-0.4-0.8-0.4-1.6c0-1.5,0.1-3.2-1.9-3.2c-0.9,0-1,0.2-1.5-0.6c-0.5-0.7-0.7-0.9-0.2-1.7c0.4-0.7,0.7-1.4,1.2-2
		c0.5-0.5,1.1-1.2,1.6-1.6c0.6-0.5,1.3-0.7,2-1c0.8-0.3,0.8-0.8,1.4-1.3c0.4-0.3,0.5-0.2,0.9-0.4c0.3-0.2,0.5-0.4,0.7-0.7
		c0.5-0.5,1-1.1,1.5-1.6c0.4-0.5,0.9-0.7,1.4-1.1c0.4-0.4,0.6-0.9,1-1.4c0.4-0.6,0.7-0.9,0.9-1.6c0.2-0.8,0.5-1.7,0.7-2.6
		c0.1-0.6,0.3-1.4,0.3-1.9c0-1-0.7-1-1-1.8c-0.2-0.7,0-1.5-0.3-2.2c-0.4-1-0.2-1.4,0.2-2.4c0.5-1.1,1-2.3,1.7-3.3
		c1.7-2.1,5-2.6,7-4.3c3-2.7,4.6-5.8,7.2-8.8c1.7-2,3.6-3.7,5.4-5.5c0.8-0.8,1.5-1.7,2.5-2.3c0.9-0.6,1.6-1.4,2.2-2.3
		c0.4-0.6,0.8-1.2,1.3-1.8c0.5-0.5,1.1-0.8,1.6-1.3c0.6-0.6,1.1-1.3,1.7-1.9c0.5-0.6,0.8-1.3,1.3-2s1.1-1,1.9-1.4
		c0.9-0.4,0.9-1,1.2-1.9c0.4-1,0.9-2.1,1.1-3.2c0.2-1.7,1-3.3,1.6-4.8c0.7-1.8,1-4,2-5.7c1.2-2.1,3.7-3.7,5.8-4.9c2-1,4-2.2,5.8-3.5
		c1.7-1.3,3-2.7,4.3-4.4c0.5-0.6,1.2-1.3,1.6-1.9c0.5-0.6,0.7-1.3,1.2-1.9c0.6-0.7,6.6-7,7.3-4.3c0.2,0.9-1,2.1-1.3,2.9
		c-0.9,2-2.7,3.3-3.9,5.1c-0.7,1-1.2,2.1-2,3.1c-0.7,0.9-1.7,1.7-2.5,2.5c-1.4,1.4-2.5,3.1-3.7,4.7C89,351.7,88.5,352.7,87.9,353.6z
		"/>
	<path d="M125.6,312.4c-0.9,0.6-1.7,1.3-2.5,2c-0.1,0-0.2,0-0.3,0.1c-1,0.5-2.1,1.4-2.8,2.4c-0.2-0.1-0.5-0.2-0.7,0
		c-0.6,0.7-1.3,1.3-1.9,2c0,0-0.1,0-0.1,0.1c-0.7,0.6-1.4,1.3-2.1,2c0-0.1,0-0.1,0.1-0.2c0.3-0.9-1.1-1.2-1.4-0.4
		c-0.4,1.1-1.9,3.2-2.5,4.9c-0.2,0.2-0.4,0.5-0.6,0.8c-0.1,0.1-0.1,0.3,0,0.4c-1.1,1.3-2,2.8-2.1,4.3c0,0.4,0.5,0.8,0.9,0.7
		c0.3-0.1,0.6-0.2,0.8-0.4c0.1,0,0.2,0,0.3,0c1.4-0.2,3-2.1,4-3.7c0.3,0.1,0.5,0.1,0.8-0.2c1.6-1.9,3.2-3.8,4.4-5.9
		c0.3-0.4,0.7-0.9,1-1.3c0.6-0.7-0.4-1.7-1-1.1c0.1-0.1,0.3-0.3,0.4-0.4c0.1,0,0.2,0,0.4-0.1l0,0c0.1,0,0.2,0,0.3,0
		c0.2,0.1,0.4,0.2,0.6,0c1.1-0.6,1.7-1.5,2.2-2.6c0.2-0.3,0.4-0.7,0.6-1.1c0-0.1,0-0.1,0.1-0.2c0.5-0.4,1-0.8,1.6-1.2
		C126.9,313,126.3,312,125.6,312.4z"/>
	<path d="M114.6,332.8c-0.1,0.3-0.3,0.3-0.6,0.4c-0.1,0-0.3,0-0.4,0.1c-0.7,0.4-1.3,1.1-1.5,1.9c-0.1,0.1-0.2,0.3-0.2,0.4
		c-0.5,0.3-0.9,1-0.6,1.6c0.2,0.3,0.4,0.4,0.6,0.3c0.2,0.1,0.4,0,0.5-0.1s0.1-0.1,0.2-0.2c0,0,0,0,0.1,0c0.6-0.3,1.1-0.9,1.3-1.6
		c0.3-0.3,0.5-0.7,0.6-1.1c0.1-0.1,0.3-0.2,0.4-0.2c0.6-0.2,0.9-0.7,0.9-1.3C115.8,332.3,114.8,332.2,114.6,332.8z"/>
	<path d="M118,328.3C117.9,328.4,117.9,328.4,118,328.3c-0.2,0-0.3,0-0.4,0c0,0,0,0-0.1,0s-0.2,0-0.3,0h-0.1c0,0-0.1,0-0.1,0.1
		c0,0-0.1,0-0.1,0.1c-0.3,0.2-0.5,0.5-0.7,0.8c-0.1,0.1-0.1,0.3-0.1,0.4c-0.3,0.2-0.6,0.5-0.8,0.8c-0.1,0.2-0.1,0.5,0,0.7
		c0,0.1-0.1,0.2-0.1,0.3c-0.1,0.4,0.4,0.7,0.7,0.6c0.2,0.2,0.6,0.2,0.8-0.1c0.2-0.3,0.2-0.7,0.4-1c0-0.1,0-0.1,0-0.2
		c0.1-0.1,0.2-0.2,0.2-0.3c0.1-0.2,0.4-0.4,0.6-0.6l0,0l0,0l0.1-0.1c0.1-0.1,0.1-0.2,0.2-0.3c0.1-0.1,0.3-0.2,0.4-0.3
		C119.2,328.6,118.5,327.8,118,328.3z"/>
	<path d="M119.8,325.5c-0.2,0.2-0.4,0.4-0.5,0.8c0,0.4,0.6,0.5,0.7,0.1c0-0.2,0.2-0.3,0.3-0.4C120.7,325.7,120.2,325.1,119.8,325.5z
		"/>
	<path d="M121.2,323.9L121.2,323.9c-0.6,0-0.6,0.7-0.1,0.7h0.1C121.6,324.6,121.6,323.9,121.2,323.9z"/>
	<path d="M121.7,323.4c-0.2,0.2-0.4,0.5-0.6,0.7l0,0c0,0,0,0-0.1,0c-0.1-0.1-0.3-0.1-0.4,0.1c0,0.1-0.1,0.1-0.1,0.1l0,0
		c-0.1,0-0.1,0.1-0.1,0.1c-0.2,0.2-0.3,0.3-0.5,0.5c-0.1,0.1-0.1,0.3-0.1,0.4c-0.1,0.2-0.1,0.3,0,0.5c0,0.1,0,0.2,0.1,0.3
		c0.2,0.3,0.6,0.4,0.9,0.1c0,0,0,0,0-0.1c0.1,0.1,0.3,0.1,0.5,0c0.3-0.1,0.6-0.6,0.5-1V325c0.1-0.1,0.1-0.1,0.2-0.2s0.1-0.1,0.1-0.2
		c0.2-0.3,0.4-0.5,0.6-0.8C123.1,323.4,122.2,322.9,121.7,323.4z"/>
	<path d="M122.9,321.7l-0.1,0.1c-0.3,0.3,0.2,0.9,0.5,0.5l0.1-0.1C123.8,321.9,123.2,321.4,122.9,321.7z"/>
	<path d="M116.7,334.4c0-0.5-0.2-1-0.4-1.4c-0.5-1-1.7-1.1-2.5-0.7c-0.3,0.1-0.5,0.3-0.6,0.6c-0.2,0-0.3,0.1-0.4,0.2
		c-1.5,0.6-2.7,1.6-3.2,3.3c-0.1,0.5-0.1,0.9,0.2,1.3c0,0,0,0.1-0.1,0.1c-0.1,0.2-0.1,0.5-0.3,0.7c-0.6,0.6,0,1.7,0.8,1.4
		c0.4-0.2,0.7-0.4,1-0.8c0.1-0.2,0.2-0.3,0.4-0.5c0.4,0,0.7-0.2,1-0.3c0.2,0,0.4,0,0.6-0.1c0.8-0.2,1.4-1,1.7-1.8
		c0.1-0.1,0.1-0.1,0.2-0.2C115.8,336.2,116.8,335.5,116.7,334.4z"/>
	<path d="M108.8,339.4v0.1c0.1,0.9,1.4,0.9,1.4,0v-0.1C110.3,338.5,108.8,338.5,108.8,339.4z"/>
	<path d="M108.3,340.1l-0.1,0.1c-0.7,0.6,0.4,1.7,1,1l0.1-0.1C109.9,340.4,109,339.5,108.3,340.1z"/>
	<path d="M106.4,342.2c0,0.1-0.1,0.1-0.1,0.2c-0.3,0.7,0.8,1.1,1.2,0.5c0-0.1,0.1-0.1,0.1-0.2C108.2,341.9,106.8,341.2,106.4,342.2z
		"/>
	<path d="M105.8,343c-0.1,0.1-0.1,0.1-0.1,0.2c-0.1,0-0.3,0-0.4,0.1c-0.4,0.2-0.5,0.5-0.6,0.8c0,0,0,0,0,0.1
		c-0.1,0.2-0.3,0.3-0.4,0.5c-0.2,0.2-0.3,0.4-0.4,0.6c0,0.1-0.1,0.2-0.1,0.3s0,0.1,0,0.1c-0.4,0.5,0,1.3,0.6,1.1
		c0.4-0.1,0.8-0.6,1-1s0.7-0.7,1-1.1c0.1-0.1,0.2-0.3,0.2-0.4c0.1-0.1,0.1-0.2,0.2-0.3C107.2,343.3,106.4,342.5,105.8,343z"/>
	<path d="M103,346.5c0,0.1,0,0.1,0,0.2c0,0.5,0.4,0.7,0.7,0.7c0.4,0,0.8-0.2,0.7-0.7c0-0.1,0-0.1,0-0.2
		C104.6,345.5,102.9,345.5,103,346.5z"/>
	<path d="M100.6,349.4c-0.3,0.3-0.5,0.8-0.7,1.2c-0.1,0.2-0.2,0.4-0.3,0.6c-0.1,0.2-0.3,0.5-0.2,0.7c0.4,0.1,0.8-0.7,1.2-0.7
		c0.2,0,0.3,0.1,0.4-0.1c0.1-0.1,0.2-0.5,0.3-0.6c0.1-0.1,0.2-0.4,0.2-0.6s-0.2-0.2-0.3-0.3c-0.1-0.1-0.1-0.2-0.2-0.2
		C100.7,349.2,100.5,349.1,100.6,349.4z"/>
	<path d="M107.1,357.7c0.7-0.7,1.3-1.4,2.1-1.9c0.8-0.5,1.6-0.7,2.4-1.3c1.7-1.2,3.1-2.4,4.6-3.9c1.4-1.4,3-2.6,4.6-3.7
		s2.7-2,3.6-3.9c0.8-1.7,1.4-3.1,2.7-4.5c0.9-1,1.6-1.9,2.1-3.2c0.5-1.2,0.7-2.4,1.4-3.6c0.6-1.1,2-2.3,2.1-3.5
		c-1.1-0.4-2.1,1.2-3,1.5c1-1.5,1.9-2.6,3.5-3.5c1-0.5,1.5-1.5,2.5-2.1c1.8-1.2,3.7-2.3,5.1-3.8c0.2-0.2,0.4-0.5,0.6-0.7
		c0.2-0.3,0.4-0.5,0.6-0.8c0.2-0.2,0.3-0.2,0.5-0.4c0.3-0.2,0.7-0.4,1-0.7s0.3-0.5,0.4-0.8c0.1-0.5,0.6-0.8,0.9-1.3
		c0.1-0.1,0.1-0.3,0.1-0.4c0.1-0.2,0.1-0.2,0.2-0.4c0.1-0.2,0.2-0.4,0.3-0.6c0.1-0.3,0.2-0.5,0.3-0.8c0.2-0.4,0.5-0.5,0.8-0.8
		c0.7-0.6,1.2-1.1,1.5-2c0.2-0.7,0.7-1.2,1.2-1.7c0.2-0.2,0.3-0.5,0.4-0.7c0.2-0.3,0.5-0.6,0.7-0.9c0.9-0.9,1.9-1.5,2.8-2.5
		c1.2-1.2,2.5-2.4,3.7-3.6c1.5-1.5,2.8-3.3,4.4-4.7c1.6-1.5,3.4-3,4.8-4.8c0.4-0.5,0.9-1,1.4-1.5s1-1,1.6-1.3
		c0.2-0.1,0.4-0.2,0.6-0.3c0.3-0.2,0.5-0.5,0.7-0.7c0.5-0.5,0.9-0.9,1.4-1.3c0.3-0.3,0.7-0.4,1.1-0.6c0.5-0.4,1-0.6,1.5-1
		c0.8-0.7,1.5-1.7,2.4-2.4c0.3-0.2,0.5-0.3,0.8-0.4c0.4-0.2,0.7-0.5,1.1-0.7c0.2-0.1,2-1.1,1.6-1.4c-0.2-0.2-1,0.3-1.2,0.4
		c-0.3,0.2-0.6,0.4-0.9,0.6c-0.3,0.2-0.6,0.4-0.9,0.6c-0.3,0.1-0.7,0.2-1,0.2c-0.3,0.1-0.6,0.3-0.9,0.4c-0.1,0-0.4,0.1-0.5,0.2
		c-0.5,0.3-1,0.8-1.5,1c-0.4,0.2-0.9,0.3-1.3,0.5c-0.3,0.2-0.6,0.4-0.9,0.5c-0.7,0.3-1.4,0.6-2.1,0.9c-0.3,0.1-0.7,0.1-1,0.2
		c-0.2,0.1-0.5,0.2-0.7,0.4c-0.3,0.2-0.7,0.5-1,0.8c-0.4,0.4-0.7,0.8-1.2,1.2c-0.2,0.2-0.6,0.5-0.9,0.6c-0.3,0.1-0.4,0.1-0.7,0.3
		c-0.4,0.3-0.7,0.6-1,0.9s-0.6,0.5-0.8,0.9c-0.1,0.3-0.1,0.6-0.4,0.8c-0.3,0.4-0.6,0.7-1,1c-0.2,0.2-0.4,0.3-0.5,0.5
		s-0.1,0.4-0.1,0.6c-0.1,0.2-0.2,0.4-0.4,0.6c-0.3,0.6-0.5,1.2-0.9,1.7c-0.5,0.7-0.8,1.4-1.4,2c-0.4,0.5-0.9,0.7-1.4,1.1
		c-0.7,0.5-1.2,1.1-1.8,1.7c-1.3,1.2-2.6,2.5-4.2,3.3c-2.4,1.3-4.6,3.4-6.2,5.6c-0.8,1-1.5,2.1-2.6,2.8c-0.6,0.4-1.3,0.8-1.9,1.2
		c-0.4,0.3-0.6,0.6-1.1,0.3c0.1-1.4,2.1-2.4,1.5-3.9c-0.7-0.1-2.3,1.8-2.7,2.4c-0.6,0.9-1.1,1.9-1.7,2.8c-0.7,1.2-1.3,2.4-2,3.6
		c-0.6,1-0.9,2.2-1.6,3.1c-0.8,1.2-1.6,2.4-2.4,3.5c-0.9,1.2-1.9,2.5-2.5,3.8s-1.1,2.2-1.9,3.4c-0.2,0.3-0.9,1.3-0.7,1.6
		c0.2,0.5,1.1,0.5,1.5,0.2c0.3,1-1.3,3.3-1.7,4.2c-0.3,0.7-0.2,1.2-0.4,1.9c-0.3,1-1,1.5-1.7,2.1c-0.6,0.5-1.2,1.1-1.8,1.6
		c-0.9,0.7-2,1.2-2.8,2c-1.2,1.1-1.7,2.5-3.2,3.3c-0.6,0.3-1.3,0.6-1.9,1c-0.4,0.1-0.6,0.2-0.9,0.5c-0.4,0.2-0.8,0.3-1.2,0.4
		c-0.8,0.4-1.4,1.7-2,2.3c-0.6,0.7-1.3,1.3-2,2c-0.8,0.8-1.7,1.8-2.4,2.8c-0.8,1.3-1.3,2.5-2,3.9c0.2-0.2,0.3-0.5,0.5-0.7
		c0.5-0.5,1-0.5,1.5-0.8c0.6-0.3,1.2-0.7,1.7-1.1s0.9-1,1.4-1.4C107.2,358.1,106.4,358.3,107.1,357.7z"/>
	<path d="M205.9,250.9c2.8-2.9,5.2-6.2,8.2-9c0.9-0.8,1.9-1.8,2.6-2.8c0.8-1.2,2.1-2,3.2-2.9c1.5-1.3,2.8-1.5,4.7-1.6
		c2.8-0.1,4-3.6,5.9-5.2c1-0.8,2.3-1.5,3-2.6c0.4-0.7,1-1.7,1.1-2.5c0.2-0.9,0.1-1.5,0.6-2.3c0.5-0.7,0.9-1.4,1.3-2.1
		c0.7-1.2,1.4-2.2,2.5-3.1c0.9-0.8,1.8-1.5,2.5-2.4c0.6-0.7,1-1.5,1.5-2.3s1.2-1.5,1.8-2.3c0.5-0.8,0.7-1.8,1.2-2.6
		c0.5-0.9,1-1.8,1.6-2.7c0.8-1.3,1.9-2,2.9-3.1c1.4-1.4,2.7-2.8,4-4.2c1.1-1.2,1.9-2.8,2.7-4.3c0.4-0.8,0.6-1.9,0-2.7
		c0.2-0.7,1.2-1.3,1.7-1.8c0.8-0.8,1.5-1.5,2.1-2.4c1-1.5,2-3.5,3.6-4.5c0.8-0.5,1.7-1.2,2.5-1.8c0.5-0.4,0.9-0.9,1.4-1.3
		c0.6-0.5,1-1.1,1.5-1.7c0.8-0.9,1.4-1.6,1.8-2.7c0.3-1,0.5-1.8,1.1-2.7c0.5-0.9,0.7-1.9,1.4-2.6c0.9-1,1.5-2,2.2-3.1
		c0.8-1.1,1.6-2.1,2.5-3.1c0.9-0.9,1.8-1.5,2.5-2.6c0.9-1.5,1.6-3,2.3-4.6c0.4-0.8,1-1.3,1.5-2c0.7-1,1.1-2.5,1.2-3.7
		c0.1-1.6,0.2-3.5,1.2-4.8c1-1.2,2-2.6,2.7-4.1c0.4-0.8,0.8-1.6,1.2-2.4c0.6-1.2,1.5-2.2,2.1-3.3c0.5-0.9,0.7-1.8,1-2.7
		c0.3-1.2,0.9-2.1,1.5-3.2c0.3-0.7,0.4-1.4,0.9-2c0.4-0.6,1.1-1,1.5-1.6c0.5-0.6,0.9-1.3,1.4-1.9c0.3-0.3,0.5-0.6,0.7-0.9
		c0.4-0.5,0.7-0.8,1.1-1.2c0.6-0.6,0.8-1.3,1.3-2c0.2-0.3,0.4-0.5,0.7-0.7c0.3-0.3,0.6-0.9,0.9-1.2c0.3-0.3,0.7-0.5,0.9,0
		c0.2,0.6-0.5,1.4-0.8,1.7c-1.2,1.3-1.2,2.8-1.5,4.5c-0.2,0.9-0.2,1.2-0.7,1.9c-0.6,0.8-1.1,1.6-1.5,2.5c-0.3,0.7-0.7,1.3-1.2,1.9
		c-0.2,0.3-0.5,0.6-0.9,0.9c-0.5,0.5-0.6,1.1-1,1.6c-0.7,1-2.2,2.1-1.7,3.6c1,0.1,1.9-0.9,2.6-1.5c1.2-1,2.2-2.2,3.3-3.3
		c1.4-1.3,2.4-2.8,3.1-4.6c0.6-1.5,1.1-3.1,2.8-3.7c1.5-0.5,2.6-0.7,3.9-1.8c1.5-1.3,3.2-2.8,5-3.5c1.2-0.5,2.4-1,3.7-1.3
		c1.5-0.4,2.7-0.9,4-1.7c1.2-0.8,2.7-1.3,4-2s2.3-1.2,3.5-2.2c0.5-0.4,2.1-1.5,2.8-1c1.4,1-1.4,2.7-2.1,3c-2.7,1.2-5.4,2.4-7.9,3.9
		c-0.8,0.5-1.7,0.9-2.4,1.5c-0.6,0.5-1.1,1-1.7,1.5c-2,1.6-4.1,2.9-6.1,4.4c-0.9,0.7-1.6,1.5-2.3,2.3c-0.9,1-2.1,1.8-3.1,2.8
		c-2.5,2.5-4.8,5.4-7,8.2c-3.2,4-6.4,8.3-9,12.8c-1.8,3.2-3.9,6.4-4.8,10c-0.4,1.7-0.3,3.3-0.9,5c-0.8,2.1-2,4-3.3,5.8
		c-2.1,2.8-3.7,5.6-6,8.4c-1.4,1.7-1.7,3.3-4,3.8c-0.8-0.1-1.5-0.1-2.3,0.1c-1,0.4-1.8,1.1-2.2,2.1c-2.5,2.2-4.9,3.8-6.7,6.7
		c-2.3,3.7-4.8,7.3-7.5,10.8c-3.5,4.5-6.9,9.9-9.3,15c-2.9,6.3-5.9,13.8-11.2,18.3c-3.9,3.3-9.2,5.2-12.8,8.8
		c-1.6,1.7-2.8,4.3-4,6.3c-1.5,2.5-3,4.4-4.8,6.7c-1.4,1.9-2.3,4-4,5.8c-2.5,2.6-5.1,5-8.1,7c-3.1,2-5.5,4.4-8.1,7
		c-1.5,1.5-2.5,3.5-4,4.9c-0.6-2.2-0.5-6.2,0.6-8c0.8-1.3,1.8-2.3,2.5-3.7c0.8-1.6,0.5-6.1,2.7-6c1.4-2.6,2.8-5.7,4.8-7.9
		c0.6-0.7,1.4-1.2,2-1.9c1-1.1,1.5-2.5,2.4-3.5C204.8,251.7,205.4,251.4,205.9,250.9z"/>
	<path fill="#86B817" d="M185,499.9c-0.3,0.1-0.5,0.2-0.8,0.4C184.5,500.2,184.8,500,185,499.9"/>
	<path fill="#86B817" d="M176.8,475.4c-0.5,0.4-1,0.8-1.5,1.2c-1.4,1.2-2.7,2.6-4.1,3.8c-2.1,1.8-4.6,4.4-6,7c-2.1,4,2.2,4,4.5,6.3
		c1.8,1.8,5.3,5.6,7.8,2.3c-1.4-0.1-4.7-2.2-4.4-4c0.2-1,3.6-2.9,4.1-3.7c0.6-0.9,0.2-1.3,0.5-2c0.6-1.6,1.1-1.8,2.3-3
		c2.5-2.4,6.6-3.2,8.9-5.5c2.1-2.1,3-4.1,5.9-5.5c2.9-1.5,6.1-2.7,9.1-4c2.6-1,5.3-1.7,8.1-2c3.1-0.4,5.8-1.6,8.8-2.2
		c1.9-0.4,4.1-0.3,5.6-1.7c1-1,1.4-2.2,2.7-2.9c1.2-0.6,3-0.7,4.3-0.9c2.2-0.5,5.8,0,7.8-1c1-0.5,2.6-1.4,1.4-2.9
		c-1.2-1.6-5.1,0.8-6.7,0.9c-2.9,0.2-5.9-0.3-8.8-0.2c-1.4,0.1-3.5,0-4.8,0.4c-0.7,0.3-1.3,0.7-2,1c-0.5-0.1-1-0.3-1.5-0.4
		c-2,0.1-4.3,0.2-6.3,0.4c-0.3,0-0.5,0.1-0.8,0.2c0-0.2-0.1-0.4-0.3-0.3c-0.4,0.1-1,0.2-1.4,0.2s-0.3-0.3-0.6-0.4
		c-0.5-0.3-1.6,0.4-2.2,0.5c-0.5,0-0.9,0.1-1.4,0.1c0,0.1-0.1,0.2-0.3,0.2c-1.3,0.3-2.6,0.5-3.9,0.8c-1,0.3-2.2,0.5-3.1,1.1
		c-0.9,0.6-2.1,1.2-3.2,1.1c-0.4,0-0.8-0.2-1.3-0.2c-0.7,0-1.4,0.2-2,0.4c-0.6,0.3-1.2,0.7-2,0.9c-0.7,0.1-1.3,0.1-1.9,0.5
		c-0.4,0.3-0.8,0.7-1.2,1.1c-0.5,0.5-1.2,0.9-1.7,1.4c-0.5,0.4-0.8,0.3-1.4,0.4c-0.5,0.1-1.1,0.4-1.5,0.6c-0.8,0.4-1.5,0.8-2.2,1.2
		c-1.2,0.5-2.6,0.5-3.6,1.4c-0.4,0.4-0.9,1-1,1.5s0.3,0.7,0.6,0.9c0.8,0.4,1.6,0.2,2.5,0.3c0.6,0,2.2,0.6,2.3,1.3
		c-0.1,0-0.3,0.1-0.4,0.1c0.2,0.3,0.7,0.3,0.8,0.7c0.1,0.5-0.4,1.1-0.8,1.3c-0.4,0.2-0.9,0.3-1.3,0.5c-0.7,0.4-1.6,0.6-2.3,1
		C177,475.2,176.9,475.3,176.8,475.4z"/>
	<path fill="#86B817" d="M392.4,355.9c-3.7,1.7-7.1,4-10.9,5.4c-1.1,0.4-2.4,1-3.2,1.7c-1,0.8-2.1,1.1-3.1,1.6
		c-1.1,0.7-1.7,0.6-2.4,0.3c-0.8-0.3-2.2,3-3.6,4.2c-0.7,0.6-1.6,1-2.9,1.9c-0.8,0.5-2.2,1.3-3.3,2.1c-1.3,0.8-2,1.4-3.4,2.2
		c-1.2,0.7-2.3,1.4-3.1,2.3c-1.3,1.4-2,2.7-3,3.6c-0.8,0.8-1.6,1.4-2.5,2.2c-0.7,0.6-1.3,1.3-2.1,1.8c-0.8,0.6-1.7,1-2.6,1.6
		c-0.8,0.6-1.5,1.4-2.4,2c-0.9,0.7-1.8,1.3-2.7,1.8c-1.3,0.8-2.6,1.2-3.9,1.7c-1.9,0.5-3.9,1-5.8,1.6c-1.7,0.6-3.2,1.9-4.5,3.2
		c-0.7,0.7-1.3,1.8-1.2,2.4c-0.5,0.6-1.5,1.2-2.1,1.6c-0.9,0.6-1.9,1.1-2.9,1.6c-1.7,0.8-3.7,1.4-6,1.1c-1.2-0.1-2.5-0.4-3.7-0.5
		c-0.8-0.1-1.5-0.2-2.3-0.3c-1-0.1-1.7,0-2.5,0.1c-1.2,0.1-2.2,0.3-3.1,1.1c-0.7,0.7-1.2,1.4-2,2s-1.4,1.5-2.3,1.9
		c-1.1,0.6-2.1,1.4-3.2,2.1c-1.1,0.8-2.2,1.4-3.5,2c-1.2,0.5-2.2,0.7-3.3,1.6c-1.3,1.1-2.6,2.3-3.8,3.5c-0.7,0.6-1.4,0.8-2.1,1.3
		c-1,0.7-1.9,1.9-2.4,3c-0.7,1.5-1.4,3.2-2.8,4.1c-1.3,0.8-2.8,1.8-4,2.8c-0.7,0.6-1.3,1.3-2,1.8c-1,0.8-2.2,1.5-3.2,2.3
		c-0.7,0.6-1.3,1.4-1.9,2.2c-0.7,1-1.6,1.6-2.5,2.4c-0.6,0.5-0.9,1.2-1.5,1.6s-1.4,0.6-2,0.9c-0.7,0.4-1.3,0.9-2,1.3
		c-0.3,0.2-0.7,0.4-0.9,0.6c-0.5,0.3-1,0.4-1.5,0.7c-0.7,0.4-1.2,0.9-1.9,1.4c-0.3,0.2-0.6,0.3-0.9,0.4c-0.4,0.2-0.9,0.6-1.3,0.8
		c-0.4,0.2-0.8,0.2-0.8-0.3c0-0.6,1-1.1,1.4-1.3c1.6-0.8,2.1-2.2,3-3.6c0.5-0.7,0.6-1.1,1.3-1.6c0.8-0.6,1.6-1.1,2.3-1.8
		c0.5-0.6,1.1-1,1.8-1.4c0.4-0.2,0.7-0.4,1.1-0.5c0.6-0.3,1-0.8,1.5-1.1c1-0.7,2.8-1.2,2.9-2.7c-0.9-0.4-2.1,0.1-2.9,0.4
		c-1.5,0.5-2.8,1.3-4.3,1.9c-1.8,0.7-3.3,1.8-4.5,3.2c-1.1,1.2-2.2,2.5-3.9,2.5c-1.6,0-2.7-0.3-4.3,0.3c-1.9,0.7-3.9,1.4-5.9,1.5
		c-1.3,0-2.6,0-3.9-0.1c-1.5-0.2-2.8-0.1-4.3,0.1c-1.4,0.3-3,0.2-4.4,0.4c-1.5,0.2-2.6,0.3-4,0.8c-0.6,0.2-2.5,0.7-2.9,0
		c-0.9-1.4,2.3-2,3-2.1c2.9-0.2,5.9-0.3,8.8-0.8c0.9-0.2,1.9-0.3,2.8-0.5c0.7-0.2,1.4-0.6,2.1-0.8c2.4-0.7,4.9-1.2,7.3-2
		c1.1-0.3,2-0.8,3-1.4c1.2-0.6,2.6-1,3.9-1.5c3.3-1.4,6.4-3.3,9.5-5.2c4.4-2.6,9-5.5,13-8.7c2.8-2.3,5.9-4.6,8.1-7.6
		c1-1.4,1.4-3,2.6-4.4c1.5-1.7,3.3-3,5.2-4.2c3-1.9,5.5-3.9,8.6-5.7c1.9-1,2.9-2.2,5.6-1.1c0.8,0.7,1.7,1.4,2.7,1.9
		c1.4,0.6,2.7,0.9,3.8,0.7c4.2,0.8,7.6,1.1,10-1.9c3.7-3.1,7.7-5.6,12.3-6.4c5.6-1.5,10.6-6.4,13.5-13.4c8.9-6,19.5-11.6,21.4-15.4
		c1.4-2.8,3.6-3.6,6.6-5.9c1.9-1,3.9-3,5.7-4.5c2.3-1.8,4.4-3,6.8-4.6c2-1.3,3.6-3,5.8-4c3.2-1.6,6.5-2.9,10-3.7
		c3.6-0.8,6.7-2.1,10.1-3.7c1.9-0.9,3.6-2.4,5.5-3.2c-0.2,2.3-1.7,6-3.4,7.3c-1.2,0.9-2.5,1.5-3.7,2.6c-1.3,1.2-2.7,5.5-4.7,4.6
		c-2.3,1.9-4.7,4.3-7.3,5.7c-0.8,0.4-1.7,0.6-2.6,1c-1.3,0.6-2.2,1.8-3.5,2.4C393.6,355.5,393,355.6,392.4,355.9z"/>
	<path d="M340.4,106.2c-0.1,0-0.1-0.1-0.2-0.1c-0.3,0.1-0.6,0.2-0.8,0.5c-0.3,0.3-0.5,1,0,1.3c0.2,0,0.5-0.1,0.7-0.2
		c0.3-0.1,0.6-0.2,1-0.2s0.7,0,1-0.2c1.1-0.5,2.2-1.3,3.3-1.8c0.8-0.4,1.5-0.8,2.4-1.1c1.4-0.5,2.6-1.3,3.9-2c1.1-0.6,2.2-1,3.2-1.8
		c1.1-0.8,2.2-1.6,3.3-2.5c0.5-0.4,1.1-0.9,1.6-1.4c0.5-0.6,1-1.2,1.4-1.9c1-1.4,2.1-2.6,3-4.1c0.3-0.6,0.5-1.2,0.8-1.8
		c0.3-0.8,0.9-1.5,1.5-2.3c0.5-0.8,1.1-1.5,1.7-2.2c0.5-0.7,1.2-1.6,1.5-2.4c-0.2-0.4-2.2,0.7-2.5,0.9c-0.8,0.6-1,1.1-1.4,2
		c-0.4,0.8-0.7,1.5-1.4,2.1c-0.4,0.3-1.4,1.1-1.8,1.1c-0.2-0.4,0.4-0.8,0.2-1.2c-0.2,0-0.3,0-0.4,0.2c-0.4,0.2-0.8,0.2-1.1,0.5
		c-0.6,0.4-1,1-1.4,1.7c-0.5,1-1.2,1.9-1.6,2.9c-0.4,0.9-0.9,2-1.5,2.8c-0.2,0.3-0.5,0.4-0.8,0.7c-0.2,0.2-0.4,0.5-0.7,0.8
		c-0.7,0.7-1.3,1.3-1.9,2.1s-1.5,2-2.6,2.2s-2.3,0.6-3.3,1.1c-0.8,0.4-1.6,0.9-2.3,1.6c-0.4,0.4-0.7,0.9-1.1,1.3
		c-0.2,0.1-0.5,0.2-0.7,0.3c-0.3,0.2-0.5,0.3-0.9,0.4C341.4,105.3,340.8,105.7,340.4,106.2z"/>
	<path d="M331.2,188.5c-2-0.5-2.9,1.6-4,3"/>
	<path fill="#F5AF02" d="M176.9,426c0.3-0.3,0.5-0.6,0.5-1.1c0-0.3,0-0.5-0.1-0.8c0.1-1-0.2-2-1-2.7c-0.6-0.5-1.3-0.7-2-0.3
		c-0.9,0.5-1.8,1.5-2.2,2.5c-1.1,0.5-1.8,1.6-1.9,2.8c-0.2,1.4,1.4,2.1,2.5,1.7c0.1,0.2,0.3,0.3,0.5,0.5c0.5,0.4,1.1,0.5,1.6,0.3
		c0.2,0.1,0.4,0.1,0.6,0.1h0.1c0.1,0,0.1,0.1,0.2,0.1c0.4,0.1,0.7-0.1,0.9-0.4c0.6-0.5,0.9-1.5,0.7-2.3
		C177,426.2,177,426.1,176.9,426z"/>
	<path fill="#F5AF02" d="M171.2,426.6c-0.7,0.7-1.4,1.7-2.4,2c-0.8,0.3-1.6,0.7-1.8,1.6s1.1,1.3,1.4,0.4c0.2-0.6,1.2-0.8,1.7-1
		c0.9-0.3,1.5-1.3,2.1-2C173,427,171.9,425.9,171.2,426.6z"/>
	<path fill="#F5AF02" d="M165.2,432.6c-0.2,0.2-0.4,0.4-0.7,0.7c-0.7,0.7,0.4,1.8,1.1,1.1c0.2-0.2,0.4-0.4,0.7-0.7
		C167,433,165.9,431.9,165.2,432.6z"/>
	<path fill="#F5AF02" d="M164.8,433.3c-0.4,0.2-0.9,0.4-1.3,0.7c-0.7,0.4-0.1,1.4,0.6,1.1c0.4-0.2,0.9-0.4,1.3-0.7
		C166.1,434,165.5,432.9,164.8,433.3z"/>
	<path fill="#F5AF02" d="M161.8,435.9c-0.8,0-0.8,1.3,0,1.3S162.6,435.9,161.8,435.9z"/>
	<path fill="#F5AF02" d="M151.3,437.8c-0.4,0.3-0.7,0.6-1,1c-0.3-0.3-0.8-0.4-1.2-0.2c-1,0.6-2.3,0.9-3.3,1.6s-0.5,2.5,0.9,2.1
		c0.9-0.3,1.9-0.8,2.7-1.4c0.3,0.5,1.1,0.6,1.5,0.1c0.5-0.6,0.9-1.3,1.4-1.9C153,438.4,152.1,437.2,151.3,437.8z"/>
	<path fill="#F5AF02" d="M150.7,443.1c0.1-0.6,0-1.3-0.4-1.9s-1.2-0.9-1.9-0.6c-0.4-0.5-1.4-0.4-1.4,0.5c0,0.2,0,0.3,0,0.5
		c-0.1,0.1-0.1,0.1-0.2,0.2c-1.3,0-2.6,0.7-2.9,2c-0.1,0.3-0.1,0.5-0.1,0.7l0,0c-1.5,0.5-2.5,1.2-3.4,2.5c-1,1.5,1.2,3.1,2.4,1.9
		c1-1,2.5-1.3,3.8-1.9c0.6,0.2,1.2,0.1,1.8-0.4c0.1-0.1,0.3-0.2,0.4-0.4C150.2,445.8,151.2,444.5,150.7,443.1z"/>
	<path fill="#F5AF02" d="M137.1,450.9c-1.2,0-1.2,1.9,0,1.9S138.3,450.9,137.1,450.9z"/>
	<path fill="#F5AF02" d="M130.4,453.7c-1,0-1,1.5,0,1.5C131.4,455.3,131.4,453.7,130.4,453.7z"/>
	<path fill="#F5AF02" d="M116.7,458.1c-0.3-0.7-0.8-1.2-1.6-1.3c-0.3,0-0.7,0.1-1.2,0.2c0-0.1,0-0.1,0-0.2c-0.2-0.7-0.3-0.9-0.8-1.4
		c-0.4-0.5-1.2-0.3-1.6,0.2c-0.2,0.3-0.4,0.6-0.6,0.9c-0.2,0-0.3,0.1-0.4,0.2c-1.3,0.5-2.4,1.9-2.9,3.3c-1.8,0.6-3.6,2.9-4.8,4.4
		c-0.4,0.3-0.7,0.8-1,1.2c-1,1.5,0.8,3,2.2,2.5c0.4,0,0.9-0.3,1.1-0.8c0.3-0.3,0.6-0.6,0.9-0.9c0.2-0.2,0.4-0.5,0.5-0.8
		c0-0.1,0.1-0.1,0.1-0.2c0.4-0.5,0.9-1,1.3-1.4c0.2-0.2,0.3-0.3,0.4-0.4c0.2,0.1,0.4,0.1,0.5,0.1s0.1,0.1,0.2,0.1
		c0.1,0.1,0.2,0.3,0.3,0.4c1.4,1.4,4-0.2,5.2-1.2C116.1,461.9,117.5,460,116.7,458.1z"/>
	<path fill="#F5AF02" d="M94.4,470.2L94.4,470.2c-0.3-0.1-0.5-0.1-0.7-0.1c-1.4,0.2-1.4,2,0,2.1c0.2,0,0.4,0,0.6-0.1h0.1
		C95.7,472,95.7,470.3,94.4,470.2z"/>
	<path fill="#F5AF02" d="M219.6,375.4c-3,1-4.8,3.8-8,4.9c-2.2,0.7-4.3,1.2-6.4,2c0.1-1.1-1.4-2.1-2.5-1.2c-0.6,0.5-1.1,0.9-1.7,1.3
		c-2,0.7-3.6,2.3-5,3.8c-4.7,3.2-9.6,6.6-11.9,11.3c-0.2,0.4-0.2,0.8,0,1.2c-1.9,1.9-4.2,3.8-6.2,5.1c-0.5,0.3-0.9,0.7-1.4,1
		c0.1-1-1.3-1.8-2.2-1c-2.4,2-4.7,2.6-7.4,4.2c-3.8,2.3-5.1,5.3-8.1,8.4c-0.7,0.8,0.4,2,1.2,1.2c2.7-2.8,4.5-5.7,8-7.7
		c0.7-0.4,1.4-0.7,2.1-0.9c0,0.1,0,0.2,0.1,0.2c-0.4,0.7-0.8,1.5-1.2,2.3c-0.7,1.4,0.8,3.2,2.3,2.3c4-2.4,7.3-5.8,11.1-8.5
		c2.1-1.5,4.5-3.9,6.2-6.1c0.5,0.5,1.3,0.7,1.9,0.3c0.9-0.6,1.2-0.9,1.6-1.9c0.1-0.2,0.1-0.5,0-0.7l0,0c5.5-3.2,11.5-6,14.9-11.7
		c0.1,0,0.2-0.1,0.3-0.1c2.6-1,5.2-2.2,7.8-3.3c2.1-0.9,3.4-3.4,5.5-4.1C221.6,377.2,221,374.9,219.6,375.4z"/>
	<path fill="#F5AF02" d="M228.7,369c-0.9,0.6-1.5,1.5-2.3,2.2c-0.4,0.3-0.7,0.3-1.2,0.4c-0.6,0.1-1,0.4-1.4,0.8
		c-0.8,0.9,0.5,2.3,1.3,1.3c0.3-0.3,0.5-0.3,0.9-0.3c0.5-0.1,0.9-0.2,1.4-0.5c0.9-0.6,1.4-1.7,2.2-2.4
		C230.6,369.9,229.7,368.4,228.7,369z"/>
	<path fill="#F5AF02" d="M234.7,365.2c-0.6-0.1-1.5-0.4-2,0.1c-0.7,0.8-0.4,1.9-1,2.6c-0.3-0.8-1.2-1.3-2.2-0.9
		c-0.2,0.1-0.4,0.2-0.6,0.4c-1.7,1-3,2.5-4,4.2c-0.5,0.9-0.4,2.2-1.4,2.7c-0.9,0.4-1.1,1.2-1.1,2.1c-0.1,1.3,1.5,1.7,2.3,1
		c1.1-1,1.9-1.4,2.5-2.9v-0.1c0,0.1,0,0.2,0,0.3c0.1,0.5,0.7,0.9,1.2,0.9c2.5,0,3.9-2,3-4.4c0-0.1,0-0.1,0-0.2
		c0.2-0.2,0.4-0.4,0.5-0.6c0.1-0.1,0.1-0.2,0.2-0.3c0.5-0.4,1-0.9,1.2-1.2c0.2-0.4,0.3-0.8,0.4-1.3c0.1-0.9-0.2-1.2,0.6-1.2
		C235.3,366.6,235.5,365.3,234.7,365.2z"/>
	<path fill="#F5AF02" d="M218.5,379.5c-0.6,0-1.1,0.2-1.6,0.6c-0.2,0.1-0.3,0.3-0.4,0.4c-0.1,0.1-0.1,0.2-0.2,0.2l-0.1,0.1
		c-1.4,0.5-0.6,2.5,0.8,1.9c0.4-0.2,0.7-0.5,1-0.8c0.1-0.1,0.2-0.3,0.3-0.4l0,0c0,0,0,0,0.1,0C219.8,381.5,219.8,379.6,218.5,379.5z
		"/>
	<path fill="#F5AF02" d="M215.6,380.9c-1.3,0.3-2.6,0.9-3.9,1.1c-0.3,0-0.7,0-1,0.1c-1,0.1-1.3,1.2-0.9,1.8c-1,0.2-2,0.8-2.7,1.5
		c-0.3,0.3-0.4,0.6-0.3,1c-0.4,0.1-0.7,0.2-1.1,0.3c-1.5,0.3-1.1,2.5,0.3,2.6c2.3,0.1,4.5-1.2,6-2.9c1.4-0.6,2.6-1.5,2.5-2.9
		c0.6-0.2,1.1-0.4,1.7-0.6C217.4,382.5,216.8,380.6,215.6,380.9z"/>
	<path fill="#F5AF02" d="M210.6,382.3c-0.4,0.1-0.5,0.2-0.5,0.3c0,0,0,0-0.1-0.1c-0.3-0.3-0.7-0.3-1.1-0.4c-0.6-0.1-1.1,0.1-1.6,0.3
		c-1.4-0.3-3.5,0.2-4.2,1.3c-0.8,1.3-0.2,2,0.8,2.3c-0.3,0.2-0.7,0.4-1.1,0.7c-0.4,0.3-0.6,0.8-0.3,1.3c0,0.1,0.1,0.1,0.1,0.2
		c0.1,0.2,0.3,0.4,0.5,0.4c-0.6,0.5-1.2,0.9-1.9,0.6c-1.8-0.6-2.3,0.3-2.5,1.5c-1.8,0.7-3,1.7-4.9,2.6c-1.2,0.6-2,1.6-3.2,2.2
		c-1.4,0.7-2.7,1.4-4.1,2.1c-0.7-0.8-2.2-0.8-2.6,0.5c-0.1,0.4-1.2,1-1.6,1.5c-1.5,0.6-2.6,1.6-4,2.8c-1.2,1,0.4,3,1.7,2.2
		c1.2-0.8,2.4-1.9,3.7-2.4c0.1,0,0.2,0,0.3-0.1c0.1,0,0.2-0.1,0.3-0.1c0.7-0.3,1-0.8,1-1.3c0.1,0,0.1-0.1,0.2-0.1
		c1.9,0.8,4.6-1.3,6.6-2.7c2.9-2,5-4.1,8.1-5.3c0.5-0.2,0.8-0.6,0.9-1.1c0,0,0,0,0-0.1c0.1,0,0.1,0.1,0.2,0.1
		c1.1,0.4,2.5-0.3,3.4-0.8c1.4-0.8,1.7-2.7,3.1-3.7c1.3-0.9,3.2-1.5,4.2-2.8C212.5,383.4,211.9,382,210.6,382.3z"/>
	<path fill="#F5AF02" d="M171.4,408.9c-0.2-0.7-0.8-0.9-1.5-0.8c-1,0.1-2,0.7-2.9,1.1c-1.3,0.2-2.6,0.9-2.2,2.5
		c0.2,0.9,1.2,1.3,2,1.3c1.1,0,2-0.8,2.5-1.7c0.1-0.1,0.1-0.3,0.1-0.4c0.4-0.2,0.7-0.3,1.1-0.4C171.2,410.3,171.6,409.5,171.4,408.9
		z"/>
	<g>
		<path fill="#F5AF02" d="M188.3,401.4c0.1,0.1,0.2,0.1,0.2,0.2c0,0,0-0.1-0.1-0.1c-0.1-0.2-0.3-0.4-0.5-0.6
			c-0.5-0.3-0.9-0.3-1.4-0.2c-0.4,0.1-0.9,0.5-1.2,1l0,0c-0.1,0-0.2,0-0.2,0c-0.8,0.1-0.7,1.2-0.2,1.5c0,0.1,0.1,0.2,0.1,0.4
			c0.4,0.8,1.4,0.6,1.8,0c0.1,0,0.3-0.1,0.4-0.1l0,0l0,0l0,0c0.3,0,0.5,0.1,0.8-0.1C188.9,403.1,189.1,402,188.3,401.4z"/>
		<path fill="#F5AF02" d="M188.5,401.6L188.5,401.6L188.5,401.6z"/>
	</g>
	<path fill="#F5AF02" d="M193.6,398.4c-1.2-0.7-2.8-0.4-3.4,0.9c-0.1,0.2-0.1,0.3-0.1,0.5c-0.1,0.1-0.2,0.1-0.3,0.2
		c-0.7,0.1-1.3,0.4-1.7,1c-1.4,0.4-2.4,1.6-3.7,2.3c-0.4-0.3-1-0.4-1.4-0.1c-2.6,1.9-5.4,3.4-8.1,5.2c-2.3,1.6-3,0.6-4.6,1.6
		c-0.3,0.2-3,3.2-3.5,2.2c-0.3-0.6-1.2-0.8-1.7-0.5c-0.2,0-0.3,0-0.5,0c-0.3-0.4-1.1-0.5-1.5-0.2c-1.8,1.1-2.6,3.1-4.9,2.5
		c-1.2-0.3-3.3,1.2-4.4,2.3c-0.2,0.1-0.4,0.2-0.7,0.3c-1.5,0.4-0.9,2.7,0.6,2.3h0.1c0.4,0.1,0.8,0,1.1-0.3c0,0,2.9-1.8,2.8-1.8
		c0.7,0.5,3.1,0.2,3.7-0.3c0.6-0.5,2.2-2.2,1.9-2.4c0.7,0.4,1.3,0.5,1.9,0.3c1.6,1.6,4.3-0.1,5.8-1.6c1.2-1.2,4.5-1.5,6.1-2.6
		c2.1-1.4,4.2-2.5,6.2-3.9c0.2,0.1,0.5,0.1,0.8,0c1.1-0.3,1.2-0.3,2-1c0.9-0.7,1.7-2.9,2-1.5c0.3,1.1,1.8,1.3,2.4,0.3
		c0.5-0.9,0.8-1.7,0.7-2.6c0.4-0.4,0.9-0.8,1.3-1.2c0.1-0.1,0.2-0.1,0.3-0.2C194,400.2,194.4,398.9,193.6,398.4z"/>
	<path fill="#F5AF02" d="M151.6,417.9c-0.3-0.1-0.5,0-0.7,0.1c-0.2-0.2-0.4-0.2-0.7-0.2c-0.5,0.1-0.8,0.4-1,0.8
		c-0.3,0.5,0.1,1.3,0.7,1.3c0.2,0,0.3-0.1,0.4-0.1c0.1,0,0.1,0,0.2,0c0.3,0,0.6-0.1,0.8-0.3c0.1-0.1,0.2-0.2,0.2-0.3l0,0
		c0.2,0,0.5-0.3,0.5-0.5c0-0.1,0-0.1,0-0.2C152.1,418.2,151.9,417.9,151.6,417.9z"/>
	<path fill="#F5AF02" d="M151.2,414.4c-0.6,0.6-1.7,1.1-2.6,0.8c-0.8-0.3-1-0.8-2-0.8c-0.6,0-1.8,0.1-1.4-0.9
		c0.3-0.8,1.5-0.9,2.3-0.9c0.3,0,0.6,0.1,0.9,0c0.4-0.1,0.7-0.4,1.1-0.5c0.4-0.1,0.6-0.1,0.9-0.3c0.2-0.1,0.7-0.6,0.9-0.6
		c0.5-0.1,0.8,0,0.8,0.5c-0.1,0.2-0.2,0.4-0.3,0.6c0,0.2,0.1,0.3,0.3,0.3c0.1,0.5,0.1,0.7-0.1,1.1
		C151.7,414.2,151.1,413.9,151.2,414.4z"/>
	<path fill="#F5AF02" d="M156.9,409c0.4,0.1,0.5-0.2,0.8-0.4c0.6-0.3,1.2-0.4,1.8-0.7c0.7-0.4,1.7-1.1,2.2-1.8
		c0.3-0.3,0.6-0.5,0.9-0.8c0.3-0.4,0.4-1,0.6-1.4c0.3-0.5,0.6-1.1,1.1-1.4c0.5-0.4,1.3-0.5,1.8-0.9c1.3-0.8,2.3-2.2,3.4-3.2
		c0.4-0.3,0.7-0.6,1-0.9c0.2-0.3,0.2-1,0.7-1.2c0.6-0.2,0.8,0.3,0.9,0.8c0.1,0.7-0.2,1-0.6,1.4c-0.4,0.5-0.7,1-1.1,1.4
		c-0.4,0.5-0.7,0.8-0.9,1.4c-0.2,0.5-0.2,0.4,0,0.8c-0.3,0.3-0.3,0.6-0.5,0.9c-0.3,0.3-0.8,0.7-1.2,0.9c-0.7,0.5-1.4,0.8-2.2,1.2
		c-0.8,0.4-1.6,1.1-2.4,1.6c-0.4,0.3-0.7,0.6-1.1,0.9c-0.3,0.2-0.7,0.2-1.1,0.4c-0.8,0.4-1.3,1.2-2.1,1.7c-0.6,0.3-1.3,0.6-2,0.6
		c-0.3,0-1.5,0.5-1.5,0C155.5,409.7,156.6,408.9,156.9,409z"/>
	<path fill="#F5AF02" d="M138.9,409.5c-0.7,0-1.6-0.4-2.3-0.3c-0.6,0.1-1,0.5-1.7,0.6c-0.6,0-1.1,0-1.7,0c-1,0-2.4-0.1-3.4-0.6
		c-1-0.4-1.7-1-2.8-1.2c-2.6-0.4-5.4-0.6-8,0.1c-1.1,0.3-2.3,0.6-3.4,1c-0.8,0.3-2.1,1.1-2.6,1.8c0.4,0.9,3.4,0.1,4-0.1
		c1.3-0.4,2.7-0.2,4,0c0.7,0.1,1.4,0.1,2.1,0.3c0.6,0.2,1.2,0.5,1.7,0.6c0.6,0.1,1.3,0,1.9,0c0.8,0,1.3,0.4,2,0.5
		c1.1,0.2,2.4,0.1,3.5,0.1c0.4,0,0.9,0.1,1.4,0c0.7-0.1,1.3-0.6,1.9-0.8c1.1-0.4,2.2-0.6,3.2-1.2c0.4-0.2,1.6-0.6,1.7-1.1
		C140,409.3,139.5,409.5,138.9,409.5z"/>
	<path fill="#F5AF02" d="M371.9,385.2c2.1-1.7,4.2-3.7,6.5-5.1c3-2,6.4-3.6,9.5-5.5c2.6-1.6,5.7-4.3,8.7-5.2
		c1.3-0.4,2.4-0.1,3.6-0.7c2-0.9,3.6-2.9,5.3-4.2c2.8-2.3,5.6-4.5,8.6-6.5c1-0.7,3.3-2.8,4.7-2.7c0.9,2.8-2.7,6.3-4.3,8.2
		c-3.2,3.9-6.8,7-10.8,9.9c-3,2.1-5.6,4.5-8.6,6.6c-3.1,2.2-6.4,3.9-9.4,6.2c-3,2.4-5.4,5.2-8.7,7.1c-2,1.2-4.2,3-6.5,3.7
		c-2.4,0.8-4.8,0.9-7.2,1.9c-3.1,1.3-6.3,2.4-9.5,3.5c-2.6,0.9-4.9,1.7-7.2,3.1c-2.1,1.4-3.9,3.1-6.2,4.2c-3.6,1.9-7,4.1-10.6,5.9
		c-1.5,0.8-3.1,1.9-4.8,2.2c-1.7,0.4-3.4-0.2-5-0.2c-2.8-0.1-6.8-0.6-9.5,0.1c-2.5,0.6-4.5,2.3-6.6,3.4c-1,0.5-1.6,0.4-2.7,0.5
		c-0.8,0.1-2.8,1-3.4,0.6c-2.7-1.5,1.5-4.8,2.7-5.3c1.5-0.6,3-1.4,4.5-2c2.3-0.9,4.4-0.2,6.8-0.7c2.5-0.5,4.5-2.3,6.9-3.3
		c2.7-1.2,5.8-1.7,8.6-2.6c4.4-1.4,8.2-4.1,12.5-5.9c3-1.3,5.2-3.7,8-5.5c1.6-1,3-1.7,4.2-3.1c0.6-0.7,2.7-3.2,2.6-4.1
		c-3.4-0.8-5.7,2.5-8.6,4c-1.2,0.7-2.2,1.7-3.4,2.4c-1.2,0.8-2.6,1.1-4,1.6c-2.1,0.8-4.4,1.7-6.7,1c-2-0.6-4.4-2.1-6-3.2
		c-1.7-1.2-2.4-2.8-4.7-3.2c-1.5-0.3-6.7,1.7-7.3-0.1c-1-2.9,4.9-4.3,6.6-4.6c2-0.4,4,0.5,6.1,0.5c4,0,7.9-0.6,11.7-2
		c1.6-0.6,3.3-1.5,5-1.9s3.6-0.1,5.3-0.1c2.3,0,4.5-0.3,6.7,0.7c1.2,0.5,2,1.2,3.3,1.3c1.5,0.2,3.2,0,4.7,0s3.2,0.2,4.7-0.2
		C369.8,385.9,369.8,385.2,371.9,385.2z"/>
	<path fill="#F5AF02" d="M299.6,425.3c-2.1,0.4-4.3,1.6-6.5,1.9c-0.2-0.3-0.6-0.5-0.9-0.5c0.1-0.1,0.2-0.2,0.2-0.4
		c0.3-0.6-0.4-1.4-1-1c-0.1,0.1-0.2,0.1-0.3,0.2c0-0.1,0-0.1,0-0.2c0-0.4-0.4-0.6-0.8-0.4c-0.1,0.1-0.1,0.1-0.2,0.2H290
		c-0.4-0.4-1-0.5-1.5,0c-0.4,0.3-0.7,0.7-1.1,1c-0.9,0.8-1.8,1.6-2.9,2.3s-0.4,2.5,0.9,2.2c0.4-0.1,0.7-0.2,1.1-0.4
		c0.1,0,0.3,0,0.5,0c0.2-0.1,0.4-0.1,0.7-0.2c0,0,0,0,0,0.1c-0.7,1.2,1,2.6,2,1.5c0.3-0.4,1.1-1.4,1.8-1.9c0.3,0.3,0.8,0.4,1.3,0.3
		c1.1-0.2,1.9-0.8,3-1.2c1.5-0.4,3-1,4.4-1.6C301.3,426.7,300.9,425,299.6,425.3z"/>
	<path fill="#F5AF02" d="M308.9,422.5c-0.1-0.5-0.6-0.6-1-0.6c-0.5,0.1-0.9,0.3-1.3,0.5c-0.2,0.1-0.3,0.2-0.5,0.4
		c-0.1,0.1-0.2,0.3-0.4,0.3c-0.7,0-0.7,1.2,0,1.1c0.7,0,0.9-0.4,1.3-0.8c0.1-0.1,0.3-0.2,0.5-0.3c0,0.5,0.6,0.9,1,0.5
		C308.8,423.3,309,423,308.9,422.5z"/>
	<path fill="#F5AF02" d="M302.4,425c-1,0.4-1.9,0.7-2.7,1.3c-1.5,1-2.7,1-4.4,1.4c-0.6,0.1-1.2,0.4-1.7,0.7c-0.2-0.2-0.6-0.4-1-0.2
		c-1.2,0.4-2,1.3-3.1,2c-0.7,0.4-1.5,0.7-2.2,0.9c-1.2,0.3-1,2.3,0.3,2.2c1.8-0.2,3.5-1.1,5-2.2c0.3,0.2,0.7,0.3,1.1,0.1
		c0.6-0.3,1-0.5,1.3-1.2c0.1-0.2,0.1-0.4,0.1-0.5c0.8-0.3,1.9-0.1,2.6-0.5c1.7-1,3.3-2.4,5.1-3.2C303.2,425.7,303,424.8,302.4,425z"
		/>
	<path fill="#F5AF02" d="M278.6,435.9c-0.2,0.1-0.5,0.2-0.7,0.3c-0.9,0.3-0.5,1.5,0.4,1.4c0.3,0,0.5-0.1,0.7-0.2
		C280,437.2,279.5,435.6,278.6,435.9z"/>
	<path fill="#F5AF02" d="M272.3,441.7c0-0.2-0.2-0.5-0.5-0.5c-0.5-0.4-1.3-0.3-1.6,0.3c0,0.1-0.1,0.1-0.1,0.2c-0.1,0-0.3,0-0.4,0
		c-0.8,0.2-1.4,0.9-1.9,1.6c-0.3,0.4-1.3,1.5-2.1,2c-0.3-0.4-0.9-0.6-1.4-0.4c-0.3-0.4-0.8-0.6-1.3-0.3c-0.2,0.1-0.4,0.3-0.6,0.4
		c-0.3-0.4-0.9-0.5-1.3-0.2c-0.6,0.4-1.1,0.7-1.5,1.3c-0.5,0.8,0.5,1.8,1.3,1.3c0.1-0.1,0.2-0.1,0.3-0.2c0.2,0.2,0.4,0.3,0.7,0.4
		c0.5,0.1,0.8,0,1.1-0.3c0.2,0.1,0.4,0.2,0.6,0.2c0.1,0.1,0.2,0.3,0.4,0.4c1.4,0.9,2.6,0,3.8-1c0.6-0.4,1.2-0.9,1.7-1.5
		c0.1-0.1,0.2-0.2,0.3-0.4c0.4,0.1,0.8,0.1,1.2-0.3c0.2-0.1,0.3-0.3,0.4-0.4c0.2,0,0.5-0.1,0.6-0.3C273,443,272.8,442.2,272.3,441.7
		z"/>
	<path fill="#F5AF02" d="M439,296.2c-1,2.1-3.1,2.6-4.9,3.8c-0.8,0.6-1.5,1.2-2.1,1.9c-0.1-0.1-0.2-0.1-0.4-0.2
		c-0.4-0.2-0.8-0.2-1.2,0c-0.1,0.1-0.3,0.2-0.4,0.3c-3.4,1.4-7.5,4.4-9.3,7.4c-0.3,0.5-0.2,1.3,0.2,1.7c1.7,1.5,4.1,0.7,6.3-0.6l0,0
		c1.3-0.1,3.1-1.7,4.3-3.2c0.1-0.1,0.2-0.2,0.4-0.3l0,0c0.2-0.2,0.3-0.4,0.3-0.6c0.3-0.5,0.5-0.9,0.6-1.2c0.1-0.2,0-0.4-0.1-0.6
		c1.4-1.5,2.8-2.9,4.7-3.8c1.7-0.8,3.2-2,3.2-4C440.5,295.9,439.3,295.5,439,296.2z M425,308.6c0.5-0.5,1-0.9,1.5-1.4
		c0.1,0.1,0.1,0.1,0.2,0.2c-0.2,0.2-0.5,0.4-0.7,0.6C425.7,308.2,425.4,308.4,425,308.6z"/>
	<path fill="#F5AF02" d="M442,294.2v-0.1c-0.1-0.4-0.6-0.6-1-0.3c-0.2,0.2-0.3,0.4-0.3,0.7c-0.1,0.7,0.9,0.8,1.2,0.2
		C441.9,294.7,442,294.5,442,294.2z"/>
	<path fill="#F5AF02" d="M443.2,291c1.2-1.2-0.5-2.8-1.8-1.8s-0.8,2.1-0.7,3.1c-0.1,0.1-0.2,0.2-0.3,0.3c-0.7,0.1-1.4,0.5-1.6,1.3
		c-0.6,2.3-2,2.1-3.5,3.5c-3.6,3.2-9.6,5.2-12.1,9.5c-0.3,0.6,0,1.3,0.5,1.6c0,0,0,0,0,0.1c0.2,0.6,0.8,1,1.5,0.8
		c1.5-0.5,2.9-1.3,4.1-2.2c0.3,0.2,0.6,0.4,1.1,0.3c3.1-0.7,6.5-4,8.1-6.8c0.9-1.2,1.6-2.7,2.3-4.2c0.1-0.2,0.1-0.3,0-0.5l0,0
		c0.3,0,0.7-0.2,0.9-0.5c0.2-0.3,0.4-0.6,0.5-1c0.5-0.1,0.9-0.5,1-0.9C443.2,293.6,443.6,290.7,443.2,291z M426.9,306.1
		c1-1,2.2-1.8,3.5-2.6C429.3,304.4,428.2,305.3,426.9,306.1z M432.9,303.7c-0.1-0.6-0.7-1-1.3-0.9c1.7-1,3.4-1.9,4.7-3.1
		c0.6-0.5,1.2-0.8,1.9-1.2c-0.1,0.1-0.2,0.3-0.3,0.4c-0.2,0-0.4,0-0.6,0.2c-0.8,0.6-1.3,1.2-1.7,2.1
		C434.8,302.1,433.9,303,432.9,303.7z"/>
	<path fill="#F5AF02" d="M444.3,283.9c0.2-0.9-0.6-1.8-1.6-1.2c-0.8,0.5-1.5,1.3-1,2.3c0,0,0,0,0,0.1c-0.1,0.1-0.1,0.2-0.1,0.2
		c-0.3,0.6,0,1.3,0.7,1.3v0.1c0,0.3,0.2,0.5,0.4,0.8c0.5,0.5,1.2-0.2,0.7-0.7c-0.1-0.1-0.1-0.3,0-0.4c0.1,0,0.3,0,0.4-0.1
		c0.2-0.1,0.4-0.2,0.6-0.4C445.1,285.4,445,284.2,444.3,283.9z"/>
	<path fill="#F5AF02" d="M445.3,277.8c-0.1,0-0.1-0.1,0-0.1c0-0.8-1.2-0.8-1.2,0c0,0.4,0.1,0.7,0.4,1
		C444.9,279.3,445.8,278.4,445.3,277.8z"/>
	<path fill="#F5AF02" d="M446.6,274.7c-0.1-0.4-0.4-0.6-0.7-0.7c0-0.6-1-0.6-1,0l0,0c-0.1,0-0.3,0.1-0.4,0.2c-0.5,0.4-0.9,1-0.5,1.6
		c0.1,0.1,0.1,0.2,0.2,0.3c0.1,0.6,0.6,0.9,1.3,1c0.5,0.1,1-0.5,1-1c0-0.1,0-0.1,0-0.2l0.1-0.1C446.7,275.5,446.7,275.1,446.6,274.7
		z"/>
	<path fill="#F5AF02" d="M449.5,264.2c0-0.1-0.1-0.2-0.1-0.3c-0.5-0.8-1.8-0.8-2.2,0c0,0.1-0.1,0.2-0.1,0.2c-0.4,0-0.9,0.4-1.1,0.8
		c-0.3,0.6-0.5,1.3-0.5,2c0,0.9,0.9,1.5,1.8,1.5c0.6,0,0.8-0.6,0.6-1c0.3-0.1,0.5-0.2,0.6-0.5c0.1-0.1,0.1-0.3,0.2-0.4
		c0.3-0.1,0.6-0.2,0.8-0.5C449.9,265.4,449.9,264.7,449.5,264.2z"/>
</g>
<g>
	<path d="M373.2,460.2h-17.6c0,0.3,0,0.5,0,0.6c0,1.7,0.5,3.1,1.5,4.2c1,1.1,2.2,1.6,3.6,1.6c2.3,0,4.1-1.2,5.4-3.6l6.3,1
		c-1.2,2.5-2.9,4.4-4.9,5.7c-2,1.3-4.3,1.9-6.9,1.9c-3.5,0-6.3-1.1-8.5-3.3c-2.2-2.2-3.3-5.1-3.3-8.8c0-3.5,1-6.7,3-9.5
		c2.7-3.7,6.5-5.6,11.5-5.6c3.2,0,5.7,1,7.6,2.9c1.9,2,2.8,4.7,2.8,8.2C373.7,457.3,373.6,458.9,373.2,460.2z M367.3,455.9
		c0-0.3,0-0.5,0-0.7c0-1.9-0.4-3.4-1.3-4.3c-0.9-1-2-1.4-3.5-1.4c-1.4,0-2.7,0.5-3.9,1.6c-1.1,1.1-1.9,2.7-2.3,4.8H367.3z"/>
	<path d="M375.8,471l7.5-35.8h12.2c2.7,0,4.5,0.1,5.6,0.2c1.8,0.2,3.2,0.7,4.5,1.5s2.1,1.7,2.8,2.9s1,2.6,1,4.1c0,2-0.6,3.7-1.7,5.2
		c-1.1,1.5-2.8,2.6-5.1,3.3c1.8,0.5,3.3,1.4,4.3,2.7c1,1.3,1.6,2.8,1.6,4.4c0,2.1-0.6,4.2-1.8,6.1c-1.2,1.9-2.9,3.3-5.1,4.2
		c-2.1,0.8-5.1,1.3-8.8,1.3H375.8z M384.4,465.2h7.1c3,0,5-0.2,6-0.6c1-0.4,1.8-1,2.4-1.9c0.6-0.9,0.9-1.8,0.9-2.8
		c0-1.2-0.4-2.2-1.3-2.9c-0.9-0.8-2.3-1.2-4.4-1.2h-8.8L384.4,465.2z M387.6,449.7h5.6c2.5,0,4.3-0.2,5.4-0.5
		c1.1-0.4,1.9-0.9,2.5-1.8c0.6-0.8,0.8-1.7,0.8-2.6c0-0.9-0.3-1.7-0.8-2.2c-0.5-0.6-1.3-1-2.2-1.2c-0.5-0.1-1.8-0.1-3.9-0.1h-5.7
		L387.6,449.7z"/>
	<path d="M421.8,452.4l-6.8-0.6c0.8-2.3,2.1-4.1,4.1-5.4c1.9-1.3,4.5-2,7.7-2c3.3,0,5.8,0.7,7.4,2c1.6,1.3,2.4,3,2.4,4.9
		c0,0.8-0.1,1.6-0.2,2.5c-0.1,0.9-0.6,3.2-1.5,6.9c-0.7,3.1-1,5.3-1,6.5c0,1.1,0.2,2.3,0.6,3.7h-6.8c-0.3-0.9-0.4-1.9-0.5-2.9
		c-1,1.1-2.2,2-3.5,2.6c-1.3,0.6-2.7,0.9-4,0.9c-2.1,0-3.9-0.7-5.3-2.1c-1.4-1.4-2.1-3.2-2.1-5.4c0-2.5,0.8-4.5,2.3-5.9
		c1.5-1.5,4.3-2.4,8.2-2.7c3.3-0.3,5.6-0.6,6.7-1c0.3-1,0.4-1.8,0.4-2.3c0-0.7-0.3-1.4-0.9-1.9c-0.6-0.5-1.5-0.8-2.7-0.8
		c-1.3,0-2.2,0.3-3,0.8C422.6,450.7,422.1,451.5,421.8,452.4z M428.5,458.9c-0.4,0.1-1,0.2-1.7,0.3c-3.5,0.4-5.8,1-6.9,1.9
		c-0.8,0.6-1.1,1.4-1.1,2.4c0,0.8,0.3,1.5,0.9,2.1c0.6,0.6,1.4,0.8,2.3,0.8c1.1,0,2.1-0.3,3-0.8c0.9-0.5,1.6-1.2,2.1-2
		c0.5-0.8,0.9-2.1,1.2-3.8L428.5,458.9z"/>
	<path d="M441.9,445.1h7l1.8,12.9c0.4,3.3,0.7,5.6,0.7,7c0.9-2.7,2.2-5.5,3.8-8.4l6.2-11.5h7.4l-16,28.5c-1.3,2.4-2.4,4-3.1,5
		c-0.8,0.9-1.7,1.7-2.7,2.2c-1.1,0.5-2.3,0.8-3.8,0.8c-1.5,0-3.1-0.3-5-0.8l0.6-5.2c0.8,0.2,1.7,0.4,2.5,0.4c2.1,0,3.9-1.6,5.3-4.9
		L441.9,445.1z"/>
</g>
</svg>
