<?xml version="1.0" encoding="utf-8"?>
<!-- Generator: Adobe Illustrator 18.1.0, SVG Export Plug-In . SVG Version: 6.00 Build 0)  -->
<!DOCTYPE svg PUBLIC "-//W3C//DTD SVG 1.1//EN" "http://www.w3.org/Graphics/SVG/1.1/DTD/svg11.dtd">
<svg version="1.1" id="Layer_1" xmlns="http://www.w3.org/2000/svg" xmlns:xlink="http://www.w3.org/1999/xlink" x="0px" y="0px"
	 width="350px" height="470px" viewBox="-80 22 350 470" enable-background="new -80 22 350 470" xml:space="preserve">
<g>
	<rect x="-80" y="22" fill="#008080" width="350" height="350"/>
	<g>
		<path fill="#FFFFFF" d="M-25,239.5h18.4L28,298.8v-59.3h16.3v89.2H26.9L-8.6,268v60.7H-25V239.5z"/>
		<path fill="#FFFFFF" d="M76.7,323.8c-9.1-6.7-13.6-15.7-13.6-26.9c0-0.4,0-0.6,0-0.8s0-0.4,0-0.8c0-11.2,4.5-20.2,13.6-26.9
			c5.4-4,11.5-6,18.3-6s12.9,2,18.3,5.9l-9.5,13.2c-2.5-1.9-5.4-2.8-8.6-2.8s-6.1,0.9-8.6,2.8c-4.8,3.4-7.2,8.1-7.2,14.1
			c0,0.2,0,0.4,0,0.6s0,0.3,0,0.6c0,5.9,2.4,10.6,7.2,14.1c2.5,1.9,5.4,2.8,8.6,2.8s6.1-0.9,8.6-2.8l9.5,13.2
			c-5.4,3.9-11.5,5.9-18.3,5.9C88.2,329.8,82.1,327.8,76.7,323.8z"/>
		<path fill="#FFFFFF" d="M129.9,247c0-2.8,1-5.2,3-7.2s4.4-3,7.2-3s5.2,1,7.2,3s3,4.4,3,7.2s-1,5.2-3,7.2c-2,2-4.4,3-7.2,3
			s-5.2-1-7.2-3C130.9,252.2,129.9,249.8,129.9,247z M148.3,263.8H132v64.9h16.3V263.8z"/>
		<path fill="#FFFFFF" d="M180.6,323.8c-9.1-6.7-13.6-15.7-13.6-26.9c0-0.4,0-0.6,0-0.8s0-0.4,0-0.8c0-11.2,4.5-20.2,13.6-26.9
			c5.4-4,11.5-6,18.3-6s12.9,2,18.3,5.9l-9.5,13.2c-2.5-1.9-5.4-2.8-8.6-2.8c-3.2,0-6.1,0.9-8.6,2.8c-4.8,3.4-7.2,8.1-7.2,14.1
			c0,0.2,0,0.4,0,0.6s0,0.3,0,0.6c0,5.9,2.4,10.6,7.2,14.1c2.5,1.9,5.4,2.8,8.6,2.8c3.2,0,6.1-0.9,8.6-2.8l9.5,13.2
			c-5.4,3.9-11.5,5.9-18.3,5.9C192.1,329.8,186,327.8,180.6,323.8z"/>
	</g>
	<g>
		<path fill="#444444" d="M-19.1,444.6c3.6,2.5,7.5,4.1,11.8,4.7c1.1,0,2.1,0,3,0c1.7,0,3.4-0.2,5.1-0.6c1-0.2,1.9-0.8,2.5-1.6
			c0.3-0.5,0.5-1,0.5-1.7c0-1.5-0.7-2.4-2.2-2.7l0,0l-17.1-4c-2.9-0.7-5.3-2.3-7.1-4.8s-2.7-5.4-2.7-8.5c0-2.8,0.8-5.3,2.3-7.7
			c1.6-2.3,3.6-4,6.2-5.1c2.9-1.1,5.9-1.8,9-2c1.2,0,2.4,0,3.5,0c7.7,0,14.7,2.2,21,6.5l-7,10.2c-4.4-2.7-9.3-4.1-14.5-4.1
			c-0.8,0-1.7,0-2.6,0c-1.3,0-2.5,0.3-3.6,0.8c-0.9,0.5-1.3,1.2-1.3,2.2c0,1.2,0.5,1.9,1.6,2.3c0.3,0.1,0.7,0.3,1.2,0.4l16,3.6
			c3.2,0.7,5.7,2.4,7.7,5.1c2,2.6,3,5.6,3,8.9c0,3.8-1.3,7.1-3.8,9.8c-3.2,3.2-7,5-11.4,5.4c-2.3,0.3-4.5,0.5-6.7,0.5
			s-4.4-0.2-6.7-0.5c-5.4-0.7-10.3-2.7-14.7-6.1L-19.1,444.6z"/>
		<path fill="#444444" d="M28.5,423.4v-12.6h5.1v-12.5l12.6-6.1v18.7h6.3v12.6h-6.3V446c0,1.8,0.9,2.7,2.7,2.7c0.1,0,0.1,0,0.2,0h2
			v12.6h-9.2c-2.3,0-4.2-0.8-5.8-2.4s-2.4-3.5-2.4-5.8c0-0.2,0-0.3,0-0.3v-29.3h-5.2C28.5,423.5,28.5,423.4,28.5,423.4z"/>
		<path fill="#444444" d="M113.4,435.1c0,3.3-0.4,6.4-1.2,9.2c-1.8,6.3-5.6,11.2-11.3,14.7c-3.6,2.1-7.5,3.2-11.7,3.2h-1
			c-5.3,0-10.1-1.7-14.4-5.1s-7.2-7.6-8.7-12.8c-0.8-2.8-1.2-5.8-1.2-9.2c0-2.5,0.3-5,0.8-7.4c2-6.3,6-11.2,11.8-14.6
			c3.7-2.2,7.6-3.3,11.7-3.3h1c4.1,0,8,1.1,11.7,3.3c5.8,3.4,9.7,8.3,11.7,14.6C113.2,430.1,113.4,432.6,113.4,435.1z M100.8,435.9
			c0-1.9-0.3-3.6-0.8-5.1c-1-2.8-2.9-5.1-5.7-6.8c-1.7-1.1-3.5-1.6-5.4-1.6c-0.1,0-0.2,0-0.3,0s-0.2,0-0.3,0c-1.9,0-3.7,0.5-5.4,1.6
			c-2.8,1.7-4.7,4-5.7,6.8c-0.5,1.5-0.8,3.2-0.8,5.1s0.3,3.6,0.8,5.1c1,2.8,2.9,5.1,5.7,6.9c1.7,1.1,3.5,1.6,5.4,1.6h0.6
			c1.9,0,3.7-0.5,5.4-1.6c2.8-1.8,4.7-4.1,5.7-6.9C100.6,439.5,100.8,437.8,100.8,435.9z"/>
		<path fill="#444444" d="M125.1,410.8h12.5v3.7c4.4-2.8,9.1-4.1,14.3-4.1c1.6,0,3.3,0.1,4.9,0.4v13c-1.3-0.5-2.7-0.8-4.1-0.8H152
			c-2.5,0-4.9,0.7-7,2c-4.2,2.5-6.7,6.1-7.3,11v25.2h-12.5L125.1,410.8L125.1,410.8z"/>
		<path fill="#444444" d="M216.2,439.1H181c0.3,2.5,1.3,4.8,3,6.7c1.7,2,3.8,3.2,6.3,3.8c0.9,0.2,1.9,0.3,3.1,0.3
			c4,0,7.5-1.3,10.5-3.9l7.3,10.1c-5.3,4-11.3,6-17.9,6h-1.1c-5.1,0-9.6-1.5-13.6-4.4c-7-5.2-10.5-12.1-10.5-20.9c0-0.1,0-0.2,0-0.3
			c0-0.1,0-0.2,0-0.3s0-0.2,0-0.3c0-0.1,0-0.2,0-0.3c0-8.7,3.5-15.6,10.5-20.8c4-3,8.6-4.5,13.6-4.5s9.5,1.5,13.6,4.5
			c7,5.1,10.5,11.9,10.5,20.2v4.1L216.2,439.1L216.2,439.1z M202.8,430.9c-0.4-2.6-1.6-4.8-3.7-6.5c-2-1.7-4.4-2.6-7-2.6
			s-5,0.9-7,2.6s-3.3,3.9-3.7,6.5H202.8z"/>
	</g>
</g>
</svg>
