<?xml version="1.0" encoding="utf-8"?>
<!-- Generator: Adobe Illustrator 18.1.0, SVG Export Plug-In . SVG Version: 6.00 Build 0)  -->
<!DOCTYPE svg PUBLIC "-//W3C//DTD SVG 1.1//EN" "http://www.w3.org/Graphics/SVG/1.1/DTD/svg11.dtd">
<svg version="1.1" id="Layer_1" xmlns="http://www.w3.org/2000/svg" xmlns:xlink="http://www.w3.org/1999/xlink" x="0px" y="0px"
	 width="512px" height="512px" viewBox="0 0 512 512" enable-background="new 0 0 512 512" xml:space="preserve">
<path fill="#3366CC" d="M478.9,0H33C14.8,0,0,14.8,0,33v446c0,18.2,14.8,33,33,33h446c18.2,0,33-14.8,33-33V33
	C511.9,14.8,497.1,0,478.9,0z M340.1,493.2H171.8V340.1H18.7V171.8h153.1V18.7H340v153.1h153.1l0.1,168.2H340.1V493.2z"/>
<polygon opacity="0.2" fill="#FFCC00" enable-background="new    " points="340.2,493.3 171.8,493.3 171.8,340.2 18.7,340.2 
	18.7,171.8 171.8,171.8 171.8,18.7 340.1,18.7 340.1,171.8 493.2,171.8 493.3,340.2 340.2,340.2 "/>
<g>
	<path fill="#3366CC" d="M165.1,243c0-3.8-3.6-6.1-8-6.1c-5.5,0-8.7,2.4-8.7,6c0,3.8,3.6,5.6,6.3,6.5l10,3.2
		c7.3,2.3,12.4,6.5,12.4,15c0,6.7-4.8,16.7-19.9,16.7c-19,0-20.7-12.3-20.7-17.2l10.9-0.2c0,5.8,4.6,8.1,9.9,8.1
		c3.7,0,8.9-1.8,8.9-6c0-2.9-1.2-4.4-6.6-6.4l-11.9-4.3c-6-2.2-10.3-7.5-10.3-13.7c0-7,4.8-17,19-17c16.9,0,19.6,11.2,19.6,15.2
		L165.1,243z"/>
	<path fill="#3366CC" d="M197.8,238.4h-14.4v-9.7h39.7v9.7h-14.4v45h-10.9L197.8,238.4L197.8,238.4z"/>
	<path fill="#3366CC" d="M255.7,227.6c17,0,26.6,13.7,26.6,28.4c0,14.7-9.6,28.4-26.6,28.4s-26.6-13.7-26.6-28.4
		C229.1,241.3,238.7,227.6,255.7,227.6z M255.7,237.4c-10.2,0-15.3,8.8-15.3,18.6c0,9.8,5.1,18.6,15.3,18.6S271,265.8,271,256
		S265.9,237.4,255.7,237.4z"/>
	<path fill="#3366CC" d="M309.4,261.7H303v21.6h-11v-54.7h20.4c11.5,0,18,7.2,18,16.3c0,5.7-3.1,13.2-10.2,15.4l12.7,23.1h-13
		L309.4,261.7z M310.2,252.9c7.5,0,9.4-4,9.4-7.5c0-3.9-1.9-7.4-9.7-7.4H303v14.9H310.2z"/>
	<path fill="#3366CC" d="M340.6,228.6h34.9v9.7h-24v12.4h23.4v9.7h-23.4v13h24v9.7h-34.9V228.6z"/>
</g>
</svg>
