<?xml version="1.0" encoding="utf-8"?>
<!-- Generator: Adobe Illustrator 19.0.0, SVG Export Plug-In . SVG Version: 6.00 Build 0)  -->
<svg version="1.1" id="Layer_1" xmlns="http://www.w3.org/2000/svg" xmlns:xlink="http://www.w3.org/1999/xlink" x="0px" y="0px"
	 viewBox="-41 164.9 512 512" style="enable-background:new -41 164.9 512 512;" xml:space="preserve">
<style type="text/css">
	.st0{fill:#008080;}
	.st1{enable-background:new    ;}
	.st2{fill:#FFFFFF;}
</style>
<g>
	<rect x="-41" y="164.9" class="st0" width="512" height="512"/>
	<g class="st1">
		<path class="st2" d="M32.8,554.6l31.2,8.9c9.7,2.8,17,8.5,22,17.2c2.9,5.1,4.4,10.4,4.4,16.2s-1.5,11.2-4.4,16.2
			c-2.8,5.3-6.7,9.7-11.7,13s-10.5,5.2-16.5,5.5c-3.1,0.6-6.3,0.9-9.5,0.9c-17.5,0-32.2-6.5-44-19.4l15.6-14.4
			c7.7,8.4,17.1,12.5,28.4,12.5c2.4,0,4.8-0.3,7.1-0.9c5.6-0.1,9.6-2.7,11.9-7.7c1.2-1.7,1.7-3.5,1.7-5.7c0-1.9-0.5-3.7-1.5-5.4
			c-2.1-3.8-5.3-6.3-9.4-7.5v0.1l-30.9-9c-6.3-1.8-11.5-5.3-15.4-10.5s-5.9-11-5.9-17.5c0-6.6,2-12.5,6.1-17.9
			c6.4-8.1,14.7-13,24.9-14.7c3.5-0.7,7.1-1,10.8-1c15.1,0,28.3,5,39.8,14.9l-14,16c-7.4-6.4-16-9.6-25.8-9.6
			c-2.4,0-4.8,0.2-7.1,0.7c-4.9,0.8-8.7,3.1-11.7,6.8c-1.2,1.5-1.7,3.1-1.7,4.8C27.3,550.9,29.1,553.4,32.8,554.6z"/>
		<path class="st2" d="M108.3,567.5v-21.3h8.6v-21.1l21.3-10.3v31.5h10.6v21.3h-10.6v38c0,3,1.5,4.5,4.5,4.5c0.1,0,0.2,0,0.3,0h3.4
			v21.3h-15.6c-3.9,0-7.2-1.3-9.8-4c-2.7-2.7-4-5.9-4-9.8c0-0.3,0-0.5,0-0.6v-49.4h-8.7L108.3,567.5L108.3,567.5z"/>
		<path class="st2" d="M251.6,587.2c0,5.6-0.7,10.8-2,15.4c-3,10.7-9.4,18.9-19.1,24.8c-6.1,3.6-12.7,5.4-19.8,5.4H209
			c-8.9,0-17-2.8-24.3-8.5c-7.2-5.7-12.1-12.9-14.6-21.6c-1.4-4.7-2-9.8-2-15.4c0-4.2,0.4-8.4,1.3-12.5c3.4-10.7,10.1-18.9,20-24.6
			c6.2-3.7,12.8-5.5,19.7-5.5h1.6c6.9,0,13.5,1.8,19.8,5.5c9.8,5.7,16.4,13.9,19.8,24.6C251.1,578.9,251.6,583,251.6,587.2z
			 M230.3,588.7c0-3.2-0.4-6.1-1.3-8.6c-1.7-4.8-4.9-8.6-9.6-11.5c-2.8-1.8-5.8-2.8-9-2.8c-0.2,0-0.4,0-0.5,0s-0.3,0-0.5,0
			c-3.2,0-6.2,0.9-9,2.8c-4.7,2.9-7.9,6.8-9.6,11.5c-0.9,2.5-1.3,5.4-1.3,8.6s0.4,6.1,1.3,8.6c1.7,4.8,5,8.6,9.6,11.7
			c2.8,1.8,5.8,2.8,9,2.8h1c3.2,0,6.2-0.9,9-2.8c4.8-3,8-6.9,9.6-11.7C229.9,594.7,230.3,591.9,230.3,588.7z"/>
		<path class="st2" d="M271.3,546.3h21.1v6.3c7.4-4.7,15.4-7,24-7c2.7,0,5.5,0.2,8.3,0.7v22c-2.2-0.9-4.5-1.3-6.8-1.3h-1.3
			c-4.3,0-8.2,1.1-11.8,3.4c-7.1,4.2-11.2,10.3-12.4,18.5v42.6h-21.1L271.3,546.3L271.3,546.3z"/>
		<path class="st2" d="M425,593.9h-59.5c0.5,4.3,2.2,8.1,5,11.4c2.9,3.3,6.4,5.4,10.7,6.4c1.5,0.3,3.2,0.4,5.2,0.4
			c6.7,0,12.6-2.2,17.6-6.6l12.4,17c-8.9,6.8-19,10.2-30.2,10.2h-1.9c-8.5,0-16.2-2.5-23-7.4c-11.9-8.7-17.8-20.5-17.8-35.3
			c0-0.1,0-0.3,0-0.5s0-0.4,0-0.5s0-0.3,0-0.5s0-0.4,0-0.5c0-14.7,5.9-26.4,17.8-35.1c6.8-5,14.4-7.6,22.9-7.6s16.1,2.5,22.9,7.6
			c11.9,8.6,17.8,20,17.8,34.1v6.9L425,593.9L425,593.9z M402.4,580.2c-0.7-4.4-2.7-8-6.2-10.9s-7.4-4.4-11.9-4.4s-8.4,1.5-11.9,4.4
			c-3.4,2.9-5.5,6.6-6.2,10.9H402.4z"/>
	</g>
</g>
</svg>
