<?xml version="1.0" encoding="utf-8"?>
<!-- Generator: Adobe Illustrator 19.1.0, SVG Export Plug-In . SVG Version: 6.00 Build 0)  -->
<svg version="1.1" id="Layer_1" xmlns="http://www.w3.org/2000/svg" xmlns:xlink="http://www.w3.org/1999/xlink" x="0px" y="0px"
	 viewBox="-41 164.9 512 512" style="enable-background:new -41 164.9 512 512;" xml:space="preserve">
<style type="text/css">
	.st0{fill:#35465C;}
	.st1{fill:#FFFFFF;}
</style>
<rect x="-41" y="164.9" class="st0" width="512" height="512"/>
<g>
	<g>
		<path class="st1" d="M346.9,433.9c-4.5,0-8.1,3.6-8.1,7.9c0,4.4,3.6,7.9,8.1,7.9s8.1-3.6,8.1-7.9S351.4,433.9,346.9,433.9z
			 M302.5,438.4v-46.5h-4.9c0,0-8.1,2.9-14,3.6v8.8h3.7c1.2,0,1.7,0.5,1.7,1.6v32.6c0,1.1-0.7,1.8-1.8,1.8c-0.9,0.1-3,0.2-3,0.2v8.8
			h23.1v-8.8c0,0-2.1-0.1-3-0.2C303.2,440.2,302.5,439.6,302.5,438.4z M349.1,415.3c-0.5-9.8-13.7-10.3-20.7-3.6l-1.3-3.8h-16v9h3.4
			c1.2,0,1.6,0.5,1.6,1.6v19.9c0,1.1-0.7,1.8-1.8,1.8c-0.9,0.1-2.8,0.2-2.8,0.2v8.8h22.6v-8.8c0,0-1.9-0.1-2.8-0.2
			c-1.1-0.1-1.8-0.7-1.8-1.8v-13.5c0-2.5,0.6-6.8,5-7.8c0.6,4.2,4.6,5.5,6.6,5.5C346.3,422.6,349.1,418.8,349.1,415.3z M264,407.3
			c-3.4,0.1-7,1.5-9.7,3.7v-19.2h-4.8c0,0-7.9,2.8-14.1,3.6l-0.2,8.8h3.9c1.2,0,1.7,0.5,1.7,1.6v43.4h11.1l1.6-3.6
			c0.3,0.2,5.4,5,13.5,4c10.2-1.2,15.6-9.3,15.6-21.6C282.6,421.7,280.6,406.6,264,407.3z M261.9,439.7c-1.9,0.1-5.4-0.2-7.6-4.1
			v-5.8l0,0l0,0c0,0,0-4.2,0-6.7c0-2.9,2.7-5.4,6.8-5.6c4.2-0.2,7.9,2.7,7.9,10.7C269,439.1,264.2,439.5,261.9,439.7z M232.1,438.4
			c0,0,0-10.2,0-12.5c0-4.5-0.1-9.1-3-12.9c-2.7-3.5-7.2-6-14-5.7c-4.5,0.2-9.4,2.3-12,5.9l-0.4,0.5l-0.3-0.3c-2.7-4-7.1-6.5-14-6.2
			c-4.5,0.2-9.4,2.3-12,5.9l-0.4-5.4h-16.7v9l3.9,0.1c1.2,0,1.7,0.5,1.7,1.6V436v2.3c0,1.1-0.7,1.8-1.8,1.8
			c-0.9,0.1-2.8,0.2-2.8,0.2v8.8h22.6v-8.8c0,0-1.8-0.1-2.8-0.2c-1.1-0.1-1.8-0.7-1.8-1.8c0,0,0-11.2,0-13.5c0-2.2,1.9-6.9,7.8-6.9
			c4.8,0,5.7,2.9,5.7,6.3s0,14.1,0,14.1c0,1.1-0.7,1.8-1.8,1.8c-0.9,0.1-2.8,0.2-2.8,0.2v8.8h22.6v-8.8c0,0-1.8-0.1-2.8-0.2
			c-1.1-0.1-1.8-0.7-1.8-1.8l0,0c0,0,0-11.2,0-13.5c0-2.2,1.7-6.9,7.6-6.9c4.8,0,5.9,2.9,5.9,6.3V436v2.3c0,1.1-0.7,1.8-1.8,1.8
			c-0.9,0.1-2.8,0.2-2.8,0.2v8.8h22.6v-8.8c0,0-1.8-0.1-2.8-0.2C232.8,440.2,232.1,439.6,232.1,438.4z M151.9,438.5v-30.6H133v9h3.6
			c1.2,0,1.7,0.5,1.7,1.6v14c0,1.4-1,6.5-7.8,6.6c-4.7,0.1-5.7-2.7-5.7-6.3v-24.9H111v25.6c0,6.5,3,16.7,16.8,16.3
			c4.5-0.1,9.7-2.4,12.4-5.8l0.1,5.2h15.4v-8.8c0,0-1.2-0.1-2.2-0.2C152.5,440.3,151.9,439.7,151.9,438.5z M100.6,439.6
			c-4.6,0.1-5.5-3.2-5.5-5.5v-16.5h10.7V408H95.1v-14.2c0,0-8.3,0-8.4,0s-0.4,0.1-0.4,0.4c-0.5,4.4-2.6,12.1-11.3,15.1v8.2h6.6v17.4
			c0,6.3,3.9,15.2,16.4,15c4.2-0.1,8.9-1.8,9.9-3.3l-2.8-8C104.2,439.1,102.1,439.5,100.6,439.6z"/>
	</g>
</g>
</svg>
