<?xml version="1.0" encoding="utf-8"?>
<!-- Generator: Adobe Illustrator 18.1.0, SVG Export Plug-In . SVG Version: 6.00 Build 0)  -->
<!DOCTYPE svg PUBLIC "-//W3C//DTD SVG 1.1//EN" "http://www.w3.org/Graphics/SVG/1.1/DTD/svg11.dtd">
<svg version="1.1" id="Layer_1" xmlns="http://www.w3.org/2000/svg" xmlns:xlink="http://www.w3.org/1999/xlink" x="0px" y="0px"
	 width="512px" height="512px" viewBox="0 0 512 512" enable-background="new 0 0 512 512" xml:space="preserve">
<g>
	<path fill="#F58220" d="M180.7,197.8c0-5.2,2.1-9.9,5.6-13.3s8.2-5.5,13.4-5.5h54.9c10.5,0,19,8.5,19,18.9c0,5.2-2.1,10-5.6,13.4
		s-8.2,5.6-13.4,5.6h-54.9C189.2,216.8,180.7,208.2,180.7,197.8z"/>
	<path fill="#F58220" d="M330.2,311.2c0,5.1-2.1,9.9-5.5,13.3s-8.2,5.6-13.4,5.6H199.7c-10.5,0-19-8.6-19-18.9
		c0-5.2,2.1-9.9,5.6-13.4c3.4-3.4,8.2-5.5,13.4-5.5h111.6C321.7,292.3,330.2,300.8,330.2,311.2z"/>
	<path fill="#FFD1DE" d="M427.6-0.1h-343C38.2-0.1,0.1,38,0.1,84.4v343c0,46.5,38.1,84.5,84.5,84.5h343c46.5,0,84.5-38.1,84.5-84.5
		v-343C512.1,37.9,474-0.1,427.6-0.1z M411.3,312.7c-0.3,54.4-44.5,98.9-99,98.9H198.4c-54.5,0-99-44.5-99-98.9V197.1
		c0-54.5,44.5-99.2,99-99.2h69.3c25.6,3,62.8,24.9,76.5,54.1c3.8,8.2,5.8,9.4,8.9,33.6c1.7,12.5,2.5,21.7,8.1,26.8
		c7.9,7.1,37,2.3,42.8,6.8l4.4,3.5l2.6,5.5l0.9,4.4L411.3,312.7z"/>
	<path fill="#FFFFFF" d="M180.7,197.8c0-5.2,2.1-9.9,5.6-13.3s8.2-5.5,13.4-5.5h54.9c10.5,0,19,8.5,19,18.9c0,5.2-2.1,10-5.6,13.4
		s-8.2,5.6-13.4,5.6h-54.9C189.2,216.8,180.7,208.2,180.7,197.8z"/>
	<path fill="#FFFFFF" d="M330.2,311.2c0,5.1-2.1,9.9-5.5,13.3s-8.2,5.6-13.4,5.6H199.7c-10.5,0-19-8.6-19-18.9
		c0-5.2,2.1-9.9,5.6-13.4c3.4-3.4,8.2-5.5,13.4-5.5h111.6C321.7,292.3,330.2,300.8,330.2,311.2z"/>
	<path fill="#FFD1DE" d="M273.6,197.8c0,5.2-2.1,10-5.6,13.4s-8.2,5.6-13.4,5.6h-54.9c-10.5,0-19-8.6-19-19c0-5.2,2.1-9.9,5.6-13.3
		s8.2-5.5,13.4-5.5h54.9C265.1,178.9,273.6,187.4,273.6,197.8z"/>
	<path fill="#FFD1DE" d="M330.2,311.2c0,5.1-2.1,9.9-5.5,13.3s-8.2,5.6-13.4,5.6H199.7c-10.5,0-19-8.6-19-18.9
		c0-5.2,2.1-9.9,5.6-13.4c3.4-3.4,8.2-5.5,13.4-5.5h111.6C321.7,292.3,330.2,300.8,330.2,311.2z"/>
</g>
</svg>
