<?xml version="1.0" encoding="utf-8"?>
<!-- Generator: Adobe Illustrator 19.1.0, SVG Export Plug-In . SVG Version: 6.00 Build 0)  -->
<svg version="1.1" id="Background" xmlns="http://www.w3.org/2000/svg" xmlns:xlink="http://www.w3.org/1999/xlink" x="0px" y="0px"
	 viewBox="-41 164.9 512 512" style="enable-background:new -41 164.9 512 512;" xml:space="preserve">
<style type="text/css">
	.st0{fill:#D0D0D0;}
	.st1{fill:#3D5A98;}
	.st2{fill:#FFFFFF;}
</style>
<g id="Frame">
</g>
<g id="Text">
</g>
<g>
	<g>
		<path class="st0" d="M938.2,859.5h28.3v7.2h-20.1v11.2h16.3v7.1h-16.3v16.9h-8.2V859.5L938.2,859.5z"/>
		<path class="st0" d="M986.1,898.4c-2.2,2.7-5,4.6-8.8,4.6c-5.6,0-9.7-3.9-9.7-8.8c0-5.8,4.2-10.7,18.6-11.2v-0.7
			c0-4.2-1.8-6-6.3-6c-3.2,0-7.1,1.4-10.4,3.3l-1.6-6.3c3.1-1.9,8-3.7,13.1-3.7c9.7,0,13.4,4.3,13.2,12.9v11.2
			c0,2.4,0.4,2.7,2.8,2.9l-0.6,6.1c-6,0.7-8.8-1.2-9.9-4.3H986.1z M986.1,887.3c-7.8,1-10.7,2.5-10.7,5.8c0,2.4,1.8,4.1,4.7,4.1
			c2.5,0,4.6-1.2,6-2.7V887.3z"/>
		<path class="st0" d="M1015.6,903c-10.2,0-16.3-6.3-16.3-16.6c0-10.2,6.7-16.8,16.5-16.8c4.3,0,8,1,10.8,2.7l-1.7,6.5
			c-2.6-1.6-5.6-2.5-8.5-2.5c-5.8,0-8.9,3.9-8.9,10c0,6.4,3.6,10.1,8.9,10.1c3.3,0,6.3-0.9,8.7-2.4l1.3,6.5
			C1023.7,902.1,1019.8,903,1015.6,903z"/>
		<path class="st0" d="M1037.2,888.1c0.3,5.1,3.8,8.6,9.4,8.6c3.3,0,6.9-1.1,9.8-2.9l1,6.7c-3,1.6-7.1,2.6-11.4,2.6
			c-10.1,0-16.7-6.4-16.7-16.4c0-10.2,6.8-17,16.2-17c8.3,0,12.9,5,12.9,12.7c0,1.7-0.3,3.9-0.7,5.2c-0.1,0-20.5,0.3-20.5,0.3
			L1037.2,888.1L1037.2,888.1z M1050.9,883.1c0-0.1,0-0.5,0-0.5c0-4.2-1.8-6.9-6-6.9c-4.4,0-7.1,3.6-7.5,7.5L1050.9,883.1z"/>
		<path class="st0" d="M1078.9,903c-2,0-5-0.4-7-1.1l-7.7,1.2v-46.4l8-1.1c0,0,0,17.8,0,18.2c2.1-2,5-4,8.8-4
			c8.3,0,13.7,6.7,13.7,16.4C1094.7,896,1087.8,903,1078.9,903z M1078.7,876.4c-2.7,0-4.7,1-6.5,2.6c0-0.2,0,15.8,0,15.8
			c1.5,1.2,3.5,1.8,5.9,1.8c5.4,0,8.4-4.4,8.4-10.2C1086.5,880.3,1083.6,876.4,1078.7,876.4z"/>
		<path class="st0" d="M1114.3,903c-9.2,0-15.8-6.3-15.8-16.7c0-10.3,7-16.8,16.3-16.8c9.2,0,15.8,6.4,15.8,16.7
			C1130.6,896.6,1123.5,903,1114.3,903z M1114.5,876c-5.2,0-8.1,4.2-8.1,10.3c0,6,3,10.2,8.2,10.2s8-4.1,8-10.1
			C1122.6,880.3,1119.6,876,1114.5,876z"/>
		<path class="st0" d="M1150.3,903c-9.2,0-15.8-6.3-15.8-16.7c0-10.3,7-16.8,16.2-16.8s15.8,6.4,15.8,16.7
			C1166.6,896.6,1159.5,903,1150.3,903z M1150.5,876c-5.2,0-8.1,4.2-8.1,10.3c0,6,3,10.2,8.2,10.2s8-4.1,8-10.1
			C1158.6,880.3,1155.6,876,1150.5,876z"/>
		<path class="st0" d="M1180.1,886.9V902h-8v-45.4l8-1.1v29.1h0.1l11.2-13.9h9.6l-13,14.9l13.1,16.5h-9.6L1180.1,886.9L1180.1,886.9
			L1180.1,886.9L1180.1,886.9z"/>
	</g>
</g>
<path class="st0" d="M852.5,662.1v434.4h434.4V662.1H852.5z M1281,1090.6H858.3V667.9H1281V1090.6z"/>
<g>
	<g>
		<path class="st1" d="M443,164.9H-12.8c-15.6,0-28.2,12.6-28.2,28.2v455.4c0,15.6,12.6,28.2,28.2,28.2h455.6
			c15.6,0,28.2-12.6,28.2-28.2V193.1C471.2,177.5,458.6,164.9,443,164.9z"/>
		<path class="st2" d="M379,478.7l10-77.2h-76.6v-49.4c0-22.4,6.2-37.6,38.2-37.6h41v-69.2c-7-1-31.4-3-59.6-3
			c-59,0-99.4,36-99.4,102.2v57h-66.8v77.2h66.8v198.2h79.8V478.7L379,478.7L379,478.7z"/>
	</g>
</g>
</svg>
