<?xml version="1.0" encoding="utf-8"?>
<!-- Generator: Adobe Illustrator 18.1.0, SVG Export Plug-In . SVG Version: 6.00 Build 0)  -->
<!DOCTYPE svg PUBLIC "-//W3C//DTD SVG 1.1//EN" "http://www.w3.org/Graphics/SVG/1.1/DTD/svg11.dtd">
<svg version="1.1" id="Layer_1" xmlns="http://www.w3.org/2000/svg" xmlns:xlink="http://www.w3.org/1999/xlink" x="0px" y="0px"
	 width="512.1px" height="512px" viewBox="0 0 512.1 512" enable-background="new 0 0 512.1 512" xml:space="preserve">
<path fill="#D0D0D0" d="M512,97.3c-18.8,8.4-39.1,14-60.3,16.5c21.7-13,38.2-33.6,46.2-58.1c-20.3,12-42.8,20.8-66.7,25.5
	C412.2,60.7,385,48,354.7,48c-58,0-104.9,47-104.9,104.9c0,8.2,0.8,16.2,2.7,23.8C165.1,172.4,87.8,130.5,35.9,67
	c-9,15.5-14.2,33.6-14.2,52.8c0,36.4,18.5,68.6,46.7,87.4c-17.2-0.5-33.4-5.3-47.6-13.1c0,0.4,0,0.8,0,1.3c0,51,36.2,93.4,84.2,103
	c-8.8,2.4-18.2,3.8-27.7,3.8c-6.8,0-13.3-0.7-19.9-1.9c13.4,41.8,52.2,72.1,98,73c-35.9,28.2-81.2,45-130.5,45
	c-8.5,0-16.8-0.5-25.1-1.5C46.7,446.6,102,464,161.3,464c193.2,0,298.8-160.1,298.8-298.8c0-4.6-0.1-9.1-0.2-13.6
	C480.2,136.7,498,118.2,512,97.3z"/>
</svg>
