<?xml version="1.0" encoding="utf-8"?>
<!-- Generator: Adobe Illustrator 19.1.0, SVG Export Plug-In . SVG Version: 6.00 Build 0)  -->
<svg version="1.1" id="Layer_1" xmlns="http://www.w3.org/2000/svg" xmlns:xlink="http://www.w3.org/1999/xlink" x="0px" y="0px"
	 viewBox="-41 164.9 512.1 512" style="enable-background:new -41 164.9 512.1 512;" xml:space="preserve">
<style type="text/css">
	.st0{fill:#66757F;}
</style>
<path class="st0" d="M471,262.3c-18.8,8.4-39.2,14-60.4,16.6c21.8-13,38.2-33.6,46.2-58.2c-20.4,12-42.8,20.8-66.6,25.6
	c-19-20.6-46.2-33.2-76.6-33.2c-58,0-105,47-105,105c0,8.2,0.8,16.2,2.8,23.8C124.2,337.6,46.8,295.6-5,232.1
	c-9,15.4-14.2,33.6-14.2,52.8c0,36.4,18.6,68.6,46.6,87.4c-17.2-0.6-33.6-5.4-47.6-13.2c0,0.4,0,0.8,0,1.4c0,51,36.2,93.4,84.2,103
	c-8.8,2.4-18.2,3.8-27.6,3.8c-6.8,0-13.4-0.6-19.8-2c13.4,41.8,52.2,72.2,98,73c-36,28.4-81.2,45-130.5,45c-8.4,0-16.8-0.6-25-1.6
	c47,29.8,102.2,47.2,161.5,47.2c193.1,0,298.9-160.1,298.9-298.9c0-4.6-0.2-9.2-0.2-13.6C439.5,301.8,457.3,283.2,471,262.3z"/>
</svg>
