<?xml version="1.0" encoding="utf-8"?>
<!-- Generator: Adobe Illustrator 18.1.0, SVG Export Plug-In . SVG Version: 6.00 Build 0)  -->
<!DOCTYPE svg PUBLIC "-//W3C//DTD SVG 1.1//EN" "http://www.w3.org/Graphics/SVG/1.1/DTD/svg11.dtd">
<svg version="1.1" id="Layer_1" xmlns="http://www.w3.org/2000/svg" xmlns:xlink="http://www.w3.org/1999/xlink" x="0px" y="0px"
	 width="512px" height="512px" viewBox="0 0 512 512" enable-background="new 0 0 512 512" xml:space="preserve">
<path fill="#008080" d="M452.6,216.7h-44.5c3.2,12.6,5.2,25.7,5.2,39.3c0,86.9-70.4,157.3-157.3,157.3S98.7,342.9,98.7,256
	c0-13.6,1.9-26.7,5.2-39.3H59.4V433c0,10.8,8.8,19.6,19.7,19.6h353.8c10.9,0,19.7-8.8,19.7-19.6V216.7z M452.6,79.1
	c0-10.9-8.8-19.7-19.7-19.7h-59c-10.9,0-19.7,8.8-19.7,19.7v59c0,10.9,8.8,19.7,19.7,19.7h59c10.9,0,19.7-8.8,19.7-19.7V79.1z
	 M256,157.7c-54.3,0-98.3,44-98.3,98.3s44,98.3,98.3,98.3s98.3-44,98.3-98.3S310.3,157.7,256,157.7 M452.6,511.6H59.4
	c-32.6,0-59-26.4-59-59V59.4c0-32.6,26.4-59,59-59h393.2c32.6,0,59,26.4,59,59v393.2C511.6,485.2,485.2,511.6,452.6,511.6"/>
</svg>
