<?xml version="1.0" encoding="utf-8"?>
<!-- Generator: Adobe Illustrator 18.1.0, SVG Export Plug-In . SVG Version: 6.00 Build 0)  -->
<!DOCTYPE svg PUBLIC "-//W3C//DTD SVG 1.1//EN" "http://www.w3.org/Graphics/SVG/1.1/DTD/svg11.dtd">
<svg version="1.1" id="Layer_1" xmlns="http://www.w3.org/2000/svg" xmlns:xlink="http://www.w3.org/1999/xlink" x="0px" y="0px"
	 width="512px" height="512px" viewBox="0 0 512 512" enable-background="new 0 0 512 512" xml:space="preserve">
<g>
	<path fill="#D0D0D0" d="M8.4,170h106.1v341.3H8.4V170z M61.4,0.4c33.9,0,61.4,27.5,61.4,61.4s-27.5,61.4-61.4,61.4S0,95.7,0,61.8
		S27.5,0.4,61.4,0.4"/>
	<path fill="#D0D0D0" d="M181,170h101.8v46.6h1.4c14.1-26.9,48.7-55.1,100.5-55.1c107.4,0,127.3,70.7,127.3,162.7v187.2H405.9V345.5
		c0-39.6-0.7-90.5-55.1-90.5c-55.1,0-63.7,43.2-63.7,87.6v169H181V170L181,170z"/>
</g>
</svg>
